<svg width="50" height="50" viewBox="0 0 50 50" fill="none" xmlns="http://www.w3.org/2000/svg">
<circle cx="25" cy="25" r="25" fill="#E8E8E8"/>
<path d="M40 15.79L33.1 10L31.165 12.295L38.065 18.085L40 15.79ZM18.82 12.295L16.9 10L10 15.775L11.935 18.07L18.82 12.295ZM25.75 19.21H23.5V28.21L30.625 32.485L31.75 30.64L25.75 27.085V19.21ZM25 13.21C17.545 13.21 11.5 19.255 11.5 26.71C11.5 34.165 17.53 40.21 25 40.21C32.455 40.21 38.5 34.165 38.5 26.71C38.5 19.255 32.455 13.21 25 13.21ZM25 37.21C19.195 37.21 14.5 32.515 14.5 26.71C14.5 20.905 19.195 16.21 25 16.21C30.805 16.21 35.5 20.905 35.5 26.71C35.5 32.515 30.805 37.21 25 37.21Z" fill="black"/>
</svg>
