<svg width="84" height="48" viewBox="0 0 84 48" fill="none" xmlns="http://www.w3.org/2000/svg">
<ellipse cx="42" cy="24" rx="42" ry="24" fill="url(#paint0_radial)" fill-opacity="0.3"/>
<path d="M77.13 21.1345L77.08 26.3045L42.15 46.6045L42.21 41.4345L77.13 21.1345Z" fill="#8BB590"/>
<path d="M42.21 41.4345L42.15 46.6045L7 26.3045L7.02 24.4845L7.05 21.1345L42.21 41.4345Z" fill="#93C499"/>
<path d="M77.13 21.1345L77.08 26.3045L42.15 46.6045L42.21 41.2345L42.73 40.1445L74.91 21.6945L77.13 21.1345Z" fill="#9B7221"/>
<path d="M42.21 41.2345L42.15 46.6045L7 26.3045L7.02 24.4845L7.05 21.1345L11.58 21.8045L25.95 29.7345L42.21 41.2345Z" fill="#C69934"/>
<path d="M77.13 21.1345C77.13 21.7745 75.66 22.3445 75.21 22.6145C75.11 22.6645 75.02 22.7245 74.92 22.7645C74.7415 22.8022 74.5697 22.8663 74.41 22.9545C74.3182 23.0496 74.2214 23.1398 74.12 23.2245C73.56 23.5845 72.83 23.8745 72.23 24.2245C71.35 24.7245 70.33 25.1445 69.51 25.7145L67.35 27.2345C66.536 27.8542 65.6616 28.3903 64.74 28.8345C64.1627 29.0189 63.6286 29.3183 63.17 29.7145C63.0149 29.9112 62.8407 30.0921 62.65 30.2545C62.3812 30.3787 62.0995 30.4726 61.81 30.5345C61.3897 30.7523 60.9853 30.9995 60.6 31.2745C59.98 31.5945 59.29 31.6345 58.68 32.0145L57.09 33.0145C56.829 33.186 56.5548 33.3365 56.27 33.4645C56.01 33.5745 55.72 33.6245 55.46 33.7545C55.207 33.9158 54.9893 34.1268 54.82 34.3745C54.3975 34.7584 53.8592 34.9906 53.29 35.0345C53.1651 35.0465 53.0432 35.0804 52.93 35.1345C52.8133 35.2163 52.7117 35.3178 52.63 35.4345C51.9479 36.1732 51.1252 36.7682 50.21 37.1845C49.8718 37.3826 49.5037 37.5245 49.12 37.6045C48.9174 37.621 48.7184 37.6682 48.53 37.7445C48.05 37.9845 47.77 38.5045 47.3 38.7445C46.83 38.9845 46.24 39.4145 45.72 39.7445C45.3217 40.0037 44.8998 40.2246 44.46 40.4045C44.064 40.4688 43.6753 40.5727 43.3 40.7145C43.2076 40.7889 43.1267 40.8765 43.06 40.9745C42.9069 41.173 42.6917 41.3143 42.4487 41.376C42.2058 41.4376 41.9492 41.416 41.72 41.3145C40.9785 41.0844 40.2745 40.7475 39.63 40.3145C39.314 40.085 39.0195 39.8273 38.75 39.5445C38.47 39.2445 38.19 39.2645 37.81 39.2245C37.4343 39.1614 37.086 38.9872 36.81 38.7245C36.6197 38.5954 36.448 38.4406 36.3 38.2645C36.134 38.026 35.89 37.8527 35.61 37.7745C35.2842 37.6334 34.9756 37.4555 34.69 37.2445C34.6193 37.2039 34.5606 37.1453 34.52 37.0745C34.5299 37.0318 34.5299 36.9873 34.52 36.9445H34.43C33.7337 36.7412 33.0627 36.4594 32.43 36.1045C32.11 35.9245 31.79 35.7345 31.49 35.5245C31.2359 35.3899 31.0194 35.194 30.86 34.9545C30.8633 34.9313 30.8633 34.9078 30.86 34.8845C30.8305 34.8773 30.7996 34.8773 30.77 34.8845C30.56 34.8345 30.34 34.7845 30.13 34.7145C29.1228 34.2721 28.2096 33.6407 27.44 32.8545C27.3891 32.7976 27.3233 32.7561 27.25 32.7345C26.9111 32.6894 26.5766 32.6158 26.25 32.5145C25.8968 32.3873 25.5972 32.144 25.4 31.8245C25.34 31.7145 25.28 31.5745 25.16 31.5445C25.1105 31.5346 25.0595 31.5346 25.01 31.5445C24.7202 31.5108 24.4479 31.3886 24.23 31.1945C23.9349 30.9442 23.5958 30.7509 23.23 30.6245C23.05 30.6245 22.86 30.5545 22.68 30.5045C22.4793 30.4392 22.2878 30.3484 22.11 30.2345C21.8996 30.1188 21.7019 29.9814 21.52 29.8245C21.14 29.4945 20.88 28.8945 20.38 28.8245C19.0831 28.5564 17.9179 27.8502 17.08 26.8245C16.992 26.7156 16.8787 26.6298 16.75 26.5745C16.3148 26.483 15.887 26.3593 15.47 26.2045C15.29 26.1045 15.13 25.9545 14.96 25.8445C14.4165 25.6326 13.9102 25.3356 13.46 24.9645C13.3 24.7745 13.2 24.5345 12.98 24.4145C12.28 24.0045 11.36 24.1645 10.9 23.3445C10.4137 23.2828 9.93888 23.1515 9.49002 22.9545C9.27457 22.8709 9.07245 22.7564 8.89002 22.6145C8.64002 22.3945 8.46002 22.1445 8.19002 21.9445C8.00819 21.7999 7.81785 21.6664 7.62002 21.5445C7.52116 21.4771 7.41756 21.417 7.31002 21.3645L7.14002 21.2845C7.14002 21.2845 7.04002 21.1945 7.05002 21.1745C7.09586 21.0674 7.17704 20.9791 7.28002 20.9245C7.37421 20.8676 7.48033 20.8334 7.59002 20.8245C7.63991 20.8292 7.69013 20.8292 7.74002 20.8245C7.79227 20.8101 7.8381 20.7784 7.87002 20.7345C8.33979 20.1942 8.95373 19.7987 9.64002 19.5945C9.96002 19.4945 10.27 19.3545 10.58 19.2245C10.8099 19.1321 11.0337 19.0253 11.25 18.9045L11.94 18.5345C12.0999 18.4651 12.2457 18.3668 12.37 18.2445C12.4498 18.1119 12.5474 17.9908 12.66 17.8845L12.96 17.6545C13.1089 17.5544 13.2661 17.4674 13.43 17.3945C13.91 17.1645 14.43 16.9545 14.85 16.6845C15.3257 16.4385 15.8249 16.2408 16.34 16.0945C16.3978 16.065 16.4463 16.02 16.48 15.9645C16.5181 15.9353 16.5489 15.8977 16.57 15.8545C16.8238 15.4625 17.1585 15.1293 17.5518 14.8775C17.9451 14.6257 18.3878 14.461 18.85 14.3945C18.8649 14.3313 18.8936 14.2721 18.9341 14.2212C18.9746 14.1704 19.0258 14.1291 19.0842 14.1004C19.1425 14.0718 19.2064 14.0564 19.2714 14.0553C19.3364 14.0543 19.4008 14.0677 19.46 14.0945C19.57 13.7045 20.01 13.5245 20.39 13.3745C20.77 13.2245 20.92 13.2445 21.17 13.1245C21.4457 12.9874 21.6987 12.8087 21.92 12.5945C22.2734 12.2462 22.6584 11.9315 23.07 11.6545C23.5196 11.4431 23.9802 11.2561 24.45 11.0945C24.87 10.8945 25.25 10.6245 25.65 10.4045C26.0515 10.1458 26.5227 10.0166 27 10.0345C27.0618 10.0544 27.1282 10.0544 27.19 10.0345C27.2278 9.99913 27.2554 9.95424 27.27 9.90454C27.4428 9.45893 27.7373 9.07085 28.12 8.78454C28.31 8.64455 28.51 8.59454 28.7 8.47455C28.9393 8.3004 29.1634 8.10638 29.37 7.89454C30.2049 7.16433 31.1632 6.58868 32.2 6.19454C32.9015 6.03967 33.5758 5.7801 34.2 5.42454C34.5347 5.12713 34.8334 4.79151 35.09 4.42454C35.668 3.6298 36.5068 3.06346 37.46 2.82454C37.7475 2.77639 38.0386 2.75297 38.33 2.75454C38.5557 2.77152 38.7827 2.74781 39 2.68454C39.369 2.44292 39.723 2.1791 40.06 1.89454C40.5632 1.56373 41.0914 1.27284 41.64 1.02454C42.0928 0.95296 42.5563 1.03906 42.9532 1.26843C43.35 1.4978 43.656 1.85652 43.82 2.28454C44.0267 2.18777 44.2566 2.15144 44.4831 2.17975C44.7096 2.20806 44.9235 2.29986 45.1 2.44454C45.27 2.58454 45.39 2.77454 45.57 2.91454C45.7568 3.03806 45.963 3.12933 46.18 3.18454C47.7874 3.62122 49.2481 4.4811 50.41 5.67454C50.5084 5.82357 50.6471 5.9415 50.81 6.01454C50.9131 6.02427 51.0169 6.02427 51.12 6.01454C51.3363 6.04546 51.5413 6.13038 51.7161 6.26147C51.8909 6.39255 52.0298 6.56557 52.12 6.76454C52.1444 6.83726 52.1817 6.90501 52.23 6.96454C52.285 7.00128 52.3459 7.02834 52.41 7.04454C53.1054 7.22844 53.7767 7.4936 54.41 7.83454C54.7275 8.01023 55.0346 8.20387 55.33 8.41454C55.54 8.56454 55.76 8.91454 55.97 9.01454C56.0922 9.05792 56.2204 9.08154 56.35 9.08454C56.9808 9.20852 57.5818 9.45299 58.12 9.80454C58.3385 9.89498 58.5411 10.0199 58.72 10.1745C58.8858 10.387 59.0735 10.5814 59.28 10.7545C59.6319 10.9044 60.0016 11.0086 60.38 11.0645C60.6823 11.1873 60.9601 11.3634 61.2 11.5845L62.2 12.3945C62.302 12.4792 62.4126 12.5529 62.53 12.6145L62.79 12.6945C63.8322 12.9737 64.7705 13.5505 65.49 14.3545C65.5485 14.4164 65.6121 14.4732 65.68 14.5245C65.9 14.6745 66.17 14.6145 66.42 14.6745C66.7351 14.7804 67.0345 14.9285 67.31 15.1145C67.9442 15.4338 68.53 15.8412 69.05 16.3245L69.16 16.4345C69.2517 16.4592 69.3483 16.4592 69.44 16.4345C69.6282 16.4156 69.8174 16.4592 69.9783 16.5586C70.1392 16.6581 70.2628 16.8078 70.33 16.9845C70.341 17.0425 70.3649 17.0972 70.4 17.1445L70.48 17.1945L72.07 17.8445C72.6666 18.0215 73.1985 18.3691 73.6 18.8445C73.6752 18.9828 73.7587 19.1164 73.85 19.2445C73.9712 19.3766 74.113 19.4881 74.27 19.5745C74.751 19.9248 75.2797 20.2043 75.84 20.4045C76.15 20.5045 76.77 20.5545 77.04 20.8445C77.0737 20.8844 77.0989 20.9306 77.1144 20.9804C77.1299 21.0302 77.1352 21.0826 77.13 21.1345Z" fill="#FCE086"/>
<path d="M46.89 32.7645L46.8 32.6945L46.89 32.7645Z" fill="#C78984"/>
<path d="M68.3 26.5345C68.3 26.5345 68.33 26.5145 68.3 26.5345V26.5345Z" fill="#C78984"/>
<path d="M59.88 27.2345C59.88 27.2345 59.89 27.2245 59.88 27.2345V27.2345Z" fill="#AAE8C1"/>
<path d="M29.35 22.1845L29.26 22.1145L29.35 22.1845Z" fill="#C78984"/>
<path d="M42.34 16.6545C42.34 16.6545 42.35 16.6445 42.34 16.6545V16.6545Z" fill="#AAE8C1"/>
<path d="M27.48 10.0845C27.48 10.0845 27.5 10.0645 27.48 10.0845V10.0845Z" fill="#C78984"/>
<path opacity="0.6" d="M49.8101 21.8445C49.8101 22.1545 49.3701 22.4045 48.8101 22.4045C48.2501 22.4045 47.8101 22.1545 47.8101 21.8445C47.8101 21.5345 48.2501 21.2745 48.8101 21.2745C49.3701 21.2745 49.8101 21.5345 49.8101 21.8445Z" fill="#F7C548"/>
<path opacity="0.6" d="M44.72 23.4745C44.72 23.7845 44.28 24.0345 43.72 24.0345C43.16 24.0345 42.72 23.7845 42.72 23.4745C42.72 23.1645 43.16 22.9145 43.72 22.9145C44.28 22.9145 44.72 23.1645 44.72 23.4745Z" fill="#F7C548"/>
<path opacity="0.6" d="M54.7 19.2545C54.7 19.5645 54.26 19.8145 53.7 19.8145C53.14 19.8145 52.7 19.5645 52.7 19.2545C52.7 18.9445 53.14 18.6945 53.7 18.6945C54.26 18.6945 54.7 18.9645 54.7 19.2545Z" fill="#F7C548"/>
<path opacity="0.6" d="M49.36 18.1345C49.36 18.4445 48.92 18.6945 48.36 18.6945C47.8 18.6945 47.36 18.4445 47.36 18.1345C47.36 17.8245 47.8 17.5745 48.36 17.5745C48.92 17.5745 49.36 17.8245 49.36 18.1345Z" fill="#F7C548"/>
<path opacity="0.6" d="M45.83 19.8145C45.83 20.1245 45.39 20.3845 44.83 20.3845C44.27 20.3845 43.83 20.1245 43.83 19.8145C43.83 19.5045 44.27 19.2545 44.83 19.2545C45.39 19.2545 45.83 19.5045 45.83 19.8145Z" fill="#F7C548"/>
<path opacity="0.6" d="M56.15 22.4045C56.15 22.7145 55.71 22.9645 55.15 22.9645C54.59 22.9645 54.15 22.7145 54.15 22.4045C54.15 22.0945 54.59 21.8445 55.15 21.8445C55.71 21.8445 56.15 22.0945 56.15 22.4045Z" fill="#F7C548"/>
<path opacity="0.6" d="M50.79 25.5545C50.79 25.8645 50.35 26.1145 49.79 26.1145C49.23 26.1145 48.79 25.8645 48.79 25.5545C48.79 25.2445 49.23 24.9845 49.79 24.9845C50.35 24.9845 50.79 25.2345 50.79 25.5545Z" fill="#F7C548"/>
<path opacity="0.6" d="M60.87 23.5245C60.87 23.8345 60.43 24.0945 59.87 24.0945C59.31 24.0945 58.87 23.8345 58.87 23.5245C58.87 23.2145 59.31 22.9645 59.87 22.9645C60.43 22.9645 60.87 23.2145 60.87 23.5245Z" fill="#F7C548"/>
<path opacity="0.6" d="M55.6801 25.5545C55.6801 25.8645 55.2401 26.1145 54.6801 26.1145C54.1201 26.1145 53.6801 25.8645 53.6801 25.5545C53.6801 25.2445 54.1201 24.9845 54.6801 24.9845C55.2401 24.9845 55.6801 25.2345 55.6801 25.5545Z" fill="#F7C548"/>
<path opacity="0.6" d="M53.71 20.8845C53.71 21.1945 53.27 21.4445 52.71 21.4445C52.15 21.4445 51.71 21.1945 51.71 20.8845C51.71 20.5745 52.15 20.3245 52.71 20.3245C53.27 20.3245 53.71 20.5745 53.71 20.8845Z" fill="#F7C548"/>
<path opacity="0.6" d="M60.0601 25.9645C60.0601 26.2745 59.6201 26.5245 59.0601 26.5245C58.5001 26.5245 58.0601 26.2745 58.0601 25.9645C58.0601 25.6545 58.5001 25.4045 59.0601 25.4045C59.6201 25.4045 60.0601 25.6345 60.0601 25.9645Z" fill="#F7C548"/>
<path opacity="0.6" d="M59.62 29.2345C59.62 29.5445 59.18 29.7945 58.62 29.7945C58.06 29.7945 57.62 29.5445 57.62 29.2345C57.62 28.9245 58.06 28.6745 58.62 28.6745C59.18 28.6745 59.62 28.9645 59.62 29.2345Z" fill="#F7C548"/>
<path opacity="0.6" d="M56.9399 32.2245C56.9399 32.5345 56.4999 32.7845 55.9399 32.7845C55.3799 32.7845 54.9399 32.5345 54.9399 32.2245C54.9399 31.9145 55.3799 31.6545 55.9399 31.6545C56.4999 31.6545 56.9399 31.9045 56.9399 32.2245Z" fill="#F7C548"/>
<path opacity="0.6" d="M64.4301 26.1845C64.4301 26.4945 63.9901 26.7445 63.4301 26.7445C62.8701 26.7445 62.4301 26.4945 62.4301 26.1845C62.4301 25.8745 62.8701 25.6245 63.4301 25.6245C63.9901 25.6245 64.4301 25.8745 64.4301 26.1845Z" fill="#F7C548"/>
<path opacity="0.6" d="M54 28.0545C54 28.3645 53.56 28.6145 53 28.6145C52.44 28.6145 52 28.3645 52 28.0545C52 27.7445 52.44 27.4945 53 27.4945C53.56 27.4945 54 27.7445 54 28.0545Z" fill="#F7C548"/>
<path opacity="0.5" d="M50.61 19.3145C50.61 19.5345 50.3 19.7045 49.92 19.7045C49.54 19.7045 49.23 19.5345 49.23 19.3145C49.23 19.0945 49.54 18.9245 49.92 18.9245C50.3 18.9245 50.61 19.0945 50.61 19.3145Z" fill="#BA7D20"/>
<path opacity="0.5" d="M61.15 26.3545C61.15 26.5645 60.84 26.7445 60.46 26.7445C60.08 26.7445 59.77 26.5645 59.77 26.3545C59.77 26.1445 60.08 25.9545 60.46 25.9545C60.84 25.9545 61.15 26.1345 61.15 26.3545Z" fill="#BA7D20"/>
<path opacity="0.5" d="M64.72 28.2145C64.72 28.4245 64.41 28.6045 64.03 28.6045C63.65 28.6045 63.34 28.4245 63.34 28.2145C63.34 28.0045 63.65 27.8145 64.03 27.8145C64.41 27.8145 64.72 27.9645 64.72 28.2145Z" fill="#BA7D20"/>
<path opacity="0.5" d="M55.8101 27.4945C55.8101 27.7045 55.5001 27.8845 55.1201 27.8845C54.7401 27.8845 54.4301 27.7045 54.4301 27.4945C54.4301 27.2845 54.7401 27.0945 55.1201 27.0945C55.5001 27.0945 55.8101 27.2745 55.8101 27.4945Z" fill="#BA7D20"/>
<path opacity="0.5" d="M27.72 31.6045C27.72 31.8145 27.41 31.9945 27.03 31.9945C26.65 31.9945 26.34 31.8145 26.34 31.6045C26.34 31.3945 26.65 31.2045 27.03 31.2045C27.41 31.2045 27.72 31.3845 27.72 31.6045Z" fill="#BA7D20"/>
<path opacity="0.5" d="M46.76 23.3545C46.76 23.5745 46.45 23.7545 46.07 23.7545C45.69 23.7545 45.38 23.5745 45.38 23.3545C45.38 23.1345 45.69 22.9645 46.07 22.9645C46.45 22.9645 46.76 23.1445 46.76 23.3545Z" fill="#BA7D20"/>
<path opacity="0.5" d="M62.53 28.0545C62.53 28.2745 62.22 28.4445 61.84 28.4445C61.46 28.4445 61.15 28.2745 61.15 28.0545C61.15 27.8345 61.46 27.6645 61.84 27.6645C62.22 27.6645 62.53 27.8345 62.53 28.0545Z" fill="#BA7D20"/>
<path opacity="0.5" d="M51.48 24.0945C51.48 24.3045 51.17 24.4845 50.79 24.4845C50.41 24.4845 50.1 24.3045 50.1 24.0945C50.1 23.8845 50.41 23.6945 50.79 23.6945C51.17 23.6945 51.48 23.8745 51.48 24.0945Z" fill="#BA7D20"/>
<path opacity="0.69" d="M52 17.9645C52 18.1845 51.69 18.3545 51.31 18.3545C50.93 18.3545 50.62 18.1845 50.62 17.9645C50.62 17.7445 50.93 17.5745 51.31 17.5745C51.69 17.5745 52 17.7445 52 17.9645Z" fill="#FFFBDC"/>
<path opacity="0.69" d="M46.07 18.7445C46.4511 18.7445 46.76 18.5699 46.76 18.3545C46.76 18.1392 46.4511 17.9645 46.07 17.9645C45.6889 17.9645 45.38 18.1392 45.38 18.3545C45.38 18.5699 45.6889 18.7445 46.07 18.7445Z" fill="#FFFBDC"/>
<path opacity="0.69" d="M45.54 21.7345C45.54 21.9545 45.23 22.1345 44.85 22.1345C44.47 22.1345 44.16 21.9545 44.16 21.7345C44.16 21.5145 44.47 21.3445 44.85 21.3445C45.23 21.3445 45.54 21.5245 45.54 21.7345Z" fill="#FFFBDC"/>
<path opacity="0.69" d="M50.61 21.4445C50.61 21.6645 50.3 21.8445 49.92 21.8445C49.54 21.8445 49.23 21.6645 49.23 21.4445C49.23 21.2245 49.54 21.0545 49.92 21.0545C50.3 21.0545 50.61 21.2345 50.61 21.4445Z" fill="#FFFBDC"/>
<path opacity="0.69" d="M48.09 20.7245C48.09 20.9445 47.78 21.1145 47.4 21.1145C47.02 21.1145 46.71 20.9445 46.71 20.7245C46.71 20.5045 47.02 20.3245 47.4 20.3245C47.78 20.3245 48.09 20.5045 48.09 20.7245Z" fill="#FFFBDC"/>
<path opacity="0.69" d="M48.77 24.9645C48.77 25.1845 48.47 25.3645 48.09 25.3645C47.71 25.3645 47.4 25.1845 47.4 24.9645C47.4 24.7445 47.71 24.5745 48.09 24.5745C48.47 24.5745 48.77 24.7745 48.77 24.9645Z" fill="#FFFBDC"/>
<path opacity="0.69" d="M54 23.3545C54 23.5745 53.7 23.7545 53.32 23.7545C52.94 23.7545 52.63 23.5745 52.63 23.3545C52.63 23.1345 52.94 22.9645 53.32 22.9645C53.7 22.9645 54 23.1445 54 23.3545Z" fill="#FFFBDC"/>
<path opacity="0.69" d="M57.66 27.4945C57.66 27.7045 57.35 27.8845 56.97 27.8845C56.59 27.8845 56.28 27.7045 56.28 27.4945C56.28 27.2845 56.59 27.0945 56.97 27.0945C57.35 27.0945 57.66 27.2745 57.66 27.4945Z" fill="#FFFBDC"/>
<path opacity="0.69" d="M53.42 26.1145C53.42 26.3245 53.11 26.5045 52.73 26.5045C52.35 26.5045 52.04 26.3245 52.04 26.1145C52.04 25.9045 52.35 25.7145 52.73 25.7145C53.11 25.7145 53.42 25.8945 53.42 26.1145Z" fill="#FFFBDC"/>
<path opacity="0.69" d="M59 21.8445C59 22.0545 58.69 22.2345 58.31 22.2345C57.93 22.2345 57.63 22.0545 57.63 21.8445C57.63 21.6345 57.93 21.4445 58.31 21.4445C58.69 21.4445 59 21.6245 59 21.8445Z" fill="#FFFBDC"/>
<path opacity="0.69" d="M66.67 26.7445C66.67 26.9645 66.36 27.1345 65.98 27.1345C65.6 27.1345 65.3 26.9645 65.3 26.7445C65.3 26.5245 65.6 26.3545 65.98 26.3545C66.36 26.3545 66.67 26.5245 66.67 26.7445Z" fill="#FFFBDC"/>
<path opacity="0.69" d="M62.53 24.5945C62.53 24.8145 62.22 24.9845 61.84 24.9845C61.46 24.9845 61.15 24.8145 61.15 24.5945C61.15 24.3745 61.46 24.2045 61.84 24.2045C62.22 24.2045 62.53 24.3745 62.53 24.5945Z" fill="#FFFBDC"/>
<path opacity="0.69" d="M57.66 24.2045C57.66 24.4145 57.35 24.5945 56.97 24.5945C56.59 24.5945 56.28 24.4145 56.28 24.2045C56.28 23.9945 56.59 23.8045 56.97 23.8045C57.35 23.8045 57.66 23.9645 57.66 24.2045Z" fill="#FFFBDC"/>
<path opacity="0.69" d="M51.3 27.4945C51.3 27.7045 50.99 27.8845 50.61 27.8845C50.23 27.8845 49.92 27.7045 49.92 27.4945C49.92 27.2845 50.23 27.0945 50.61 27.0945C50.99 27.0945 51.3 27.2745 51.3 27.4945Z" fill="#FFFBDC"/>
<path opacity="0.69" d="M56.25 29.6245C56.25 29.8445 55.94 30.0245 55.56 30.0245C55.18 30.0245 54.87 29.8445 54.87 29.6245C54.87 29.4045 55.18 29.2345 55.56 29.2345C55.94 29.2345 56.25 29.4145 56.25 29.6245Z" fill="#FFFBDC"/>
<path opacity="0.69" d="M61.84 29.6245C61.84 29.8445 61.53 30.0245 61.15 30.0245C60.77 30.0245 60.46 29.8445 60.46 29.6245C60.46 29.4045 60.77 29.2345 61.15 29.2345C61.53 29.2345 61.84 29.4145 61.84 29.6245Z" fill="#FFFBDC"/>
<path opacity="0.69" d="M60.3101 30.6445C60.3101 30.8645 60.0001 31.0345 59.6201 31.0345C59.2401 31.0345 58.9301 30.8645 58.9301 30.6445C58.9301 30.4245 59.2401 30.2545 59.6201 30.2545C60.0001 30.2545 60.3101 30.4245 60.3101 30.6445Z" fill="#FFFBDC"/>
<path opacity="0.69" d="M55.86 20.4945C55.86 20.7045 55.55 20.8845 55.17 20.8845C54.79 20.8845 54.48 20.7045 54.48 20.4945C54.48 20.2845 54.79 20.0945 55.17 20.0945C55.55 20.0945 55.86 20.2745 55.86 20.4945Z" fill="#FFFBDC"/>
<path opacity="0.69" d="M49.92 16.9645C49.92 17.1745 49.61 17.3545 49.23 17.3545C48.85 17.3545 48.55 17.1745 48.55 16.9645C48.55 16.7545 48.85 16.5645 49.23 16.5645C49.61 16.5645 49.92 16.7345 49.92 16.9645Z" fill="#FFFBDC"/>
<path opacity="0.5" d="M58.34 20.8845C58.34 21.1045 58.04 21.2745 57.66 21.2745C57.28 21.2745 56.97 21.1045 56.97 20.8845C56.97 20.6645 57.28 20.4945 57.66 20.4945C58.04 20.4945 58.34 20.6645 58.34 20.8845Z" fill="#BA7D20"/>
<path opacity="0.5" d="M57.85 31.0345C57.85 31.2545 57.54 31.4345 57.16 31.4345C56.78 31.4345 56.47 31.2545 56.47 31.0345C56.47 30.8145 56.78 30.6445 57.16 30.6445C57.54 30.6445 57.85 30.8245 57.85 31.0345Z" fill="#BA7D20"/>
<path opacity="0.5" d="M54.4 29.8545C54.4 30.0745 54.09 30.2545 53.71 30.2545C53.33 30.2545 53.03 30.0745 53.03 29.8545C53.03 29.6345 53.33 29.4645 53.71 29.4645C54.09 29.4645 54.4 29.6345 54.4 29.8545Z" fill="#BA7D20"/>
<path opacity="0.6" d="M52.49 13.6845C52.49 13.9945 52.05 14.2445 51.49 14.2445C50.93 14.2445 50.49 13.9945 50.49 13.6845C50.49 13.3745 50.93 13.1245 51.49 13.1245C52.05 13.1245 52.49 13.3745 52.49 13.6845Z" fill="#F7C548"/>
<path opacity="0.6" d="M57.38 11.0945C57.38 11.4045 56.94 11.6645 56.38 11.6645C55.82 11.6645 55.38 11.4045 55.38 11.0945C55.38 10.7845 55.82 10.5345 56.38 10.5345C56.94 10.5345 57.38 10.7845 57.38 11.0945Z" fill="#F7C548"/>
<path opacity="0.6" d="M52.05 9.96455C52.05 10.2745 51.61 10.5245 51.05 10.5245C50.49 10.5245 50.05 10.2745 50.05 9.96455C50.05 9.65455 50.49 9.40454 51.05 9.40454C51.61 9.40454 52.05 9.66455 52.05 9.96455Z" fill="#F7C548"/>
<path opacity="0.6" d="M51.0601 6.65454C51.0601 6.96454 50.6201 7.21454 50.0601 7.21454C49.5001 7.21454 49.0601 6.96454 49.0601 6.65454C49.0601 6.34454 49.5001 6.09454 50.0601 6.09454C50.6201 6.09454 51.0601 6.34454 51.0601 6.65454Z" fill="#F7C548"/>
<path opacity="0.6" d="M58.83 14.2445C58.83 14.5545 58.39 14.8045 57.83 14.8045C57.27 14.8045 56.83 14.5545 56.83 14.2445C56.83 13.9345 57.27 13.6845 57.83 13.6845C58.39 13.6845 58.83 13.9645 58.83 14.2445Z" fill="#F7C548"/>
<path opacity="0.6" d="M68.1 20.2845C68.1 20.6045 67.66 20.8545 67.1 20.8545C66.54 20.8545 66.1 20.6045 66.1 20.2845C66.1 19.9645 66.54 19.7245 67.1 19.7245C67.66 19.7245 68.1 19.9645 68.1 20.2845Z" fill="#F7C548"/>
<path opacity="0.6" d="M63.5601 15.3645C63.5601 15.6845 63.1201 15.9345 62.5601 15.9345C62.0001 15.9345 61.5601 15.6845 61.5601 15.3645C61.5601 15.0445 62.0001 14.8045 62.5601 14.8045C63.1201 14.8045 63.5601 15.0545 63.5601 15.3645Z" fill="#F7C548"/>
<path opacity="0.6" d="M58.36 17.3945C58.36 17.7045 57.92 17.9545 57.36 17.9545C56.8 17.9545 56.36 17.7045 56.36 17.3945C56.36 17.0845 56.8 16.8345 57.36 16.8345C57.92 16.8345 58.36 17.0845 58.36 17.3945Z" fill="#F7C548"/>
<path opacity="0.6" d="M56.4 12.7245C56.4 13.0345 55.96 13.2845 55.4 13.2845C54.84 13.2845 54.4 13.0345 54.4 12.7245C54.4 12.4145 54.84 12.1645 55.4 12.1645C55.96 12.1645 56.4 12.4145 56.4 12.7245Z" fill="#F7C548"/>
<path opacity="0.6" d="M62.74 17.7845C62.74 18.0945 62.3 18.3445 61.74 18.3445C61.18 18.3445 60.74 18.0945 60.74 17.7845C60.74 17.4745 61.18 17.2245 61.74 17.2245C62.3 17.2245 62.74 17.4745 62.74 17.7845Z" fill="#F7C548"/>
<path opacity="0.6" d="M62.3 21.0745C62.3 21.3845 61.86 21.6445 61.3 21.6445C60.74 21.6445 60.3 21.3845 60.3 21.0745C60.3 20.7645 60.74 20.5145 61.3 20.5145C61.86 20.5145 62.3 20.7645 62.3 21.0745Z" fill="#F7C548"/>
<path opacity="0.6" d="M67.11 18.0245C67.11 18.3345 66.67 18.5845 66.11 18.5845C65.55 18.5845 65.11 18.3345 65.11 18.0245C65.11 17.7145 65.55 17.4645 66.11 17.4645C66.67 17.4645 67.11 17.7145 67.11 18.0245Z" fill="#F7C548"/>
<path opacity="0.6" d="M66.65 16.3145C67.1913 16.3145 67.63 16.0638 67.63 15.7545C67.63 15.4453 67.1913 15.1945 66.65 15.1945C66.1088 15.1945 65.67 15.4453 65.67 15.7545C65.67 16.0638 66.1088 16.3145 66.65 16.3145Z" fill="#F7C548"/>
<path opacity="0.6" d="M73.73 20.8545C73.73 21.1645 73.29 21.4145 72.73 21.4145C72.17 21.4145 71.73 21.1645 71.73 20.8545C71.73 20.5445 72.17 20.2845 72.73 20.2845C73.29 20.2845 73.73 20.5445 73.73 20.8545Z" fill="#F7C548"/>
<path opacity="0.6" d="M67.11 22.1645C67.11 22.4745 66.67 22.7245 66.11 22.7245C65.55 22.7245 65.11 22.4745 65.11 22.1645C65.11 21.8545 65.55 21.5945 66.11 21.5945C66.67 21.5945 67.11 21.8545 67.11 22.1645Z" fill="#F7C548"/>
<path opacity="0.5" d="M53.29 11.1545C53.29 11.3745 52.98 11.5445 52.6 11.5445C52.22 11.5445 51.91 11.3745 51.91 11.1545C51.91 10.9345 52.22 10.7645 52.6 10.7645C52.98 10.7645 53.29 10.9645 53.29 11.1545Z" fill="#BA7D20"/>
<path opacity="0.5" d="M63.83 18.1945C63.83 18.4145 63.5199 18.5845 63.1399 18.5845C62.7599 18.5845 62.45 18.4145 62.45 18.1945C62.45 17.9745 62.7599 17.7945 63.1399 17.7945C63.5199 17.7945 63.83 17.9645 63.83 18.1945Z" fill="#BA7D20"/>
<path opacity="0.5" d="M58.49 19.3345C58.49 19.5545 58.18 19.7245 57.8 19.7245C57.42 19.7245 57.11 19.5545 57.11 19.3345C57.11 19.1145 57.42 18.9445 57.8 18.9445C58.18 18.9445 58.49 19.1145 58.49 19.3345Z" fill="#BA7D20"/>
<path opacity="0.5" d="M71.37 19.5045C71.37 19.7145 71.06 19.8945 70.68 19.8945C70.3 19.8945 70 19.7145 70 19.5045C70 19.2945 70.3 19.1045 70.68 19.1045C71.06 19.1045 71.37 19.2845 71.37 19.5045Z" fill="#BA7D20"/>
<path opacity="0.5" d="M71.76 22.7245C71.76 22.9445 71.45 23.1145 71.07 23.1145C70.69 23.1145 70.38 22.9445 70.38 22.7245C70.38 22.5045 70.69 22.3245 71.07 22.3245C71.45 22.3245 71.76 22.5045 71.76 22.7245Z" fill="#BA7D20"/>
<path opacity="0.5" d="M65.21 19.8945C65.21 20.1145 64.9 20.2845 64.52 20.2845C64.14 20.2845 63.83 20.1145 63.83 19.8945C63.83 19.6745 64.14 19.5045 64.52 19.5045C64.9 19.5045 65.21 19.6745 65.21 19.8945Z" fill="#BA7D20"/>
<path opacity="0.5" d="M54.16 15.9645C54.16 16.1745 53.85 16.3545 53.47 16.3545C53.09 16.3545 52.78 16.1745 52.78 15.9645C52.78 15.7545 53.09 15.5645 53.47 15.5645C53.85 15.5645 54.16 15.7145 54.16 15.9645Z" fill="#BA7D20"/>
<path opacity="0.69" d="M54.68 9.80454C54.68 10.0245 54.3701 10.1945 53.9901 10.1945C53.6101 10.1945 53.3 10.0245 53.3 9.80454C53.3 9.58454 53.6101 9.41454 53.9901 9.41454C54.3701 9.41454 54.68 9.58454 54.68 9.80454Z" fill="#FFFBDC"/>
<path opacity="0.69" d="M50.58 8.23454C50.58 8.44454 50.2699 8.62454 49.8899 8.62454C49.5099 8.62454 49.2 8.44454 49.2 8.23454C49.2 8.02454 49.5099 7.83454 49.8899 7.83454C50.2699 7.83454 50.58 8.01454 50.58 8.23454Z" fill="#FFFBDC"/>
<path opacity="0.69" d="M53.29 13.2845C53.29 13.5045 52.98 13.6845 52.6 13.6845C52.22 13.6845 51.91 13.5045 51.91 13.2845C51.91 13.0645 52.22 12.8945 52.6 12.8945C52.98 12.8945 53.29 13.0745 53.29 13.2845Z" fill="#FFFBDC"/>
<path opacity="0.69" d="M51.27 11.9645C51.27 12.1745 50.96 12.3545 50.58 12.3545C50.2 12.3545 49.89 12.1745 49.89 11.9645C49.89 11.7545 50.2 11.5645 50.58 11.5645C50.96 11.5645 51.27 11.7245 51.27 11.9645Z" fill="#FFFBDC"/>
<path opacity="0.69" d="M73.6899 23.1145C73.6899 23.3345 73.3899 23.5145 73.0099 23.5145C72.6299 23.5145 72.3199 23.3345 72.3199 23.1145C72.3199 22.8945 72.6299 22.7245 73.0099 22.7245C73.3899 22.7245 73.6899 22.8945 73.6899 23.1145Z" fill="#FFFBDC"/>
<path opacity="0.69" d="M56.65 15.2045C56.65 15.4145 56.34 15.5945 55.96 15.5945C55.58 15.5945 55.27 15.4145 55.27 15.2045C55.27 14.9945 55.58 14.8045 55.96 14.8045C56.34 14.8045 56.65 14.9645 56.65 15.2045Z" fill="#FFFBDC"/>
<path opacity="0.69" d="M60.34 19.3345C60.34 19.5545 60.03 19.7245 59.65 19.7245C59.27 19.7245 58.96 19.5545 58.96 19.3345C58.96 19.1145 59.27 18.9445 59.65 18.9445C60.03 18.9445 60.34 19.1145 60.34 19.3345Z" fill="#FFFBDC"/>
<path opacity="0.69" d="M56.1 17.9645C56.1 18.1845 55.79 18.3545 55.41 18.3545C55.03 18.3545 54.72 18.1845 54.72 17.9645C54.72 17.7445 55.03 17.5745 55.41 17.5745C55.79 17.5745 56.1 17.7345 56.1 17.9645Z" fill="#FFFBDC"/>
<path opacity="0.69" d="M61.71 13.6845C61.71 13.9045 61.41 14.0745 61.03 14.0745C60.65 14.0745 60.34 13.9045 60.34 13.6845C60.34 13.4645 60.64 13.2845 61.03 13.2845C61.42 13.2845 61.71 13.4645 61.71 13.6845Z" fill="#FFFBDC"/>
<path opacity="0.69" d="M69 17.0545C69 17.2645 68.7 17.4445 68.32 17.4445C67.94 17.4445 67.63 17.2645 67.63 17.0545C67.63 16.8445 67.94 16.6545 68.32 16.6545C68.7 16.6545 69 16.8345 69 17.0545Z" fill="#FFFBDC"/>
<path opacity="0.69" d="M69.35 18.5845C69.35 18.8045 69.05 18.9845 68.66 18.9845C68.27 18.9845 67.98 18.8045 67.98 18.5845C67.98 18.3645 68.28 18.1945 68.66 18.1945C69.04 18.1945 69.35 18.3645 69.35 18.5845Z" fill="#FFFBDC"/>
<path opacity="0.69" d="M65.21 16.4345C65.21 16.6545 64.9 16.8345 64.52 16.8345C64.14 16.8345 63.83 16.6545 63.83 16.4345C63.83 16.2145 64.14 16.0445 64.52 16.0445C64.9 16.0445 65.21 16.2145 65.21 16.4345Z" fill="#FFFBDC"/>
<path opacity="0.69" d="M60.34 16.0445C60.34 16.2645 60.03 16.4345 59.65 16.4345C59.27 16.4345 59 16.2645 59 16.0445C59 15.8245 59.31 15.6445 59.69 15.6445C60.07 15.6445 60.34 15.8245 60.34 16.0445Z" fill="#FFFBDC"/>
<path opacity="0.69" d="M70.6801 21.0745C70.6801 21.2945 70.3801 21.4745 70.0001 21.4745C69.6201 21.4745 69.3101 21.2945 69.3101 21.0745C69.3101 20.8545 69.6201 20.6845 70.0001 20.6845C70.3801 20.6845 70.6801 20.8645 70.6801 21.0745Z" fill="#FFFBDC"/>
<path opacity="0.69" d="M68.79 22.7245C68.79 22.9445 68.48 23.1145 68.1 23.1145C67.72 23.1145 67.41 22.9445 67.41 22.7245C67.41 22.5045 67.72 22.3245 68.1 22.3245C68.48 22.3245 68.79 22.5045 68.79 22.7245Z" fill="#FFFBDC"/>
<path opacity="0.69" d="M64.52 21.4745C64.52 21.6845 64.21 21.8645 63.83 21.8645C63.45 21.8645 63.14 21.6845 63.14 21.4745C63.14 21.2645 63.45 21.0745 63.83 21.0745C64.21 21.0745 64.52 21.2545 64.52 21.4745Z" fill="#FFFBDC"/>
<path opacity="0.69" d="M58.54 12.3345C58.54 12.5545 58.23 12.7245 57.85 12.7245C57.47 12.7245 57.16 12.5545 57.16 12.3345C57.16 12.1145 57.47 11.9445 57.85 11.9445C58.23 11.9445 58.54 12.1145 58.54 12.3345Z" fill="#FFFBDC"/>
<path opacity="0.6" d="M49.4 9.82454C49.4 10.1345 48.96 10.3845 48.4 10.3845C47.84 10.3845 47.4 10.1345 47.4 9.82454C47.4 9.51454 47.84 9.26455 48.4 9.26455C48.96 9.26455 49.4 9.51454 49.4 9.82454Z" fill="#F7C548"/>
<path opacity="0.6" d="M48.42 11.4545C48.42 11.7645 47.98 12.0145 47.42 12.0145C46.86 12.0145 46.42 11.7645 46.42 11.4545C46.42 11.1445 46.86 10.8945 47.42 10.8945C47.98 10.8945 48.42 11.1445 48.42 11.4545Z" fill="#F7C548"/>
<path opacity="0.69" d="M46.7 8.53454C46.7 8.75454 46.39 8.92454 46.01 8.92454C45.63 8.92454 45.33 8.75454 45.33 8.53454C45.33 8.31454 45.63 8.13454 46.01 8.13454C46.39 8.13454 46.7 8.31454 46.7 8.53454Z" fill="#FFFBDC"/>
<path opacity="0.69" d="M49.92 13.0245C49.92 13.2445 49.61 13.4145 49.23 13.4145C48.85 13.4145 48.55 13.2445 48.55 13.0245C48.55 12.8045 48.85 12.6345 49.23 12.6345C49.61 12.6345 49.92 12.8045 49.92 13.0245Z" fill="#FFFBDC"/>
<path opacity="0.69" d="M52.91 8.39455C52.91 8.61455 52.6 8.79455 52.22 8.79455C51.84 8.79455 51.54 8.61455 51.54 8.39455C51.54 8.17455 51.84 8.00455 52.22 8.00455C52.6 8.00455 52.91 8.18455 52.91 8.39455Z" fill="#FFFBDC"/>
<path opacity="0.5" d="M61 12.7245C61 12.9445 60.69 13.1245 60.31 13.1245C59.93 13.1245 59.62 12.9445 59.62 12.7245C59.62 12.5045 59.93 12.3345 60.31 12.3345C60.69 12.3345 61 12.5145 61 12.7245Z" fill="#BA7D20"/>
<path opacity="0.5" d="M64.24 14.1745C64.24 14.3945 63.94 14.5645 63.56 14.5645C63.18 14.5645 62.87 14.3945 62.87 14.1745C62.87 13.9545 63.18 13.7845 63.56 13.7845C63.94 13.7845 64.24 13.9645 64.24 14.1745Z" fill="#BA7D20"/>
<path opacity="0.6" d="M45.5601 9.96455C45.5601 10.2745 45.1201 10.5245 44.5601 10.5245C44.0001 10.5245 43.5601 10.2745 43.5601 9.96455C43.5601 9.65455 44.0001 9.40454 44.5601 9.40454C45.1201 9.40454 45.5601 9.66455 45.5601 9.96455Z" fill="#F7C548"/>
<path opacity="0.6" d="M38.39 5.54454C38.39 5.85454 37.95 6.11454 37.39 6.11454C36.83 6.11454 36.39 5.85454 36.39 5.54454C36.39 5.23454 36.83 4.98454 37.39 4.98454C37.95 4.98454 38.39 5.23454 38.39 5.54454Z" fill="#F7C548"/>
<path opacity="0.6" d="M43.12 6.67455C43.12 6.98455 42.68 7.23455 42.12 7.23455C41.56 7.23455 41.12 6.98455 41.12 6.67455C41.12 6.36455 41.56 6.11455 42.12 6.11455C42.68 6.11455 43.12 6.36455 43.12 6.67455Z" fill="#F7C548"/>
<path opacity="0.6" d="M47.1899 7.06454C47.1899 7.37454 46.7499 7.62454 46.1899 7.62454C45.6299 7.62454 45.1899 7.37454 45.1899 7.06454C45.1899 6.75454 45.6299 6.49454 46.1899 6.49454C46.7499 6.49454 47.1899 6.75454 47.1899 7.06454Z" fill="#F7C548"/>
<path opacity="0.6" d="M46.8101 5.54454C46.8101 5.85454 46.3701 6.11454 45.8101 6.11454C45.2501 6.11454 44.8101 5.85454 44.8101 5.54454C44.8101 5.23454 45.2501 4.98454 45.8101 4.98454C46.3701 4.98454 46.8101 5.23454 46.8101 5.54454Z" fill="#F7C548"/>
<path opacity="0.6" d="M43.05 2.50454C43.05 2.81454 42.61 3.06454 42.05 3.06454C41.49 3.06454 41.05 2.81454 41.05 2.50454C41.05 2.19454 41.49 1.94454 42.05 1.94454C42.61 1.94454 43.05 2.19454 43.05 2.50454Z" fill="#F7C548"/>
<path opacity="0.69" d="M41.27 4.96455C41.27 5.18455 40.96 5.35455 40.58 5.35455C40.2 5.35455 39.9 5.20455 39.9 4.96455C39.9 4.72455 40.2 4.57455 40.58 4.57455C40.96 4.57455 41.27 4.76455 41.27 4.96455Z" fill="#FFFBDC"/>
<path opacity="0.69" d="M44.77 7.73454C44.77 7.95454 44.46 8.13454 44.08 8.13454C43.7 8.13454 43.39 7.95454 43.39 7.73454C43.39 7.51454 43.7 7.34454 44.08 7.34454C44.46 7.34454 44.77 7.52454 44.77 7.73454Z" fill="#FFFBDC"/>
<path opacity="0.69" d="M39.9 7.34454C39.9 7.56454 39.59 7.73454 39.21 7.73454C38.83 7.73454 38.52 7.56454 38.52 7.34454C38.52 7.12454 38.83 6.95454 39.21 6.95454C39.59 6.95454 39.9 7.12454 39.9 7.34454Z" fill="#FFFBDC"/>
<path opacity="0.69" d="M38.1 3.63455C38.1 3.85455 37.79 4.03454 37.41 4.03454C37.03 4.03454 36.72 3.85455 36.72 3.63455C36.72 3.41455 37.03 3.24454 37.41 3.24454C37.79 3.24454 38.1 3.41455 38.1 3.63455Z" fill="#FFFBDC"/>
<path opacity="0.69" d="M43.89 4.03454C43.89 4.24454 43.58 4.42454 43.2 4.42454C42.82 4.42454 42.51 4.24454 42.51 4.03454C42.51 3.82454 42.82 3.63454 43.2 3.63454C43.58 3.63454 43.89 3.81454 43.89 4.03454Z" fill="#FFFBDC"/>
<path opacity="0.5" d="M40.58 4.03454C40.58 4.24454 40.28 4.42454 39.9 4.42454C39.52 4.42454 39.21 4.24454 39.21 4.03454C39.21 3.82454 39.52 3.63454 39.9 3.63454C40.28 3.63454 40.58 3.81454 40.58 4.03454Z" fill="#BA7D20"/>
<path opacity="0.5" d="M43.8001 5.47454C43.8001 5.69454 43.5001 5.87454 43.1201 5.87454C42.7401 5.87454 42.4301 5.69454 42.4301 5.47454C42.4301 5.25454 42.7401 5.08454 43.1201 5.08454C43.5001 5.08454 43.8001 5.26454 43.8001 5.47454Z" fill="#BA7D20"/>
<path opacity="0.5" d="M76.12 21.1745C76.12 21.3945 75.81 21.5645 75.43 21.5645C75.05 21.5645 74.74 21.3945 74.74 21.1745C74.74 20.9545 75.05 20.7845 75.43 20.7845C75.81 20.7845 76.12 20.9645 76.12 21.1745Z" fill="#BA7D20"/>
<path opacity="0.6" d="M17 21.3445C17 21.6545 16.56 21.9045 16 21.9045C15.44 21.9045 15 21.6545 15 21.3445C15 21.0345 15.44 20.7845 16 20.7845C16.56 20.7845 17 21.0345 17 21.3445Z" fill="#F7C548"/>
<path opacity="0.6" d="M21.84 18.7545C21.84 19.0645 21.4 19.3245 20.84 19.3245C20.28 19.3245 19.84 19.0645 19.84 18.7545C19.84 18.4445 20.28 18.1945 20.84 18.1945C21.4 18.1945 21.84 18.4445 21.84 18.7545Z" fill="#F7C548"/>
<path opacity="0.6" d="M16.5 17.6345C16.5 17.9445 16.06 18.1945 15.5 18.1945C14.94 18.1945 14.5 17.9445 14.5 17.6345C14.5 17.3245 14.94 17.0745 15.5 17.0745C16.06 17.0745 16.5 17.3245 16.5 17.6345Z" fill="#F7C548"/>
<path opacity="0.6" d="M13 19.3245C13 19.6345 12.56 19.8845 12 19.8845C11.44 19.8845 11 19.6345 11 19.3245C11 19.0145 11.44 18.7545 12 18.7545C12.56 18.7545 13 19.0145 13 19.3245Z" fill="#F7C548"/>
<path opacity="0.6" d="M23.29 21.9045C23.29 22.2145 22.85 22.4645 22.29 22.4645C21.73 22.4645 21.29 22.2145 21.29 21.9045C21.29 21.5945 21.73 21.3445 22.29 21.3445C22.85 21.3445 23.29 21.5945 23.29 21.9045Z" fill="#F7C548"/>
<path opacity="0.6" d="M17.9301 25.0545C17.9301 25.3645 17.4901 25.6145 16.9301 25.6145C16.3701 25.6145 15.9301 25.3645 15.9301 25.0545C15.9301 24.7445 16.3701 24.4945 16.9301 24.4945C17.4901 24.4945 17.9301 24.7445 17.9301 25.0545Z" fill="#F7C548"/>
<path opacity="0.6" d="M28 23.0345C28 23.3445 27.56 23.5945 27 23.5945C26.44 23.5945 26 23.3445 26 23.0345C26 22.7245 26.44 22.4645 27 22.4645C27.56 22.4645 28 22.7245 28 23.0345Z" fill="#F7C548"/>
<path opacity="0.6" d="M22.8199 25.0545C22.8199 25.3645 22.3799 25.6145 21.8199 25.6145C21.2599 25.6145 20.8199 25.3645 20.8199 25.0545C20.8199 24.7445 21.2599 24.4945 21.8199 24.4945C22.3799 24.4945 22.8199 24.7445 22.8199 25.0545Z" fill="#F7C548"/>
<path opacity="0.6" d="M20.85 20.3845C20.85 20.6945 20.41 20.9545 19.85 20.9545C19.29 20.9545 18.85 20.6945 18.85 20.3845C18.85 20.0745 19.29 19.8245 19.85 19.8245C20.41 19.8245 20.85 20.0745 20.85 20.3845Z" fill="#F7C548"/>
<path opacity="0.6" d="M16.5 23.2545C16.5 23.5645 16.06 23.8145 15.5 23.8145C14.94 23.8145 14.5 23.5645 14.5 23.2545C14.5 22.9445 14.94 22.6945 15.5 22.6945C16.06 22.6945 16.5 22.9645 16.5 23.2545Z" fill="#F7C548"/>
<path opacity="0.6" d="M20.83 14.9045C20.83 15.2145 20.39 15.4645 19.83 15.4645C19.27 15.4645 18.83 15.2145 18.83 14.9045C18.83 14.5945 19.27 14.3445 19.83 14.3445C20.39 14.3445 20.83 14.5945 20.83 14.9045Z" fill="#F7C548"/>
<path opacity="0.6" d="M27.2 25.4445C27.2 25.7545 26.76 26.0045 26.2 26.0045C25.64 26.0045 25.2 25.7545 25.2 25.4445C25.2 25.1345 25.64 24.8845 26.2 24.8845C26.76 24.8845 27.2 25.1345 27.2 25.4445Z" fill="#F7C548"/>
<path opacity="0.6" d="M26.76 28.7345C26.76 29.0445 26.32 29.3045 25.76 29.3045C25.2 29.3045 24.76 29.0445 24.76 28.7345C24.76 28.4245 25.2 28.1745 25.76 28.1745C26.32 28.1745 26.76 28.4245 26.76 28.7345Z" fill="#F7C548"/>
<path opacity="0.6" d="M31.5699 25.6845C31.5699 25.9945 31.1299 26.2445 30.5699 26.2445C30.0099 26.2445 29.5699 25.9945 29.5699 25.6845C29.5699 25.3745 30.0099 25.1245 30.5699 25.1245C31.1299 25.1245 31.5699 25.3745 31.5699 25.6845Z" fill="#F7C548"/>
<path opacity="0.6" d="M21.1 27.5545C21.1 27.8645 20.66 28.1145 20.1 28.1145C19.54 28.1145 19.1 27.8645 19.1 27.5545C19.1 27.2445 19.54 26.9945 20.1 26.9945C20.66 26.9945 21.1 27.2445 21.1 27.5545Z" fill="#F7C548"/>
<path opacity="0.5" d="M17.75 18.8145C17.75 19.0345 17.44 19.2145 17.06 19.2145C16.68 19.2145 16.37 19.0345 16.37 18.8145C16.37 18.5945 16.68 18.4245 17.06 18.4245C17.44 18.4245 17.75 18.5945 17.75 18.8145Z" fill="#BA7D20"/>
<path opacity="0.5" d="M15.23 19.3745C15.23 19.5945 14.92 19.7645 14.54 19.7645C14.16 19.7645 13.85 19.5945 13.85 19.3745C13.85 19.1545 14.16 18.9745 14.54 18.9745C14.92 18.9745 15.23 19.1545 15.23 19.3745Z" fill="#BA7D20"/>
<path opacity="0.5" d="M10 21.9645C10 22.1745 9.69 22.3545 9.31 22.3545C8.93 22.3545 8.63 22.1745 8.63 21.9645C8.63 21.7545 8.93 21.5645 9.31 21.5645C9.69 21.5645 10 21.7445 10 21.9645Z" fill="#BA7D20"/>
<path opacity="0.5" d="M28.29 25.8545C28.29 26.0745 27.98 26.2445 27.6 26.2445C27.22 26.2445 26.91 26.0745 26.91 25.8545C26.91 25.6345 27.22 25.4545 27.6 25.4545C27.98 25.4545 28.29 25.6345 28.29 25.8545Z" fill="#BA7D20"/>
<path opacity="0.5" d="M23 26.9645C23 27.1845 22.69 27.3545 22.31 27.3545C21.93 27.3545 21.62 27.1845 21.62 26.9645C21.62 26.7445 21.93 26.5745 22.31 26.5745C22.69 26.5745 23 26.7745 23 26.9645Z" fill="#BA7D20"/>
<path opacity="0.5" d="M13.9 22.8645C13.9 23.0745 13.59 23.2545 13.21 23.2545C12.83 23.2545 12.52 23.0745 12.52 22.8645C12.52 22.6545 12.83 22.4645 13.21 22.4645C13.59 22.4645 13.9 22.6445 13.9 22.8645Z" fill="#BA7D20"/>
<path opacity="0.5" d="M29.67 27.5545C29.67 27.7745 29.36 27.9545 28.98 27.9545C28.6 27.9545 28.29 27.7745 28.29 27.5545C28.29 27.3345 28.6 27.1645 28.98 27.1645C29.36 27.1645 29.67 27.3345 29.67 27.5545Z" fill="#BA7D20"/>
<path opacity="0.5" d="M25 30.0845C25 30.2945 24.7 30.4745 24.32 30.4745C23.94 30.4745 23.63 30.2945 23.63 30.0845C23.63 29.8745 23.94 29.6845 24.32 29.6845C24.7 29.6845 25 29.8645 25 30.0845Z" fill="#BA7D20"/>
<path opacity="0.5" d="M18.62 23.5945C18.62 23.8145 18.31 23.9845 17.93 23.9845C17.55 23.9845 17.24 23.8145 17.24 23.5945C17.24 23.3745 17.55 23.1945 17.93 23.1945C18.31 23.1945 18.62 23.3745 18.62 23.5945Z" fill="#BA7D20"/>
<path opacity="0.69" d="M19.14 17.4645C19.14 17.6845 18.83 17.8645 18.45 17.8645C18.07 17.8645 17.76 17.6845 17.76 17.4645C17.76 17.2445 18.07 17.0745 18.45 17.0745C18.83 17.0745 19.14 17.2445 19.14 17.4645Z" fill="#FFFBDC"/>
<path opacity="0.69" d="M13.9 17.8645C13.9 18.0745 13.59 18.2545 13.21 18.2545C12.83 18.2545 12.52 18.0745 12.52 17.8645C12.52 17.6545 12.83 17.4645 13.21 17.4645C13.59 17.4645 13.9 17.6445 13.9 17.8645Z" fill="#FFFBDC"/>
<path opacity="0.69" d="M17.75 20.9645C17.75 21.1745 17.44 21.3545 17.06 21.3545C16.68 21.3545 16.37 21.1745 16.37 20.9645C16.37 20.7545 16.68 20.5645 17.06 20.5645C17.44 20.5645 17.75 20.7345 17.75 20.9645Z" fill="#FFFBDC"/>
<path opacity="0.69" d="M14.59 21.4745C14.59 21.6845 14.28 21.8645 13.9 21.8645C13.52 21.8645 13.21 21.6845 13.21 21.4745C13.21 21.2645 13.52 21.0745 13.9 21.0745C14.28 21.0745 14.59 21.2545 14.59 21.4745Z" fill="#FFFBDC"/>
<path opacity="0.69" d="M15.91 24.4945C15.91 24.7045 15.61 24.8845 15.23 24.8845C14.85 24.8845 14.54 24.7045 14.54 24.4945C14.54 24.2845 14.85 24.0945 15.23 24.0945C15.61 24.0945 15.91 24.2745 15.91 24.4945Z" fill="#FFFBDC"/>
<path opacity="0.69" d="M21.1 22.8645C21.1 23.0745 20.79 23.2545 20.41 23.2545C20.03 23.2545 19.73 23.0745 19.73 22.8645C19.73 22.6545 20.03 22.4645 20.41 22.4645C20.79 22.4645 21.1 22.6445 21.1 22.8645Z" fill="#FFFBDC"/>
<path opacity="0.69" d="M24.79 26.9645C24.79 27.1845 24.49 27.3545 24.11 27.3545C23.73 27.3545 23.42 27.1845 23.42 26.9645C23.42 26.7445 23.73 26.5745 24.11 26.5745C24.49 26.5745 24.79 26.7745 24.79 26.9645Z" fill="#FFFBDC"/>
<path opacity="0.69" d="M20.5601 25.6145C20.5601 25.8345 20.2501 26.0045 19.8701 26.0045C19.4901 26.0045 19.1801 25.8345 19.1801 25.6145C19.1801 25.3945 19.4901 25.2245 19.8701 25.2245C20.2501 25.2245 20.5601 25.3945 20.5601 25.6145Z" fill="#FFFBDC"/>
<path opacity="0.69" d="M26.17 21.3445C26.17 21.5645 25.86 21.7345 25.48 21.7345C25.1 21.7345 24.79 21.5645 24.79 21.3445C24.79 21.1245 25.1 20.9545 25.48 20.9545C25.86 20.9545 26.17 21.1245 26.17 21.3445Z" fill="#FFFBDC"/>
<path opacity="0.69" d="M33.8101 26.2445C33.8101 26.4645 33.5001 26.6445 33.1201 26.6445C32.7401 26.6445 32.4301 26.4645 32.4301 26.2445C32.4301 26.0245 32.7401 25.8545 33.1201 25.8545C33.5001 25.8545 33.8101 26.0245 33.8101 26.2445Z" fill="#FFFBDC"/>
<path opacity="0.69" d="M29.67 24.0945C29.67 24.3145 29.36 24.4945 28.98 24.4945C28.6 24.4945 28.29 24.3145 28.29 24.0945C28.29 23.8745 28.6 23.7045 28.98 23.7045C29.36 23.7045 29.67 23.8745 29.67 24.0945Z" fill="#FFFBDC"/>
<path opacity="0.69" d="M24.79 23.7045C24.79 23.9245 24.49 24.0945 24.11 24.0945C23.73 24.0945 23.42 23.9245 23.42 23.7045C23.42 23.4845 23.73 23.3045 24.11 23.3045C24.49 23.3045 24.79 23.4845 24.79 23.7045Z" fill="#FFFBDC"/>
<path opacity="0.69" d="M18.4401 26.9645C18.4401 27.1845 18.1301 27.3545 17.7501 27.3545C17.3701 27.3545 17.0601 27.1845 17.0601 26.9645C17.0601 26.7445 17.3701 26.5745 17.7501 26.5745C18.1301 26.5745 18.4401 26.7745 18.4401 26.9645Z" fill="#FFFBDC"/>
<path opacity="0.69" d="M23.39 29.1345C23.39 29.3445 23.08 29.5245 22.7 29.5245C22.32 29.5245 22.01 29.3445 22.01 29.1345C22.01 28.9245 22.32 28.7345 22.7 28.7345C23.08 28.7345 23.39 28.9645 23.39 29.1345Z" fill="#FFFBDC"/>
<path opacity="0.69" d="M29 29.1345C29 29.3445 28.69 29.5245 28.31 29.5245C27.93 29.5245 27.62 29.3445 27.62 29.1345C27.62 28.9245 27.93 28.7345 28.31 28.7345C28.69 28.7345 29 28.9645 29 29.1345Z" fill="#FFFBDC"/>
<path opacity="0.69" d="M23 19.9645C23 20.1845 22.69 20.3545 22.31 20.3545C21.93 20.3545 21.62 20.1845 21.62 19.9645C21.62 19.7445 21.93 19.5745 22.31 19.5745C22.69 19.5745 23 19.7745 23 19.9645Z" fill="#FFFBDC"/>
<path opacity="0.69" d="M17.0601 16.4545C17.0601 16.6745 16.7501 16.8445 16.3701 16.8445C15.9901 16.8445 15.6801 16.6745 15.6801 16.4545C15.6801 16.2345 15.9901 16.0545 16.3701 16.0545C16.7501 16.0545 17.0601 16.2345 17.0601 16.4545Z" fill="#FFFBDC"/>
<path opacity="0.6" d="M12.5699 21.8045C12.5699 22.1145 12.1299 22.3645 11.5699 22.3645C11.0099 22.3645 10.5699 22.1145 10.5699 21.8045C10.5699 21.4945 11.0099 21.2445 11.5699 21.2445C12.1299 21.2445 12.5699 21.4945 12.5699 21.8045Z" fill="#F7C548"/>
<path opacity="0.69" d="M10.65 20.4945C10.65 20.7045 10.34 20.8845 9.96002 20.8845C9.58002 20.8845 9.27002 20.7045 9.27002 20.4945C9.27002 20.2845 9.58002 20.0945 9.96002 20.0945C10.34 20.0945 10.65 20.2745 10.65 20.4945Z" fill="#FFFBDC"/>
<path opacity="0.69" d="M13.12 20.6245C13.12 20.8345 12.82 21.0145 12.44 21.0145C12.06 21.0145 11.75 20.8345 11.75 20.6245C11.75 20.4145 12.06 20.2245 12.44 20.2245C12.82 20.2245 13.12 20.4045 13.12 20.6245Z" fill="#FFFBDC"/>
<path opacity="0.5" d="M25.48 20.3845C25.48 20.6045 25.17 20.7845 24.79 20.7845C24.41 20.7845 24.11 20.6045 24.11 20.3845C24.11 20.1645 24.41 19.9945 24.79 19.9945C25.17 19.9945 25.48 20.1745 25.48 20.3845Z" fill="#BA7D20"/>
<path opacity="0.6" d="M33.3199 10.3945C33.3199 10.7045 32.8799 10.9545 32.3199 10.9545C31.7599 10.9545 31.3199 10.7045 31.3199 10.3945C31.3199 10.0845 31.7599 9.83455 32.3199 9.83455C32.8799 9.83455 33.3199 10.0845 33.3199 10.3945Z" fill="#F7C548"/>
<path opacity="0.6" d="M38.21 7.81455C38.21 8.12455 37.77 8.37455 37.21 8.37455C36.65 8.37455 36.21 8.12455 36.21 7.81455C36.21 7.50455 36.65 7.25455 37.21 7.25455C37.77 7.25455 38.21 7.50455 38.21 7.81455Z" fill="#F7C548"/>
<path opacity="0.6" d="M52.05 16.4545C52.05 16.7645 51.61 17.0145 51.05 17.0145C50.49 17.0145 50.05 16.7645 50.05 16.4545C50.05 16.1445 50.49 15.8945 51.05 15.8945C51.61 15.8945 52.05 16.1445 52.05 16.4545Z" fill="#F7C548"/>
<path opacity="0.6" d="M32 8.65454C32 8.96454 31.56 9.21454 31 9.21454C30.44 9.21454 30 8.96454 30 8.65454C30 8.34454 30.44 8.09454 31 8.09454C31.56 8.09454 32 8.34454 32 8.65454Z" fill="#F7C548"/>
<path opacity="0.6" d="M39.66 10.9645C39.66 11.2745 39.22 11.5345 38.66 11.5345C38.1 11.5345 37.66 11.2745 37.66 10.9645C37.66 10.6545 38.1 10.4045 38.66 10.4045C39.22 10.4045 39.66 10.6445 39.66 10.9645Z" fill="#F7C548"/>
<path opacity="0.6" d="M34.3 14.1045C34.3 14.4145 33.86 14.6645 33.3 14.6645C32.74 14.6645 32.3 14.4145 32.3 14.1045C32.3 13.7945 32.74 13.5445 33.3 13.5445C33.86 13.5445 34.3 13.7945 34.3 14.1045Z" fill="#F7C548"/>
<path opacity="0.6" d="M34.51 17.7845C34.51 18.0945 34.07 18.3445 33.51 18.3445C32.95 18.3445 32.51 18.0945 32.51 17.7845C32.51 17.4745 32.95 17.2245 33.51 17.2245C34.07 17.2245 34.51 17.4745 34.51 17.7845Z" fill="#F7C548"/>
<path opacity="0.6" d="M28.89 17.0745C28.89 17.3845 28.45 17.6345 27.89 17.6345C27.33 17.6345 26.89 17.3845 26.89 17.0745C26.89 16.7645 27.33 16.5145 27.89 16.5145C28.45 16.5145 28.89 16.7645 28.89 17.0745Z" fill="#F7C548"/>
<path opacity="0.6" d="M44.39 12.0845C44.39 12.3945 43.95 12.6445 43.39 12.6445C42.83 12.6445 42.39 12.3945 42.39 12.0845C42.39 11.7745 42.83 11.5245 43.39 11.5245C43.95 11.5245 44.39 11.7745 44.39 12.0845Z" fill="#F7C548"/>
<path opacity="0.6" d="M39.1899 14.1045C39.1899 14.4145 38.7499 14.6645 38.1899 14.6645C37.6299 14.6645 37.1899 14.4145 37.1899 14.1045C37.1899 13.7945 37.6299 13.5445 38.1899 13.5445C38.7499 13.5445 39.1899 13.7945 39.1899 14.1045Z" fill="#F7C548"/>
<path opacity="0.6" d="M37.22 9.44454C37.22 9.75454 36.78 10.0045 36.22 10.0045C35.66 10.0045 35.22 9.75454 35.22 9.44454C35.22 9.13454 35.66 8.87454 36.22 8.87454C36.78 8.87454 37.22 9.13454 37.22 9.44454Z" fill="#F7C548"/>
<path opacity="0.6" d="M43.5699 14.4945C43.5699 14.8145 43.1299 15.0645 42.5699 15.0645C42.0099 15.0645 41.5699 14.8145 41.5699 14.4945C41.5699 14.1745 42.0099 13.9345 42.5699 13.9345C43.1299 13.9345 43.5699 14.1845 43.5699 14.4945Z" fill="#F7C548"/>
<path opacity="0.6" d="M43.13 17.7945C43.13 18.1045 42.69 18.3545 42.13 18.3545C41.57 18.3545 41.13 18.1045 41.13 17.7945C41.13 17.4845 41.57 17.2245 42.13 17.2245C42.69 17.2245 43.13 17.4845 43.13 17.7945Z" fill="#F7C548"/>
<path opacity="0.6" d="M47.9399 14.7345C47.9399 15.0445 47.4999 15.3045 46.9399 15.3045C46.3799 15.3045 45.9399 15.0445 45.9399 14.7345C45.9399 14.4245 46.3799 14.1745 46.9399 14.1745C47.4999 14.1745 47.9399 14.4245 47.9399 14.7345Z" fill="#F7C548"/>
<path opacity="0.6" d="M37.47 16.6045C37.47 16.9245 37.03 17.1745 36.47 17.1745C35.91 17.1745 35.47 16.9245 35.47 16.6045C35.47 16.2845 35.91 16.0445 36.47 16.0445C37.03 16.0445 37.47 16.2945 37.47 16.6045Z" fill="#F7C548"/>
<path opacity="0.6" d="M47.4399 25.9645C47.4399 26.2745 46.9999 26.5245 46.4399 26.5245C45.8799 26.5245 45.4399 26.2745 45.4399 25.9645C45.4399 25.6545 45.8799 25.4045 46.4399 25.4045C46.9999 25.4045 47.4399 25.6445 47.4399 25.9645Z" fill="#F7C548"/>
<path opacity="0.5" d="M34.12 7.86455C34.12 8.08455 33.81 8.26455 33.43 8.26455C33.05 8.26455 32.74 8.08455 32.74 7.86455C32.74 7.64455 33.05 7.47455 33.43 7.47455C33.81 7.47455 34.12 7.65455 34.12 7.86455Z" fill="#BA7D20"/>
<path opacity="0.5" d="M44.66 14.9045C44.66 15.1245 44.35 15.3045 43.97 15.3045C43.59 15.3045 43.28 15.1245 43.28 14.9045C43.28 14.6845 43.59 14.5145 43.97 14.5145C44.35 14.5145 44.66 14.6845 44.66 14.9045Z" fill="#BA7D20"/>
<path opacity="0.5" d="M39.3199 16.0445C39.3199 16.2645 39.0099 16.4445 38.6299 16.4445C38.2499 16.4445 37.9399 16.2645 37.9399 16.0445C37.9399 15.8245 38.2499 15.6545 38.6299 15.6545C39.0099 15.6545 39.3199 15.8345 39.3199 16.0445Z" fill="#BA7D20"/>
<path opacity="0.5" d="M30.27 11.9645C30.27 12.1845 29.96 12.3545 29.58 12.3545C29.2 12.3545 28.89 12.1845 28.89 11.9645C28.89 11.7445 29.2 11.5745 29.58 11.5745C29.96 11.5745 30.27 11.6945 30.27 11.9645Z" fill="#BA7D20"/>
<path opacity="0.5" d="M46 16.6045C46 16.8245 45.69 17.0045 45.31 17.0045C44.93 17.0045 44.62 16.8245 44.62 16.6045C44.62 16.3845 44.93 16.2145 45.31 16.2145C45.69 16.2145 46 16.3945 46 16.6045Z" fill="#BA7D20"/>
<path opacity="0.5" d="M35 12.6445C35 12.8645 34.69 13.0345 34.31 13.0345C33.93 13.0345 33.62 12.8645 33.62 12.6445C33.62 12.4245 33.93 12.2545 34.31 12.2545C34.69 12.2545 35 12.4245 35 12.6445Z" fill="#BA7D20"/>
<path opacity="0.5" d="M36 18.6945C36 18.9145 35.69 19.0845 35.31 19.0845C34.93 19.0845 34.62 18.9145 34.62 18.6945C34.62 18.4745 34.93 18.3045 35.31 18.3045C35.69 18.3045 36 18.4745 36 18.6945Z" fill="#BA7D20"/>
<path opacity="0.69" d="M35.51 6.51454C35.51 6.73454 35.2 6.91454 34.82 6.91454C34.44 6.91454 34.13 6.73454 34.13 6.51454C34.13 6.29454 34.44 6.12454 34.82 6.12454C35.2 6.12454 35.51 6.30454 35.51 6.51454Z" fill="#FFFBDC"/>
<path opacity="0.69" d="M48.63 4.96455C48.63 5.18455 48.32 5.35455 47.94 5.35455C47.56 5.35455 47.26 5.18455 47.26 4.96455C47.26 4.74455 47.56 4.57455 47.94 4.57455C48.32 4.57455 48.63 4.76455 48.63 4.96455Z" fill="#FFFBDC"/>
<path opacity="0.6" d="M68.61 23.9645C68.61 24.2745 68.17 24.5345 67.61 24.5345C67.05 24.5345 66.61 24.2745 66.61 23.9645C66.61 23.6545 67.05 23.4045 67.61 23.4045C68.17 23.4045 68.61 23.6345 68.61 23.9645Z" fill="#F7C548"/>
<path opacity="0.6" d="M63.4399 22.4645C63.4399 22.7745 62.9999 23.0345 62.4399 23.0345C61.8799 23.0345 61.4399 22.7745 61.4399 22.4645C61.4399 22.1545 61.8799 21.9045 62.4399 21.9045C62.9999 21.9045 63.4399 22.1545 63.4399 22.4645Z" fill="#F7C548"/>
<path opacity="0.6" d="M66.65 26.1345C67.1913 26.1345 67.63 25.8838 67.63 25.5745C67.63 25.2653 67.1913 25.0145 66.65 25.0145C66.1088 25.0145 65.67 25.2653 65.67 25.5745C65.67 25.8838 66.1088 26.1345 66.65 26.1345Z" fill="#F7C548"/>
<path opacity="0.5" d="M64.52 23.9645C64.52 24.1845 64.22 24.3545 63.84 24.3545C63.46 24.3545 63.15 24.1845 63.15 23.9645C63.15 23.7445 63.46 23.5745 63.84 23.5745C64.22 23.5745 64.52 23.7845 64.52 23.9645Z" fill="#BA7D20"/>
<path opacity="0.5" d="M70.6801 24.5145C70.6801 24.7245 70.3801 24.9045 70.0001 24.9045C69.6201 24.9045 69.3101 24.7245 69.3101 24.5145C69.3101 24.3045 69.6201 24.1145 70.0001 24.1145C70.3801 24.1145 70.6801 24.2945 70.6801 24.5145Z" fill="#BA7D20"/>
<path opacity="0.69" d="M65.22 23.0445C65.6011 23.0445 65.91 22.8699 65.91 22.6545C65.91 22.4392 65.6011 22.2645 65.22 22.2645C64.839 22.2645 64.53 22.4392 64.53 22.6545C64.53 22.8699 64.839 23.0445 65.22 23.0445Z" fill="#FFFBDC"/>
<path opacity="0.69" d="M28.7 10.8345C28.7 11.0545 28.39 11.2345 28.01 11.2345C27.63 11.2345 27.33 11.0545 27.33 10.8345C27.33 10.6145 27.63 10.4445 28.01 10.4445C28.39 10.4445 28.7 10.6145 28.7 10.8345Z" fill="#FFFBDC"/>
<path opacity="0.69" d="M34.12 9.96454C34.12 10.1845 33.81 10.3545 33.43 10.3545C33.05 10.3545 32.74 10.1845 32.74 9.96454C32.74 9.74454 33.05 9.56454 33.43 9.56454C33.81 9.56454 34.12 9.78454 34.12 9.96454Z" fill="#FFFBDC"/>
<path opacity="0.69" d="M30.72 9.96454C30.72 10.1845 30.41 10.3545 30.03 10.3545C29.65 10.3545 29.34 10.1845 29.34 9.96454C29.34 9.74454 29.65 9.56454 30.03 9.56454C30.41 9.56454 30.72 9.78454 30.72 9.96454Z" fill="#FFFBDC"/>
<path opacity="0.6" d="M42.0601 21.9645C42.0601 22.2745 41.6201 22.5245 41.0601 22.5245C40.5001 22.5245 40.0601 22.2745 40.0601 21.9645C40.0601 21.6545 40.5001 21.3945 41.0601 21.3945C41.6201 21.3945 42.0601 21.6545 42.0601 21.9645Z" fill="#F7C548"/>
<path opacity="0.6" d="M37.08 33.3045C37.08 33.6145 36.64 33.8645 36.08 33.8645C35.52 33.8645 35.08 33.6145 35.08 33.3045C35.08 32.9945 35.52 32.7445 36.08 32.7445C36.64 32.7445 37.08 32.9645 37.08 33.3045Z" fill="#F7C548"/>
<path opacity="0.6" d="M40.74 20.2145C40.74 20.5245 40.3 20.7845 39.74 20.7845C39.18 20.7845 38.74 20.5245 38.74 20.2145C38.74 19.9045 39.18 19.6545 39.74 19.6545C40.3 19.6545 40.74 19.9045 40.74 20.2145Z" fill="#F7C548"/>
<path opacity="0.5" d="M42.87 19.4345C42.87 19.6545 42.56 19.8245 42.18 19.8245C41.8 19.8245 41.49 19.6545 41.49 19.4345C41.49 19.2145 41.8 19.0445 42.18 19.0445C42.56 19.0445 42.87 19.2145 42.87 19.4345Z" fill="#BA7D20"/>
<path opacity="0.69" d="M42.87 21.5645C42.87 21.7845 42.56 21.9645 42.18 21.9645C41.8 21.9645 41.49 21.7845 41.49 21.5645C41.49 21.3445 41.8 21.1745 42.18 21.1745C42.56 21.1745 42.87 21.3545 42.87 21.5645Z" fill="#FFFBDC"/>
<path opacity="0.69" d="M39.47 21.5645C39.47 21.7845 39.16 21.9645 38.78 21.9645C38.4 21.9645 38.09 21.7845 38.09 21.5645C38.09 21.3445 38.4 21.1745 38.78 21.1745C39.16 21.1745 39.47 21.3545 39.47 21.5645Z" fill="#FFFBDC"/>
<path opacity="0.6" d="M29.88 21.3945C29.88 21.7045 29.44 21.9545 28.88 21.9545C28.32 21.9545 27.88 21.7045 27.88 21.3945C27.88 21.0845 28.32 20.8345 28.88 20.8345C29.44 20.8345 29.88 21.0845 29.88 21.3945Z" fill="#F7C548"/>
<path opacity="0.6" d="M28.55 19.6545C28.55 19.9645 28.11 20.2145 27.55 20.2145C26.99 20.2145 26.55 19.9645 26.55 19.6545C26.55 19.3445 26.99 19.0945 27.55 19.0945C28.11 19.0945 28.55 19.3445 28.55 19.6545Z" fill="#F7C548"/>
<path opacity="0.5" d="M37.83 20.0945C37.83 20.3145 37.5199 20.4945 37.1399 20.4945C36.7599 20.4945 36.45 20.3145 36.45 20.0945C36.45 19.8745 36.7599 19.7045 37.1399 19.7045C37.5199 19.7045 37.83 19.8845 37.83 20.0945Z" fill="#BA7D20"/>
<path opacity="0.69" d="M30.68 20.9645C30.68 21.1845 30.37 21.3545 29.99 21.3545C29.61 21.3545 29.3 21.1845 29.3 20.9645C29.3 20.7445 29.61 20.5745 29.99 20.5745C30.37 20.5745 30.68 20.7845 30.68 20.9645Z" fill="#FFFBDC"/>
<path opacity="0.69" d="M30 22.9645C30 23.1845 29.69 23.3545 29.31 23.3545C28.93 23.3545 28.62 23.1845 28.62 22.9645C28.62 22.7445 28.93 22.5745 29.31 22.5745C29.69 22.5745 30 22.6945 30 22.9645Z" fill="#FFFBDC"/>
<path opacity="0.69" d="M32.29 13.5445C32.29 13.7645 31.98 13.9345 31.6 13.9345C31.22 13.9345 30.91 13.7645 30.91 13.5445C30.91 13.3245 31.22 13.1545 31.6 13.1545C31.98 13.1545 32.29 13.3245 32.29 13.5445Z" fill="#FFFBDC"/>
<path opacity="0.69" d="M37.47 11.9645C37.47 12.1845 37.17 12.3545 36.79 12.3545C36.41 12.3545 36.1 12.1845 36.1 11.9645C36.1 11.7445 36.41 11.5745 36.79 11.5745C37.17 11.5745 37.47 11.6945 37.47 11.9645Z" fill="#FFFBDC"/>
<path opacity="0.69" d="M41.17 16.0445C41.17 16.2645 40.86 16.4445 40.48 16.4445C40.1 16.4445 39.79 16.2645 39.79 16.0445C39.79 15.8245 40.1 15.6545 40.48 15.6545C40.86 15.6545 41.17 15.8345 41.17 16.0445Z" fill="#FFFBDC"/>
<path opacity="0.69" d="M36.93 14.6645C36.93 14.8845 36.62 15.0645 36.24 15.0645C35.86 15.0645 35.55 14.8845 35.55 14.6645C35.55 14.4445 35.86 14.2745 36.24 14.2745C36.62 14.2745 36.93 14.4545 36.93 14.6645Z" fill="#FFFBDC"/>
<path opacity="0.69" d="M42.54 10.3945C42.54 10.6145 42.23 10.7945 41.85 10.7945C41.47 10.7945 41.17 10.6145 41.17 10.3945C41.17 10.1745 41.47 10.0045 41.85 10.0045C42.23 10.0045 42.54 10.1745 42.54 10.3945Z" fill="#FFFBDC"/>
<path opacity="0.69" d="M50.1801 15.3045C50.1801 15.5145 49.8701 15.6945 49.4901 15.6945C49.1101 15.6945 48.8101 15.5145 48.8101 15.3045C48.8101 15.0945 49.1101 14.9045 49.4901 14.9045C49.8701 14.9045 50.1801 15.0845 50.1801 15.3045Z" fill="#FFFBDC"/>
<path opacity="0.69" d="M46 13.1545C46 13.3645 45.69 13.5445 45.31 13.5445C44.93 13.5445 44.62 13.3645 44.62 13.1545C44.62 12.9445 44.93 12.7545 45.31 12.7545C45.69 12.7545 46 12.9645 46 13.1545Z" fill="#FFFBDC"/>
<path opacity="0.69" d="M41.17 12.7545C41.17 12.9745 40.86 13.1545 40.48 13.1545C40.1 13.1545 39.79 12.9745 39.79 12.7545C39.79 12.5345 40.1 12.3645 40.48 12.3645C40.86 12.3645 41.17 12.5345 41.17 12.7545Z" fill="#FFFBDC"/>
<path opacity="0.69" d="M34.8101 16.0445C34.8101 16.2645 34.5001 16.4445 34.1201 16.4445C33.7401 16.4445 33.4301 16.2645 33.4301 16.0445C33.4301 15.8245 33.7401 15.6545 34.1201 15.6545C34.5001 15.6545 34.8101 15.8345 34.8101 16.0445Z" fill="#FFFBDC"/>
<path opacity="0.69" d="M39.76 18.1845C39.76 18.4045 39.45 18.5745 39.07 18.5745C38.69 18.5745 38.38 18.4045 38.38 18.1845C38.38 17.9645 38.69 17.7945 39.07 17.7945C39.45 17.7945 39.76 17.9645 39.76 18.1845Z" fill="#FFFBDC"/>
<path opacity="0.69" d="M44.57 17.9645C44.57 18.1845 44.2699 18.3545 43.8899 18.3545C43.5099 18.3545 43.2 18.1845 43.2 17.9645C43.2 17.7445 43.5099 17.5745 43.8899 17.5745C44.2699 17.5745 44.57 17.7345 44.57 17.9645Z" fill="#FFFBDC"/>
<path opacity="0.69" d="M43.73 16.3245C43.73 16.5445 43.43 16.7145 43.05 16.7145C42.67 16.7145 42.36 16.5445 42.36 16.3245C42.36 16.1045 42.67 15.9345 43.05 15.9345C43.43 15.9345 43.73 16.1045 43.73 16.3245Z" fill="#FFFBDC"/>
<path opacity="0.69" d="M39.37 9.04454C39.37 9.26454 39.06 9.44454 38.68 9.44454C38.3 9.44454 38 9.26454 38 9.04454C38 8.82454 38.31 8.65454 38.69 8.65454C39.07 8.65454 39.37 8.83454 39.37 9.04454Z" fill="#FFFBDC"/>
<path opacity="0.69" d="M32.43 12.4445C32.8111 12.4445 33.12 12.2699 33.12 12.0545C33.12 11.8392 32.8111 11.6645 32.43 11.6645C32.0489 11.6645 31.74 11.8392 31.74 12.0545C31.74 12.2699 32.0489 12.4445 32.43 12.4445Z" fill="#FFFBDC"/>
<path opacity="0.69" d="M32.4301 16.1145C32.4301 16.3345 32.1301 16.5045 31.7501 16.5045C31.3701 16.5045 31.0601 16.3345 31.0601 16.1145C31.0601 15.8945 31.3701 15.7245 31.7501 15.7245C32.1301 15.7245 32.4301 15.8945 32.4301 16.1145Z" fill="#FFFBDC"/>
<path opacity="0.6" d="M24.46 15.5545C24.46 15.8645 24.02 16.1145 23.46 16.1145C22.9 16.1145 22.46 15.8645 22.46 15.5545C22.46 15.2445 22.9 14.9945 23.46 14.9945C24.02 14.9945 24.46 15.2445 24.46 15.5545Z" fill="#F7C548"/>
<path opacity="0.6" d="M23.13 13.8045C23.13 14.1145 22.69 14.3745 22.13 14.3745C21.57 14.3745 21.13 14.1145 21.13 13.8045C21.13 13.4945 21.57 13.2445 22.13 13.2445C22.69 13.2445 23.13 13.4945 23.13 13.8045Z" fill="#F7C548"/>
<path opacity="0.6" d="M28.37 14.5945C28.37 14.9045 27.93 15.1545 27.37 15.1545C26.81 15.1545 26.37 14.9045 26.37 14.5945C26.37 14.2845 26.81 14.0345 27.37 14.0345C27.93 14.0345 28.37 14.2845 28.37 14.5945Z" fill="#F7C548"/>
<path opacity="0.5" d="M25.26 13.0245C25.26 13.2445 24.96 13.4145 24.58 13.4145C24.2 13.4145 23.89 13.2445 23.89 13.0245C23.89 12.8045 24.2 12.6345 24.58 12.6345C24.96 12.6345 25.26 12.8045 25.26 13.0245Z" fill="#BA7D20"/>
<path opacity="0.5" d="M30.35 13.5445C30.35 13.7645 30.05 13.9345 29.67 13.9345C29.29 13.9345 29 13.7645 29 13.5445C29 13.3245 29.31 13.1545 29.69 13.1545C30.07 13.1545 30.35 13.3245 30.35 13.5445Z" fill="#BA7D20"/>
<path opacity="0.5" d="M21.41 17.0745C21.41 17.2845 21.1 17.4645 20.72 17.4645C20.34 17.4645 20.04 17.2845 20.04 17.0745C20.04 16.8645 20.34 16.6745 20.72 16.6745C21.1 16.6745 21.41 16.8545 21.41 17.0745Z" fill="#BA7D20"/>
<path opacity="0.5" d="M26.13 17.8045C26.13 18.0145 25.82 18.1945 25.44 18.1945C25.06 18.1945 24.76 18.0145 24.76 17.8045C24.76 17.5945 25.06 17.4045 25.44 17.4045C25.82 17.4045 26.13 17.5845 26.13 17.8045Z" fill="#BA7D20"/>
<path opacity="0.69" d="M25.96 12.0645C26.3411 12.0645 26.65 11.8899 26.65 11.6745C26.65 11.4592 26.3411 11.2845 25.96 11.2845C25.5789 11.2845 25.27 11.4592 25.27 11.6745C25.27 11.8899 25.5789 12.0645 25.96 12.0645Z" fill="#FFFBDC"/>
<path opacity="0.69" d="M30.72 15.5345C30.72 15.7545 30.41 15.9345 30.03 15.9345C29.65 15.9345 29.34 15.7545 29.34 15.5345C29.34 15.3145 29.65 15.1445 30.03 15.1445C30.41 15.1445 30.72 15.3245 30.72 15.5345Z" fill="#FFFBDC"/>
<path opacity="0.69" d="M19.84 15.9645C19.84 16.1745 19.54 16.3545 19.16 16.3545C18.78 16.3545 18.47 16.1745 18.47 15.9645C18.47 15.7545 18.78 15.5645 19.16 15.5645C19.54 15.5645 19.84 15.7745 19.84 15.9645Z" fill="#FFFBDC"/>
<path opacity="0.69" d="M25.26 15.1545C25.26 15.3745 24.96 15.5545 24.58 15.5545C24.2 15.5545 23.89 15.3745 23.89 15.1545C23.89 14.9345 24.2 14.7645 24.58 14.7645C24.96 14.7645 25.26 14.9645 25.26 15.1545Z" fill="#FFFBDC"/>
<path opacity="0.69" d="M21.86 15.1545C21.86 15.3745 21.55 15.5545 21.17 15.5545C20.79 15.5545 20.49 15.3745 20.49 15.1545C20.49 14.9345 20.79 14.7645 21.17 14.7645C21.55 14.7645 21.86 14.9645 21.86 15.1545Z" fill="#FFFBDC"/>
<path opacity="0.69" d="M24.27 17.2145C24.27 17.4245 23.96 17.6045 23.58 17.6045C23.2 17.6045 22.89 17.4245 22.89 17.2145C22.89 17.0045 23.2 16.8145 23.58 16.8145C23.96 16.8145 24.27 16.9645 24.27 17.2145Z" fill="#FFFBDC"/>
<path opacity="0.5" d="M41.85 9.44454C41.85 9.65454 41.55 9.83454 41.17 9.83454C40.79 9.83454 40.48 9.65454 40.48 9.44454C40.48 9.23454 40.79 9.04454 41.17 9.04454C41.55 9.04454 41.85 9.22454 41.85 9.44454Z" fill="#BA7D20"/>
<path opacity="0.5" d="M45.91 4.03454C45.91 4.24454 45.6 4.42454 45.22 4.42454C44.84 4.42454 44.53 4.24454 44.53 4.03454C44.53 3.82454 44.84 3.63454 45.22 3.63454C45.6 3.63454 45.91 3.81454 45.91 4.03454Z" fill="#BA7D20"/>
<path opacity="0.5" d="M48.63 6.09454C48.63 6.31454 48.32 6.48454 47.94 6.48454C47.56 6.48454 47.26 6.31454 47.26 6.09454C47.26 5.87454 47.56 5.69454 47.94 5.69454C48.32 5.69454 48.63 5.87454 48.63 6.09454Z" fill="#BA7D20"/>
<path opacity="0.6" d="M33.23 24.4345C33.23 24.7445 32.79 24.9945 32.23 24.9945C31.67 24.9945 31.23 24.7445 31.23 24.4345C31.23 24.1245 31.67 23.8645 32.23 23.8645C32.79 23.8645 33.23 24.1245 33.23 24.4345Z" fill="#F7C548"/>
<path opacity="0.6" d="M38.12 21.8445C38.12 22.1545 37.68 22.4045 37.12 22.4045C36.56 22.4045 36.12 22.1545 36.12 21.8445C36.12 21.5345 36.56 21.2845 37.12 21.2845C37.68 21.2845 38.12 21.5345 38.12 21.8445Z" fill="#F7C548"/>
<path opacity="0.6" d="M32.79 20.7245C32.79 21.0345 32.35 21.2845 31.79 21.2845C31.23 21.2845 30.79 21.0345 30.79 20.7245C30.79 20.4145 31.23 20.1645 31.79 20.1645C32.35 20.1645 32.79 20.4145 32.79 20.7245Z" fill="#F7C548"/>
<path opacity="0.6" d="M31.8101 17.4045C31.8101 17.7145 31.3701 17.9645 30.8101 17.9645C30.2501 17.9645 29.8101 17.7145 29.8101 17.4045C29.8101 17.0945 30.2501 16.8445 30.8101 16.8445C31.3701 16.8445 31.8101 17.0945 31.8101 17.4045Z" fill="#F7C548"/>
<path opacity="0.6" d="M39.58 24.9645C39.58 25.2745 39.14 25.5245 38.58 25.5245C38.02 25.5245 37.58 25.2745 37.58 24.9645C37.58 24.6545 38.02 24.4045 38.58 24.4045C39.14 24.4045 39.58 24.6845 39.58 24.9645Z" fill="#F7C548"/>
<path opacity="0.6" d="M48.84 31.0345C48.84 31.3445 48.4 31.6045 47.84 31.6045C47.28 31.6045 46.84 31.3445 46.84 31.0345C46.84 30.7245 47.28 30.4745 47.84 30.4745C48.4 30.4745 48.84 30.7245 48.84 31.0345Z" fill="#F7C548"/>
<path opacity="0.6" d="M44.3 26.1145C44.3 26.4245 43.86 26.6845 43.3 26.6845C42.74 26.6845 42.3 26.4245 42.3 26.1145C42.3 25.8045 42.74 25.5545 43.3 25.5545C43.86 25.5545 44.3 25.8045 44.3 26.1145Z" fill="#F7C548"/>
<path opacity="0.6" d="M39.1 28.1445C39.1 28.4545 38.66 28.7045 38.1 28.7045C37.54 28.7045 37.1 28.4545 37.1 28.1445C37.1 27.8345 37.54 27.5745 38.1 27.5745C38.66 27.5745 39.1 27.8345 39.1 28.1445Z" fill="#F7C548"/>
<path opacity="0.6" d="M37.14 23.4745C37.14 23.7845 36.7 24.0345 36.14 24.0345C35.58 24.0345 35.14 23.7845 35.14 23.4745C35.14 23.1645 35.58 22.9145 36.14 22.9145C36.7 22.9145 37.14 23.1645 37.14 23.4745Z" fill="#F7C548"/>
<path opacity="0.6" d="M43.48 28.5345C43.48 28.8445 43.04 29.0945 42.48 29.0945C41.92 29.0945 41.48 28.8445 41.48 28.5345C41.48 28.2245 42 27.9645 42.5 27.9645C43 27.9645 43.48 28.2245 43.48 28.5345Z" fill="#F7C548"/>
<path opacity="0.6" d="M43.05 31.8245C43.05 32.1345 42.61 32.3845 42.05 32.3845C41.49 32.3845 41.05 32.1345 41.05 31.8245C41.05 31.5145 41.49 31.2645 42.05 31.2645C42.61 31.2645 43.05 31.5145 43.05 31.8245Z" fill="#F7C548"/>
<path opacity="0.6" d="M47.86 28.7745C47.86 29.0845 47.42 29.3345 46.86 29.3345C46.3 29.3345 45.86 29.0845 45.86 28.7745C45.86 28.4645 46.3 28.2145 46.86 28.2145C47.42 28.2145 47.86 28.4645 47.86 28.7745Z" fill="#F7C548"/>
<path opacity="0.6" d="M54.47 31.6045C54.47 31.9145 54.03 32.1645 53.47 32.1645C52.91 32.1645 52.47 31.9145 52.47 31.6045C52.47 31.2945 52.91 31.0345 53.47 31.0345C54.03 31.0345 54.47 31.2845 54.47 31.6045Z" fill="#F7C548"/>
<path opacity="0.6" d="M47.86 32.9045C47.86 33.2245 47.42 33.4745 46.86 33.4745C46.3 33.4745 45.86 33.2245 45.86 32.9045C45.86 32.5845 46.3 32.3445 46.86 32.3445C47.42 32.3445 47.86 32.5945 47.86 32.9045Z" fill="#F7C548"/>
<path opacity="0.5" d="M34 21.9045C34 22.1245 33.7 22.2945 33.32 22.2945C32.94 22.2945 32.63 22.1245 32.63 21.9045C32.63 21.6845 32.94 21.5145 33.32 21.5145C33.7 21.5145 34 21.6845 34 21.9045Z" fill="#BA7D20"/>
<path opacity="0.5" d="M44.57 28.9645C44.57 29.1745 44.2699 29.3545 43.8899 29.3545C43.5099 29.3545 43.2 29.1745 43.2 28.9645C43.2 28.7545 43.5099 28.5645 43.8899 28.5645C44.2699 28.5645 44.57 28.7245 44.57 28.9645Z" fill="#BA7D20"/>
<path opacity="0.5" d="M39.23 30.0845C39.23 30.2945 38.93 30.4745 38.55 30.4745C38.17 30.4745 37.86 30.2945 37.86 30.0845C37.86 29.8745 38.17 29.6845 38.55 29.6845C38.93 29.6845 39.23 29.8645 39.23 30.0845Z" fill="#BA7D20"/>
<path opacity="0.5" d="M52.12 30.2545C52.12 30.4645 51.81 30.6445 51.43 30.6445C51.05 30.6445 50.74 30.4645 50.74 30.2545C50.74 30.0445 51.05 29.8545 51.43 29.8545C51.81 29.8545 52.12 30.0345 52.12 30.2545Z" fill="#BA7D20"/>
<path opacity="0.5" d="M52.5 33.4745C52.5 33.6845 52.2 33.8645 51.82 33.8645C51.44 33.8645 51.13 33.6845 51.13 33.4745C51.13 33.2645 51.44 33.0745 51.82 33.0745C52.2 33.0745 52.5 33.2545 52.5 33.4745Z" fill="#BA7D20"/>
<path opacity="0.5" d="M46 30.6445C46 30.8645 45.69 31.0345 45.31 31.0345C44.93 31.0345 44.62 30.8645 44.62 30.6445C44.62 30.4245 44.93 30.2545 45.31 30.2545C45.69 30.2545 46 30.4245 46 30.6445Z" fill="#BA7D20"/>
<path opacity="0.5" d="M34.9 26.6845C34.9 26.8945 34.59 27.0745 34.21 27.0745C33.83 27.0745 33.53 26.8945 33.53 26.6845C33.53 26.4745 33.83 26.2845 34.21 26.2845C34.59 26.2845 34.9 26.4645 34.9 26.6845Z" fill="#BA7D20"/>
<path opacity="0.69" d="M35.42 20.5545C35.42 20.7745 35.11 20.9445 34.73 20.9445C34.35 20.9445 34.05 20.7745 34.05 20.5545C34.05 20.3345 34.35 20.1645 34.73 20.1645C35.11 20.1645 35.42 20.3345 35.42 20.5545Z" fill="#FFFBDC"/>
<path opacity="0.69" d="M31.3199 18.9645C31.3199 19.1845 31.0099 19.3645 30.6299 19.3645C30.2499 19.3645 29.9399 19.1845 29.9399 18.9645C29.9399 18.7445 30.2499 18.5745 30.6299 18.5745C31.0099 18.5745 31.3199 18.7645 31.3199 18.9645Z" fill="#FFFBDC"/>
<path opacity="0.69" d="M34 24.0345C34 24.2545 33.7 24.4345 33.32 24.4345C32.94 24.4345 32.63 24.2545 32.63 24.0345C32.63 23.8145 32.94 23.6445 33.32 23.6445C33.7 23.6445 34 23.8245 34 24.0345Z" fill="#FFFBDC"/>
<path opacity="0.69" d="M32 22.6845C32 22.9045 31.69 23.0845 31.31 23.0845C30.93 23.0845 30.62 22.9045 30.62 22.6845C30.62 22.4645 30.93 22.2945 31.31 22.2945C31.69 22.2945 32 22.4745 32 22.6845Z" fill="#FFFBDC"/>
<path opacity="0.69" d="M54.4401 33.8645C54.4401 34.0845 54.1301 34.2545 53.7501 34.2545C53.3701 34.2545 53.0601 34.0845 53.0601 33.8645C53.0601 33.6445 53.3701 33.4745 53.7501 33.4745C54.1301 33.4745 54.4401 33.6445 54.4401 33.8645Z" fill="#FFFBDC"/>
<path opacity="0.69" d="M37.39 25.9645C37.39 26.1845 37.08 26.3645 36.7 26.3645C36.32 26.3645 36 26.1645 36 25.9645C36 25.7645 36.31 25.5745 36.69 25.5745C37.07 25.5745 37.39 25.7345 37.39 25.9645Z" fill="#FFFBDC"/>
<path opacity="0.69" d="M41.08 30.0845C41.08 30.2945 40.7699 30.4745 40.3899 30.4745C40.0099 30.4745 39.7 30.2945 39.7 30.0845C39.7 29.8745 40.0099 29.6845 40.3899 29.6845C40.7699 29.6845 41.08 29.8645 41.08 30.0845Z" fill="#FFFBDC"/>
<path opacity="0.69" d="M36.84 28.7045C36.84 28.9245 36.54 29.0945 36.16 29.0945C35.78 29.0945 35.47 28.9245 35.47 28.7045C35.47 28.4845 35.78 28.3045 36.16 28.3045C36.54 28.3045 36.84 28.4845 36.84 28.7045Z" fill="#FFFBDC"/>
<path opacity="0.69" d="M42.46 24.4345C42.46 24.6445 42.15 24.8245 41.77 24.8245C41.39 24.8245 41.08 24.6445 41.08 24.4345C41.08 24.2245 41.39 24.0345 41.77 24.0345C42.15 24.0345 42.46 24.2145 42.46 24.4345Z" fill="#FFFBDC"/>
<path opacity="0.69" d="M49.41 29.7245C49.791 29.7245 50.1 29.5499 50.1 29.3345C50.1 29.1192 49.791 28.9445 49.41 28.9445C49.0289 28.9445 48.72 29.1192 48.72 29.3345C48.72 29.5499 49.0289 29.7245 49.41 29.7245Z" fill="#FFFBDC"/>
<path opacity="0.69" d="M46 27.1845C46 27.4045 45.69 27.5745 45.31 27.5745C44.93 27.5745 44.62 27.4045 44.62 27.1845C44.62 26.9645 44.93 26.7945 45.31 26.7945C45.69 26.7945 46 26.9645 46 27.1845Z" fill="#FFFBDC"/>
<path opacity="0.69" d="M41.08 26.7945C41.08 27.0045 40.7699 27.1845 40.3899 27.1845C40.0099 27.1845 39.7 27.0045 39.7 26.7945C39.7 26.5845 40.0099 26.3945 40.3899 26.3945C40.7699 26.3945 41.08 26.5745 41.08 26.7945Z" fill="#FFFBDC"/>
<path opacity="0.69" d="M51.43 31.8245C51.43 32.0445 51.1201 32.2245 50.7401 32.2245C50.3601 32.2245 50.05 32.0445 50.05 31.8245C50.05 31.6045 50.3601 31.4345 50.7401 31.4345C51.1201 31.4345 51.43 31.6045 51.43 31.8245Z" fill="#FFFBDC"/>
<path opacity="0.6" d="M39.45 34.8245C39.45 35.1345 39.01 35.3845 38.45 35.3845C37.89 35.3845 37.45 35.1345 37.45 34.8245C37.45 34.5145 37.89 34.2545 38.45 34.2545C39.01 34.2545 39.45 34.5145 39.45 34.8245Z" fill="#F7C548"/>
<path opacity="0.6" d="M32 33.4745C32 33.7845 31.56 34.0345 31 34.0345C30.44 34.0345 30 33.7845 30 33.4745C30 33.1645 30.44 32.9045 31 32.9045C31.56 32.9045 32 33.1645 32 33.4745Z" fill="#F7C548"/>
<path opacity="0.6" d="M30 30.8745C30 31.1845 29.56 31.4345 29 31.4345C28.44 31.4345 28 31.1845 28 30.8745C28 30.5645 28.44 30.3145 29 30.3145C29.56 30.3145 30 30.5645 30 30.8745Z" fill="#F7C548"/>
<path opacity="0.6" d="M43.8199 35.2145C43.8199 35.5245 43.3799 35.7745 42.8199 35.7745C42.2599 35.7745 41.8199 35.5245 41.8199 35.2145C41.8199 34.9045 42.2599 34.6545 42.8199 34.6545C43.3799 34.6545 43.8199 34.9045 43.8199 35.2145Z" fill="#F7C548"/>
<path opacity="0.6" d="M43.39 38.5045C43.39 38.8145 42.95 39.0645 42.39 39.0645C41.83 39.0645 41.39 38.8145 41.39 38.5045C41.39 38.1945 41.83 37.9445 42.39 37.9445C42.95 37.9445 43.39 38.1945 43.39 38.5045Z" fill="#F7C548"/>
<path opacity="0.6" d="M37 29.4645C37 29.7745 36.56 30.0245 36 30.0245C35.44 30.0245 35 29.7745 35 29.4645C35 29.1545 35.44 28.9045 36 28.9045C36.56 28.9045 37 29.1545 37 29.4645Z" fill="#F7C548"/>
<path opacity="0.6" d="M48.2 35.4545C48.2 35.7645 47.76 36.0145 47.2 36.0145C46.64 36.0145 46.2 35.7645 46.2 35.4545C46.2 35.1445 46.64 34.8945 47.2 34.8945C47.76 34.8945 48.2 35.1445 48.2 35.4545Z" fill="#F7C548"/>
<path opacity="0.6" d="M37.73 37.3245C37.73 37.6345 37.29 37.8845 36.73 37.8845C36.17 37.8845 35.73 37.6345 35.73 37.3245C35.73 37.0145 36.17 36.7645 36.73 36.7645C37.29 36.7645 37.73 37.0145 37.73 37.3245Z" fill="#F7C548"/>
<path opacity="0.5" d="M44.92 35.6245C44.92 35.8345 44.61 36.0145 44.23 36.0145C43.85 36.0145 43.54 35.8345 43.54 35.6245C43.54 35.4145 43.85 35.2245 44.23 35.2245C44.61 35.2245 44.92 35.4045 44.92 35.6245Z" fill="#BA7D20"/>
<path opacity="0.5" d="M41.42 34.1645C41.42 34.3845 41.1201 34.5645 40.7401 34.5645C40.3601 34.5645 40.05 34.3845 40.05 34.1645C40.05 33.9445 40.3601 33.7745 40.7401 33.7745C41.1201 33.7745 41.42 33.9645 41.42 34.1645Z" fill="#BA7D20"/>
<path opacity="0.5" d="M34.9 35.2145C34.9 35.4345 34.59 35.6045 34.21 35.6045C33.83 35.6045 33.53 35.4345 33.53 35.2145C33.53 34.9945 33.83 34.8245 34.21 34.8245C34.59 34.8245 34.9 34.9645 34.9 35.2145Z" fill="#BA7D20"/>
<path opacity="0.5" d="M30.53 32.6245C30.53 32.8345 30.22 33.0145 29.84 33.0145C29.46 33.0145 29.15 32.8345 29.15 32.6245C29.15 32.4145 29.46 32.2245 29.84 32.2245C30.22 32.2245 30.53 32.4045 30.53 32.6245Z" fill="#BA7D20"/>
<path opacity="0.5" d="M48.49 37.4845C48.49 37.6945 48.18 37.8745 47.8 37.8745C47.42 37.8745 47.11 37.6945 47.11 37.4845C47.11 37.2745 47.42 37.0845 47.8 37.0845C48.18 37.0845 48.49 37.2645 48.49 37.4845Z" fill="#BA7D20"/>
<path opacity="0.5" d="M39.58 36.7645C39.58 36.9845 39.2699 37.1545 38.8899 37.1545C38.5099 37.1545 38.2 36.9845 38.2 36.7645C38.2 36.5445 38.5099 36.3645 38.8899 36.3645C39.2699 36.3645 39.58 36.5445 39.58 36.7645Z" fill="#BA7D20"/>
<path opacity="0.5" d="M46.29 37.3245C46.29 37.5445 45.99 37.7145 45.61 37.7145C45.23 37.7145 44.92 37.5445 44.92 37.3245C44.92 37.1045 45.23 36.9345 45.61 36.9345C45.99 36.9345 46.29 37.1045 46.29 37.3245Z" fill="#BA7D20"/>
<path opacity="0.69" d="M41.42 36.7645C41.42 36.9845 41.1201 37.1545 40.7401 37.1545C40.3601 37.1545 40.05 36.9845 40.05 36.7645C40.05 36.5445 40.3601 36.3645 40.7401 36.3645C41.1201 36.3645 41.42 36.5445 41.42 36.7645Z" fill="#FFFBDC"/>
<path opacity="0.69" d="M37.1901 35.3845C37.1901 35.6045 36.8801 35.7745 36.5001 35.7745C36.1201 35.7745 35.8101 35.6045 35.8101 35.3845C35.8101 35.1645 36.1201 34.9945 36.5001 34.9945C36.8801 34.9945 37.1901 35.1645 37.1901 35.3845Z" fill="#FFFBDC"/>
<path opacity="0.69" d="M26.9 30.2545C26.9 30.4645 26.59 30.6445 26.21 30.6445C25.83 30.6445 25.52 30.4645 25.52 30.2545C25.52 30.0445 25.83 29.8545 26.21 29.8545C26.59 29.8545 26.9 30.0345 26.9 30.2545Z" fill="#FFFBDC"/>
<path opacity="0.69" d="M50.4401 36.0145C50.4401 36.2345 50.1301 36.4045 49.7501 36.4045C49.3701 36.4045 49.0601 36.2345 49.0601 36.0145C49.0601 35.7945 49.3701 35.6245 49.7501 35.6245C50.1301 35.6245 50.4401 35.7945 50.4401 36.0145Z" fill="#FFFBDC"/>
<path opacity="0.69" d="M46.29 33.8645C46.29 34.0845 45.99 34.2545 45.61 34.2545C45.23 34.2545 44.92 34.0845 44.92 33.8645C44.92 33.6445 45.23 33.4745 45.61 33.4745C45.99 33.4745 46.29 33.6445 46.29 33.8645Z" fill="#FFFBDC"/>
<path opacity="0.69" d="M35.51 36.3645C35.51 36.5845 35.2 36.7645 34.82 36.7645C34.44 36.7645 34.13 36.5845 34.13 36.3645C34.13 36.1445 34.44 35.9745 34.82 35.9745C35.2 35.9745 35.51 36.1545 35.51 36.3645Z" fill="#FFFBDC"/>
<path opacity="0.69" d="M40 38.9045C40 39.1145 39.69 39.2945 39.31 39.2945C38.93 39.2945 38.62 39.1145 38.62 38.9045C38.62 38.6945 38.93 38.5045 39.31 38.5045C39.69 38.5045 40 38.6845 40 38.9045Z" fill="#FFFBDC"/>
<path opacity="0.69" d="M44.92 39.2945C45.3011 39.2945 45.61 39.1199 45.61 38.9045C45.61 38.6892 45.3011 38.5145 44.92 38.5145C44.5389 38.5145 44.23 38.6892 44.23 38.9045C44.23 39.1199 44.5389 39.2945 44.92 39.2945Z" fill="#FFFBDC"/>
<path opacity="0.69" d="M44.08 39.9645C44.08 40.1845 43.7699 40.3545 43.3899 40.3545C43.0099 40.3545 42.7 40.1845 42.7 39.9645C42.7 39.7445 43.0099 39.5745 43.3899 39.5745C43.7699 39.5745 44.08 39.6945 44.08 39.9645Z" fill="#FFFBDC"/>
<path opacity="0.5" d="M41.62 40.3045C41.62 40.5245 41.31 40.7045 40.93 40.7045C40.55 40.7045 40.24 40.5245 40.24 40.3045C40.24 40.0845 40.55 39.9145 40.93 39.9145C41.31 39.9145 41.62 40.0945 41.62 40.3045Z" fill="#BA7D20"/>
<path opacity="0.5" d="M43.89 37.0845C43.89 37.3045 43.58 37.4845 43.2 37.4845C42.82 37.4845 42.51 37.3045 42.51 37.0845C42.51 36.8645 42.82 36.6945 43.2 36.6945C43.58 36.6945 43.89 36.8745 43.89 37.0845Z" fill="#BA7D20"/>
<path opacity="0.6" d="M51.4 34.8445C51.4 35.1545 50.96 35.4145 50.4 35.4145C49.84 35.4145 49.4 35.1545 49.4 34.8445C49.4 34.5345 49.84 34.2845 50.4 34.2845C50.96 34.2845 51.4 34.5345 51.4 34.8445Z" fill="#F7C548"/>
<path opacity="0.6" d="M34.5 28.8445C34.5 29.1545 34.06 29.4045 33.5 29.4045C32.94 29.4045 32.5 29.1545 32.5 28.8445C32.5 28.5345 32.94 28.2845 33.5 28.2845C34.06 28.2845 34.5 28.5345 34.5 28.8445Z" fill="#F7C548"/>
<path opacity="0.6" d="M33.42 34.8445C33.42 35.1545 32.98 35.4145 32.42 35.4145C31.86 35.4145 31.42 35.1545 31.42 34.8445C31.42 34.5345 31.86 34.2845 32.42 34.2845C32.98 34.2845 33.42 34.5345 33.42 34.8445Z" fill="#F7C548"/>
<path opacity="0.5" d="M32.15 27.4945C32.15 27.7145 31.84 27.8845 31.46 27.8845C31.08 27.8845 30.77 27.7145 30.77 27.4945C30.77 27.2745 31.08 27.0945 31.46 27.0945C31.84 27.0945 32.15 27.2745 32.15 27.4945Z" fill="#BA7D20"/>
<path opacity="0.5" d="M32.53 30.7145C32.53 30.9345 32.23 31.1045 31.85 31.1045C31.47 31.1045 31.16 30.9345 31.16 30.7145C31.16 30.4945 31.47 30.3245 31.85 30.3245C32.23 30.3245 32.53 30.4945 32.53 30.7145Z" fill="#BA7D20"/>
<path opacity="0.69" d="M34.47 31.1045C34.47 31.3245 34.16 31.5045 33.78 31.5045C33.4 31.5045 33.09 31.3245 33.09 31.1045C33.09 30.8845 33.4 30.7145 33.78 30.7145C34.16 30.7145 34.47 30.8945 34.47 31.1045Z" fill="#FFFBDC"/>
<path opacity="0.69" d="M31.46 29.0645C31.46 29.2845 31.15 29.4645 30.77 29.4645C30.39 29.4645 30.08 29.2845 30.08 29.0645C30.08 28.8445 30.39 28.6745 30.77 28.6745C31.15 28.6745 31.46 28.8545 31.46 29.0645Z" fill="#FFFBDC"/>
<path opacity="0.69" d="M49.53 33.4745C49.53 33.6845 49.22 33.8645 48.84 33.8645C48.46 33.8645 48.15 33.6845 48.15 33.4745C48.15 33.2645 48.46 33.0745 48.84 33.0745C49.22 33.0745 49.53 33.2545 49.53 33.4745Z" fill="#FFFBDC"/>
<path opacity="0.69" d="M45.26 32.2245C45.26 32.4345 44.95 32.6145 44.57 32.6145C44.19 32.6145 43.89 32.4345 43.89 32.2245C43.89 32.0145 44.19 31.8245 44.57 31.8245C44.95 31.8245 45.26 31.9645 45.26 32.2245Z" fill="#FFFBDC"/>
<path opacity="0.69" d="M44.17 33.4745C44.17 33.6845 43.86 33.8645 43.48 33.8645C43.1 33.8645 42.79 33.6845 42.79 33.4745C42.79 33.2645 43.1 33.0745 43.48 33.0745C43.86 33.0745 44.17 33.2545 44.17 33.4745Z" fill="#FFFBDC"/>
<path opacity="0.69" d="M39.28 23.0845C39.28 23.2945 38.97 23.4745 38.59 23.4745C38.21 23.4745 37.91 23.2945 37.91 23.0845C37.91 22.8745 38.21 22.6845 38.59 22.6845C38.97 22.6845 39.28 22.8645 39.28 23.0845Z" fill="#FFFBDC"/>
<path opacity="0.69" d="M39.79 32.6145C39.79 32.8345 39.48 33.0045 39.1 33.0045C38.72 33.0045 38.42 32.8345 38.42 32.6145C38.42 32.3945 38.72 32.2245 39.1 32.2245C39.48 32.2245 39.79 32.3945 39.79 32.6145Z" fill="#FFFBDC"/>
<path opacity="0.69" d="M35.8001 32.2245C35.8001 32.4445 35.5001 32.6245 35.1201 32.6245C34.7401 32.6245 34.4301 32.4445 34.4301 32.2245C34.4301 32.0045 34.7401 31.8345 35.1201 31.8345C35.5001 31.8345 35.8001 31.9645 35.8001 32.2245Z" fill="#FFFBDC"/>
<path opacity="0.69" d="M33.8101 32.9045C33.8101 33.1245 33.5001 33.3045 33.1201 33.3045C32.7401 33.3045 32.4301 33.1245 32.4301 32.9045C32.4301 32.6845 32.7401 32.5145 33.1201 32.5145C33.5001 32.5145 33.8101 32.6945 33.8101 32.9045Z" fill="#FFFBDC"/>
<path opacity="0.69" d="M33.66 19.1445C33.66 19.3645 33.35 19.5445 32.97 19.5445C32.59 19.5445 32.28 19.3645 32.28 19.1445C32.28 18.9245 32.59 18.7545 32.97 18.7545C33.35 18.7545 33.66 18.9645 33.66 19.1445Z" fill="#FFFBDC"/>
<path opacity="0.5" d="M41.77 23.4745C41.77 23.6945 41.46 23.8645 41.08 23.8645C40.7 23.8645 40.39 23.6945 40.39 23.4745C40.39 23.2545 40.7 23.0845 41.08 23.0845C41.46 23.0845 41.77 23.2545 41.77 23.4745Z" fill="#BA7D20"/>
<path opacity="0.5" d="M36.79 31.2645C36.79 31.4845 36.48 31.6545 36.1 31.6545C35.72 31.6545 35.41 31.4845 35.41 31.2645C35.41 31.0445 35.72 30.8745 36.1 30.8745C36.48 30.8745 36.79 31.0445 36.79 31.2645Z" fill="#BA7D20"/>
<defs>
<radialGradient id="paint0_radial" cx="0" cy="0" r="1" gradientUnits="userSpaceOnUse" gradientTransform="translate(42 24) rotate(90) scale(25.1429 42)">
<stop/>
<stop offset="1" stop-opacity="0"/>
</radialGradient>
</defs>
</svg>
