<svg width="84" height="52" viewBox="0 0 84 52" fill="none" xmlns="http://www.w3.org/2000/svg">
<ellipse cx="42" cy="26" rx="42" ry="24" fill="url(#paint0_radial)" fill-opacity="0.3"/>
<g clip-path="url(#clip0)">
<path d="M76.92 25.84L76.87 31.03L41.83 51.39L41.88 46.01L42.41 44.92L74.69 26.4L76.92 25.84Z" fill="#507603"/>
<path d="M70.76 30.9C68.5852 31.7207 66.6184 33.0114 65 34.68C63.24 36.32 61.79 38.88 58 40.11C55.63 40.87 53.43 41.11 52.36 41.45C51.1632 41.912 50.0789 42.6246 49.18 43.54C47.1 45.46 43.85 49.21 41.89 49.54V51.37L76.87 31V29.18C76 29.41 72.6 30.37 70.76 30.9Z" fill="#996333"/>
<path d="M76.92 25.87C76.92 26.21 76.39 26.76 76.12 26.87C75.7758 26.9962 75.4156 27.0736 75.05 27.1C74.9416 27.1086 74.8361 27.1392 74.74 27.19C74.6767 27.232 74.6195 27.2825 74.57 27.34C73.8085 28.0656 72.9421 28.6724 72 29.14L70.61 29.92C70.3702 30.0807 70.0963 30.1834 69.81 30.22C69.57 30.22 69.29 30.15 69.14 30.33C69.0901 30.4047 69.0498 30.4853 69.02 30.57C68.8895 30.7845 68.698 30.9551 68.47 31.06L67.47 31.63C67.2883 31.7518 67.0844 31.8368 66.87 31.88C66.44 31.94 66.43 31.98 66.19 32.34C66.0042 32.6273 65.7861 32.8923 65.54 33.13C64.8833 33.6364 64.1266 33.9977 63.32 34.19C62.8374 34.3049 62.363 34.4519 61.9 34.63C61.5878 34.8271 61.319 35.0857 61.11 35.39C60.8492 35.7165 60.4736 35.9311 60.06 35.99C59.9087 35.9543 59.7512 35.9543 59.6 35.99C59.5068 36.0434 59.4253 36.1148 59.36 36.2C59.0555 36.4748 58.7198 36.7131 58.36 36.91L56.77 37.91C56.5064 38.0741 56.2325 38.2211 55.95 38.35C55.6714 38.435 55.3976 38.5351 55.13 38.65C54.8769 38.8113 54.6592 39.0222 54.49 39.27C54.0877 39.6714 53.5637 39.9281 53 40C52.8753 40.0133 52.7537 40.0471 52.64 40.1C52.5255 40.1844 52.4244 40.2855 52.34 40.4C51.661 41.1447 50.8376 41.7435 49.92 42.16C49.5782 42.3581 49.2068 42.5 48.82 42.58C48.6139 42.5954 48.4115 42.6426 48.22 42.72C47.74 42.96 47.47 43.48 46.99 43.72C46.51 43.96 45.93 44.4 45.41 44.72C45.0116 44.9791 44.5898 45.2001 44.15 45.38C43.7506 45.4442 43.3587 45.548 42.98 45.69C42.8876 45.7643 42.8067 45.852 42.74 45.95C42.5863 46.1507 42.3693 46.2935 42.1242 46.3552C41.8791 46.417 41.6203 46.394 41.39 46.29C40.6475 46.0623 39.9431 45.7253 39.3 45.29C38.9793 45.0663 38.6842 44.8081 38.42 44.52C38.286 44.3985 38.127 44.3078 37.9543 44.2543C37.7815 44.2007 37.5992 44.1856 37.42 44.21C37.0459 44.1418 36.699 43.9683 36.42 43.71C36.2293 43.5774 36.0577 43.4193 35.91 43.24C35.7411 43.0043 35.4982 42.8318 35.22 42.75C34.8888 42.6093 34.5764 42.4279 34.29 42.21C34.2533 42.1938 34.2202 42.1704 34.1928 42.1412C34.1653 42.112 34.1439 42.0776 34.13 42.04C34.13 42.04 34.13 41.95 34.08 41.92C34.0472 41.9111 34.0127 41.9111 33.98 41.92C33.2899 41.6826 32.6264 41.3743 32 41C31.6786 40.8292 31.368 40.6388 31.07 40.43C30.8134 40.2943 30.5963 40.0945 30.44 39.85L30.39 39.78C30.3636 39.7746 30.3364 39.7746 30.31 39.78C30.09 39.73 29.87 39.68 29.66 39.61C28.6595 39.1668 27.7557 38.5314 27 37.74C26.9435 37.6851 26.875 37.644 26.8 37.62C26.4603 37.5794 26.1253 37.5057 25.8 37.4C25.4438 37.2733 25.1408 37.0302 24.94 36.71C24.88 36.6 24.82 36.46 24.7 36.43C24.6505 36.42 24.5995 36.42 24.55 36.43C24.2615 36.4024 23.9904 36.2792 23.78 36.08C23.4679 35.8271 23.112 35.6339 22.73 35.51C22.55 35.51 22.36 35.44 22.18 35.39C21.9792 35.3246 21.7877 35.2339 21.61 35.12C21.3984 34.9974 21.1976 34.8568 21.01 34.7C20.63 34.37 20.37 33.78 19.87 33.7C18.5697 33.4332 17.4009 32.727 16.56 31.7C16.5111 31.6361 16.4539 31.5789 16.39 31.53C16.3385 31.4934 16.2809 31.4663 16.22 31.45C15.7597 31.3327 15.3085 31.1823 14.87 31C14.6937 30.8891 14.5235 30.7689 14.36 30.64C13.8863 30.4266 13.4452 30.1471 13.05 29.81C12.89 29.62 12.78 29.38 12.57 29.26C11.87 28.85 10.94 29.01 10.48 28.19C9.99287 28.1266 9.51777 27.9919 9.06997 27.79C8.85138 27.7065 8.64594 27.592 8.45997 27.45C8.20997 27.23 8.03997 26.99 7.76997 26.78C7.49997 26.57 7.38997 26.5 7.18997 26.37L6.87997 26.2L6.70997 26.12C6.70997 26.12 6.60997 26.03 6.61997 26.01C6.66581 25.9028 6.74698 25.8146 6.84997 25.76C6.94557 25.7044 7.0507 25.6671 7.15997 25.65C7.20949 25.6597 7.26044 25.6597 7.30997 25.65C7.36125 25.6285 7.40606 25.5941 7.43997 25.55C7.91738 25.0138 8.53322 24.6194 9.21997 24.41C9.5405 24.3058 9.85441 24.1822 10.16 24.04C10.3898 23.9476 10.6136 23.8407 10.83 23.72L11.53 23.35C11.7031 23.2922 11.8628 23.2004 12 23.08C12.0854 22.9483 12.1824 22.8244 12.29 22.71L12.6 22.49C12.7233 22.3888 12.8574 22.3016 13 22.23C13.48 22 14 21.78 14.42 21.51C14.8966 21.261 15.3998 21.0665 15.92 20.93C15.9694 20.9128 16.0165 20.8892 16.06 20.86C16.0953 20.828 16.1256 20.7909 16.15 20.75C16.4048 20.3568 16.7411 20.0229 17.1362 19.771C17.5313 19.5191 17.9759 19.3551 18.44 19.29C18.4512 19.2247 18.4778 19.1629 18.5175 19.1098C18.5573 19.0567 18.609 19.0138 18.6685 18.9845C18.728 18.9552 18.7936 18.9405 18.8599 18.9414C18.9262 18.9424 18.9913 18.959 19.05 18.99C19.16 18.59 19.6 18.41 19.98 18.26C20.36 18.11 20.51 18.14 20.76 18.01C21.0364 17.873 21.2922 17.698 21.52 17.49C21.8684 17.1333 22.2539 16.8148 22.67 16.54C23.1 16.29 23.6 16.18 24.05 15.97C24.5 15.76 24.85 15.51 25.26 15.28C25.6575 15.0386 26.1149 14.9139 26.58 14.92C26.6416 14.9406 26.7083 14.9406 26.77 14.92C26.8081 14.8809 26.8357 14.8327 26.85 14.78C27.0264 14.3337 27.3243 13.9457 27.71 13.66C27.8979 13.5469 28.0915 13.4434 28.29 13.35C28.5273 13.1734 28.7512 12.9796 28.96 12.77C29.8069 12.0407 30.7794 11.4714 31.83 11.09C32.5339 10.938 33.209 10.6747 33.83 10.31C34.1639 10.0342 34.4628 9.71852 34.72 9.37C35.3029 8.5739 36.1441 8.00484 37.1 7.76C37.3967 7.7034 37.6979 7.67328 38 7.67C38.2319 7.66973 38.462 7.62912 38.68 7.55C39.0524 7.30871 39.4097 7.04489 39.75 6.76C40.2543 6.42539 40.7862 6.13433 41.34 5.89C42.07 5.58 43.34 6.44 43.53 7.15C43.737 7.0544 43.9666 7.01871 44.1928 7.04699C44.4191 7.07527 44.6329 7.16639 44.81 7.31C44.98 7.45 45.1 7.64 45.27 7.78C45.4607 7.9052 45.6699 7.99969 45.89 8.06C47.5019 8.49273 48.9669 9.35307 50.13 10.55C50.2334 10.6983 50.3751 10.8158 50.54 10.89C50.643 10.901 50.7469 10.901 50.85 10.89C51.0656 10.9227 51.2699 11.0082 51.4444 11.1391C51.6189 11.27 51.7582 11.4421 51.85 11.64C51.8704 11.7144 51.9081 11.7829 51.96 11.84C52.0128 11.8806 52.0745 11.908 52.14 11.92C53.1664 12.2291 54.1333 12.7092 55 13.34C55.21 13.49 55.43 13.84 55.64 13.94C55.7621 13.9834 55.8904 14.007 56.02 14.01C56.6508 14.134 57.2517 14.3784 57.79 14.73C58.0108 14.8218 58.2165 14.9466 58.4 15.1C58.5664 15.3182 58.7577 15.5162 58.97 15.69C59.3185 15.8398 59.6848 15.944 60.06 16C60.3626 16.1236 60.6429 16.2959 60.89 16.51L61.89 17.33C61.9911 17.4158 62.1019 17.4896 62.22 17.55C62.307 17.5858 62.3975 17.6126 62.49 17.63C63.534 17.9116 64.4748 18.4879 65.2 19.29C65.2496 19.3596 65.3104 19.4204 65.38 19.47C65.6 19.62 65.88 19.56 66.13 19.62C66.4411 19.728 66.7369 19.8759 67.01 20.06C67.6472 20.3792 68.2363 20.7865 68.76 21.27C68.7914 21.3115 68.8284 21.3485 68.87 21.38C68.9643 21.4099 69.0656 21.4099 69.16 21.38C69.3494 21.3617 69.5395 21.4068 69.7005 21.5081C69.8616 21.6095 69.9845 21.7613 70.05 21.94C70.0548 21.9948 70.0757 22.047 70.11 22.09C70.1351 22.1142 70.1661 22.1315 70.2 22.14C70.73 22.35 71.2 22.58 71.79 22.79C72.3902 22.9652 72.9257 23.3129 73.33 23.79C73.4038 23.9258 73.4874 24.0562 73.58 24.18C73.7039 24.3118 73.8452 24.4262 74 24.52C74.4879 24.8648 75.0192 25.1438 75.58 25.35C75.89 25.45 76.43 25.24 76.7 25.53C76.7943 25.6283 76.8689 25.7437 76.92 25.87Z" fill="#8FBB02"/>
<path d="M67.17 30.84C67.3563 30.8553 67.5436 30.8553 67.73 30.84C69.6092 28.9872 71.979 27.7104 74.56 27.16C75.25 26.41 76.43 26.64 76.89 25.87C76.81 25.56 76.15 24.23 76.14 23.98C76.0942 23.2501 76.1651 22.5176 76.35 21.81C76.8516 20.2035 77.5825 18.6777 78.52 17.28C77.7961 17.4771 77.1029 17.7732 76.46 18.16C75.7083 18.918 75.038 19.7525 74.46 20.65C74.0771 18.3797 74.4942 16.0469 75.64 14.05C75.3745 14.0918 75.1224 14.1949 74.9037 14.3512C74.685 14.5074 74.5057 14.7124 74.38 14.95C73.5914 16.0628 73.012 17.3097 72.67 18.63C72.6468 17.3868 72.7137 16.1435 72.87 14.91C72.9969 13.6713 72.6893 12.427 72 11.39C72.1332 12.9382 71.9978 14.4978 71.6 16C71.1727 17.5198 70.2147 18.8361 68.9 19.71C68.5 19.96 68.31 16.77 68.4 16.47C68.8179 15.3286 69.4377 14.2718 70.23 13.35C69.4602 13.5795 68.7456 13.964 68.1299 14.48C67.5142 14.9959 67.0106 15.6323 66.65 16.35C66.6301 14.6191 67.098 12.9175 68 11.44C66.436 12.5594 65.1888 14.065 64.38 15.81C65.0229 14.2936 65.2373 12.6299 65 11C64.823 11.8847 64.4652 12.7233 63.949 13.4633C63.4328 14.2032 62.7692 14.8285 62 15.3C62.5682 14.4784 62.9518 13.5435 63.1244 12.5596C63.2971 11.5756 63.2546 10.566 63 9.6C62.64 10.35 62.38 11.18 62 11.92C61.8071 12.3165 61.5541 12.6808 61.25 13C61.1 13.15 60.35 13.49 60.31 13.62C61.03 11.62 61.77 9.37 61.14 7.29C60.8067 8.76548 60.1204 10.1381 59.14 11.29C59.4592 10.0928 59.6206 8.85902 59.62 7.62C58.3837 8.73882 57.4513 10.1529 56.91 11.73C56.7 9.87 58.34 4.87 60.84 4.93C59.4426 4.99914 58.0921 5.45623 56.94 6.25C55.94 6.82 54.94 7.69 55.08 8.8C54.8205 7.61838 54.8018 6.39657 55.0252 5.20759C55.2485 4.01861 55.7093 2.88687 56.38 1.88C55.2579 2.64526 54.3416 3.67508 53.712 4.8785C53.0824 6.08191 52.7589 7.42187 52.77 8.78C52.77 7.12 52.64 5.27 51.42 4.14C51.91 6.58 51.19 8.57 50.12 10.69C50.0601 9.18401 49.8388 7.68879 49.46 6.23C49.34 7.3 48.85 9 47.84 9.6C46.84 8.15 46.79 4.07 48.49 2.95C47.342 3.69837 46.4082 4.73214 45.78 5.95C45.3878 3.8828 45.7799 1.74362 46.88 -0.0500031C45.1816 1.35895 43.9881 3.28257 43.48 5.43C43.5496 4.96635 43.5069 4.49278 43.3555 4.04906C43.2041 3.60534 42.9484 3.20443 42.61 2.88C42.5906 3.91742 42.2899 4.93012 41.74 5.81C41.5446 4.97488 41.2063 4.17984 40.74 3.46C39.9262 2.45236 38.8698 1.66785 37.67 1.18C37.67 1.18 39.79 3.43 40.1 5.18C40.266 5.95583 40.2315 6.76116 40 7.52C39.5674 8.44139 38.8714 9.21391 38 9.74C37.76 9.92 36.62 10.62 36.54 10.66C35.9324 11.0015 35.3479 11.3823 34.79 11.8C34.4001 12.1148 34.0448 12.4701 33.73 12.86L33.81 12.91C34.01 13.04 34.2 13.18 34.39 13.32C34.58 13.46 34.83 13.77 35.09 13.99C35.271 14.1339 35.4735 14.2486 35.69 14.33C36.1435 14.5236 36.6212 14.6548 37.11 14.72C37.57 15.55 38.49 15.38 39.19 15.79C39.41 15.91 39.51 16.15 39.67 16.34C40.069 16.6748 40.5092 16.9571 40.98 17.18C41.16 17.29 41.31 17.43 41.5 17.53C41.9151 17.6927 42.3433 17.8198 42.78 17.91C42.8589 17.9239 42.9339 17.9546 43 18C43.0605 18.0456 43.1144 18.0994 43.16 18.16C44.0009 19.1869 45.1697 19.8932 46.47 20.16C46.97 20.26 47.24 20.85 47.61 21.16C47.7926 21.3234 47.994 21.4644 48.21 21.58C48.3877 21.6939 48.5793 21.7846 48.78 21.85C48.96 21.91 49.15 21.92 49.33 21.97C49.7139 22.0894 50.0707 22.2831 50.38 22.54L50.66 22.73C52.12 22.84 52.98 23.79 54.28 24.73C55.1 25.34 56.11 25.57 56.92 26.18C57.35 26.51 57.75 26.86 58.14 27.18L58.49 27.35L58.67 27.46C58.99 27.63 59.31 27.8 59.67 27.94L60.88 28.56L60.98 28.65C61.2704 28.859 61.5821 29.0367 61.91 29.18C62.1875 29.2632 62.43 29.4354 62.6 29.67C62.7526 29.8445 62.9236 30.0021 63.11 30.14C63.389 30.3983 63.7359 30.5718 64.11 30.64C64.5 30.64 64.78 30.64 65.11 30.96L65.56 31.39C65.7538 31.1616 66.0057 30.9899 66.2892 30.8931C66.5726 30.7962 66.877 30.7779 67.17 30.84Z" fill="#8FBB02"/>
<path d="M45.64 18L45.79 18.13C47.2651 19.2798 48.9074 20.1971 50.66 20.85C51.81 21.34 53.88 22.9 55.11 22.36C55.5979 22.0943 56.0658 21.7935 56.51 21.46C57.143 21.0757 57.8608 20.8529 58.6001 20.811C59.3394 20.7692 60.0777 20.9096 60.75 21.22C60.4608 20.6067 60.0433 20.0625 59.5258 19.6244C59.0082 19.1862 58.4027 18.8641 57.75 18.68C58.6959 18.3517 59.6889 18.1794 60.69 18.17C59.2644 17.4967 57.6331 17.4035 56.14 17.91C57.79 16.5067 59.8407 15.6598 62 15.49C59.64 14.33 56.85 15.05 54.34 15.82C54.9701 14.8863 55.7802 14.0877 56.7229 13.4712C57.6657 12.8548 58.722 12.4328 59.83 12.23C58.1259 11.951 56.3797 12.0883 54.74 12.63C56.1011 11.24 57.8906 10.3488 59.82 10.1C58.28 9.1 56.26 9.47 54.46 9.88C55.8037 8.50209 56.6121 6.69031 56.74 4.77C56.0639 6.35572 54.9374 7.70824 53.5 8.66C54.88 7.3 54.67 5.06 54.37 3.16C54.1308 4.83182 53.3878 6.39106 52.24 7.63C52.3623 5.90596 51.8303 4.19917 50.75 2.85C51.0098 3.55285 51.0669 4.31453 50.9148 5.04826C50.7628 5.78198 50.4077 6.45824 49.89 7C49.6008 5.58017 49.6384 4.11313 50 2.71C48.6272 3.93239 47.7903 5.64574 47.67 7.48C47.5728 5.7851 47.8037 4.08737 48.35 2.48C48.11 3.18 47.18 3.87 46.85 4.61C46.5298 5.50214 46.3346 6.43432 46.27 7.38C46.2413 6.48902 45.9157 5.63318 45.345 4.94835C44.7743 4.26353 43.9912 3.78896 43.12 3.6C43.3764 3.83465 43.5797 4.12137 43.7163 4.44097C43.8529 4.76056 43.9197 5.10565 43.9121 5.45313C43.9045 5.80062 43.8228 6.14247 43.6724 6.45581C43.522 6.76915 43.3064 7.04674 43.04 7.27C42.69 7.63 42.27 7.91 41.89 8.27C41.1493 8.81082 40.6169 9.58979 40.382 10.4764C40.1472 11.363 40.2241 12.3034 40.6 13.14C41.0838 14.0373 41.7683 14.8107 42.6 15.4L45.64 18Z" fill="#6C9905"/>
<path d="M73.45 26.2V26.14C73.45 25.83 73.45 25.52 73.45 25.2C73.445 25.1501 73.445 25.0999 73.45 25.05C73.45 24.75 73.45 24.45 73.45 24.15C73.64 22.15 74.3 20.15 75.89 19.23C74.07 20.32 71.07 23.23 71.05 25.63C71.0612 24.4464 71.2293 23.2694 71.55 22.13C70.7258 22.978 70.0497 23.9583 69.55 25.03C69.44 23.25 69.36 21.33 70.3 19.81C69.3462 20.1266 68.5465 20.7906 68.06 21.67C67.8694 20.4186 67.9203 19.1423 68.21 17.91C68.3 17.59 69.11 15.37 69.36 15.37C69.0932 15.4119 68.8397 15.5149 68.6194 15.671C68.3991 15.8272 68.2179 16.0322 68.09 16.27C67.351 17.3292 66.7965 18.5058 66.45 19.75C66.4254 19.8152 66.4054 19.882 66.39 19.95C66.39 19.88 66.39 19.8 66.39 19.72C66.3968 18.554 66.4635 17.3891 66.59 16.23C66.7476 14.9809 66.4493 13.7169 65.75 12.67C66.24 13.3 65.83 15.56 65.63 16.33C65.49 16.86 62.74 21.97 62.37 21.15C61.9866 20.2718 61.8245 19.3131 61.8977 18.3577C61.9709 17.4023 62.2773 16.4795 62.79 15.67C61.7513 16.1371 60.8967 16.9354 60.36 17.94C60.372 17.2519 60.5557 16.5777 60.8945 15.9787C61.2333 15.3797 61.7164 14.8748 62.3 14.51C61.5602 14.8083 60.8873 15.2512 60.3207 15.8126C59.754 16.3741 59.305 17.0429 59 17.78C58.886 16.1934 59.3436 14.6185 60.29 13.34C58.9537 14.4256 57.9204 15.8379 57.29 17.44C57.727 16.5296 58.0623 15.5738 58.29 14.59C58.5269 13.602 58.4247 12.563 58 11.64C57.9493 12.4355 57.738 13.2124 57.3788 13.924C57.0196 14.6355 56.5199 15.2669 55.91 15.78C56.2936 14.7467 56.575 13.6782 56.75 12.59C56.81 12.1 56.58 11.18 56.75 10.78C56.11 12.32 55.01 14.34 53.5 15.18C54.2071 14.2522 54.6981 13.1781 54.9368 12.0362C55.1756 10.8943 55.1562 9.71343 54.88 8.58C55.23 9.73 53.48 12.04 52.57 12.58C52.873 11.637 53.0183 10.6504 53 9.66C52.6465 10.6429 52.0637 11.5274 51.3 12.24C51.1784 10.8392 51.4194 9.43064 52 8.15C50.7388 8.8931 49.8223 10.1043 49.45 11.52C49.3256 10.728 49.3634 9.91895 49.5611 9.14198C49.7588 8.365 50.1122 7.63628 50.6 7C49.8461 7.37641 49.1829 7.91204 48.6563 8.56986C48.1297 9.22768 47.7522 9.992 47.55 10.81C47.67 9.18 47.77 7.43 46.94 6.02C46.8753 7.60844 46.366 9.14682 45.47 10.46C45.7241 8.93168 45.3647 7.36484 44.47 6.1C44.7678 6.95622 44.8414 7.87442 44.6839 8.76716C44.5263 9.65989 44.1429 10.4974 43.57 11.2C43.8074 9.48982 43.5252 7.74775 42.76 6.2C42.8225 6.86967 42.7296 7.54473 42.4885 8.17262C42.2474 8.8005 41.8646 9.36426 41.37 9.82C41.0402 9.09261 40.779 8.33599 40.59 7.56C40.5247 6.68602 40.6058 5.80726 40.83 4.96C41.1102 3.23374 41.9417 1.64455 43.2 0.43C40.59 1.43 39.07 4.36 37.65 6.57C37.77 5.32288 37.77 4.06712 37.65 2.82C37.4773 2.00068 37.2157 1.20263 36.87 0.44C37.0075 2.86346 36.5974 5.28679 35.67 7.53C35.5684 6.51689 35.1563 5.5599 34.49 4.79C33.6744 3.78184 32.6188 2.99447 31.42 2.5C32.95 3.11 33.6 5.6 33.51 7.06C33.2239 6.50317 32.8136 6.01963 32.3107 5.64681C31.8078 5.27398 31.2259 5.02188 30.61 4.91C31.4051 5.66625 31.9838 6.62118 32.2862 7.67602C32.5886 8.73087 32.6037 9.84735 32.33 10.91C32.2678 11.1666 32.1842 11.4174 32.08 11.66V11.75C31.974 11.9903 31.8538 12.224 31.72 12.45C31.3363 12.9813 30.9857 13.5357 30.67 14.11C30.5106 14.4014 30.4313 14.7298 30.4401 15.0617C30.4489 15.3937 30.5455 15.7175 30.72 16C31.38 16.85 32.72 16.75 33.48 17.63C33.8753 17.9671 34.3163 18.2466 34.79 18.46C34.9535 18.5889 35.1237 18.7091 35.3 18.82C35.7167 18.9782 36.1445 19.1052 36.58 19.2L36.75 19.28C36.8139 19.3289 36.8711 19.3861 36.92 19.45C37.7609 20.477 38.9297 21.1832 40.23 21.45C40.73 21.55 40.99 22.14 41.37 22.45C41.5535 22.6076 41.751 22.7481 41.96 22.87C42.1422 22.9822 42.3368 23.0728 42.54 23.14C42.72 23.19 42.9 23.21 43.08 23.26C43.4639 23.3794 43.8207 23.5731 44.13 23.83L44.42 24.02C45.87 24.13 46.74 25.02 48.04 26.02C48.85 26.62 49.86 26.86 50.68 27.47C51.11 27.79 51.5 28.15 51.9 28.47L52.24 28.64L52.42 28.75C52.74 28.9167 53.0733 29.0767 53.42 29.23L54.62 29.85L54.73 29.94C55.019 30.1511 55.331 30.3289 55.66 30.47C55.9362 30.5558 56.1779 30.7274 56.35 30.96C56.4977 31.1392 56.6693 31.2974 56.86 31.43C57.139 31.6883 57.4859 31.8618 57.86 31.93C58.04 31.9048 58.2234 31.9205 58.3965 31.9759C58.5696 32.0313 58.728 32.125 58.86 32.25C59.5665 33.0196 60.5307 33.5035 61.57 33.61C62.1304 33.7075 62.671 33.8967 63.17 34.17L63.35 34.12C64.1566 33.9277 64.9133 33.5664 65.57 33.06C65.8161 32.8224 66.0342 32.5573 66.22 32.27C66.46 31.91 66.47 31.87 66.9 31.81C67.1144 31.7668 67.3183 31.6818 67.5 31.56L68.5 30.99C68.728 30.8851 68.9196 30.7145 69.05 30.5C69.0799 30.4153 69.1202 30.3347 69.17 30.26C69.32 30.08 69.6 30.15 69.84 30.15C70.1263 30.1134 70.4002 30.0107 70.64 29.85L72 29.14C72.5617 28.8376 73.1059 28.5038 73.63 28.14C73.63 27.83 73.55 27.51 73.52 27.14C73.49 26.83 73.47 26.52 73.45 26.2Z" fill="#A4C90A"/>
<path d="M67 28.72C67.0152 28.6313 67.0387 28.5443 67.07 28.46C67.1041 28.3498 67.1476 28.2427 67.2 28.14C67.42 27.7 68.44 26.14 68.98 26.07C68.1452 26.1519 67.3677 26.5317 66.79 27.14C66.2207 27.747 65.7241 28.4181 65.31 29.14C64.6865 28.7731 64.22 28.1892 64 27.5C63.7 26.31 64.53 25.14 65.43 24.31C66.4816 23.3447 67.6886 22.5637 69 22C67.6048 21.8799 66.1998 21.9404 64.82 22.18C64.3834 22.2039 63.9588 22.3316 63.5814 22.5525C63.204 22.7733 62.8847 23.081 62.65 23.45L63.22 21.29C62.3021 22.1699 61.2969 22.954 60.22 23.63C60.7549 21.8255 60.7549 19.9045 60.22 18.1C59.5941 19.9051 58.4794 21.501 57 22.71C57.5941 21.0629 57.6466 19.2691 57.15 17.59C57.0339 18.4495 56.8157 19.2921 56.5 20.1C55.94 21.37 55.1 21.71 53.98 22.32C55.1214 20.5911 55.669 18.5377 55.54 16.47C55.3111 17.3289 54.9091 18.132 54.3589 18.8301C53.8087 19.5283 53.1217 20.1067 52.34 20.53C52.68 19.63 53.03 18.73 53.34 17.82L51.26 20.82C51.2027 19.3612 51.5488 17.9149 52.26 16.64C50.1364 17.9895 48.5244 20.0098 47.68 22.38C47.43 19.78 48.32 17.22 49.19 14.75C48.654 15.1301 48.0384 15.3831 47.39 15.49C47.9116 14.95 48.3467 14.3327 48.68 13.66C48.12 13.92 47.56 14.23 46.99 14.44C47.2309 13.5295 47.6909 12.6918 48.33 12C47.0065 12.789 45.832 13.8044 44.86 15C44.7338 13.8228 44.8288 12.6323 45.14 11.49C44.3719 12.6544 43.4982 13.7457 42.53 14.75C43.0913 13.4842 43.1379 12.0496 42.66 10.75C42.6219 12.1534 42.1464 13.5099 41.3 14.63C40.76 13.63 39.84 12.89 39.3 11.9C38.7332 10.834 38.5329 9.61112 38.73 8.42C38.7646 8.18363 38.8147 7.94979 38.88 7.72C38.88 7.61 38.88 7.5 38.96 7.4C39.2002 6.58657 39.5359 5.80446 39.96 5.07C38.9452 6.0018 38.1171 7.11836 37.52 8.36C37.37 8.65 37.24 8.93 37.11 9.22C37.11 9.3 37.02 9.4 36.94 9.39C36.86 9.38 36.8 9.18 36.85 9.05C36.9166 8.85518 36.9635 8.65418 36.99 8.45V8.36C37.015 8.16413 37.015 7.96587 36.99 7.77C36.9761 7.54277 36.9358 7.31793 36.87 7.1C36.8528 7.34196 36.8194 7.5825 36.77 7.82C36.7005 8.227 36.5796 8.62352 36.41 9V9.05C36.3694 9.13657 36.3226 9.22012 36.27 9.3L36.18 9.46L36.03 9.66L35.88 9.85L35.7 10C35.6315 10.0718 35.558 10.1386 35.48 10.2L35.35 10.32C35.21 10.42 35.08 10.52 34.93 10.61C34.9725 10.3823 34.9959 10.1515 35 9.92C35 9.92 35 9.86 35 9.83C35.0015 9.59815 34.9781 9.36682 34.93 9.14C34.8453 8.61975 34.6438 8.12544 34.3408 7.69419C34.0377 7.26294 33.6408 6.90594 33.18 6.65C33.6162 7.35044 33.7732 8.18921 33.62 9C33.6064 9.58836 33.5053 10.1714 33.32 10.73C33.2262 11.0095 33.0756 11.2666 32.8777 11.4851C32.6798 11.7037 32.4389 11.8789 32.17 12C32.2369 11.8162 32.2806 11.6247 32.3 11.43C32.3149 11.2603 32.3149 11.0897 32.3 10.92C32.3079 10.351 32.2131 9.78529 32.02 9.25C31.674 8.37978 31.2312 7.55124 30.7 6.78C30.9493 7.51967 31.0275 8.30624 30.9288 9.08051C30.83 9.85478 30.5569 10.5966 30.13 11.25C30.1557 10.1488 29.8028 9.07218 29.13 8.2C29.18 9.9 29.18 11.74 28.13 13.08C27.63 13.72 27.62 14.08 27.88 14.41C27.9281 14.4714 27.9817 14.5283 28.04 14.58C28.24 14.76 28.5 14.96 28.79 15.22C28.9751 15.3609 29.1809 15.4722 29.4 15.55C29.8478 15.7519 30.3229 15.8866 30.81 15.95C31.27 16.77 32.2 16.61 32.9 17.02C33.11 17.14 33.22 17.38 33.38 17.57C33.7753 17.9071 34.2164 18.1866 34.69 18.4C34.8535 18.5289 35.0238 18.6491 35.2 18.76C35.6167 18.9182 36.0445 19.0452 36.48 19.14L36.65 19.22C36.714 19.2689 36.7711 19.3261 36.82 19.39C37.661 20.417 38.8298 21.1232 40.13 21.39C40.63 21.49 40.89 22.08 41.27 22.39C41.4536 22.5476 41.6511 22.6881 41.86 22.81C42.0422 22.9222 42.2369 23.0128 42.44 23.08C42.62 23.13 42.8 23.15 42.98 23.2C43.3015 23.2949 43.603 23.4474 43.87 23.65C44.8496 23.8982 45.755 24.3784 46.51 25.05C47.5088 25.5151 48.4515 26.0921 49.32 26.77C50.32 27.4 51.27 27.98 52.18 28.66L52.32 28.75C53.4651 29.3783 54.3874 30.346 54.96 31.52C55.429 32.3443 56.0076 33.1012 56.68 33.77C56.86 33.93 57.05 34.07 57.24 34.21C58.0828 34.7866 59.0155 35.2191 60 35.49L60.78 35.69C60.9025 35.6008 61.0163 35.5004 61.12 35.39C61.3291 35.0857 61.5978 34.8271 61.91 34.63C62.373 34.4519 62.8474 34.3049 63.33 34.19C64.1367 33.9977 64.8934 33.6364 65.55 33.13C65.7962 32.8924 66.0142 32.6273 66.2 32.34C66.44 31.98 66.45 31.94 66.88 31.88C67.0945 31.8368 67.2983 31.7518 67.48 31.63L68.48 31.06C68.6645 30.9677 68.8279 30.8383 68.96 30.68C68.6012 30.5401 68.2506 30.3799 67.91 30.2C67.3 29.87 66.89 29.45 67 28.72Z" fill="#8FBB02"/>
<path d="M41.8799 46.01L41.8299 51.39L6.56995 31.03L6.58995 29.2L6.61995 25.85L11.1699 26.51L25.5799 34.47L41.8799 46.01Z" fill="#90B706"/>
<path d="M38.42 46.73C37.37 45.73 36.83 44.4 35.42 43.73C34.7765 43.43 34.107 43.189 33.42 43.01C31.1901 42.4112 29.002 41.6663 26.87 40.78C25.7782 40.3072 24.7447 39.7099 23.79 39C21.79 37.44 20.66 34.89 18.44 33.68C16.85 32.81 14.96 32.77 13.19 32.42C10.72 31.94 9.18997 31.42 7.50997 29.96C6.94997 29.46 6.58997 29.17 6.58997 29.17V31L41.83 51.39V49.56C40.6307 48.6948 39.4914 47.7493 38.42 46.73Z" fill="#E4980A"/>
<path d="M33.19 29C30.94 28.38 31.37 25 31.28 23.17C31.28 22.23 30.97 16.95 29.67 16.84C30.1267 16.8857 30.5638 17.0488 30.9388 17.3134C31.3138 17.578 31.6139 17.9351 31.81 18.35C31.8505 17.1162 31.7295 15.8824 31.45 14.68C32.0509 15.6915 32.55 16.7601 32.94 17.87C33.01 15.58 34.56 13.65 36.04 11.87C35.1156 13.7255 34.7674 15.815 35.04 17.87C35.2 15.58 37.36 14.03 39.31 12.82C38.0205 14.3349 37.2157 16.2023 37 18.18C38.456 16.731 40.4071 15.8877 42.46 15.82C41.6239 16.1333 40.8918 16.6737 40.3459 17.3803C39.8 18.087 39.4621 18.9318 39.37 19.82C40.8735 18.9684 42.1629 17.785 43.14 16.36C43.1095 18.5416 42.2181 20.6227 40.66 22.15C42.275 20.9262 43.6341 19.3973 44.66 17.65C44.4932 19.0792 43.9932 20.4494 43.2 21.65C42.2344 23.6635 40.94 25.502 39.37 27.09C38.5806 27.898 37.6018 28.4959 36.5225 28.8295C35.4432 29.1631 34.2977 29.2217 33.19 29Z" fill="#C0DD1D"/>
<path d="M24.42 26.78C22.08 26.78 21.62 23.34 21.09 21.63C20.8 20.73 19.19 15.7 17.91 15.92C18.3623 15.845 18.8263 15.8895 19.2561 16.0491C19.6858 16.2088 20.0664 16.4779 20.36 16.83C20.0861 15.6244 19.6522 14.4607 19.07 13.37C19.9143 14.1935 20.6716 15.1016 21.33 16.08C20.81 13.85 21.82 11.59 22.8 9.52C22.4073 11.5356 22.616 13.6221 23.4 15.52C22.97 13.27 24.67 11.22 26.24 9.52C25.3578 11.3206 25.0373 13.3449 25.32 15.33C26.3681 13.5746 28.0391 12.2785 30 11.7C29.2649 12.215 28.6882 12.925 28.3348 13.7501C27.9815 14.5752 27.8655 15.4826 28 16.37C29.2386 15.1583 30.1858 13.6812 30.77 12.05C31.2959 14.1668 30.9653 16.4056 29.85 18.28C31.096 16.6845 32.0167 14.8601 32.56 12.91C32.7681 14.3468 32.638 15.8123 32.18 17.19C31.7598 19.3879 30.9757 21.5003 29.86 23.44C29.2959 24.3994 28.5048 25.2057 27.5563 25.788C26.6078 26.3704 25.5309 26.711 24.42 26.78Z" fill="#C0DD1D"/>
<path d="M52.77 36.46C52.7665 36.5133 52.7665 36.5667 52.77 36.62C53.1864 35.7732 53.8532 35.075 54.68 34.62C53.55 36.31 53.55 38.31 52.75 40.12C53.5497 39.7508 54.265 39.2212 54.8516 38.5641C55.4382 37.907 55.8835 37.1363 56.16 36.3C56.7848 37.2947 57.3075 38.3501 57.72 39.45C58.1701 38.8955 58.4487 38.2217 58.5215 37.5111C58.5943 36.8006 58.4583 36.0843 58.13 35.45C59.2998 36.2259 60.3915 37.1133 61.39 38.1C61.39 37.76 59.79 33.36 59.39 33.73C59.9608 33.2962 60.6784 33.1024 61.39 33.19C62.0997 33.2892 62.7927 33.4844 63.45 33.77C63.124 33.1344 62.6558 32.5826 62.0817 32.1577C61.5075 31.7327 60.843 31.446 60.14 31.32C61.14 30.76 62.14 30.06 63.14 29.52C62.1658 29.6915 61.2111 29.9595 60.29 30.32C61.66 29 62 27 62.34 25.09C61.6533 26.6865 60.5127 28.0461 59.06 29C60.43 27.64 60.23 25.41 59.93 23.5C59.6922 25.1811 58.9494 26.7504 57.8 28C57.9215 26.2744 57.3856 24.5668 56.3 23.22C56.5658 23.9269 56.6262 24.6945 56.474 25.4343C56.3218 26.174 55.9633 26.8555 55.44 27.4C55.147 25.9421 55.1949 24.4363 55.58 23C54.8955 23.6015 54.3371 24.3328 53.9371 25.1516C53.5372 25.9704 53.3036 26.8603 53.25 27.77C53.1447 26.0756 53.3723 24.3769 53.92 22.77C52.51 24.08 51.92 26.32 51.39 28.11C49.9659 27.4477 48.3637 27.2721 46.83 27.61C48.48 28.35 50.25 29.19 51.08 30.8C50.5931 30.7036 50.0896 30.7329 49.6172 30.8851C49.1448 31.0373 48.719 31.3075 48.38 31.67C47.7084 32.3871 46.9866 33.0555 46.22 33.67C47.6879 33.0123 49.2954 32.7272 50.9 32.84L49.61 34.74C50.2471 34.4223 50.918 34.1774 51.61 34.01C51.1292 34.5048 50.6879 35.0364 50.29 35.6C50.0228 35.9015 49.8224 36.2559 49.7018 36.6402C49.5811 37.0245 49.543 37.43 49.59 37.83C50.59 36.4 51.79 34.89 53.46 34.29C53.1636 34.9905 52.9327 35.717 52.77 36.46Z" fill="#C0DD1D"/>
<path d="M48.65 30.52C50.7731 29.5088 53.1719 29.231 55.47 29.73C54.229 30.2112 53.1211 30.9825 52.2391 31.9793C51.3571 32.9762 50.7265 34.1696 50.4 35.46C50.09 36.77 50.09 38.14 49.76 39.46C49.7552 39.6318 49.7153 39.8007 49.6428 39.9565C49.5703 40.1123 49.4667 40.2516 49.3384 40.3658C49.2101 40.4801 49.0598 40.5669 48.8967 40.6209C48.7335 40.675 48.5611 40.6951 48.39 40.68C47.4182 40.6902 46.4516 40.5381 45.53 40.23C41.8336 39.0705 38.6195 36.731 36.38 33.57C35.6311 32.3302 34.8061 31.1379 33.91 30C33.5 29.55 32.91 29.4 32.61 28.88C31.88 27.65 32.61 25.64 33.05 24.41C33.3563 23.6979 33.5486 22.9419 33.62 22.17C33.629 21.6627 33.5122 21.1611 33.28 20.71C33.7916 21.0635 34.2411 21.4994 34.61 22C34.9877 22.505 35.1658 23.1318 35.11 23.76C35.91 22.06 35.35 20.05 34.54 18.46C35.2104 18.8318 35.7763 19.3667 36.1853 20.0152C36.5943 20.6636 36.8332 21.4047 36.88 22.17C36.95 21.17 37.03 20.1 37.11 19.07C37.4523 19.7817 37.6881 20.5398 37.81 21.32C38.0756 19.6575 38.9398 18.1496 40.24 17.08C39.789 17.775 39.4892 18.557 39.36 19.3753C39.2308 20.1936 39.2751 21.0299 39.49 21.83C41.0306 19.6778 41.786 17.0621 41.63 14.42C42.1417 15.8284 42.3689 17.3243 42.2985 18.8211C42.2281 20.3179 41.8615 21.7858 41.22 23.14C41.9208 21.946 42.9196 20.9543 44.1185 20.262C45.3174 19.5696 46.6755 19.2002 48.06 19.19C46.9969 19.6414 45.9901 20.2153 45.06 20.9C44.1108 21.5967 43.438 22.6059 43.16 23.75C43.4583 23.1977 43.8778 22.7201 44.3869 22.353C44.8961 21.9858 45.4817 21.7387 46.1 21.63C47.3368 21.4234 48.598 21.4065 49.84 21.58C48.36 22.04 45.63 22.77 45.92 24.84C46.869 24.0819 47.8716 23.3935 48.92 22.78C48.31 24.18 47.28 25.42 46.78 26.85C48.3066 26.205 49.5738 25.068 50.38 23.62C51.1499 22.1778 51.6706 20.6158 51.92 19C52.2 21.47 51.21 23.88 50.24 26.16C51.3872 25.7537 52.6104 25.6075 53.821 25.732C55.0317 25.8565 56.1995 26.2487 57.24 26.88C55.6175 26.7149 53.9796 26.9619 52.4781 27.5982C50.9765 28.2345 49.6598 29.2394 48.65 30.52Z" fill="#73A905"/>
<path d="M49.91 39.93C49.8167 39.1171 49.6663 38.3118 49.46 37.52C49.4235 36.7897 49.4976 36.0581 49.68 35.35C50.1816 33.7435 50.9125 32.2177 51.85 30.82C51.1241 31.0161 50.4303 31.3158 49.79 31.71C49.036 32.4659 48.3655 33.3007 47.79 34.2C47.405 31.9262 47.8334 29.5894 49 27.6C48.7354 27.6408 48.4839 27.7423 48.2653 27.8968C48.0467 28.0512 47.8668 28.2543 47.74 28.49C46.9407 29.6041 46.3511 30.8545 46 32.18C45.9787 30.9338 46.0422 29.6876 46.19 28.45C46.346 27.2041 46.0478 25.9438 45.35 24.9C45.4836 26.4599 45.338 28.0312 44.92 29.54C44.4956 31.0639 43.5373 32.3842 42.22 33.26C41.82 33.51 41.63 30.32 41.71 30.02C42.1315 28.8782 42.7547 27.8214 43.55 26.9C42.1189 27.254 40.8838 28.1552 40.11 29.41C40.2714 27.3723 41.146 25.4567 42.58 24C41.6707 24.2521 40.8278 24.7007 40.1107 25.3141C39.3937 25.9275 38.8199 26.6907 38.43 27.55C38.8975 26.4168 39.194 25.2204 39.31 24C39.3635 23.3939 39.2965 22.7831 39.1129 22.203C38.9293 21.6229 38.6326 21.0849 38.24 20.62C38.3866 21.6736 38.2976 22.7466 37.9795 23.7617C37.6613 24.7768 37.1218 25.7086 36.4 26.49C36.4 25.29 36.4 24.08 36.4 22.88C36.1662 23.7498 35.8306 24.5889 35.4 25.38C35.2087 25.781 34.9594 26.1517 34.66 26.48C34.51 26.62 33.76 26.97 33.71 27.1C34.44 25.05 35.18 22.84 34.55 20.77C34.2125 22.226 33.5261 23.5782 32.55 24.71C32.8692 23.5162 33.0306 22.2857 33.03 21.05C31.7976 22.1703 30.8688 23.5841 30.33 25.16C30.12 23.29 31.76 18.3 34.26 18.35C32.8587 18.4229 31.5051 18.8833 30.35 19.68C29.35 20.25 28.35 21.12 28.5 22.22C28.239 21.039 28.2187 19.8176 28.4404 18.6286C28.662 17.4397 29.121 16.3076 29.79 15.3C28.6704 16.067 27.7565 17.0975 27.1288 18.3007C26.501 19.5039 26.1786 20.8429 26.19 22.2C26.19 20.55 26.05 18.69 24.84 17.57C25.33 20 24.61 22 23.53 24.12C23.4791 22.6106 23.2611 21.1114 22.88 19.65C22.7443 20.9517 22.206 22.1787 21.34 23.16C21.2006 22.9718 21.0736 22.7748 20.96 22.57C20.9141 22.4966 20.874 22.4197 20.84 22.34C20.77 22.22 20.71 22.09 20.65 21.96L20.53 21.66C20.53 21.55 20.45 21.44 20.42 21.34C20.39 21.24 20.35 21.09 20.32 20.97C20.292 20.8813 20.2686 20.7912 20.25 20.7C20.25 20.56 20.2 20.42 20.17 20.28V20.06C20.17 19.9 20.17 19.74 20.17 19.58C20.1746 19.5268 20.1746 19.4732 20.17 19.42V18.89C20.17 18.89 20.17 18.83 20.17 18.8C20.17 18.6 20.17 18.4 20.17 18.21C20.4215 16.0915 21.3839 14.1209 22.9 12.62C20.29 13.62 18.77 16.54 17.35 18.75C17.4699 17.5062 17.4699 16.2538 17.35 15.01C17.1924 14.1896 16.9477 13.3884 16.62 12.62C16.7576 15.0476 16.344 17.475 15.41 19.72C15.2567 18.6941 14.7844 17.7424 14.06 17C13.2475 15.9977 12.1949 15.2169 11 14.73C11 14.73 13.12 16.99 13.42 18.73C13.5913 19.4797 13.5707 20.2604 13.36 21C12.9269 21.9211 12.231 22.6934 11.36 23.22C11.13 23.4 9.98999 24.1 9.90999 24.13C9.30734 24.4852 8.72631 24.8759 8.16999 25.3C7.7752 25.6131 7.41933 25.9723 7.10999 26.37H7.18999C7.38999 26.5 7.57999 26.64 7.76999 26.78C7.95999 26.92 8.20999 27.23 8.45999 27.45C8.64596 27.592 8.8514 27.7065 9.06999 27.79C9.51779 27.9919 9.99289 28.1266 10.48 28.19C10.94 29.01 11.87 28.85 12.57 29.26C12.78 29.38 12.89 29.62 13.05 29.81C13.4453 30.1471 13.8863 30.4266 14.36 30.64C14.5235 30.7689 14.6937 30.8891 14.87 31C15.2876 31.1554 15.7152 31.2824 16.15 31.38C16.211 31.3963 16.2685 31.4234 16.32 31.46C16.3839 31.5089 16.4411 31.5661 16.49 31.63C17.3309 32.6569 18.4997 33.3632 19.8 33.63C20.3 33.73 20.56 34.32 20.94 34.63C21.1276 34.7868 21.3284 34.9274 21.54 35.05C21.7177 35.1639 21.9093 35.2546 22.11 35.32C22.29 35.32 22.48 35.39 22.66 35.44C23.042 35.5639 23.398 35.7571 23.71 36.01L23.99 36.2C25.44 36.31 26.31 37.25 27.61 38.2C28.42 38.8 29.43 39.04 30.25 39.65C30.6737 39.962 31.0809 40.2958 31.47 40.65L31.81 40.81L32 41C32.3231 41.1804 32.6571 41.3407 33 41.48L34.2 42.11L34.31 42.19C34.5964 42.4079 34.9088 42.5892 35.24 42.73C35.5182 42.8118 35.7611 42.9843 35.93 43.22C36.0777 43.3992 36.2493 43.5574 36.44 43.69C36.719 43.9483 37.0659 44.1218 37.44 44.19C37.6192 44.1656 37.8016 44.1807 37.9743 44.2343C38.1471 44.2878 38.306 44.3785 38.44 44.5C38.7042 44.7881 38.9993 45.0463 39.32 45.27C39.9631 45.7053 40.6675 46.0423 41.41 46.27C41.6307 46.3768 41.8803 46.4081 42.1205 46.3594C42.3608 46.3106 42.5784 46.1844 42.74 46C42.8067 45.9019 42.8876 45.8143 42.98 45.74C43.3587 45.598 43.7506 45.4942 44.15 45.43C44.5898 45.2501 45.0117 45.0291 45.41 44.77C45.93 44.43 46.41 44.06 46.99 43.77C47.57 43.48 47.74 42.99 48.22 42.77C48.4116 42.6926 48.614 42.6454 48.82 42.63C49.2068 42.5499 49.5782 42.4081 49.92 42.21C50.8377 41.7935 51.661 41.1947 52.34 40.45C52.4244 40.3355 52.5255 40.2344 52.64 40.15L52.84 40.08C52.84 39.59 52.84 39.08 52.84 38.59C52.84 38.44 52.84 38.29 52.84 38.14C52.84 37.99 52.84 37.63 52.84 37.38C52.8443 37.3234 52.8443 37.2666 52.84 37.21C52.84 36.93 52.9 36.66 52.95 36.4C53.2574 34.5719 54.1076 32.8786 55.39 31.54C53.9259 32.4609 52.6781 33.6875 51.7323 35.1356C50.7864 36.5837 50.1648 38.2192 49.91 39.93Z" fill="#A4C90A"/>
<path opacity="0.37" d="M47.49 42.4C46.3 42.2 46.35 41.26 46.8 40.4C47.02 39.96 48.04 38.4 48.58 38.32C47.7452 38.4097 46.9693 38.7924 46.39 39.4C45.8207 40.007 45.324 40.6781 44.91 41.4C44.2863 41.0307 43.8174 40.4482 43.59 39.76C43.29 38.58 44.12 37.41 45.02 36.58C46.0662 35.6096 47.2657 34.8189 48.57 34.24C47.1742 34.1283 45.7699 34.1921 44.39 34.43C43.9539 34.4505 43.5294 34.5769 43.1531 34.7981C42.7768 35.0194 42.4599 35.3289 42.23 35.7C42.41 34.98 42.6 34.26 42.79 33.54C41.8721 34.4199 40.8669 35.204 39.79 35.88C40.3251 34.0721 40.3251 32.1479 39.79 30.34C39.1731 32.1529 38.0654 33.7592 36.59 34.98C37.1818 33.3329 37.2378 31.5408 36.75 29.86C36.627 30.716 36.4055 31.5549 36.09 32.36C35.53 33.64 34.69 33.98 33.57 34.59C34.7114 32.8611 35.259 30.8077 35.13 28.74C34.8983 29.5977 34.4954 30.3996 33.9454 31.0974C33.3954 31.7952 32.7098 32.3744 31.93 32.8C32.28 31.9 32.62 30.99 32.93 30.09L30.85 33.09C30.7927 31.6312 31.1387 30.1849 31.85 28.91C29.7222 30.2548 28.1089 32.2767 27.27 34.65C27.03 32.04 27.91 29.48 28.79 27.02C28.2498 27.3925 27.636 27.6448 26.99 27.76C27.503 27.2152 27.9341 26.5987 28.27 25.93C27.72 26.19 27.15 26.5 26.58 26.71C26.8148 25.8233 27.2608 25.0067 27.88 24.33C26.5511 25.1154 25.3727 26.1313 24.4 27.33C24.2738 26.1528 24.3687 24.9623 24.68 23.82C23.9149 24.9536 23.0516 26.0177 22.1 27C22.6613 25.7342 22.7079 24.2996 22.23 23C22.1973 24.3997 21.725 25.7537 20.88 26.87C20.33 25.87 19.41 25.14 18.88 24.15C18.3139 23.0838 18.1136 21.8611 18.31 20.67C18.5176 19.4846 18.945 18.3484 19.57 17.32C18.3241 18.475 17.3506 19.8925 16.72 21.47C16.72 21.55 16.63 21.65 16.55 21.64C16.47 21.63 16.42 21.43 16.46 21.3C16.6697 20.6669 16.6697 19.9831 16.46 19.35C16.34 20.97 15.46 22.7 13.78 22.95C13.49 22.95 12.06 22.76 11.95 22.86L11.38 23.28C11.15 23.46 10.01 24.16 9.92999 24.19C9.32202 24.5251 8.73434 24.8957 8.16999 25.3C7.7752 25.6131 7.41933 25.9723 7.10999 26.37H7.18999C7.38999 26.5 7.57999 26.64 7.76999 26.78C7.95999 26.92 8.20999 27.23 8.45999 27.45C8.64596 27.592 8.8514 27.7065 9.06999 27.79C9.51779 27.9919 9.99289 28.1266 10.48 28.19C10.94 29.01 11.87 28.85 12.57 29.26C12.78 29.38 12.89 29.62 13.05 29.81C13.4453 30.1471 13.8863 30.4266 14.36 30.64C14.5235 30.7689 14.6937 30.8891 14.87 31C15.2876 31.1554 15.7152 31.2824 16.15 31.38C16.211 31.3963 16.2685 31.4234 16.32 31.46C16.3839 31.5089 16.4411 31.5661 16.49 31.63C17.3309 32.6569 18.4997 33.3632 19.8 33.63C20.3 33.73 20.56 34.32 20.94 34.63C21.1276 34.7868 21.3284 34.9274 21.54 35.05C21.7177 35.1639 21.9093 35.2546 22.11 35.32C22.29 35.32 22.48 35.39 22.66 35.44C22.9791 35.533 23.2777 35.6857 23.54 35.89C24.5217 36.1403 25.4299 36.6202 26.19 37.29C27.188 37.7764 28.1302 38.3699 29 39.06C29.95 39.7 30.94 40.28 31.86 40.96L32 41C32.3231 41.1804 32.6571 41.3407 33 41.48L34.2 42.11L34.31 42.19C34.5964 42.4079 34.9088 42.5892 35.24 42.73C35.5182 42.8118 35.7611 42.9843 35.93 43.22C36.0777 43.3992 36.2493 43.5574 36.44 43.69C36.719 43.9483 37.0659 44.1218 37.44 44.19C37.6192 44.1656 37.8016 44.1807 37.9743 44.2343C38.1471 44.2878 38.306 44.3785 38.44 44.5C38.7042 44.7881 38.9993 45.0463 39.32 45.27C39.9631 45.7053 40.6675 46.0423 41.41 46.27C41.6307 46.3768 41.8803 46.4082 42.1205 46.3594C42.3608 46.3106 42.5784 46.1844 42.74 46C42.8067 45.9019 42.8876 45.8143 42.98 45.74C43.3587 45.598 43.7506 45.4942 44.15 45.43C44.5898 45.2501 45.0117 45.0291 45.41 44.77C45.93 44.43 46.41 44.06 46.99 43.77C47.57 43.48 47.74 42.99 48.22 42.77C48.4116 42.6926 48.614 42.6454 48.82 42.63H48.92C48.4373 42.5967 47.9587 42.5197 47.49 42.4Z" fill="#79AF07"/>
<path d="M68.0601 31.48C68.0601 31.48 68.0901 31.45 68.0601 31.48V31.48Z" fill="#A6776B"/>
<path d="M30.18 39.41L30.32 39.54C31.7964 40.6879 33.4384 41.605 35.19 42.26C36.34 42.75 38.42 44.31 39.64 43.77C40.1312 43.5009 40.6024 43.1967 41.05 42.86C41.6829 42.4748 42.4013 42.2522 43.1411 42.2121C43.8809 42.172 44.6192 42.3155 45.29 42.63C44.9997 42.0163 44.582 41.4715 44.0648 41.0318C43.5475 40.5921 42.9425 40.2676 42.29 40.08C43.2374 39.7588 44.2297 39.59 45.23 39.58C43.8021 38.9019 42.1658 38.8086 40.67 39.32C42.3375 37.9166 44.4062 37.0765 46.58 36.92C44.23 35.77 41.43 36.49 38.93 37.25C39.5579 36.3143 40.3675 35.5144 41.3106 34.8977C42.2537 34.281 43.3111 33.8601 44.42 33.66C42.7122 33.3907 40.965 33.5277 39.32 34.06C40.6884 32.6761 42.4799 31.7892 44.41 31.54C42.86 30.54 40.84 30.91 39.05 31.32C40.3921 29.937 41.2001 28.1228 41.33 26.2C40.6291 27.7974 39.4703 29.1512 38 30.09C39.37 28.73 39.17 26.5 38.87 24.59C38.6265 26.2605 37.8841 27.8186 36.74 29.06C36.863 27.3373 36.3268 25.6323 35.24 24.29C35.5059 24.9969 35.5662 25.7645 35.414 26.5043C35.2618 27.244 34.9033 27.9255 34.38 28.47C34.1008 27.0378 34.1487 25.5611 34.52 24.15C33.8364 24.7522 33.2785 25.4837 32.8787 26.3023C32.4788 27.1209 32.2448 28.0106 32.19 28.92C32.0832 27.2255 32.3108 25.5266 32.86 23.92C32.62 24.61 31.69 25.3 31.37 26.05C31.0394 26.9357 30.8439 27.8661 30.79 28.81C30.77 27.9193 30.4531 27.0608 29.8898 26.3706C29.3264 25.6804 28.5487 25.198 27.68 25C27.9373 25.2345 28.1412 25.5215 28.2779 25.8416C28.4146 26.1618 28.4809 26.5075 28.4724 26.8555C28.4639 27.2035 28.3807 27.5456 28.2284 27.8587C28.0762 28.1717 27.8585 28.4484 27.59 28.67C27.25 29.03 26.83 29.31 26.45 29.67C25.7115 30.2103 25.1806 30.9875 24.9459 31.872C24.7111 32.7564 24.7867 33.6946 25.16 34.53C25.6314 35.4234 26.2979 36.1993 27.11 36.8L30.18 39.41Z" fill="#C0DD1D"/>
<path d="M45 35.79C43.2121 36.1269 41.5437 36.9265 40.1611 38.109C38.7785 39.2916 37.7299 40.8159 37.12 42.53C36.79 40.4 38.3 38.27 38.65 36.2C39.0452 34.0207 38.6479 31.772 37.53 29.86C38.1176 31.7423 38.1569 33.7529 37.6433 35.6567C37.1298 37.5605 36.0845 39.2786 34.63 40.61C34.7919 39.545 35.0737 38.5017 35.47 37.5C35.6912 36.8508 35.8453 36.1806 35.93 35.5C36.11 33.93 36.07 32.82 36.38 32.5C34.6585 34.6374 33.5491 37.2018 33.17 39.92C32.579 38.4915 32.3788 36.9314 32.59 35.4C32.5965 33.8106 33.1194 32.2663 34.08 31C33.3548 31.8014 32.7669 32.7171 32.34 33.71C31.9277 34.7367 31.5934 35.793 31.34 36.87C31.1648 35.5473 30.8394 34.2489 30.37 33C30.0302 31.8996 29.5244 30.8576 28.87 29.91C29.3134 31.9076 29.4583 33.9599 29.3 36C29.3036 36.4564 29.1318 36.8967 28.82 37.23C28.2 37.74 27.25 37.23 26.82 36.59C25.82 35.11 26.25 32.59 26.9 31.02C27.6418 29.1986 29.0209 27.7093 30.78 26.83C27.78 27.15 24.4 27.75 22.95 30.36C23.277 29.3928 23.4524 28.3808 23.47 27.36C21.8577 28.258 20.4267 29.4483 19.25 30.87C19.7245 27.8345 19.0468 24.7313 17.35 22.17C17.0302 24.6982 15.8001 27.0232 13.89 28.71C13.6727 27.3425 13.9492 25.9423 14.67 24.76C14.1001 24.9432 13.5858 25.2676 13.175 25.703C12.7641 26.1383 12.47 26.6705 12.32 27.25C12.3889 25.9536 12.7296 24.6862 13.32 23.53C12.0075 24.358 10.9812 25.5693 10.38 27C10.3802 26.447 10.3333 25.895 10.24 25.35C10.24 25.23 10.24 25.11 10.17 24.98C10.1 24.85 10.17 24.92 10.17 24.88C10.12 24.65 10.07 24.42 10 24.18C9.33 21.72 7.83 19.18 5.64 18.37C5.43075 18.2853 5.21711 18.2118 5 18.15C5.56324 18.6094 6.02284 19.1829 6.34859 19.8327C6.67434 20.4824 6.85885 21.1938 6.89 21.92C6.94567 23.285 6.8619 24.652 6.64 26V26.07L6.7 26.13L6.87 26.21L7.18 26.38C7.38 26.51 7.57 26.65 7.76 26.79C7.95 26.93 8.2 27.24 8.45 27.46C8.63598 27.602 8.84142 27.7165 9.06 27.8C9.5078 28.0019 9.9829 28.1366 10.47 28.2C10.93 29.02 11.86 28.86 12.56 29.27C12.77 29.39 12.88 29.63 13.04 29.82C13.4353 30.1571 13.8763 30.4366 14.35 30.65C14.5135 30.7789 14.6837 30.8991 14.86 31.01C15.2776 31.1654 15.7052 31.2924 16.14 31.39C16.201 31.4063 16.2586 31.4334 16.31 31.47C16.3739 31.5189 16.4311 31.5761 16.48 31.64C17.321 32.6669 18.4898 33.3732 19.79 33.64C20.29 33.74 20.55 34.33 20.93 34.64C21.1177 34.7968 21.3184 34.9374 21.53 35.06C21.7077 35.1739 21.8993 35.2646 22.1 35.33C22.28 35.33 22.47 35.4 22.65 35.45C23.032 35.5739 23.388 35.7671 23.7 36.02C23.9105 36.2192 24.1815 36.3424 24.47 36.37C24.5195 36.36 24.5705 36.36 24.62 36.37C24.74 36.37 24.8 36.54 24.86 36.65C25.0609 36.9702 25.3639 37.2133 25.72 37.34C26.0454 37.4457 26.3803 37.5194 26.72 37.56C26.795 37.584 26.8635 37.6251 26.92 37.68C27.6846 38.4746 28.5988 39.1102 29.61 39.55C29.82 39.62 30.04 39.67 30.26 39.72C30.2864 39.7146 30.3136 39.7146 30.34 39.72L30.39 39.79C30.5464 40.0345 30.7634 40.2343 31.02 40.37C31.3326 40.6011 31.6599 40.8116 32 41C32.6356 41.3514 33.3059 41.6363 34 41.85C34.0327 41.8411 34.0673 41.8411 34.1 41.85C34.1 41.85 34.1 41.93 34.15 41.97C34.164 42.0076 34.1853 42.042 34.2128 42.0712C34.2403 42.1004 34.2733 42.1238 34.31 42.14C34.5964 42.3579 34.9088 42.5392 35.24 42.68C35.5182 42.7618 35.7611 42.9343 35.93 43.17C36.0777 43.3492 36.2493 43.5074 36.44 43.64C36.719 43.8983 37.0659 44.0718 37.44 44.14C37.6192 44.1156 37.8016 44.1307 37.9743 44.1843C38.1471 44.2378 38.306 44.3285 38.44 44.45C38.7043 44.7381 38.9994 44.9963 39.32 45.22C39.9631 45.6553 40.6675 45.9923 41.41 46.22L41.64 46.27L41.29 46C39.48 44.13 39.97 41 41.4 39.12C42.4528 37.8608 43.6627 36.7416 45 35.79Z" fill="#79AF07"/>
<path d="M42.81 37.63C42.1578 38.0358 41.5795 38.5499 41.1 39.15C40.58 39.79 39.77 41.53 38.86 41.9C38.7128 42.0289 38.5256 42.1031 38.33 42.11C38.23 42.1075 38.1348 42.0666 38.0641 41.9959C37.9934 41.9252 37.9525 41.83 37.95 41.73C37.9399 41.5468 37.9399 41.3632 37.95 41.18C37.9354 41.0304 37.9354 40.8796 37.95 40.73C37.6059 41.298 37.3243 41.9015 37.11 42.53C36.88 41.05 37.54 39.53 38.11 38.11C37.7862 38.5656 37.3334 38.9139 36.81 39.11C36.7535 39.1234 36.6947 39.124 36.6379 39.1118C36.5811 39.0996 36.5278 39.0749 36.4818 39.0394C36.4358 39.004 36.3983 38.9587 36.372 38.9069C36.3458 38.8551 36.3314 38.7981 36.33 38.74C36.3252 38.6834 36.3252 38.6266 36.33 38.57C35.8561 39.3074 35.288 39.9797 34.64 40.57C34.7912 39.5427 35.0596 38.5362 35.44 37.57C35.2181 38.0827 34.9289 38.5636 34.58 39C34.533 39.0483 34.474 39.0831 34.409 39.1011C34.344 39.119 34.2755 39.1193 34.2103 39.102C34.1452 39.0847 34.0858 39.0504 34.0383 39.0026C33.9908 38.9548 33.9569 38.8952 33.94 38.83C33.8233 38.4021 33.7529 37.9629 33.73 37.52C33.4562 38.3063 33.275 39.1218 33.19 39.95C32.9999 39.5763 32.8587 39.1797 32.77 38.77C32.7116 38.8317 32.6389 38.8782 32.5583 38.9053C32.4777 38.9325 32.3917 38.9394 32.3079 38.9256C32.224 38.9118 32.1447 38.8776 32.0771 38.8261C32.0095 38.7746 31.9556 38.7072 31.92 38.63C31.42 37.95 31.77 36.24 31.92 35.48C31.99 35.06 32.08 34.62 32.19 34.19C31.839 35.075 31.5516 35.984 31.33 36.91C31.2562 36.1843 31.1258 35.4654 30.94 34.76C30.9085 35.289 30.7797 35.8077 30.56 36.29C30.5351 36.3334 30.5019 36.3715 30.4623 36.402C30.4227 36.4326 30.3774 36.455 30.3291 36.468C30.2808 36.481 30.2304 36.4844 30.1808 36.4778C30.1312 36.4713 30.0833 36.4551 30.04 36.43C29.7377 36.2592 29.4938 36.0013 29.34 35.69C29.34 35.81 29.34 35.93 29.34 36.05C29.3436 36.5064 29.1718 36.9467 28.86 37.28C28.24 37.79 27.29 37.28 26.86 36.64C26.3116 35.6473 26.1277 34.4941 26.34 33.38L26.29 33.45C25.22 34.7 23.56 33.31 23.79 31.99C23.9864 30.642 24.5005 29.3601 25.29 28.25C24.3247 28.7239 23.5236 29.4763 22.99 30.41C23.2482 29.6534 23.4095 28.8671 23.47 28.07C22.93 29.65 22.18 31.34 20.77 31.83C20.7135 31.8434 20.6547 31.844 20.5979 31.8318C20.5411 31.8196 20.4878 31.7949 20.4418 31.7594C20.3958 31.724 20.3583 31.6787 20.332 31.6269C20.3058 31.5751 20.2914 31.5181 20.29 31.46C20.3181 30.822 20.4119 30.1887 20.57 29.57C20.1155 29.9927 19.688 30.4436 19.29 30.92C19.3967 30.232 19.4435 29.5361 19.43 28.84C19.1452 29.2497 18.7344 29.5552 18.26 29.71C16.32 30.3 15.75 28.24 16.02 26.78C16.02 26.49 16.13 26.2 16.19 25.92C15.6125 26.9942 14.8471 27.9561 13.93 28.76C13.7127 27.3925 13.9892 25.9923 14.71 24.81C14.1401 24.9932 13.6259 25.3176 13.215 25.753C12.8041 26.1883 12.51 26.7205 12.36 27.3C12.4289 26.0036 12.7696 24.7362 13.36 23.58C12.0404 24.3886 11.0004 25.5822 10.38 27C10.3802 26.447 10.3333 25.895 10.24 25.35C10.24 25.23 10.24 25.11 10.17 24.98V24.9C9.98133 25.1436 9.72132 25.3222 9.42626 25.4109C9.1312 25.4997 8.81581 25.4941 8.52406 25.395C8.23231 25.296 7.97876 25.1083 7.79877 24.8582C7.61879 24.6081 7.52134 24.3081 7.52001 24C7.41012 22.9152 7.13704 21.8532 6.71001 20.85C6.79506 21.1952 6.85522 21.5461 6.89001 21.9C6.94705 23.2716 6.86328 24.6455 6.64001 26V26.07L6.70001 26.13L6.87001 26.21L7.18001 26.38C7.38001 26.51 7.57001 26.65 7.76001 26.79C7.95001 26.93 8.20001 27.24 8.45001 27.46C8.63599 27.602 8.84143 27.7165 9.06001 27.8C9.50782 28.0019 9.98292 28.1366 10.47 28.2C10.93 29.02 11.86 28.86 12.56 29.27C12.77 29.39 12.88 29.63 13.04 29.82C13.4353 30.1571 13.8763 30.4366 14.35 30.65C14.5135 30.7789 14.6838 30.8991 14.86 31.01C15.2776 31.1654 15.7053 31.2924 16.14 31.39C16.201 31.4063 16.2586 31.4334 16.31 31.47C16.374 31.5189 16.4311 31.5761 16.48 31.64C17.321 32.6669 18.4898 33.3732 19.79 33.64C20.29 33.74 20.55 34.33 20.93 34.64C21.1177 34.7968 21.3184 34.9374 21.53 35.06C21.7077 35.1739 21.8993 35.2646 22.1 35.33C22.28 35.33 22.47 35.4 22.65 35.45C23.032 35.5739 23.388 35.7671 23.7 36.02C23.9105 36.2192 24.1815 36.3424 24.47 36.37C24.5195 36.36 24.5705 36.36 24.62 36.37C24.74 36.37 24.8 36.54 24.86 36.65C25.0609 36.9702 25.3639 37.2133 25.72 37.34C26.0454 37.4457 26.3803 37.5194 26.72 37.56C26.7951 37.584 26.8635 37.6251 26.92 37.68C27.6846 38.4746 28.5988 39.1102 29.61 39.55C29.82 39.62 30.04 39.67 30.26 39.72C30.2864 39.7146 30.3136 39.7146 30.34 39.72L30.39 39.79C30.5464 40.0345 30.7634 40.2343 31.02 40.37C31.3326 40.6012 31.66 40.8116 32 41C32.6356 41.3514 33.3059 41.6363 34 41.85C34.0328 41.8411 34.0673 41.8411 34.1 41.85C34.1 41.85 34.1 41.93 34.15 41.97C34.164 42.0076 34.1853 42.042 34.2128 42.0712C34.2403 42.1004 34.2733 42.1238 34.31 42.14C34.5964 42.3579 34.9088 42.5393 35.24 42.68C35.5182 42.7618 35.7611 42.9343 35.93 43.17C36.0777 43.3492 36.2493 43.5074 36.44 43.64C36.719 43.8983 37.0659 44.0718 37.44 44.14C37.6192 44.1156 37.8016 44.1307 37.9743 44.1843C38.1471 44.2378 38.306 44.3285 38.44 44.45C38.7043 44.7381 38.9994 44.9963 39.32 45.22C39.9632 45.6553 40.6676 45.9923 41.41 46.22L41.64 46.27L41.29 46C39.48 44.13 39.97 41 41.4 39.12C41.826 38.5835 42.2978 38.0849 42.81 37.63Z" fill="#6C9905"/>
</g>
<defs>
<radialGradient id="paint0_radial" cx="0" cy="0" r="1" gradientUnits="userSpaceOnUse" gradientTransform="translate(42 26) rotate(90) scale(25.1429 42)">
<stop/>
<stop offset="1" stop-opacity="0"/>
</radialGradient>
<clipPath id="clip0">
<rect width="73.52" height="51.39" fill="white" transform="translate(5)"/>
</clipPath>
</defs>
</svg>
