<svg width="84" height="49" viewBox="0 0 84 49" fill="none" xmlns="http://www.w3.org/2000/svg">
<ellipse cx="42" cy="25" rx="42" ry="24" fill="url(#paint0_radial)" fill-opacity="0.3"/>
<g clip-path="url(#clip0)">
<path d="M77.75 20.7L77.7 25.92L42.47 46.39L42.52 40.98L43.05 39.88L75.51 21.26L77.75 20.7Z" fill="#AA6304"/>
<g opacity="0.38">
<path opacity="0.38" d="M77.23 20.83L75.51 21.26L71 23.85C71.188 25.2785 71.2515 26.7205 71.19 28.16C71.1167 28.7383 71.0132 29.3125 70.88 29.88L74.22 27.94C73.45 25.24 75.32 22.9 77.23 20.83Z" fill="#8E5400"/>
</g>
<g opacity="0.53">
<path opacity="0.53" d="M45.43 42.54C45.739 41.2594 46.1676 40.0105 46.71 38.81C47.86 36.61 50.05 35.88 52.42 35.9C52.5174 35.9025 52.61 35.9423 52.6789 36.0112C52.7477 36.08 52.7875 36.1727 52.79 36.27C52.6915 37.8173 52.4266 39.3494 52 40.84L55.26 39C55.4 38.18 55.54 37.35 55.71 36.55C55.7291 36.1335 55.8876 35.7356 56.16 35.42C56.76 34.93 57.58 35.36 57.98 35.91C58.2255 36.2957 58.3572 36.7428 58.36 37.2L60.06 36.2C60.4538 33.7533 61.1595 31.3672 62.16 29.1C62.1968 29.0389 62.2504 28.9898 62.3144 28.9585C62.3784 28.9272 62.4501 28.915 62.5209 28.9234C62.5916 28.9319 62.6585 28.9606 62.7133 29.0061C62.7681 29.0516 62.8087 29.112 62.83 29.18C63.1588 30.9924 63.1214 32.8523 62.72 34.65L64.72 33.48C64.786 32.4026 65.0118 31.341 65.39 30.33C65.9921 28.9006 66.7394 27.5368 67.62 26.26C67.8435 25.9242 68.109 25.6184 68.41 25.35L43.05 39.88L42.52 41L42.46 46.41L44.88 45C44.9832 44.1641 45.1674 43.3402 45.43 42.54Z" fill="#8E5400"/>
</g>
<path opacity="0.66" d="M75.51 21.26L43.05 39.88L42.52 41L42.46 46.41L43.46 45.81C43.11 43.53 45.19 41.05 46.93 39.71C47.84 39.01 49.52 37.93 50.72 38.54C51.72 39.03 51.51 40.23 51.32 41.24L54 39.7C53.989 38.613 54.1269 37.5296 54.41 36.48C54.5465 35.9237 54.8629 35.428 55.31 35.07C55.72 34.76 56.31 34.68 56.72 34.41C57.0734 34.1294 57.4075 33.8254 57.72 33.5C58.59 32.79 60.28 32.02 61.32 32.84C61.6127 33.1196 61.8288 33.4696 61.9478 33.8564C62.0669 34.2433 62.0848 34.6542 62 35.05L63.17 34.37C63.1243 34.2406 63.1243 34.0994 63.17 33.97C63.3562 32.9894 63.6341 32.0286 64 31.1C64.4667 30.2957 64.9775 29.5179 65.53 28.77C66.15 27.87 67.07 26.6 68.35 26.94C69.41 27.21 69.83 28.44 69.91 29.41C69.9502 29.7655 69.9502 30.1245 69.91 30.48L72.91 28.73C73.0885 28.2624 73.1931 27.7698 73.22 27.27C73.3 26.88 73.38 26.49 73.48 26.1C73.622 25.2939 73.966 24.537 74.48 23.9C75.09 23.24 75.99 23 76.59 23.81C77.0294 24.5246 77.2517 25.3514 77.23 26.19L77.7 25.92V20.7L75.51 21.26Z" fill="#8E5400"/>
<path d="M43.56 41.32C44.01 40.61 45.08 40.06 45.56 39.42L44 39.76L42.52 41L42.46 46.41L43.46 45.86C43.146 45.1414 42.9923 44.363 43.0096 43.579C43.0269 42.7949 43.2147 42.0241 43.56 41.32Z" fill="#774400"/>
<path d="M50.9 41.49L52.8 40.39C52.817 39.5402 52.8838 38.692 53 37.85C53.122 36.9345 53.3571 36.0376 53.7 35.18C53.78 34.98 52.7 34.98 52.18 34.63L50.63 35.5L52.37 35.97C51.7516 37.7734 51.2604 39.6179 50.9 41.49Z" fill="#774400"/>
<path d="M62.65 34.66C62.6717 32.6969 62.5177 30.7357 62.19 28.8L61.26 29.09C62.34 30.55 62.26 33.09 61.86 35.09L62.65 34.66Z" fill="#774400"/>
<path d="M69.82 30.5L71.82 29.35C71.82 29.21 71.82 29.07 71.82 28.92C71.76 27.78 72.21 24.38 70.94 23.92L69.55 24.72C69.75 24.88 70.4 25.28 70.4 25.28C70.467 25.9015 70.467 26.5285 70.4 27.15C70.3098 28.2821 70.1157 29.4035 69.82 30.5Z" fill="#774400"/>
<path d="M17 16.41C16.9952 16.4829 17.0072 16.5559 17.0349 16.6235C17.0626 16.6911 17.1054 16.7515 17.16 16.8L17.32 16.85L18.32 17.03C18.4015 17.0548 18.4885 17.0548 18.57 17.03C18.83 16.92 18.92 15.91 18.93 15.67C18.9392 15.531 18.9127 15.3919 18.8533 15.266C18.7938 15.14 18.7032 15.0312 18.59 14.95C18.4083 14.8533 18.2059 14.8018 18 14.8L17.35 14.75C17.2276 14.7642 17.1069 14.791 16.99 14.83C17 15.21 16.93 16.07 17 16.41Z" fill="#774400"/>
<path d="M27 10.72C27.0016 10.9377 27.0677 11.1499 27.19 11.33C27.3208 11.4705 27.4864 11.574 27.67 11.63C28.1136 11.8079 28.5769 11.9321 29.05 12C29.1796 12.045 29.3205 12.045 29.45 12C29.5742 11.9162 29.6604 11.7869 29.69 11.64C29.7312 11.4207 29.7258 11.1952 29.6741 10.9781C29.6224 10.761 29.5256 10.5572 29.39 10.38C29.1122 10.0235 28.7737 9.71881 28.39 9.48C28.15 9.31 26.82 8.87 26.83 9C26.89 9.47 27 10.4 27 10.72Z" fill="#774400"/>
<path d="M35.52 5.49C35.5429 5.65228 35.5972 5.80853 35.68 5.95C35.7786 6.10534 35.9121 6.23547 36.07 6.33C36.4859 6.61411 36.989 6.74166 37.49 6.69C37.5496 6.68561 37.6075 6.66856 37.66 6.64C37.7055 6.59929 37.7399 6.54767 37.76 6.49C38.14 5.49 35.42 4.13 35.42 4.13C35.3918 4.58577 35.4254 5.04325 35.52 5.49Z" fill="#774400"/>
<path d="M42.52 40.98L42.47 46.39L7 25.92L7.02 24.08L7.05 20.7L11.63 21.37L26.12 29.37L42.52 40.98Z" fill="#E58A07"/>
<g opacity="0.42">
<path opacity="0.42" d="M26.12 29.37L11.62 21.37L7.04999 20.7V24.08V25.92L8.04999 26.49C8.04177 25.4075 8.33617 24.3442 8.89999 23.42C8.95874 23.3227 9.04162 23.2422 9.1406 23.1864C9.23959 23.1305 9.35133 23.1011 9.46499 23.1011C9.57865 23.1011 9.69039 23.1305 9.78937 23.1864C9.88836 23.2422 9.97124 23.3227 10.03 23.42L10.15 23.69C10.277 23.7708 10.3751 23.8899 10.43 24.03C10.9112 25.44 11.2135 26.9047 11.33 28.39L12.25 28.92C12.25 27.24 12.81 24.45 14.65 26.06C15.3851 26.9788 15.8523 28.0827 16 29.25C16.19 29.96 16.33 30.68 16.47 31.39L16.83 31.61C16.7678 30.7092 16.8694 29.8046 17.13 28.94C17.1559 28.8383 17.2057 28.7442 17.2752 28.6656C17.3447 28.587 17.432 28.5261 17.5298 28.488C17.6275 28.4499 17.733 28.4356 17.8374 28.4464C17.9418 28.4572 18.0421 28.4927 18.13 28.55C19.4 29.49 20.92 30.09 21.57 31.64C21.9247 32.5703 22.0715 33.5669 22 34.56L24.51 36C24.85 34.26 25.58 32.3 26.89 33.3C27.89 34.1 27.95 36.42 27.89 37.97L28.34 38.23C28.3918 37.2214 28.5222 36.2183 28.73 35.23C28.7596 35.0886 28.8347 34.9608 28.9439 34.8662C29.0531 34.7716 29.1903 34.7155 29.3345 34.7064C29.4787 34.6973 29.6219 34.7358 29.7421 34.8159C29.8623 34.8961 29.9529 35.0134 30 35.15C30.2164 35.5112 30.4037 35.889 30.56 36.28C30.6301 36.3174 30.6919 36.3686 30.7417 36.4304C30.7915 36.4923 30.8284 36.5636 30.85 36.64C31.1639 37.7752 31.4143 38.9269 31.6 40.09L32.79 40.79C32.6045 40.0444 32.6786 39.2579 33 38.56C33.101 38.397 33.2353 38.2573 33.3941 38.1498C33.553 38.0424 33.7327 37.9698 33.9216 37.9368C34.1104 37.9037 34.3041 37.911 34.49 37.9581C34.6758 38.0052 34.8496 38.091 35 38.21C35.5738 38.6842 36.0119 39.3018 36.27 40C36.84 40.63 37.66 40.83 38.36 41.41C38.8665 41.8458 39.2696 42.389 39.54 43C39.81 43.58 40.22 45 40.25 45.08L42.46 46.35L42.52 41L26.12 29.37Z" fill="#A85A0C"/>
</g>
<g opacity="0.47">
<path opacity="0.47" d="M26.12 29.35L11.62 21.35L7.04999 20.7V24.07V25.92L7.54999 26.2C7.71401 25.0104 7.98853 23.8387 8.36999 22.7C8.40319 22.5921 8.46352 22.4945 8.54522 22.4165C8.62691 22.3386 8.72724 22.2829 8.8366 22.2548C8.94596 22.2267 9.06069 22.2272 9.16984 22.2561C9.27898 22.285 9.37888 22.3414 9.45999 22.42C10.59 23.63 10.74 25.58 10.82 27.42C10.82 27.66 10.9 27.93 10.92 28.18L13.24 29.52C13.35 28.52 13.51 27.52 13.61 26.59C13.6126 26.4184 13.6819 26.2546 13.8032 26.1332C13.9246 26.0119 14.0884 25.9426 14.26 25.94C16.85 25.64 17.88 28.89 20.07 29.71C22.56 30.64 23.01 32.94 23.32 35.34L25.64 36.68C26.293 35.4939 27.2949 34.5373 28.51 33.94C28.6612 33.8571 28.8383 33.8347 29.0054 33.8774C29.1725 33.9201 29.3171 34.0247 29.41 34.17C30.2678 35.7951 30.6947 37.6129 30.65 39.45C30.65 39.45 30.65 39.57 30.65 39.58L33.52 41.23C33.78 40.16 34.27 38.76 35.37 38.55C36.47 38.34 37.75 39.46 38.56 40.01C39.5962 40.623 40.4484 41.5034 41.0273 42.5591C41.6062 43.6148 41.8903 44.8067 41.85 46.01L42.5 46.38L42.56 40.91L26.12 29.35Z" fill="#C66700"/>
</g>
<g opacity="0.47">
<path opacity="0.47" d="M22.81 28.63C23.4119 30.9577 23.8101 33.3333 24 35.73L24.46 35.99C25.1847 34.3113 26.1151 32.7292 27.23 31.28C25.6825 30.5267 24.2036 29.64 22.81 28.63Z" fill="#A05007"/>
<path opacity="0.47" d="M41.35 40.17C41.6038 41.4885 41.7377 42.8273 41.75 44.17C41.75 44.43 41.75 44.7 41.75 44.96C41.7921 45.2916 41.8088 45.6259 41.8 45.96L42.45 46.33L42.51 40.93L41.35 40.17Z" fill="#A05007"/>
<path opacity="0.47" d="M35.91 36.26L30.42 32.39H30.33C31.4925 34.8948 32.0769 37.6289 32.04 40.39L33.04 40.99C33.4078 39.1238 34.4246 37.4481 35.91 36.26Z" fill="#A05007"/>
<path opacity="0.47" d="M11.62 21.37L10.94 21.27C11.5054 23.5788 11.5804 25.9805 11.16 28.32L11.75 28.66C11.99 26.14 12.58 23.58 14.12 22.74L11.62 21.37Z" fill="#A05007"/>
</g>
<path d="M77.66 20.74C77.91 21.43 76.37 21.56 76.02 21.74C75.3225 22.038 74.7082 22.5013 74.23 23.09C74.0444 23.3713 73.8186 23.624 73.56 23.84C72.97 24.28 72.03 24.23 71.63 24.84C71.0516 24.6588 70.4451 24.5842 69.84 24.62C70.0837 24.774 70.2673 25.007 70.36 25.28C69.5769 25.487 68.8165 25.7718 68.09 26.13C67.3811 26.4164 66.7304 26.8298 66.17 27.35C64.9428 28.1722 63.6634 28.9138 62.34 29.57C62.2 29.57 61.91 29.34 61.76 29.33C61.833 29.4755 61.8478 29.6434 61.8013 29.7995C61.7549 29.9556 61.6507 30.0881 61.51 30.17C60.7485 30.8021 59.9039 31.327 59 31.73C57.7746 32.2258 56.6048 32.8492 55.51 33.59C54.81 34.14 54.13 35.42 53.13 35.3L51.42 35.11C51.6854 35.4673 52.027 35.7611 52.42 35.97C51.8 36.73 50.6 36.58 49.76 37.07C49.43 37.26 49.17 37.54 48.86 37.75C48.35 38.09 47.74 38.21 47.22 38.52C46.7 38.83 46.51 39.18 46.09 39.46C45.4984 39.7856 44.8662 40.031 44.21 40.19C43.7 40.37 42.99 41.01 42.5 41.06C42.3722 41.0564 42.2491 41.0107 42.15 40.93C40.0551 39.5576 37.8392 38.3794 35.53 37.41C34.0854 36.9183 32.7334 36.1882 31.53 35.25C31.05 34.82 30.65 34.31 30.18 33.88C28.94 32.72 27.44 32.36 25.96 31.64C24.8272 30.989 23.7322 30.2745 22.68 29.5C22.2 29.23 19 27.94 19 27.59L12.72 24.22C11.8974 23.8289 11.1361 23.3203 10.46 22.71C10.1 22.35 9.79999 21.93 9.45999 21.6C8.72999 21 7.63999 21.19 7.04999 20.7C7.04999 20.1 8.92999 18.76 9.56999 18.57C11.4403 17.9626 13.2352 17.144 14.92 16.13C15.4043 15.7672 15.9768 15.5406 16.5782 15.4738C17.1796 15.407 17.7879 15.5024 18.34 15.75C18.05 15.19 17.82 15.07 16.96 14.85C17.7584 14.2931 18.6391 13.8646 19.57 13.58C19.68 13.19 19.76 12.9 20.14 12.74C20.52 12.58 20.85 12.39 21.14 12.26C21.4984 12.0376 21.8334 11.7796 22.14 11.49C22.69 11 23.27 11.23 23.89 10.84C24.24 10.62 25.25 9.63 25.59 9.6C26.6215 9.89445 27.593 10.3684 28.46 11C28.19 10.43 26.33 9.06 27.21 8.63C28.0374 8.29464 28.82 7.85797 29.54 7.33C30.3765 6.52129 31.3477 5.86478 32.41 5.39C33.9 4.89 34.75 4.39 36.2 5.29C36.04 4.75 35.2 4.56 35.46 3.96C35.72 3.36 36.9 3.47 37.32 3.22C37.6386 2.99374 37.9334 2.73575 38.2 2.45C38.8869 2.0163 39.6056 1.63522 40.35 1.31C40.86 1 41.39 0.1 42 0C42.7932 0.258649 43.525 0.677278 44.15 1.23C44.36 1.43 44.07 1.44 44.15 1.66C45.15 1.26 47.62 3 48.54 3.45C50.3309 4.29455 52.0327 5.31632 53.62 6.5C54.26 7 54.88 7.5 55.54 8C58.34 10 61.86 10.61 64.63 12.64C67.86 15.01 71.71 16.64 75.07 18.9L76.18 19.65C76.66 20 77.51 20.34 77.66 20.74Z" fill="#F7C161"/>
<g opacity="0.39">
<path opacity="0.39" d="M77.66 20.74C77.51 20.34 76.66 19.98 76.18 19.65L75.07 18.9C74.42 18.46 73.74 18.06 73.07 17.66C72.0833 17.3161 71.045 17.1436 70 17.15C69.8857 17.1434 69.7718 17.1676 69.67 17.22C69.5661 17.3021 69.4929 17.4168 69.462 17.5455C69.4312 17.6743 69.4446 17.8097 69.5 17.93C69.6312 18.2279 69.8065 18.5043 70.02 18.75C70.2418 19.125 70.4421 19.5123 70.62 19.91C71.105 20.8364 71.8393 21.6088 72.74 22.14C73.2702 22.4399 73.8298 22.6845 74.41 22.87C74.8491 22.372 75.3917 21.976 76 21.71C76.37 21.56 77.91 21.43 77.66 20.74Z" fill="#FFF39C"/>
</g>
<g opacity="0.6">
<path opacity="0.6" d="M45.45 15.28L45.54 15.43C45.6035 15.5372 45.6444 15.6563 45.66 15.78C45.6667 15.842 45.6563 15.9046 45.6298 15.961C45.6034 16.0175 45.5619 16.0655 45.51 16.1C45.4278 16.1192 45.3422 16.1192 45.26 16.1C45.0185 16.0761 44.7805 16.0258 44.55 15.95C43.38 15.63 42.17 15.41 41.02 15.04C39.9049 14.6758 38.8321 14.193 37.82 13.6C37.5545 13.4649 37.3117 13.2895 37.1 13.08C36.9371 12.9056 36.793 12.7145 36.67 12.51L35.27 10.34C35.08 10.04 34.52 8.96 35.2 8.88C35.768 8.85155 36.3352 8.95064 36.86 9.17C38.5438 9.73133 40.1525 10.497 41.65 11.45C42.3964 11.936 43.105 12.4775 43.77 13.07C44.4466 13.7102 45.0141 14.4567 45.45 15.28Z" fill="#FFF39C"/>
</g>
<g opacity="0.31">
<path opacity="0.31" d="M55.28 31.43C55.4692 31.8944 55.623 32.3724 55.74 32.86C55.785 33.01 55.785 33.17 55.74 33.32C55.59 33.67 54.99 33.65 54.66 33.68C54.1787 33.6951 53.6976 33.6446 53.23 33.53C52.1703 33.3517 51.1268 33.0875 50.11 32.74C48.0777 32.0499 46.1574 31.0662 44.41 29.82L43.84 29.4C42.6049 28.4653 41.4719 27.4027 40.46 26.23C39.9593 25.6408 39.4888 25.0266 39.05 24.39C38.5653 23.6249 37.9531 22.9484 37.24 22.39C37.24 22.39 37.12 22.3 37.11 22.23C37.1005 22.1849 37.1062 22.138 37.1261 22.0964C37.146 22.0548 37.179 22.021 37.22 22C37.3016 21.9635 37.3906 21.9464 37.48 21.95C37.9673 21.9962 38.4473 22.1003 38.91 22.26C39.56 22.4 40.21 22.54 40.85 22.7L44.1 23.55C45.1 23.8 46.1 23.94 47.1 24.27C48.0078 24.6138 48.8871 25.0285 49.73 25.51C52.2053 26.787 54.1652 28.8776 55.28 31.43Z" fill="#FFF39C"/>
</g>
<path opacity="0.45" d="M33.93 13.43C34.5074 13.8567 35.0615 14.3141 35.59 14.8V14.75C35.3319 13.9484 34.9096 13.2093 34.35 12.58C33.3419 11.0776 32.4971 9.4718 31.83 7.79L31.08 6.08L30.92 6.19C31.0634 7.86641 31.6275 9.47953 32.56 10.88C33.1893 11.6253 33.656 12.4938 33.93 13.43Z" fill="#D88D3A"/>
<path opacity="0.45" d="M29.23 9.29C29.3692 9.79943 29.476 10.3171 29.55 10.84C30.28 11.18 31 11.56 31.71 11.97C30.7488 10.5357 30.0262 8.95525 29.57 7.29C29.3016 7.50625 29.0137 7.69707 28.71 7.86C28.91 8.32 29.1 8.78 29.25 9.23L29.23 9.29Z" fill="#D88D3A"/>
<path opacity="0.45" d="M36.2 5.27C34.75 4.34 33.9 4.87 32.41 5.37C32.29 5.40797 32.1731 5.45476 32.06 5.51C34.34 6 36.55 7.38 38.8 7C38.48 6.7 36.06 4.8 36.2 5.27Z" fill="#D88D3A"/>
<path opacity="0.32" d="M46.11 18.63C44.11 17.96 42.11 16.55 39.96 16.38C40.5448 16.6848 41.0779 17.0796 41.54 17.55C41.9844 17.9629 42.4019 18.4038 42.79 18.87L43.24 18.95C45.1319 19.2449 46.9861 19.7445 48.77 20.44C49.06 20.55 49.35 20.68 49.63 20.8C49.9207 20.4994 50.2315 20.2187 50.56 19.96C49.14 19.42 47.57 19.13 46.11 18.63Z" fill="#FFF39C"/>
<path opacity="0.32" d="M51.77 18.71C50.9997 18.1213 50.2713 17.4797 49.59 16.79C48.68 15.88 48.25 13.94 47.84 12.73L47.78 12.54L47.13 12.17C46.9145 12.0858 46.7041 11.989 46.5 11.88C47.02 12.75 47.5 13.62 47.94 14.53C48.38 15.44 48.65 16.17 49.05 16.95C49.2804 17.4078 49.548 17.8459 49.85 18.26L50.85 19.63V19.69C51.2421 19.4351 51.6495 19.2046 52.07 19C51.9834 18.8903 51.8825 18.7928 51.77 18.71Z" fill="#FFF39C"/>
<path opacity="0.45" d="M55.37 16.11L54.84 15.72C53.61 15.25 52.39 14.72 51.2 14.16C50.4292 13.8491 49.692 13.4604 49 13C48.9175 13.2087 48.8872 13.4343 48.9116 13.6573C48.936 13.8804 49.0144 14.0941 49.14 14.28C50.0291 15.943 51.1134 17.4939 52.37 18.9C52.6895 18.6748 53.0236 18.4711 53.37 18.29C53.1813 18.0816 52.9621 17.9029 52.72 17.76C51.9079 17.2604 51.2095 16.5962 50.67 15.81C50.67 15.73 50.59 15.62 50.67 15.57C50.7127 15.5598 50.7573 15.5598 50.8 15.57C51.4988 15.7038 52.1595 15.9901 52.7351 16.4083C53.3107 16.8266 53.7869 17.3667 54.13 17.99C54.3989 17.7226 54.69 17.4784 55 17.26L55.44 16.86C55.442 16.6677 55.4185 16.4761 55.37 16.29C55.3809 16.2305 55.3809 16.1695 55.37 16.11Z" fill="#D88D3A"/>
<path opacity="0.45" d="M37.89 5.63L39 6C38.4892 5.58049 38.0501 5.08061 37.7 4.52C37.4757 4.12287 37.3011 3.69971 37.18 3.26C36.9718 3.33466 36.7577 3.39153 36.54 3.43C36.7687 4.12522 37.1285 4.77018 37.6 5.33C37.6915 5.43485 37.7883 5.53498 37.89 5.63Z" fill="#D88D3A"/>
<path opacity="0.45" d="M47.32 3.77C47.14 3.55 46.32 2.36 46.14 2.12C45.6942 1.8836 45.2155 1.71507 44.72 1.62L44.97 1.89C45.73 2.63302 46.4446 3.42112 47.11 4.25C47.28 4.47 47.49 4.7 47.66 4.94L47.89 4.79L48 4.71C47.81 4.5 47.5 4 47.32 3.77Z" fill="#D88D3A"/>
<path opacity="0.45" d="M42.88 3.43C42.2271 3.11387 41.5987 2.74953 41 2.34C40.6663 2.07382 40.402 1.73068 40.23 1.34L39.63 1.64C40.26 2.64 40.27 4.09 41.27 4.74C41.5562 4.91217 41.8713 5.03077 42.2 5.09C42.74 5.22 43.45 5.22 43.66 4.71C43.87 4.2 43.36 3.71 42.88 3.43ZM42.2 4.74C41.7877 4.68734 41.412 4.47629 41.1526 4.15152C40.8932 3.82675 40.7703 3.41377 40.81 3L42 3.49C42.2939 3.57149 42.5623 3.72633 42.78 3.94C43.29 4.53 42.79 4.85 42.2 4.74Z" fill="#D88D3A"/>
<path opacity="0.45" d="M46.52 4.4C45.83 3.89 44.99 3.62 44.26 3.17C43.0955 2.46002 42.1344 1.46102 41.47 0.269997C41.1823 0.51442 40.9085 0.774831 40.65 1.05C41.0729 1.55842 41.5763 1.99418 42.14 2.34L44.6 3.92C44.8062 4.02697 44.9869 4.17703 45.13 4.36C45.1954 4.4539 45.2304 4.56557 45.2304 4.68C45.2304 4.79442 45.1954 4.9061 45.13 5C45.0544 5.09762 44.9544 5.17352 44.84 5.22C44.3445 5.46823 43.8043 5.61471 43.2512 5.65078C42.6982 5.68684 42.1435 5.61177 41.62 5.43C41.0986 5.2425 40.6197 4.95322 40.2111 4.57897C39.8025 4.20472 39.4724 3.75297 39.24 3.25C39.0421 2.83298 38.9691 2.36757 39.03 1.91C38.7191 2.03964 38.4292 2.2149 38.17 2.43L38.05 2.54C38.0805 2.76699 38.1411 2.98892 38.23 3.2C38.4247 3.56373 38.6668 3.9 38.95 4.2C39.2401 4.55127 39.5507 4.88518 39.88 5.2C40 5.41 41 6 41 6.07C41.4254 6.30864 41.8949 6.45834 42.38 6.51C43.1688 6.5238 43.952 6.37398 44.68 6.07L46.35 5.5C46.59 5.42 46.87 5.3 46.92 5.05C46.97 4.8 46.73 4.56 46.52 4.4Z" fill="#D88D3A"/>
<g opacity="0.45">
<path opacity="0.45" d="M45.88 2.72C45.7063 2.53477 45.5116 2.37033 45.3 2.23C45.9418 2.86083 46.5461 3.52863 47.11 4.23L47.47 4.67C47.3356 4.31591 47.1576 3.97998 46.94 3.67C46.61 3.37 46.19 3.06 45.88 2.72Z" fill="#CE8B3A"/>
</g>
<g opacity="0.45">
<path opacity="0.45" d="M42.88 3.43L42.22 3.07C42.3191 3.18085 42.4261 3.28445 42.54 3.38C42.8013 3.54082 43.0373 3.73966 43.24 3.97C43.66 4.56 43.12 4.91 42.57 4.97C41.73 5.07 41.21 4.48 40.84 3.77C40.61 3.33 40.52 2.83 40.3 2.39C40.1239 2.11373 39.9336 1.84671 39.73 1.59L39.63 1.65C40.26 2.65 40.27 4.1 41.27 4.75C41.5562 4.92217 41.8713 5.04077 42.2 5.1C42.74 5.23 43.45 5.23 43.66 4.72C43.87 4.21 43.36 3.71 42.88 3.43Z" fill="#CE8B3A"/>
</g>
<g opacity="0.45">
<path opacity="0.45" d="M46.52 4.4C45.83 3.89 44.99 3.62 44.26 3.17C43.1883 2.51197 42.2899 1.60669 41.64 0.529999C41.9693 1.53044 42.6519 2.37658 43.56 2.91C44.2338 3.26188 44.8618 3.69512 45.43 4.2C46.27 5.13 45.43 5.63 44.5 5.88C43.7112 6.16942 42.8565 6.22909 42.0352 6.05208C41.2138 5.87506 40.4596 5.46863 39.86 4.88C39.2327 4.39789 38.6918 3.81294 38.26 3.15C38.4547 3.51373 38.6968 3.85001 38.98 4.15C39.2701 4.50128 39.5807 4.83519 39.91 5.15C40 5.41 41 6 41 6.07C41.4254 6.30865 41.895 6.45834 42.38 6.51C43.1688 6.5238 43.952 6.37399 44.68 6.07L46.35 5.5C46.59 5.42 46.87 5.3 46.92 5.05C46.97 4.8 46.73 4.56 46.52 4.4Z" fill="#CE8B3A"/>
</g>
<path opacity="0.45" d="M43.35 3.52L43.9 3.89C44.0388 3.97571 44.1526 4.09642 44.23 4.24C44.2635 4.34724 44.2673 4.46157 44.2408 4.57077C44.2144 4.67998 44.1588 4.77995 44.08 4.86C43.9161 5.01515 43.7171 5.12836 43.5 5.19C42.9683 5.36774 42.3992 5.40223 41.85 5.29C41.3686 5.15397 40.9289 4.89973 40.5709 4.55043C40.2129 4.20113 39.9479 3.76785 39.8 3.29C39.6581 2.8971 39.5706 2.48662 39.54 2.07C39.54 2.07 39.54 1.85 39.54 1.66L39.24 1.79C39.2091 2.46253 39.3649 3.13048 39.69 3.72C39.9587 4.13197 40.2971 4.49404 40.69 4.79C40.8683 4.94672 41.0627 5.08415 41.27 5.2C41.7246 5.40983 42.2193 5.51849 42.72 5.51849C43.2207 5.51849 43.7154 5.40983 44.17 5.2C44.46 5.09 44.78 4.86 44.76 4.55C44.7437 4.41184 44.6842 4.28234 44.59 4.18C44.27 3.81731 43.8295 3.58284 43.35 3.52Z" fill="#FFF39C"/>
<g opacity="0.5">
<path opacity="0.5" d="M45.71 3.33C45.41 3.14 45.09 2.99 44.78 2.81C44.21 2.48 43.62 2.11 43.62 1.36C43.6173 1.19321 43.6444 1.02727 43.7 0.870003C43.3779 0.660961 43.044 0.470646 42.7 0.300003C42.7 0.530003 42.7 0.760003 42.79 0.980003C43.07 2.54 45.02 3.48 46.4 3.88C46.23 3.82 45.92 3.46 45.71 3.33Z" fill="#FFF39C"/>
<path opacity="0.5" d="M39.84 6.42C39.84 6.15 39.38 5.79 39.21 5.61C38.9614 5.35995 38.7308 5.09262 38.52 4.81C38.106 4.17011 37.9226 3.40819 38 2.65C37.87 2.78 37.74 2.92 37.61 3.03C37.8392 4.13299 38.3528 5.15686 39.1 6C39.19 6.08 39.9 7.06 39.84 6.42Z" fill="#FFF39C"/>
</g>
<path opacity="0.45" d="M26.67 11.74H26.83C27.3147 11.9064 27.7416 12.2084 28.06 12.61C28.17 12.72 28.27 12.93 28.14 13.02C28.0939 13.0303 28.0461 13.0303 28 13.02C27.453 13.0375 26.9188 12.8523 26.5 12.5C26.08 12.21 26.15 11.71 26.67 11.74Z" fill="#D88D3A"/>
<path d="M26.89 11.93H27C27.2641 12.0186 27.4968 12.1818 27.67 12.4C27.73 12.47 27.78 12.58 27.67 12.62C27.6475 12.6284 27.6226 12.6284 27.6 12.62C27.3019 12.6283 27.0108 12.5289 26.78 12.34C26.57 12.18 26.61 11.91 26.89 11.93Z" fill="#D68E38"/>
<g opacity="0.44">
<path opacity="0.44" d="M29.62 17.63C28.9724 17.1071 28.2872 16.6325 27.57 16.21C26.81 15.69 26.07 15.15 25.31 14.64C24.06 13.81 22.78 13.02 21.49 12.25C21.2476 12.3683 20.9927 12.4588 20.73 12.52C20.4595 12.5726 20.2156 12.7176 20.04 12.93C19.94 13.08 19.86 13.24 19.76 13.38L19.88 13.47C20.39 13.85 20.88 14.25 21.42 14.58C22.023 14.9357 22.6514 15.2465 23.3 15.51C24.35 15.97 25.4 16.41 26.45 16.84C27.3753 17.3214 28.3385 17.7261 29.33 18.05C29.5 18.05 29.75 18.05 29.77 17.89C29.7666 17.8381 29.7513 17.7876 29.7253 17.7425C29.6993 17.6975 29.6632 17.659 29.62 17.63Z" fill="#FFF39C"/>
</g>
<path opacity="0.45" d="M31.48 19.14C31.31 18.73 30.82 18.44 30.48 18.14C30.14 17.84 29.65 17.47 29.23 17.14C27.55 15.86 25.79 14.71 24.02 13.55C23.25 13.05 22.47 12.55 21.68 12.07C21.4542 12.2455 21.1959 12.3747 20.92 12.45C22.64 13.38 24.39 14.28 26.08 15.28C27.2 15.94 28.29 16.64 29.36 17.39C29.52 17.51 29.71 17.74 29.56 17.88C28.4079 17.2465 27.2191 16.6822 26 16.19C25.1451 15.9022 24.3128 15.5512 23.51 15.14C23.01 14.85 22.51 14.49 22.09 14.14C21.42 13.69 20.7 13.31 20 12.91C19.9289 12.9799 19.8652 13.057 19.81 13.14C19.6503 13.3993 19.4513 13.6321 19.22 13.83C20.0116 14.379 20.8479 14.8607 21.72 15.27C23.72 16.2 25.97 16.61 27.97 17.58C28.58 17.88 29.18 18.23 29.78 18.58C30.2527 18.8873 30.7594 19.139 31.29 19.33C31.3118 19.3406 31.3357 19.3461 31.36 19.3461C31.3842 19.3461 31.4082 19.3406 31.43 19.33C31.52 19.27 31.5 19.19 31.48 19.14Z" fill="#D88D3A"/>
<path d="M26.5 16.81C24.96 16.11 23.29 15.7 21.79 14.9C21.01 14.48 20.28 14.02 19.57 13.55C19.4822 13.6678 19.3778 13.7722 19.26 13.86C20.0516 14.409 20.8879 14.8907 21.76 15.3C23.76 16.21 25.89 16.63 27.85 17.55C27.4156 17.2759 26.9647 17.0288 26.5 16.81Z" fill="#CE8B3A"/>
<path d="M24 13.57C23.23 13.07 22.46 12.57 21.67 12.1C21.5728 12.1883 21.4612 12.2594 21.34 12.31C22.95 13.23 24.53 14.19 26.07 15.22C26.18 15.29 28.73 16.88 29.07 17.05C27.45 15.82 25.74 14.69 24 13.57Z" fill="#CE8B3A"/>
<path opacity="0.45" d="M28.82 19.9C27.9775 19.5797 27.0967 19.3713 26.2 19.28H26C27.12 20.02 27.91 20.99 29.51 20.75C29.7507 20.7073 29.9856 20.6368 30.21 20.54L30.08 20.45C29.6777 20.2286 29.2559 20.0445 28.82 19.9Z" fill="#FFF39C"/>
<path opacity="0.45" d="M29.37 19.13C29.8584 19.242 30.3159 19.4605 30.71 19.77C30.814 19.8678 30.9047 19.9787 30.98 20.1L31.49 19.81C30.6766 19.2076 29.7573 18.7633 28.78 18.5C28.0527 18.3962 27.3316 18.2527 26.62 18.07C26.04 17.87 25.53 17.52 24.96 17.27C24.1226 16.9461 23.2442 16.7408 22.35 16.66C22.2122 16.6249 22.0678 16.6249 21.93 16.66C22.275 16.8217 22.5896 17.0416 22.86 17.31C23.13 17.25 23.41 17.25 23.68 17.31C24.0644 17.4396 24.4307 17.6177 24.77 17.84C25.8098 18.2855 26.9073 18.5818 28.03 18.72C28.45 18.88 28.91 19 29.37 19.13Z" fill="#FFF39C"/>
<path opacity="0.45" d="M32.11 19.83C32.5633 19.4983 33.0532 19.2198 33.57 19C33.041 18.2332 32.3603 17.5832 31.57 17.09C30.9458 16.6405 30.2946 16.2297 29.62 15.86C28.62 15.36 27.62 15.01 26.69 14.46C25.9662 13.9991 25.2807 13.4808 24.64 12.91L22.64 11.22C22.4452 11.2789 22.2647 11.3777 22.11 11.51L21.9 11.69C22.5771 12.1825 23.3005 12.6078 24.06 12.96C24.959 13.5891 25.8205 14.2703 26.64 15C27.64 15.79 28.87 16.33 29.94 17.06C30.3325 17.4184 30.7466 17.7523 31.18 18.06C31.5437 18.4331 31.8233 18.8798 32 19.37C32.05 19.51 32.07 19.68 32.11 19.83Z" fill="#D88D3A"/>
<path opacity="0.45" d="M25.09 13.61C26.352 14.5291 27.6902 15.3387 29.09 16.03C30.57 16.79 32.57 17.55 32.87 19.32C33.086 19.1928 33.3098 19.0792 33.54 18.98C33.011 18.2132 32.3303 17.5632 31.54 17.07C30.9158 16.6205 30.2646 16.2097 29.59 15.84C28.59 15.34 27.59 14.99 26.66 14.44C25.9362 13.9791 25.2507 13.4608 24.61 12.89L22.77 11.35C23.4684 12.1766 24.2454 12.9335 25.09 13.61Z" fill="#D88D3A"/>
<path opacity="0.45" d="M31.41 14.85C31.0904 14.4303 30.721 14.0508 30.31 13.72C29.6354 13.0637 28.9243 12.4461 28.18 11.87C27.1618 11.256 26.2245 10.5169 25.39 9.67C25.2311 9.7597 25.0805 9.86345 24.94 9.98C25.9413 10.8635 27.0188 11.6566 28.16 12.35C28.6157 12.5816 29.0047 12.9258 29.29 13.35C29.3607 13.4595 29.3858 13.5923 29.36 13.72C29.28 14 28.9 14.01 28.62 13.95C27.6424 13.7177 26.7405 13.2392 26 12.56C25.53 12.14 25.13 11.65 24.65 11.26C24.4438 11.0832 24.2267 10.9196 24 10.77L23.89 10.84C23.7783 10.9127 23.6572 10.9699 23.53 11.01C24.29 11.67 25.13 12.29 25.89 12.93C26.2228 13.2346 26.5845 13.5058 26.97 13.74C27.4017 13.978 27.8621 14.1595 28.34 14.28C29.2726 14.6242 30.2242 14.9147 31.19 15.15C31.3 15.15 31.47 15.15 31.49 15.04C31.4924 15.0043 31.4864 14.9685 31.4725 14.9355C31.4586 14.9025 31.4372 14.8733 31.41 14.85Z" fill="#D88D3A"/>
<path opacity="0.45" d="M34.48 18.65C34.87 18.41 35.26 18.19 35.65 17.97C35.6256 17.9291 35.5953 17.892 35.56 17.86C35.3284 17.6679 35.073 17.5066 34.8 17.38C34.1229 16.9643 33.6241 16.3122 33.4 15.55C33.3 15.25 33.09 13.97 33.46 13.55L33.29 13.45C32.6404 13.1007 32.0331 12.6779 31.48 12.19C31.33 12.1 31.19 12 31.05 11.9C31.19 12.18 31.38 12.45 31.52 12.7C31.8927 13.317 32.1565 13.9936 32.3 14.7C32.3439 15.2292 32.4445 15.7522 32.6 16.26C32.983 16.9026 33.4543 17.4883 34 18C34.1452 18.2272 34.3056 18.4444 34.48 18.65Z" fill="#D88D3A"/>
<path d="M33.27 16.76C32.51 15.55 32.68 14.12 32.27 12.82C32.0031 12.6458 31.7522 12.4484 31.52 12.23C31.37 12.14 31.23 12.04 31.09 11.94C31.23 12.22 31.42 12.49 31.56 12.74C31.9327 13.357 32.1966 14.0336 32.34 14.74C32.3839 15.2692 32.4845 15.7922 32.64 16.3C33.0138 16.926 33.4713 17.498 34 18C34.1531 18.2141 34.3202 18.4179 34.5 18.61L34.88 18.39C34.2485 17.9493 33.7029 17.3969 33.27 16.76Z" fill="#CE8B3A"/>
<path opacity="0.45" d="M36.28 17.64L36.98 17.3L36.65 17.17C36.3897 17.0779 36.1527 16.9299 35.9558 16.7364C35.7588 16.5429 35.6067 16.3086 35.51 16.05C35.406 15.6867 35.3324 15.3155 35.29 14.94C35.29 14.79 35.21 14.65 35.17 14.51C34.84 14.36 34.52 14.19 34.17 14.02C34.5197 15.4007 35.2509 16.6552 36.28 17.64Z" fill="#D88D3A"/>
<path opacity="0.45" d="M39 11.09C39.0831 11.0805 39.1669 11.0805 39.25 11.09C40.0066 11.262 40.6996 11.6432 41.25 12.19C41.43 12.34 41.61 12.63 41.43 12.79C41.3694 12.8279 41.301 12.8519 41.23 12.86C40.4113 12.9793 39.5774 12.7904 38.89 12.33C38.21 11.89 38.23 11.13 39 11.09Z" fill="#D88D3A"/>
<path d="M39.37 11.33H39.5C39.9101 11.4222 40.285 11.6305 40.58 11.93C40.68 12.01 40.78 12.17 40.68 12.25C40.6447 12.2639 40.6053 12.2639 40.57 12.25C40.1303 12.328 39.6773 12.2388 39.3 12C38.94 11.76 39 11.35 39.37 11.33Z" fill="#D68E38"/>
<path opacity="0.45" d="M39.85 13.7C40.2298 13.8197 40.6226 13.8935 41.02 13.92C41.3499 13.9873 41.6901 13.9873 42.02 13.92C42.1843 13.8771 42.3325 13.7869 42.4462 13.6608C42.56 13.5346 42.6343 13.3779 42.66 13.21C42.6546 13.0565 42.6139 12.9062 42.5411 12.771C42.4682 12.6357 42.3652 12.519 42.24 12.43C41.9918 12.2517 41.7697 12.0396 41.58 11.8C42.1257 12.0398 42.6108 12.3986 43 12.85C43.1417 12.9611 43.2591 13.1001 43.3451 13.2583C43.4311 13.4165 43.4838 13.5907 43.5 13.77C43.5 14.23 42.99 14.52 42.5 14.61C41.8203 14.6823 41.133 14.6178 40.4787 14.4203C39.8243 14.2228 39.2162 13.8963 38.69 13.46C38.22 13.14 37.76 12.8 37.32 12.46C36.7376 12.0861 36.3275 11.4962 36.18 10.82C36.1668 10.7207 36.1742 10.6197 36.2017 10.5234C36.2293 10.427 36.2763 10.3374 36.34 10.26C36.4253 10.1883 36.5242 10.1346 36.6307 10.1019C36.7372 10.0693 36.8492 10.0584 36.96 10.07C37.8586 10.0561 38.7405 10.3141 39.49 10.81C38.85 10.71 37.04 10.44 37.49 11.69C37.7344 12.1508 38.0755 12.5533 38.49 12.87C38.8839 13.234 39.3462 13.5161 39.85 13.7Z" fill="#D88D3A"/>
<path opacity="0.45" d="M48.17 17.19C47.8784 16.5163 47.4836 15.8922 47 15.34C46.4954 14.6399 45.9477 13.9719 45.36 13.34C44.3385 12.3529 43.2118 11.481 42 10.74L39.72 9.26C38.9742 8.75003 38.1451 8.37437 37.27 8.15L36.72 8.05C35.4616 7.66564 34.1689 7.40441 32.86 7.27C32.8235 7.26558 32.7865 7.2696 32.7518 7.28173C32.7172 7.29387 32.6857 7.3138 32.66 7.34C32.53 7.53 32.95 8.59 33.03 8.81C33.2418 9.36526 33.4889 9.90637 33.77 10.43C34.5257 11.7853 35.5181 12.9944 36.7 14C37.2398 14.4208 37.8398 14.7579 38.48 15C39.7838 15.5443 41.1196 16.0085 42.48 16.39L45.8 17.39C46.4589 17.636 47.1567 17.7613 47.86 17.76C47.96 17.7576 48.0572 17.7263 48.14 17.67C48.1849 17.599 48.2112 17.5177 48.2165 17.4338C48.2217 17.3499 48.2057 17.2661 48.17 17.19ZM46.29 16.25C46.2021 16.3438 46.0864 16.4069 45.96 16.43C45.5901 16.4942 45.2098 16.4562 44.86 16.32C43.58 15.91 42.26 15.73 40.97 15.32C40.1853 15.0785 39.4225 14.7707 38.69 14.4C38.69 14.4 37.46 13.61 37.33 13.5C36.9443 13.1309 36.5835 12.7367 36.25 12.32C35.4 11.32 34.25 10.09 34.15 8.75C34.1305 8.68475 34.1305 8.61525 34.15 8.55C34.1695 8.51424 34.1967 8.48318 34.2295 8.459C34.2623 8.43482 34.3 8.4181 34.34 8.41C34.8248 8.36873 35.3128 8.43357 35.77 8.6C36.36 8.72 36.95 8.82 37.53 8.96C38.5485 9.27539 39.5255 9.71184 40.44 10.26C41.4558 10.7407 42.4123 11.3381 43.29 12.04C43.6804 12.3353 44.039 12.6704 44.36 13.04C44.5987 13.3423 44.8127 13.6633 45 14C45.38 14.62 45.87 15.19 46.22 15.81C46.2938 15.9069 46.3262 16.0292 46.31 16.15C46.31 16.1843 46.3032 16.2183 46.29 16.25Z" fill="#D88D3A"/>
<path d="M48.17 17.19C47.8784 16.5163 47.4836 15.8922 47 15.34C46.4954 14.6399 45.9477 13.9719 45.36 13.34C44.3385 12.3529 43.2118 11.481 42 10.74L39.72 9.26C38.9742 8.75003 38.1451 8.37437 37.27 8.15L36.72 8.05C35.4647 7.66664 34.1754 7.40542 32.87 7.27C32.8319 7.26476 32.7932 7.26835 32.7568 7.28049C32.7204 7.29263 32.6873 7.31299 32.66 7.34C32.53 7.53 32.95 8.59 33.03 8.81C33.2418 9.36526 33.4889 9.90637 33.77 10.43C34.5257 11.7853 35.5181 12.9944 36.7 14C35.1942 12.4459 34.0084 10.6112 33.21 8.6C33.01 8.04 33.21 7.7 33.57 7.7C35.0351 7.83942 36.4747 8.17578 37.85 8.7C39.1529 9.15157 40.3827 9.79171 41.5 10.6C43.8774 12.1295 45.9188 14.1266 47.5 16.47C47.76 16.91 47.5 17.19 46.99 17.23C45.708 17.1893 44.4355 16.9945 43.2 16.65L45.74 17.42C46.3989 17.666 47.0967 17.7913 47.8 17.79C47.9 17.7876 47.9972 17.7563 48.08 17.7C48.1401 17.6313 48.1803 17.5475 48.1961 17.4576C48.212 17.3677 48.203 17.2751 48.17 17.19Z" fill="#CE8B3A"/>
<path opacity="0.45" d="M55.51 11.64L55.29 11.59C54.65 11.3504 54.0674 10.9791 53.58 10.5C53.43 10.37 53.3 10.15 53.49 10.1C53.5563 10.0898 53.6237 10.0898 53.69 10.1C54.4513 10.1839 55.1781 10.4629 55.8 10.91C56.37 11.32 56.25 11.78 55.51 11.64Z" fill="#D88D3A"/>
<path d="M55.21 11.42H55.09C54.7414 11.292 54.4243 11.0908 54.16 10.83C54.08 10.76 54.01 10.65 54.16 10.61H54.27C54.6843 10.6572 55.08 10.8086 55.42 11.05C55.68 11.25 55.61 11.5 55.21 11.42Z" fill="#D68E38"/>
<path opacity="0.45" d="M44.92 21.69H44.77C44.2576 21.6466 43.7493 21.563 43.25 21.44C42.256 21.1794 41.2936 20.8105 40.38 20.34C39.61 19.95 38.86 19.51 38.11 19.07C37.73 18.85 37.33 18.64 36.96 18.39C36.91 18.39 36.39 17.91 36.45 17.77L36.08 17.89L35.71 18.03C35.46 18.12 35.22 18.21 34.99 18.31C35.4119 18.6114 35.8528 18.8853 36.31 19.13C37.02 19.53 37.73 19.92 38.47 20.27C39.9563 20.9803 41.5155 21.5268 43.12 21.9C44.159 22.1274 45.211 22.2911 46.27 22.39L44.92 21.69Z" fill="#D88D3A"/>
<path opacity="0.45" d="M48.82 29.68C48.7336 29.6897 48.6464 29.6897 48.56 29.68C47.7651 29.5053 47.0324 29.1182 46.44 28.56C46.25 28.41 46.06 28.11 46.25 27.95C46.312 27.9074 46.3848 27.8831 46.46 27.88C47.3225 27.7424 48.2055 27.9275 48.94 28.4C49.66 28.86 49.64 29.64 48.82 29.68Z" fill="#D88D3A"/>
<path d="M48.44 29.44H48.3C47.8676 29.3529 47.4688 29.1448 47.15 28.84C47.04 28.75 46.94 28.59 47.04 28.51C47.076 28.485 47.1169 28.468 47.16 28.46C47.6271 28.3885 48.1043 28.4917 48.5 28.75C48.89 29 48.89 29.42 48.44 29.44Z" fill="#D68E38"/>
<path opacity="0.45" d="M47.91 27C47.5059 26.8816 47.0901 26.8078 46.67 26.78C46.3168 26.7097 45.9532 26.7097 45.6 26.78C45.4257 26.8248 45.2684 26.9197 45.1476 27.0531C45.0267 27.1864 44.9476 27.3522 44.92 27.53C44.9317 27.6868 44.9782 27.8391 45.056 27.9757C45.1338 28.1123 45.2411 28.2299 45.37 28.32C45.6314 28.5042 45.8698 28.7191 46.08 28.96C45.5016 28.7186 44.9853 28.3494 44.57 27.88C44.4207 27.7792 44.2933 27.6493 44.1954 27.4981C44.0974 27.3469 44.031 27.1775 44 27C44 26.53 44.53 26.23 45 26.13C46.431 25.9739 47.8663 26.383 49 27.27C49.51 27.6 50 27.95 50.46 28.27C50.7832 28.4532 51.0648 28.7016 51.2868 28.9994C51.5089 29.2972 51.6666 29.638 51.75 30C51.7673 30.1009 51.7619 30.2044 51.7342 30.303C51.7066 30.4016 51.6573 30.4928 51.59 30.57C51.4078 30.7199 51.1755 30.795 50.94 30.78C49.9865 30.7873 49.0517 30.5162 48.25 30C48.93 30.09 50.85 30.35 50.4 29.08C50.1331 28.5961 49.7563 28.1817 49.3 27.87C48.899 27.4906 48.4265 27.1949 47.91 27Z" fill="#D88D3A"/>
<path opacity="0.45" d="M39.08 23.5C39.3814 24.1898 39.7897 24.8276 40.29 25.39C40.837 26.0906 41.4246 26.7584 42.05 27.39C43.1461 28.4049 44.3499 29.2969 45.64 30.05C46.45 30.56 47.27 31.05 48.09 31.55C48.8898 32.0626 49.7681 32.441 50.69 32.67C50.88 32.67 51.08 32.73 51.28 32.76C52.6083 33.1468 53.9716 33.4014 55.35 33.52C55.44 33.52 55.53 33.52 55.57 33.44C55.61 33.36 55.25 32.16 55.17 31.94C54.9379 31.3707 54.6707 30.8163 54.37 30.28C53.5462 28.8967 52.483 27.671 51.23 26.66C50.6608 26.2027 50.023 25.8382 49.34 25.58C47.9646 25.036 46.5589 24.5719 45.13 24.19L41.61 23.19C40.9113 22.9395 40.1721 22.8208 39.43 22.84C39.3225 22.8331 39.216 22.865 39.13 22.93C39 23.09 39 23.32 39.08 23.5ZM41.08 24.45C41.1735 24.3511 41.2961 24.2845 41.43 24.26C41.8191 24.198 42.2173 24.2324 42.59 24.36C43.95 24.77 45.34 24.95 46.71 25.3C47.5401 25.5411 48.3494 25.8487 49.13 26.22C49.13 26.27 50.43 27.02 50.57 27.14C50.9817 27.515 51.3692 27.9158 51.73 28.34C52.64 29.34 53.84 30.61 53.98 31.99C53.9954 32.0558 53.9954 32.1242 53.98 32.19C53.9321 32.2673 53.8573 32.3243 53.77 32.35C53.259 32.3908 52.745 32.3262 52.26 32.16C51.62 32 51 32 50.38 31.82C49.3001 31.4986 48.2601 31.0558 47.28 30.5C46.2172 30.0115 45.2112 29.4079 44.28 28.7C43.8699 28.4026 43.4883 28.0679 43.14 27.7C42.8901 27.4041 42.6628 27.0899 42.46 26.76C42.04 26.13 41.52 25.55 41.14 24.92C41.0693 24.8174 41.0342 24.6945 41.04 24.57C41.045 24.5277 41.0586 24.4868 41.08 24.45Z" fill="#D88D3A"/>
<path d="M39.08 23.5C39.3813 24.1898 39.7897 24.8276 40.29 25.39C40.8369 26.0906 41.4246 26.7584 42.05 27.39C43.1461 28.4049 44.3499 29.2969 45.64 30.05C46.45 30.56 47.27 31.05 48.09 31.55C48.8898 32.0626 49.7681 32.4409 50.69 32.67C50.88 32.67 51.08 32.73 51.28 32.76C52.6083 33.1468 53.9716 33.4014 55.35 33.52C55.43 33.52 55.53 33.52 55.57 33.44C55.61 33.36 55.25 32.16 55.17 31.94C54.9379 31.3707 54.6707 30.8163 54.37 30.28C53.5462 28.8967 52.483 27.671 51.23 26.66C52.8299 28.238 54.1011 30.1176 54.97 32.19C55.19 32.76 54.97 33.12 54.6 33.12C53.0526 32.9872 51.5295 32.651 50.07 32.12C48.6924 31.6713 47.3858 31.0281 46.19 30.21C43.6811 28.6563 41.5085 26.6162 39.8 24.21C39.51 23.75 39.8 23.47 40.32 23.42C41.6708 23.4484 43.0134 23.6363 44.32 23.98L41.64 23.21C40.9413 22.9595 40.2021 22.8408 39.46 22.86C39.3525 22.8531 39.246 22.885 39.16 22.95C39 23.09 39 23.32 39.08 23.5Z" fill="#CE8B3A"/>
<path opacity="0.45" d="M56.68 32.55C56.4059 31.8961 56.1656 31.2285 55.96 30.55C55.6152 29.6577 55.0832 28.8496 54.4 28.18C53.8488 27.6022 53.2573 27.0642 52.63 26.57C52.0673 26.0871 51.4726 25.6428 50.85 25.24C49.2856 24.3647 47.6009 23.7245 45.85 23.34C43.7 22.75 41.54 22.19 39.45 21.43C37.84 20.88 35.65 20.03 34.67 18.56C34.45 18.67 34.22 18.77 34.01 18.89C34.6088 19.8473 35.4992 20.5869 36.55 21C37.625 21.5272 38.7552 21.933 39.92 22.21C42.56 22.9 45.29 23.27 47.87 24.15C50.4978 24.8984 52.7714 26.5619 54.28 28.84C54.7527 29.7452 55.1572 30.6845 55.49 31.65C55.6742 32.097 55.8811 32.5342 56.11 32.96C56.2675 32.7831 56.4622 32.6431 56.68 32.55Z" fill="#D88D3A"/>
<path opacity="0.45" d="M40.19 26.8C39.8609 26.1981 39.5004 25.614 39.11 25.05C38.7644 24.4743 38.3365 23.9521 37.84 23.5C36.6 22.28 34.84 21.33 33.79 19.97C33.6042 19.7365 33.4866 19.4562 33.45 19.16L33 19.44C33 19.44 32.95 19.44 32.92 19.44C32.9372 19.4856 32.9646 19.5266 33 19.56C34.63 21.33 36.77 22.56 38.24 24.51C38.4874 24.7964 38.6593 25.1402 38.74 25.51C38.7472 25.5257 38.7509 25.5427 38.7509 25.56C38.7509 25.5773 38.7472 25.5943 38.74 25.61C38.7199 25.6354 38.6917 25.6531 38.66 25.66C38.4676 25.6816 38.2731 25.6468 38.1 25.56C36.7716 25.0902 35.5435 24.3744 34.48 23.45C33.4642 22.4145 32.6262 21.2184 32 19.91C31.75 20.08 31.51 20.27 31.27 20.46C31.2242 20.5008 31.1808 20.5442 31.14 20.59C31.5836 21.5671 32.1053 22.5068 32.7 23.4C33.445 24.261 34.4196 24.8922 35.51 25.22C36.9241 25.9341 38.3801 26.5619 39.87 27.1C39.99 27.1 40.14 27.16 40.21 27.1C40.2368 27.0536 40.2492 27.0004 40.2456 26.947C40.2421 26.8935 40.2227 26.8424 40.19 26.8Z" fill="#D88D3A"/>
<path opacity="0.45" d="M34.08 20.39L34.73 20.98C34.4994 20.7993 34.2822 20.6021 34.08 20.39Z" fill="#D88D3A"/>
<path opacity="0.45" d="M59.17 30.89C59.0407 30.7209 58.9004 30.5605 58.75 30.41C58.6733 30.3345 58.58 30.278 58.4775 30.245C58.3751 30.212 58.2663 30.2035 58.16 30.22C58.1934 30.6672 58.3267 31.1011 58.55 31.49C58.602 31.6106 58.6621 31.7275 58.73 31.84L58.95 31.73C59.21 31.61 59.46 31.48 59.7 31.35C59.5052 31.2189 59.3272 31.0644 59.17 30.89Z" fill="#D88D3A"/>
<path opacity="0.45" d="M59.57 29.24C59.0908 29.0512 58.6262 28.8273 58.18 28.57L56 27.36L55.82 27.26C55.5163 27.0748 55.1742 26.9619 54.82 26.93C54.7931 27.4858 54.9751 28.0315 55.33 28.46C55.8047 29.149 56.191 29.8948 56.48 30.68C56.6466 31.3249 56.8605 31.9566 57.12 32.57L57.79 32.25C57.6728 31.6101 57.464 30.9904 57.17 30.41C56.94 29.95 56.37 29.22 57.17 29.02C57.97 28.82 58.98 29.72 59.5 30.02C59.8634 30.2429 60.1991 30.508 60.5 30.81C60.7917 30.628 61.0692 30.4241 61.33 30.2C60.7985 29.7878 60.2043 29.4637 59.57 29.24Z" fill="#D88D3A"/>
<path d="M59.57 29.24C59.0908 29.0512 58.6262 28.8273 58.18 28.57L56 27.36L55.82 27.26C55.5163 27.0748 55.1742 26.9619 54.82 26.93C54.7931 27.4858 54.9751 28.0315 55.33 28.46C55.8047 29.149 56.191 29.8948 56.48 30.68C56.6466 31.3249 56.8605 31.9566 57.12 32.57L57.28 32.49C57.08 31.77 56.92 31.03 56.66 30.32C56.5051 29.9737 56.3246 29.6395 56.12 29.32C55.753 28.9076 55.4892 28.4141 55.35 27.88C55.3407 27.8279 55.3421 27.7744 55.3541 27.7228C55.3661 27.6712 55.3886 27.6226 55.42 27.58C55.4549 27.5458 55.4983 27.5213 55.5456 27.509C55.593 27.4967 55.6428 27.4971 55.69 27.51C55.7867 27.5273 55.8787 27.5648 55.96 27.62C56.29 27.82 56.62 28.04 56.96 28.24C57.3609 28.5061 57.7822 28.7401 58.22 28.94C58.84 29.23 59.42 29.62 60.06 29.87C60.4409 29.9823 60.7858 30.1927 61.06 30.48C61.16 30.4 61.26 30.34 61.36 30.25C60.8228 29.8173 60.2181 29.4761 59.57 29.24Z" fill="#CE8B3A"/>
<path opacity="0.45" d="M35.13 22.09L35.37 22.14C36.0797 22.4456 36.6944 22.936 37.15 23.56C37.31 23.74 37.43 24.06 37.23 24.18C37.1614 24.1997 37.0886 24.1997 37.02 24.18C36.1917 24.1679 35.3986 23.8428 34.8 23.27C34.21 22.74 34.35 22 35.13 22.09Z" fill="#D88D3A"/>
<path d="M35.44 22.39C35.4828 22.3808 35.5271 22.3808 35.57 22.39C35.9731 22.5403 36.3216 22.8086 36.57 23.16C36.65 23.25 36.72 23.42 36.57 23.49C36.534 23.5003 36.4959 23.5003 36.46 23.49C36.0085 23.4889 35.575 23.3133 35.25 23C34.94 22.74 35 22.34 35.44 22.39Z" fill="#D68E38"/>
<path opacity="0.45" d="M55.08 9.87C54.731 9.71406 54.3698 9.58696 54 9.49C53.6778 9.378 53.3408 9.31398 53 9.3C52.68 9.3 52.36 9.4 52.3 9.61C52.24 9.82 52.4 10 52.59 10.17C52.7858 10.3226 52.9636 10.4971 53.12 10.69C52.6898 10.4515 52.3095 10.1324 52 9.75C51.8 9.54 51.58 9.29 51.65 9.08C51.72 8.87 52.23 8.72 52.65 8.75C53.9022 8.92299 55.0823 9.43863 56.06 10.24C56.46 10.53 56.84 10.84 57.2 11.15C57.56 11.46 58.08 11.96 58.04 12.39C58.0384 12.4577 58.0166 12.5234 57.9774 12.5786C57.9382 12.6338 57.8834 12.6761 57.82 12.7C57.6247 12.7614 57.4153 12.7614 57.22 12.7C56.4008 12.5319 55.6269 12.191 54.95 11.7C55.53 11.89 57.2 12.43 56.95 11.58C56.87 11.27 56.42 10.9 56.14 10.64C55.8292 10.3293 55.4715 10.0695 55.08 9.87Z" fill="#D88D3A"/>
<path opacity="0.45" d="M47.79 6C47.9694 6.50233 48.2407 6.9669 48.59 7.37C48.9759 7.94149 49.4002 8.48608 49.86 9C50.7165 9.85176 51.6505 10.6218 52.65 11.3L54.65 12.68C55.3119 13.1628 56.0306 13.5625 56.79 13.87L57.29 14.04C58.4258 14.5327 59.5914 14.9535 60.78 15.3C60.8477 15.3253 60.9223 15.3253 60.99 15.3C61.13 15.21 60.88 14.47 60.84 14.3C60.7145 13.9032 60.5539 13.5183 60.36 13.15C59.7802 12.0948 59.0145 11.1531 58.1 10.37C57.6368 9.97491 57.1262 9.639 56.58 9.37C55.42 8.71 54.22 8.18 53 7.65L50 6.36C49.4073 6.06356 48.7788 5.84508 48.13 5.71C48.0377 5.68997 47.9423 5.68997 47.85 5.71C47.75 5.76 47.75 5.9 47.79 6ZM49.42 7C49.5283 6.9729 49.6417 6.9729 49.75 7C50.097 7.04089 50.4349 7.13887 50.75 7.29C51.89 7.81 53.09 8.19 54.25 8.67C54.9339 8.96769 55.6015 9.3015 56.25 9.67C56.25 9.67 57.25 10.41 57.39 10.51C57.6977 10.8035 57.985 11.1175 58.25 11.45C58.91 12.22 59.79 13.23 59.72 14.07C59.7356 14.1085 59.7356 14.1515 59.72 14.19C59.657 14.2284 59.5835 14.2459 59.51 14.24C59.0575 14.1737 58.6187 14.0352 58.21 13.83C57.68 13.64 57.14 13.46 56.61 13.26C55.7244 12.8677 54.8745 12.3993 54.07 11.86C53.2116 11.3734 52.3984 10.8112 51.64 10.18C51.3291 9.93341 51.0381 9.66256 50.77 9.37C50.5974 9.14774 50.4404 8.91386 50.3 8.67C50.02 8.22 49.64 7.76 49.4 7.31C49.3808 7.27472 49.3707 7.23518 49.3707 7.195C49.3707 7.15481 49.3808 7.11527 49.4 7.08C49.4 7.08 49.38 7 49.42 7Z" fill="#D88D3A"/>
<path d="M47.79 6C47.9694 6.50233 48.2407 6.9669 48.59 7.37C48.9759 7.94149 49.4002 8.48608 49.86 9C50.7164 9.85176 51.6505 10.6218 52.65 11.3L54.65 12.68C55.3119 13.1628 56.0306 13.5625 56.79 13.87L57.29 14.04C58.4258 14.5327 59.5914 14.9535 60.78 15.3C60.8477 15.3253 60.9223 15.3253 60.99 15.3C61.13 15.21 60.88 14.47 60.84 14.3C60.7145 13.9032 60.5539 13.5183 60.36 13.15C59.7802 12.0948 59.0145 11.1531 58.1 10.37C59.2236 11.504 60.0869 12.8689 60.63 14.37C60.75 14.75 60.52 14.93 60.17 14.85C58.8427 14.4712 57.5537 13.969 56.32 13.35C55.1989 12.8328 54.139 12.1922 53.16 11.44C51.2738 10.1388 49.6433 8.50153 48.35 6.61C48.16 6.28 48.48 6.17 48.92 6.24C50.1052 6.52255 51.2657 6.90045 52.39 7.37L50.12 6.37C49.5273 6.07356 48.8988 5.85508 48.25 5.72C48.1577 5.69997 48.0623 5.69997 47.97 5.72C47.75 5.76 47.75 5.9 47.79 6Z" fill="#CE8B3A"/>
<path opacity="0.45" d="M73.23 19.08H73.48C74.2358 19.2598 74.9276 19.6438 75.48 20.19C75.66 20.34 75.84 20.63 75.66 20.79C75.5994 20.8279 75.5311 20.8519 75.46 20.86C74.6413 20.9793 73.8074 20.7904 73.12 20.33C72.43 19.87 72.45 19.11 73.23 19.08Z" fill="#D88D3A"/>
<path d="M73.59 19.32H73.72C74.1301 19.4122 74.505 19.6205 74.8 19.92C74.9 20 75 20.16 74.9 20.24C74.864 20.2498 74.826 20.2498 74.79 20.24C74.3515 20.321 73.8987 20.2354 73.52 20C73.16 19.75 73.17 19.34 73.59 19.32Z" fill="#D68E38"/>
<path opacity="0.45" d="M74.85 22.44C75.0693 22.25 75.3072 22.0825 75.56 21.94H75.24C74.8427 21.9135 74.4499 21.8397 74.07 21.72C73.5824 21.5243 73.1374 21.2356 72.76 20.87C72.3429 20.5521 72.0014 20.1457 71.76 19.68C71.35 18.44 73.16 18.68 73.76 18.81C73.0237 18.2866 72.1435 18.0036 71.24 18C71.1292 17.9884 71.0172 17.9993 70.9107 18.0319C70.8042 18.0646 70.7053 18.1183 70.62 18.19C70.5547 18.2664 70.5066 18.3559 70.479 18.4526C70.4514 18.5492 70.4449 18.6506 70.46 18.75C70.6076 19.4262 71.0176 20.0161 71.6 20.39C72.04 20.75 72.5 21.09 72.97 21.39C73.5494 21.8187 74.1811 22.1716 74.85 22.44Z" fill="#D88D3A"/>
<path opacity="0.45" d="M77.53 21.18C77.44 21.06 77.34 20.94 77.24 20.83C76.8503 20.3767 76.3654 20.0148 75.82 19.77C76.0153 20.0045 76.2367 20.2159 76.48 20.4C76.6039 20.488 76.7062 20.6031 76.7789 20.7365C76.8517 20.8699 76.8931 21.0182 76.9 21.17C76.8869 21.2958 76.8421 21.4162 76.77 21.52C77.0438 21.4596 77.3025 21.3439 77.53 21.18Z" fill="#D88D3A"/>
<path opacity="0.45" d="M73.88 23.5C74 23.36 74.11 23.21 74.23 23.06C73.78 22.88 73.33 22.68 72.89 22.47C72.89 22.47 71.66 21.68 71.53 21.57C71.1468 21.1986 70.7861 20.8045 70.45 20.39C69.6 19.39 68.45 18.16 68.35 16.82C68.33 16.7548 68.33 16.6852 68.35 16.62C68.3696 16.5842 68.3967 16.5532 68.4295 16.529C68.4624 16.5048 68.5001 16.4881 68.54 16.48C69.0248 16.4387 69.5128 16.5036 69.97 16.67C70.56 16.79 71.15 16.89 71.73 17.02L72.05 17.12L69.57 15.75C68.7522 15.4664 67.8954 15.3112 67.03 15.29C66.9935 15.2856 66.9565 15.2896 66.9219 15.3017C66.8872 15.3139 66.8558 15.3338 66.83 15.36C66.7 15.55 67.12 16.61 67.2 16.83C67.4343 17.3757 67.7015 17.9066 68 18.42C68.7518 19.7781 69.7407 20.9906 70.92 22C71.4598 22.4208 72.0599 22.7579 72.7 23C73.09 23.2 73.48 23.36 73.88 23.5Z" fill="#D88D3A"/>
<path d="M67.83 15.69C68.7422 15.7389 69.6436 15.9104 70.51 16.2L69.62 15.72C68.8022 15.4364 67.9453 15.2812 67.08 15.26C67.0435 15.2556 67.0065 15.2596 66.9719 15.2717C66.9372 15.2839 66.9058 15.3038 66.88 15.33C66.75 15.52 67.17 16.58 67.25 16.8C67.467 17.3547 67.7174 17.8957 68 18.42C68.7518 19.7781 69.7407 20.9906 70.92 22C69.4165 20.4442 68.231 18.6099 67.43 16.6C67.27 16 67.46 15.69 67.83 15.69Z" fill="#CE8B3A"/>
<g opacity="0.44">
<path opacity="0.44" d="M51.37 35.11C51.57 35.11 43.79 31.71 40.22 29.17C39.39 28.77 32.07 24.43 31.93 24.43C32.9407 25.2154 33.8156 26.1613 34.52 27.23C35.1343 28.1966 35.8892 29.0661 36.76 29.81C37.23 30.16 37.71 30.49 38.17 30.81L38.39 30.94C40.05 31.85 41.48 33.1 43.17 33.94C44.86 34.78 46.53 35.94 48.35 36.84C48.6719 36.9849 48.9798 37.159 49.27 37.36C49.4167 37.238 49.5703 37.1245 49.73 37.02C50.57 36.53 51.73 36.68 52.39 35.92C51.9948 35.728 51.6466 35.4514 51.37 35.11Z" fill="#FFF39C"/>
<path opacity="0.44" d="M40.2 36.61C41.01 36.93 41.83 37.23 42.68 37.53C43.4199 37.7491 44.1026 38.128 44.68 38.64C44.77 38.72 45.74 39.64 45.68 39.64C45.8302 39.577 45.9742 39.5 46.11 39.41C46.53 39.13 46.79 38.73 47.24 38.47C47.5068 38.3199 47.7842 38.1896 48.07 38.08C47.91 38.15 47.21 37.77 47.07 37.71L45.84 37.25C45.03 36.93 44.23 36.59 43.44 36.25L42.44 35.8C41.2193 35.2697 40.0307 34.6687 38.88 34C38.34 33.67 37.81 33.32 37.24 33C36.5937 32.7014 35.925 32.454 35.24 32.26C34.15 31.91 33.07 31.57 31.97 31.26C30.9981 30.8681 29.9944 30.5604 28.97 30.34C28.8 30.34 28.55 30.34 28.55 30.54C28.5571 30.592 28.5762 30.6416 28.6057 30.6849C28.6352 30.7283 28.6743 30.7643 28.72 30.79C29.4484 31.2502 30.2106 31.6547 31 32C31.8 32.44 32.59 32.91 33.4 33.34C35.03 34.2 36.68 35 38.35 35.77C38.94 36.1 39.57 36.37 40.2 36.61Z" fill="#FFF39C"/>
</g>
<g opacity="0.33">
<path opacity="0.35" d="M16.31 22.73C19.1373 24.1908 22.0807 25.415 25.11 26.39C26.6916 26.9143 28.3551 27.1481 30.02 27.08C30.0559 27.0903 30.094 27.0903 30.13 27.08C30.1569 27.0634 30.1786 27.0396 30.1927 27.0114C30.2069 26.9831 30.2128 26.9515 30.21 26.92C30.2207 26.5549 30.096 26.1987 29.86 25.92C29.0819 24.9357 28.2437 24.0006 27.35 23.12L25.59 21C25.4464 20.8184 25.2893 20.6479 25.12 20.49C24.41 19.86 23.52 19.49 22.8 18.88C21.68 17.88 20.41 17.05 19.21 16.14C18.8776 16.0525 18.5675 15.8957 18.3 15.68C18.2948 15.703 18.2948 15.727 18.3 15.75C17.7479 15.5024 17.1396 15.407 16.5382 15.4738C15.9368 15.5406 15.3642 15.7672 14.88 16.13C13.1952 17.144 11.4002 17.9626 9.52998 18.57C9.10834 18.7393 8.71144 18.9647 8.34998 19.24C11.21 19.74 13.86 21.37 16.31 22.73Z" fill="#FFF39C"/>
</g>
<path opacity="0.45" d="M22.92 21.1L22.18 20.4C21.1059 19.5612 19.9693 18.8056 18.78 18.14C17.7395 17.3129 16.6582 16.5386 15.54 15.82C15.3266 15.9092 15.1195 16.0128 14.92 16.13L14.65 16.27C16.36 17.11 20.28 19.62 20.65 20.73C20.84 21.25 18 19.73 16.13 19.16C14.742 18.8332 13.4152 18.2863 12.2 17.54C11.75 17.75 11.3 17.94 10.84 18.12C13.1561 19.2658 15.5406 20.2677 17.98 21.12C19.2722 21.6847 20.5163 22.3536 21.7 23.12C22.01 23.29 25.55 24.74 25.63 24.36C25.71 23.98 25.47 23.79 25.26 23.57C24.49 22.75 23.72 21.9 22.92 21.1Z" fill="#D88D3A"/>
<path d="M22.92 21.1L22.18 20.4C21.1059 19.5612 19.9692 18.8056 18.78 18.14C17.7395 17.3129 16.6581 16.5386 15.54 15.82L15.24 15.96C15.44 16.06 15.63 16.17 15.69 16.21C16.81 16.87 17.79 17.73 18.93 18.38C20.0949 19.0399 21.1703 19.8465 22.13 20.78C23.0856 21.6381 23.938 22.6046 24.67 23.66C23.7169 23.6129 22.7943 23.3088 22 22.78C20.39 21.91 18.76 21.12 17.08 20.39C15.4 19.66 13.8 19.23 12.24 18.48C12.14 18.43 11.63 18.1 11.32 17.93L10.86 18.12C13.1761 19.2658 15.5606 20.2677 18 21.12C19.2922 21.6847 20.5363 22.3536 21.72 23.12C22.03 23.29 25.57 24.74 25.65 24.36C25.73 23.98 25.49 23.79 25.28 23.57C24.49 22.75 23.72 21.9 22.92 21.1Z" fill="#CE8B3A"/>
<path opacity="0.45" d="M32.6 28.65C32.82 27.78 27.18 22.59 22.94 18.96C22.861 18.986 22.7774 18.9949 22.6946 18.9863C22.6119 18.9777 22.532 18.9517 22.46 18.91L22.3 18.82C24.01 20.27 25.3 21.82 28.06 24.6C28.43 24.97 29.96 26.42 29.54 26.6C28.06 27.31 20.41 24.43 17.93 23.21L13.08 20.84L10.73 19.69C10.3181 19.5277 9.92562 19.3197 9.55999 19.07C9.40999 18.96 9.28999 18.85 9.15999 18.75C8.35999 19.19 7.04999 20.2 7.04999 20.7C7.63999 21.19 8.72999 21.03 9.40999 21.6C9.7632 21.9128 10.0971 22.2468 10.41 22.6C11.8959 22.6414 13.3528 23.0211 14.67 23.71C16.07 24.3 17.41 25 18.84 25.5C21.8443 26.5784 24.9016 27.503 28 28.27C29.61 28.65 32.24 30.1 32.6 28.65Z" fill="#D88D3A"/>
<path d="M10.33 22.57H10.46C13.46 22.73 16.02 24.5 18.81 25.48C21.8237 26.5662 24.891 27.4974 28 28.27C29.57 28.65 32.2 30.1 32.56 28.65C32.74 27.94 29 24.34 25.32 21.07C26.32 22.07 27.22 23.31 28.32 24.29C29.3059 25.2863 30.2027 26.3671 31 27.52C31.2063 27.7351 31.321 28.0219 31.32 28.32C31.3188 28.3455 31.3119 28.3705 31.2998 28.393C31.2877 28.4155 31.2707 28.435 31.25 28.45C31.2263 28.4602 31.2008 28.4654 31.175 28.4654C31.1492 28.4654 31.1237 28.4602 31.1 28.45C28.6685 28.0086 26.2747 27.38 23.94 26.57C21.4853 25.887 19.0798 25.0384 16.74 24.03C15.6075 23.4824 14.4339 23.0243 13.23 22.66C12.61 22.49 11.99 22.35 11.36 22.24C11.1 22.19 10.43 22.24 9.96997 22.12C10.07 22.29 10.2 22.43 10.33 22.57Z" fill="#CE8B3A"/>
<path opacity="0.44" d="M23.25 24.58C24.54 24.96 27.13 25.97 27.61 25.63C28.09 25.29 26.69 24.07 26.27 23.47C25.2393 22.3538 24.1476 21.2956 23 20.3C21.6619 19.1606 20.215 18.1558 18.68 17.3C19.38 17.74 26.89 24.3 26.68 24.72C26.47 25.14 24.15 24.53 23.08 24.02C22.01 23.51 18.37 22 17.72 21.69C17.07 21.38 12.61 19.37 11.79 19.44C12.34 19.82 14.64 20.89 15.25 21.17C16.65 21.82 22.84 24.46 23.25 24.58Z" fill="#FFF39C"/>
<path opacity="0.45" d="M30.55 32.83L30.42 32.72C29.4265 31.8732 28.3354 31.1481 27.17 30.56C25.96 29.95 24.75 29.33 23.57 28.64C21.511 27.3178 19.3064 26.2374 17 25.42C15.86 25.07 14.66 24.9 13.49 24.63L13.89 24.84C15.5983 25.3656 17.2689 26.0071 18.89 26.76C20.94 27.76 22.74 29.17 24.68 30.34C26.27 31.34 27.96 32.13 29.68 32.96C30.4548 33.3905 31.1568 33.9406 31.76 34.59C33.86 36.41 36.64 36.68 38.92 38.18L43.03 40.89C43.4297 40.6334 43.8437 40.3997 44.27 40.19C44.62 40.07 44.95 39.99 45.27 39.88C40.38 37.35 34.77 36.23 30.55 32.83Z" fill="#D88D3A"/>
<path opacity="0.45" d="M34.74 34.32C32.87 33.32 31 32.32 29.21 31.25C28.75 30.97 28.31 30.68 27.86 30.38C27.4419 30.1705 27.0736 29.8739 26.78 29.51C26.78 29.45 26.73 29.38 26.78 29.34C26.83 29.3 26.87 29.34 26.92 29.34C27.4677 29.4793 27.9978 29.6806 28.5 29.94C29.13 30.2 29.76 30.49 30.4 30.73C32.48 31.49 34.74 31.73 36.84 32.41C40.45 33.67 43.38 36.41 46.96 37.75L45.5 37.41C44.6154 37.2223 43.7463 36.9683 42.9 36.65C41.75 36.19 40.7 35.51 39.59 34.97C38.48 34.43 37.59 34.11 36.59 33.58C36.08 33.3 35.59 32.99 35.07 32.75C34.2348 32.4188 33.3756 32.1513 32.5 31.95C31.2596 31.5609 30.044 31.0967 28.86 30.56C28.73 30.72 28.93 30.94 29.11 31.04C30.25 31.67 31.41 32.27 32.59 32.81C36.48 34.62 40.59 35.95 44.26 38.22L41.93 37.46C41.01 37.15 40.09 36.85 39.2 36.46C37.6764 35.8263 36.1876 35.1119 34.74 34.32Z" fill="#D88D3A"/>
<path opacity="0.45" d="M50.94 36.67L51.17 36.61C49.2878 34.8377 47.1381 33.3731 44.8 32.27C43.8 31.81 42.8 31.41 41.8 30.87C40.5885 30.1726 39.4894 29.296 38.54 28.27L36.93 27.38C37.65 28.1 38.38 28.81 39.12 29.52C39.7769 30.1839 40.4785 30.8021 41.22 31.37C42.1339 32.0143 43.0968 32.5861 44.1 33.08L50.94 36.67Z" fill="#D88D3A"/>
<path opacity="0.45" d="M48.56 37.9C48.6541 37.8577 48.7444 37.8076 48.83 37.75C48.99 37.64 49.15 37.51 49.3 37.39C48.93 37.1 48.54 36.83 48.15 36.57C47 35.8 45.87 35 44.67 34.36C43.01 33.36 41.25 32.65 39.67 31.64C37.2352 29.9985 34.9972 28.0826 33 25.93C32.5827 25.5431 32.2103 25.1104 31.89 24.64C31.82 24.53 31.78 24.41 31.72 24.3C30.96 23.82 30.21 23.3 29.48 22.82C31.0658 24.797 32.7688 26.6771 34.58 28.45C35.7 29.53 36.8566 30.56 38.05 31.54C38.69 32.07 39.35 32.54 40.05 33.05C41.2567 33.8584 42.5051 34.6027 43.79 35.28L48.56 37.9Z" fill="#D88D3A"/>
<path d="M47.12 35.89C46.32 35.36 45.51 34.83 44.67 34.36C43.01 33.36 41.25 32.65 39.67 31.64C37.2352 29.9985 34.9972 28.0826 33 25.93C32.6884 25.619 32.4009 25.2847 32.14 24.93H32.01C35.214 29.0255 39.3952 32.2509 44.17 34.31C45.1874 34.7651 46.1672 35.3001 47.1 35.91L47.12 35.89Z" fill="#CE8B3A"/>
<path d="M32 31.33C33.6 31.89 35.3 32.13 36.87 32.78C40.17 34.14 42.82 36.21 45.97 37.47L46.97 37.71C43.39 36.39 40.46 33.63 36.85 32.37C34.85 31.66 32.61 31.46 30.57 30.74C31.0352 30.9635 31.5126 31.1605 32 31.33Z" fill="#CE8B3A"/>
<path d="M42.23 37.32C38.9071 36.0401 35.6646 34.5607 32.52 32.89C32.4 32.82 29.72 31.49 29.38 31.35C31.12 32.42 32.93 33.35 34.74 34.35C36.1846 35.1382 37.67 35.8492 39.19 36.48C40.09 36.84 41 37.14 41.92 37.48C42.1 37.48 42.2 37.61 42.36 37.55C42.52 37.49 42.32 37.36 42.23 37.32Z" fill="#CE8B3A"/>
<path opacity="0.45" d="M59.61 16.3L55.68 15C54.51 14.63 53.34 14.24 52.15 13.9C51.2 13.5807 50.3559 13.0064 49.71 12.24C48.1736 10.5671 46.8564 8.70549 45.79 6.7C45.6022 6.81638 45.4086 6.92318 45.21 7.02C46.85 9.1 47.84 11.7 49.8 13.47C50.6936 14.2274 51.6698 14.8815 52.71 15.42C53.3598 15.8499 54.0667 16.1865 54.81 16.42C55.43 16.58 56.07 16.6 56.7 16.7C58.63 16.99 60.45 17.93 62.36 18.23C62.5936 17.9327 62.8548 17.6581 63.14 17.41C61.9299 17.1561 60.7476 16.7843 59.61 16.3Z" fill="#D88D3A"/>
<path opacity="0.45" d="M63.36 16.05C61.2225 15.7001 59.1159 15.1819 57.06 14.5C55.1349 13.7177 53.3089 12.7107 51.62 11.5C50.9745 11.1391 50.3766 10.699 49.84 10.19C49.2704 9.51389 48.7396 8.8061 48.25 8.07C47.6785 7.40922 47.2191 6.65929 46.89 5.85C46.77 5.96 46.65 6.07 46.52 6.17C46.9465 7.09543 47.4412 7.98788 48 8.84C49.2852 10.866 51.144 12.4637 53.34 13.43C53.81 13.63 54.34 13.8 54.79 13.97C56.23 14.47 57.68 15.09 59.15 15.46C60.15 15.7 61.08 15.94 62.03 16.2C62.6685 16.3124 63.288 16.5144 63.87 16.8L64.44 16.4L64.51 16.35H64.58C64.17 16.17 63.69 16.13 63.36 16.05Z" fill="#D88D3A"/>
<path opacity="0.45" d="M52.77 20.05C52.8464 20.0403 52.9237 20.0403 53 20.05C53.7055 20.2073 54.3552 20.5529 54.88 21.05C55.05 21.19 55.22 21.47 55.04 21.61C54.989 21.6519 54.9259 21.6764 54.86 21.68C54.0868 21.7952 53.2984 21.6168 52.65 21.18C52 20.79 52 20.08 52.77 20.05Z" fill="#D88D3A"/>
<path d="M53.11 20.27H53.23C53.6081 20.3623 53.9538 20.5559 54.23 20.83C54.32 20.91 54.41 21.06 54.32 21.14H54.22C53.7991 21.199 53.3713 21.0992 53.02 20.86C52.7 20.68 52.71 20.29 53.11 20.27Z" fill="#D68E38"/>
<path opacity="0.45" d="M50.83 21.77C51.8081 22.1797 52.8099 22.5304 53.83 22.82L56.32 23.58C56.8171 23.7591 57.3416 23.8505 57.87 23.85C57.9452 23.8469 58.018 23.8226 58.08 23.78C58.19 23.69 58.16 23.52 58.08 23.39C57.8823 22.886 57.6055 22.4168 57.26 22C56.8706 21.4782 56.4498 20.9807 56 20.51C55.2362 19.7526 54.3911 19.0819 53.48 18.51L53.2 18.68C53.634 18.9333 54.0515 19.2138 54.45 19.52C54.7375 19.7395 55.0052 19.9838 55.25 20.25C55.4246 20.4695 55.5849 20.6999 55.73 20.94C56.02 21.4 56.39 21.83 56.65 22.29C56.7061 22.3644 56.7312 22.4575 56.72 22.55C56.7137 22.5876 56.6963 22.6224 56.67 22.65C56.6046 22.7233 56.5166 22.7725 56.42 22.79C56.1436 22.8351 55.86 22.804 55.6 22.7C54.6 22.4 53.65 22.26 52.68 21.99C52.1044 21.8121 51.5428 21.5915 51 21.33C51 21.33 50.09 20.74 50 20.65L49.49 20.94L49.56 21.02C49.9464 21.3279 50.3738 21.5803 50.83 21.77Z" fill="#D88D3A"/>
<path d="M57.63 22.86C57.83 23.19 57.63 23.4 57.25 23.43C56.2894 23.4016 55.3359 23.2572 54.41 23L56.31 23.58C56.8071 23.7591 57.3316 23.8505 57.86 23.85C57.9352 23.8469 58.008 23.8226 58.07 23.78C58.18 23.69 58.15 23.52 58.07 23.39C57.8754 22.8867 57.602 22.4175 57.26 22C56.8706 21.4782 56.4498 20.9807 56 20.51C55.2362 19.7526 54.391 19.0819 53.48 18.51L53.35 18.59C55.0409 19.7212 56.4948 21.1717 57.63 22.86Z" fill="#CE8B3A"/>
<path opacity="0.45" d="M70.76 24C69.791 23.5206 68.7036 23.333 67.63 23.46C65.4237 23.2654 63.2484 22.8088 61.15 22.1C60.9219 22.0304 60.6782 22.0304 60.45 22.1C60.3935 22.1138 60.3403 22.139 60.2938 22.174C60.2473 22.209 60.2083 22.2531 60.1793 22.3036C60.1503 22.3541 60.1319 22.4099 60.1252 22.4678C60.1184 22.5256 60.1235 22.5842 60.14 22.64C60.1869 22.7319 60.2555 22.8109 60.34 22.87L65 26.48C65.3959 26.7443 65.7357 27.0842 66 27.48L66.22 27.32L66.33 27.24C66.2429 27.0809 66.146 26.9273 66.04 26.78C65.535 26.0701 64.8965 25.4655 64.16 25C63.62 24.65 62.95 24.26 62.93 23.62L66.93 24.06C67.3965 24.09 67.8571 24.1808 68.3 24.33C68.8461 24.583 69.349 24.9205 69.79 25.33C69.9659 25.2735 70.1467 25.2333 70.33 25.21C70.2373 24.937 70.0538 24.704 69.81 24.55C70.3667 24.5229 70.9241 24.5871 71.46 24.74C71.2758 24.4512 71.0382 24.2 70.76 24Z" fill="#D88D3A"/>
<path opacity="0.45" d="M69.84 24.6C70 24.6 70.16 24.6 70.32 24.6C69.92 24.2 69.45 23.89 69.06 23.48C68.59 23.48 68.06 23.48 67.63 23.48C65.4237 23.2854 63.2484 22.8288 61.15 22.12C60.9219 22.0504 60.6782 22.0504 60.45 22.12C60.3935 22.1338 60.3403 22.159 60.2938 22.194C60.2473 22.229 60.2083 22.2731 60.1793 22.3236C60.1503 22.3741 60.1319 22.4299 60.1252 22.4878C60.1184 22.5456 60.1235 22.6042 60.14 22.66C60.1869 22.7519 60.2555 22.8309 60.34 22.89L65 26.48C65.3941 26.7465 65.7335 27.0859 66 27.48C66.12 27.41 65.12 26.2 65 26.1C64.5716 25.6953 64.11 25.3274 63.62 25C63.15 24.65 62.62 24.32 62.2 24C61.78 23.68 61.12 23.33 60.99 22.81C60.972 22.7835 60.9623 22.7521 60.9623 22.72C60.9623 22.6879 60.972 22.6565 60.99 22.63C61.0199 22.6258 61.0502 22.6258 61.08 22.63C61.9743 22.6589 62.8542 22.8628 63.67 23.23C64.6153 23.4858 65.5778 23.6729 66.55 23.79C67.5271 23.8724 68.4802 24.137 69.36 24.57C69.6974 24.7959 69.9948 25.0764 70.24 25.4H70.33C70.2758 25.0802 70.1002 24.7937 69.84 24.6Z" fill="#D88D3A"/>
<path opacity="0.45" d="M63.63 27.9C62.8544 26.7107 61.9743 25.5929 61 24.56L59.8 23.18C58.9795 22.409 58.208 21.5874 57.49 20.72C57.1938 20.353 56.9882 19.9213 56.89 19.46C56.8803 19.4397 56.8752 19.4175 56.8752 19.395C56.8752 19.3725 56.8803 19.3503 56.89 19.33C56.9152 19.2988 56.9507 19.2776 56.99 19.27C57.2258 19.2428 57.4642 19.2918 57.67 19.41C59.54 20.25 61.28 21.75 63.37 21.99C63.5552 22.0263 63.747 22.0053 63.92 21.93C63.0414 21.0544 61.9887 20.373 60.83 19.93C59.105 19.0141 57.3249 18.2059 55.5 17.51H55.38L55.06 17.69C55.0449 17.7626 55.0449 17.8374 55.06 17.91C55.4595 18.6681 55.8968 19.4057 56.37 20.12C56.8185 20.823 57.3677 21.4564 58 22C59.16 23.19 60.28 24.48 61.37 25.75C62.2018 26.5804 62.879 27.5522 63.37 28.62C63.37 28.73 63.44 28.84 63.48 28.95L64.16 28.57C63.9665 28.3605 63.7893 28.1365 63.63 27.9Z" fill="#D88D3A"/>
<path opacity="0.45" d="M66.1 24.8C65.96 24.8 65.8 24.8 65.72 24.89C65.64 24.98 65.72 25.21 65.79 25.35L66.73 26.9C67.1266 26.5493 67.5888 26.2807 68.09 26.11C68.3 26.0483 68.5042 25.9679 68.7 25.87L68.59 25.71C67.9014 25.1087 67.014 24.7844 66.1 24.8Z" fill="#D88D3A"/>
<path opacity="0.45" d="M56.5 24.2C57.5527 24.3475 58.5694 24.6864 59.5 25.2C60.1221 25.6624 60.6343 26.2566 61 26.94C61.3389 27.5212 61.6202 28.1341 61.84 28.77L60.76 28.51C60.6655 28.506 60.5755 28.4686 60.5059 28.4046C60.4364 28.3405 60.3918 28.2538 60.38 28.16C60.2133 27.29 59.8508 26.4692 59.32 25.76C58.6405 25.171 57.7873 24.8199 56.89 24.76C54.3611 24.32 51.8775 23.6506 49.47 22.76C49.06 22.61 48.11 21.94 48.89 21.65C49.36 21.48 50.72 22.35 51.18 22.53C52.9117 23.2114 54.6895 23.7695 56.5 24.2Z" fill="#D88D3A"/>
<path opacity="0.32" d="M63.6 26.15C63.1703 25.5127 62.6742 24.9227 62.12 24.39C61.12 23.53 59.83 22.97 59.31 21.79C59.2748 21.7217 59.2544 21.6467 59.25 21.57C59.25 21.22 59.54 21.27 59.87 21.39C60.2 21.51 62.36 22.39 62.65 22.23C61.5692 21.6079 60.4578 21.0405 59.32 20.53C59.02 20.4 58.38 20.07 58.16 20.31C57.94 20.55 58.25 20.88 58.34 21.07C58.6777 21.7347 59.1393 22.3287 59.7 22.82C60.31 23.38 61.04 24.16 61.7 24.67C62.6551 25.4006 63.4059 26.3649 63.88 27.47C63.9958 27.85 64.063 28.2431 64.08 28.64L64.87 28.18C64.5106 27.4654 64.0854 26.7858 63.6 26.15Z" fill="#FFF39C"/>
<path opacity="0.45" d="M71.48 23.88C70.8855 23.3658 70.2501 22.9009 69.58 22.49C69.0024 22.1872 68.4416 21.8534 67.9 21.49C67.4334 21.1166 66.9986 20.7052 66.6 20.26C66.2415 19.9162 65.935 19.5221 65.69 19.09C65.22 18.18 65.29 17.02 64.69 16.19C64.2186 16.4934 63.7676 16.8275 63.34 17.19C63.5904 17.9956 63.9983 18.7434 64.54 19.39C65.2813 20.0382 66.1093 20.5801 67 21C68.3789 21.9019 69.6892 22.9047 70.92 24C71.2 24.24 71.48 24.48 71.74 24.74C71.8458 24.6282 71.9712 24.5366 72.11 24.47C71.89 24.25 71.68 24.06 71.48 23.88Z" fill="#D88D3A"/>
<path opacity="0.45" d="M70.26 22C69.7204 21.6295 69.218 21.2076 68.76 20.74C67.38 19.24 67 17.1 66.05 15.31L65.37 15.75C65.6584 16.4124 65.9925 17.054 66.37 17.67C66.59 18.15 66.69 18.67 66.89 19.17C67.4936 20.3605 68.4367 21.3454 69.6 22C70.6884 22.6391 71.7189 23.3719 72.68 24.19C72.9285 24.1159 73.1695 24.0188 73.4 23.9C72.2866 23.3842 71.2335 22.747 70.26 22Z" fill="#D88D3A"/>
<path opacity="0.45" d="M64.19 13.47C63.6003 13.0141 63.1811 12.3731 63 11.65C62.66 11.47 62.31 11.29 61.95 11.13C62.0657 11.8583 62.3626 12.5459 62.8134 13.1295C63.2642 13.7131 63.8545 14.1741 64.53 14.47C64.8944 14.5901 65.2335 14.7766 65.53 15.02L65.65 15.15C65.8402 15.0034 66.0446 14.8761 66.26 14.77C65.5358 14.3937 64.8435 13.9589 64.19 13.47Z" fill="#D88D3A"/>
<path opacity="0.45" d="M61.19 11.61C61.19 11.33 61.09 11.02 61.03 10.7L59.73 10.15C60.2038 11.0254 60.6278 11.9268 61 12.85C61.6434 14.1133 62.6182 15.1779 63.82 15.93C64.0035 16.0419 64.1939 16.1421 64.39 16.23L65.08 15.61C64.2792 15.4032 63.5345 15.0206 62.9 14.49C62.0087 13.7612 61.4032 12.7414 61.19 11.61Z" fill="#D88D3A"/>
<path opacity="0.45" d="M53.59 6.48C52.1028 6.29559 50.6788 5.76842 49.43 4.94C49.1733 4.72054 48.8913 4.53254 48.59 4.38C48.3914 4.56057 48.181 4.72761 47.96 4.88C49.42 6 51.68 6.52 53.36 7L54.88 7.45L53.62 6.45L53.59 6.48Z" fill="#D88D3A"/>
<path d="M77.66 20.74C77.51 20.34 76.66 19.98 76.18 19.65L75.07 18.9C71.71 16.64 67.86 15.01 64.63 12.64C61.86 10.64 58.34 9.98 55.54 8C54.88 7.53 54.26 7 53.62 6.5C52.0337 5.33423 50.3354 4.32927 48.55 3.5C47.63 3.05 45.14 1.31 44.16 1.71C44.06 1.49 44.35 1.48 44.16 1.28C43.5365 0.708169 42.801 0.272271 42 0C41.4 0.1 40.87 1 40.36 1.29C39.6122 1.61476 38.8901 1.99586 38.2 2.43C37.9334 2.71575 37.6386 2.97374 37.32 3.2C36.9 3.45 35.69 3.47 35.46 3.94C35.23 4.41 36.04 4.73 36.2 5.27C34.75 4.34 33.9 4.87 32.41 5.37C31.3477 5.84478 30.3765 6.50129 29.54 7.31C28.82 7.83797 28.0374 8.27464 27.21 8.61C26.33 9.04 28.21 10.41 28.46 10.98C27.5855 10.3533 26.6071 9.88613 25.57 9.6C25.23 9.6 24.22 10.6 23.87 10.84C23.25 11.23 22.67 11 22.12 11.49C21.8134 11.7796 21.4784 12.0376 21.12 12.26C20.86 12.39 20.41 12.64 20.12 12.74C19.83 12.84 19.66 13.19 19.55 13.58C18.64 13.8703 17.78 14.2986 17 14.85C17.86 15.07 18.09 15.19 18.38 15.75C17.8279 15.5024 17.2196 15.407 16.6182 15.4738C16.0168 15.5406 15.4443 15.7672 14.96 16.13C13.2752 17.144 11.4803 17.9626 9.60999 18.57C8.92999 18.76 7.04999 20.1 7.04999 20.7C7.63999 21.19 8.72999 21.03 9.40999 21.6C9.79999 21.93 10.1 22.35 10.41 22.71C11.0861 23.3203 11.8474 23.8289 12.67 24.22L19 27.59C19 27.94 22.16 29.23 22.57 29.5C23.6222 30.2745 24.7172 30.989 25.85 31.64C27.33 32.36 28.85 32.72 30.07 33.88C30.54 34.31 30.94 34.82 31.42 35.25C32.6234 36.1882 33.9754 36.9183 35.42 37.41C37.7292 38.3794 39.9451 39.5576 42.04 40.93C42.1391 41.0107 42.2622 41.0564 42.39 41.06C42.88 41.01 43.59 40.37 44.1 40.19C44.7562 40.031 45.3884 39.7856 45.98 39.46C46.4 39.18 46.66 38.78 47.11 38.52C47.56 38.26 48.24 38.09 48.75 37.75C49.06 37.54 49.32 37.26 49.65 37.07C50.49 36.58 51.65 36.73 52.31 35.97C51.917 35.7611 51.5754 35.4673 51.31 35.11L53.02 35.3C54.02 35.42 54.7 34.14 55.4 33.59C56.5296 32.8423 57.7366 32.2187 59 31.73C59.9226 31.3249 60.7842 30.7931 61.56 30.15C61.7007 30.0681 61.8049 29.9356 61.8513 29.7795C61.8978 29.6234 61.883 29.4555 61.81 29.31C61.96 29.31 62.25 29.56 62.39 29.55C63.7134 28.8938 64.9928 28.1522 66.22 27.33C66.7804 26.8098 67.4311 26.3964 68.14 26.11C68.8665 25.7518 69.6269 25.467 70.41 25.26C70.3173 24.987 70.1337 24.754 69.89 24.6C70.4951 24.5642 71.1016 24.6388 71.68 24.82C72.08 24.2 73.02 24.25 73.61 23.82C73.8687 23.604 74.0944 23.3513 74.28 23.07C74.7373 22.4866 75.3268 22.0204 76 21.71C76.37 21.56 77.91 21.43 77.66 20.74ZM49.66 4.49C50.45 4.49 51.03 5.17 51.66 5.65C52.04 5.93 52.48 6.13 52.87 6.39C54.4 7.39 57.2 9.51 58.17 9.93C58.66 10.14 59.17 10.31 59.67 10.5C61.8384 11.4067 63.9202 12.5079 65.89 13.79C66.04 13.88 66.2 14 66.2 14.17C66.1779 14.2678 66.1295 14.3577 66.06 14.43C65.1548 15.3714 64.0964 16.1525 62.93 16.74C62.4967 17.0335 62.0058 17.2313 61.49 17.32C61.04 17.3317 60.5919 17.2571 60.17 17.1C57.9232 16.4557 55.7406 15.6054 53.65 14.56C51.65 13.56 49.9 11.99 47.98 10.83C47.4727 10.5462 46.985 10.2288 46.52 9.88L44.87 8.6C44.7732 8.5364 44.6976 8.44525 44.653 8.33831C44.6085 8.23137 44.597 8.11354 44.62 8C44.6623 7.89153 44.7353 7.79772 44.83 7.73C46.338 6.50522 47.9547 5.42072 49.66 4.49ZM40.34 1.49C40.75 1.2 41.12 0.85 41.52 0.54C41.6081 0.464527 41.71 0.406801 41.82 0.37C41.9942 0.346293 42.1715 0.374104 42.33 0.45C42.7834 0.611067 43.2111 0.836727 43.6 1.12C43.75 1.24 43.99 1.39 44 1.6C44.01 1.81 43.83 2.02 44.15 2.03C44.4326 2.00494 44.7163 1.99492 45 2C45.7943 2.19798 46.5375 2.56272 47.18 3.07C47.56 3.3 47.99 3.43 48.35 3.68C48.42 3.73 48.49 3.8 48.48 3.88C48.47 3.96 48.41 4.02 48.35 4.08C47.6196 4.62752 46.8509 5.12212 46.05 5.56C45.647 5.8475 45.2298 6.11451 44.8 6.36C44.405 6.59815 43.9771 6.77674 43.53 6.89C43.1504 6.93138 42.7664 6.8974 42.4 6.79C41.6454 6.60903 40.9064 6.36827 40.19 6.07L38.8 5.46C38.48 5.33 38.18 5.16 37.8 5.04C37.4687 4.9535 37.1495 4.82584 36.85 4.66C36.5954 4.53861 36.3541 4.39116 36.13 4.22C35.95 4.05 35.71 3.81 36.13 3.74C36.5807 3.68606 37.0178 3.55051 37.42 3.34C37.7088 3.13335 37.9738 2.89522 38.21 2.63C38.7351 2.24889 39.3106 1.94262 39.92 1.72C40.0658 1.63946 40.2062 1.54926 40.34 1.45V1.49ZM33.23 5.49C33.6756 5.31735 34.1526 5.24059 34.6299 5.26471C35.1072 5.28883 35.574 5.4133 36 5.63C38.38 7.27 41.46 10.01 44.63 11.43C45.28 11.73 47.77 13.06 48.4 13.43C49.4471 14.0785 50.54 14.65 51.67 15.14C52.06 15.3 54.28 15.96 54.15 16.49C53.9682 16.9678 53.6104 17.3578 53.15 17.58L48.56 20.58C46.67 21.83 44.56 19.08 43.21 18.12C41.43 16.87 39.57 15.71 37.7 14.58C36.167 13.6245 34.5774 12.7629 32.94 12C32.0681 11.6617 31.2391 11.222 30.47 10.69C30.0737 10.3001 29.6529 9.93602 29.21 9.6C29.0167 9.50528 28.8297 9.3984 28.65 9.28C27.65 8.55 30.65 6.78 31.21 6.36C31.8112 5.90624 32.4985 5.57961 33.23 5.4V5.49ZM21.13 12.62H21.27C21.82 12.43 22.13 11.85 22.64 11.57C23.15 11.29 23.74 11.32 24.2 11.02C24.66 10.72 25.01 10.02 25.59 10.02C26.43 9.96 27.35 11.02 28 11.42C28.65 11.82 29.28 12.17 29.93 12.52C32.0367 13.6613 34.0798 14.9165 36.05 16.28C36.347 16.4328 36.5858 16.6787 36.73 16.98C36.54 17.09 36.4 17.27 36.18 17.38C35.4041 17.7685 34.6022 18.1027 33.78 18.38C32.9281 18.7699 32.1258 19.26 31.39 19.84C30.8624 20.2476 30.2711 20.5652 29.64 20.78C29.4183 20.84 29.1896 20.8703 28.96 20.87C28.1044 20.8344 27.2937 20.4773 26.69 19.87C26.38 19.58 20.89 15.98 18.84 14.87C18.58 14.73 18.43 14.38 18.78 14.23C18.9107 14.1895 19.0445 14.1594 19.18 14.14C19.77 13.97 19.88 13.14 20.41 12.83C20.6343 12.6959 20.8768 12.5949 21.13 12.53V12.62ZM50.2 36.62C49.4976 36.8422 48.8258 37.1513 48.2 37.54C47.77 37.8 47.3 38.04 46.89 38.3C46.5678 38.4989 46.2692 38.7337 46 39C45.32 39.65 44.23 39.55 43.39 40C43.02 40.18 42.67 40.46 42.27 40.4C42.0791 40.3616 41.8984 40.2832 41.74 40.17C40.4515 39.3549 39.1159 38.6169 37.74 37.96C36.25 37.24 34.59 36.83 33.32 35.78C32.76 35.33 32.32 34.78 31.76 34.3C29.99 32.77 27.49 32.3 25.64 30.92C25.28 30.64 24.94 30.31 24.55 30.06C23.95 29.67 23.25 29.45 22.7 29.01C22.0771 28.5769 21.4059 28.2178 20.7 27.94C19.1092 27.2014 17.5632 26.37 16.07 25.45C14.77 24.64 13.28 24.24 12.07 23.21C11.43 22.64 10.91 21.96 10.25 21.41C9.63602 20.845 8.8343 20.5279 7.99999 20.52C8.29999 18.77 11.15 18.63 12.45 18C13.16 17.66 14.19 16.61 15.02 16.71C15.106 16.7251 15.194 16.7251 15.28 16.71C15.36 16.71 15.45 16.62 15.43 16.53C15.4128 16.4805 15.3892 16.4335 15.36 16.39C15.14 15.95 17.24 15.86 17.53 15.84C17.6536 15.8149 17.782 15.8295 17.8969 15.8815C18.0118 15.9336 18.1073 16.0205 18.17 16.13C19.1364 17.1131 20.1983 17.9974 21.34 18.77C21.81 19.15 22.25 19.57 22.74 19.92C23.2332 20.2383 23.7478 20.5223 24.28 20.77C24.9 21.09 25.53 21.42 26.12 21.77C26.71 22.12 27.26 22.51 27.84 22.87C29.56 23.93 31.45 24.66 33.16 25.74C34.48 26.58 35.66 27.61 36.92 28.54C38.2059 29.477 39.5711 30.3001 41 31C42.22 31.58 43.57 31.92 44.8 32.52C45.8 33 46.8 33.31 47.8 33.78C48.95 34.31 50.07 34.89 51.17 35.52C51.2317 35.5458 51.2875 35.5839 51.334 35.6321C51.3804 35.6802 51.4165 35.7374 51.44 35.8C51.51 36.07 51.16 36.22 50.89 36.28C50.62 36.34 50.44 36.43 50.2 36.5V36.62ZM55.27 33.34L54.27 34.16C54.0132 34.4054 53.6956 34.578 53.35 34.66C52.89 34.72 52.5 34.36 52.07 34.16C47.67 32 39.18 26.3 38.33 26C37.48 25.7 36.52 25.39 35.64 25C34.0984 24.3186 32.6307 23.4809 31.26 22.5C31.1389 22.443 31.0305 22.3623 30.9412 22.2627C30.8519 22.1631 30.7835 22.0465 30.74 21.92C30.7244 21.8159 30.7305 21.7098 30.7581 21.6082C30.7856 21.5066 30.8339 21.4119 30.9 21.33C31.2407 20.891 31.6883 20.5467 32.2 20.33L35.42 18.68C36.2041 18.2072 37.0873 17.9231 38 17.85C38.4706 17.9083 38.9219 18.0724 39.32 18.33C39.8399 18.6952 40.3283 19.1033 40.78 19.55C41.4469 19.9942 42.1417 20.395 42.86 20.75C44.33 21.57 45.86 22.37 47.33 23.12C50.33 24.63 53.43 26.01 56.57 27.23C57.9659 27.8278 59.331 28.4953 60.66 29.23C60.8653 29.3113 61.0401 29.4546 61.16 29.64C61.55 30.43 57.94 31.53 57.39 31.81C56.6427 32.2158 55.9332 32.6877 55.27 33.22V33.34ZM65.39 27.54L64.91 27.95C64.4173 28.4057 63.7711 28.6592 63.1 28.66C62.04 28.57 61.03 27.56 60.1 27.12C59.17 26.68 57.91 26.28 56.84 25.81C55.5 25.21 54.26 24.44 52.97 23.81C52.3358 23.4283 51.6778 23.0876 51 22.79C50.59 22.65 49.72 22.57 49.52 22.12C49.09 21.18 53.6 18.83 54.32 18.49C54.8844 18.1365 55.5461 17.9703 56.2105 18.0152C56.875 18.0601 57.5083 18.3137 58.02 18.74C60.3455 20.4878 62.9438 21.8393 65.71 22.74C66.5526 22.9581 67.3703 23.2631 68.15 23.65C68.31 23.75 69.82 24.92 69.69 24.97C68.531 25.3655 67.4284 25.9101 66.41 26.59C66.0472 26.8375 65.706 27.1151 65.39 27.42V27.54ZM69.8 23.24L69 22.45L67.44 21.25C67.05 20.95 66.67 20.66 66.26 20.39C65.35 19.8 64.34 19.39 63.38 18.87C63.3149 18.8521 63.256 18.8168 63.2096 18.7679C63.1632 18.7189 63.131 18.6582 63.1166 18.5923C63.1022 18.5264 63.1061 18.4578 63.1278 18.394C63.1496 18.3301 63.1884 18.2734 63.24 18.23C64.2258 16.7383 65.6675 15.6053 67.35 15C67.4709 14.94 67.6053 14.9125 67.74 14.92C67.8383 14.9423 67.9327 14.9794 68.02 15.03L68.75 15.43L69.62 15.91C70.19 16.24 70.75 16.59 71.31 16.91C73.07 18.01 74.88 18.99 76.63 20.1C76.8 20.2 77.14 20.37 77.23 20.54C77.2682 20.6399 77.2711 20.7498 77.2384 20.8516C77.2057 20.9535 77.1392 21.0411 77.05 21.1C76.8753 21.2173 76.6776 21.2957 76.47 21.33C75.3214 21.6499 74.3182 22.3563 73.63 23.33C73.557 23.4471 73.4697 23.5546 73.37 23.65C73.255 23.7258 73.1306 23.7863 73 23.83L72.24 24.1C71.69 24.3 71.29 24.44 70.85 24C70.5178 23.6861 70.1671 23.3922 69.8 23.12V23.24Z" fill="#FFFABD"/>
<path d="M53.41 35.29C53.5168 35.2639 53.6207 35.227 53.72 35.18C47.6 33 42.18 28.08 36.34 25.61C35.42 25.22 34.63 24.71 33.7 24.35C32.6797 24.0009 31.7384 23.4538 30.93 22.74C30.43 22.27 30.11 22.11 30.5 21.48C30.8351 21.0757 31.2419 20.7367 31.7 20.48C32.57 19.89 33.53 19.48 34.42 18.92C35.1494 18.4554 35.9316 18.0794 36.75 17.8C37.09 17.69 39.06 17.11 39.31 17.45C38.7697 16.7073 38.0057 16.1571 37.13 15.88C37.2274 16.1252 37.2461 16.3946 37.1834 16.6509C37.1206 16.9072 36.9797 17.1375 36.78 17.31C36.3807 17.6521 35.9188 17.9136 35.42 18.08C34.3591 18.5471 33.3243 19.0712 32.32 19.65C31.5165 20.2301 30.6298 20.6853 29.69 21C27.8 21.42 26.51 20.12 25.04 19.16L22.11 17.22C20.6892 16.1192 19.129 15.2114 17.47 14.52C17.12 14.71 16.88 14.86 16.96 14.88C17.82 15.1 18.05 15.22 18.34 15.78C18.6685 16.1698 19.0226 16.5373 19.4 16.88C20.7918 18.2488 22.3959 19.3835 24.15 20.24C27.1961 21.7676 30.151 23.4705 33 25.34C36.2838 27.5773 39.7038 29.6079 43.24 31.42C46.033 32.4741 48.7552 33.7066 51.39 35.11L53.1 35.3C53.2032 35.3146 53.308 35.3112 53.41 35.29Z" fill="#D88500"/>
<path opacity="0.5" d="M36.34 25.61C35.42 25.22 34.63 24.71 33.7 24.35C32.6797 24.0009 31.7383 23.4538 30.93 22.74C30.7428 22.5882 30.5718 22.4173 30.42 22.23C30.2179 22.6214 30.0987 23.0504 30.07 23.49C31.02 24.06 31.97 24.65 32.9 25.28C35.49 24.98 38.62 27.46 40.24 28.38C42.09 29.43 44.7 30.5 46.43 31.74C47.1749 32.2119 47.8121 32.8355 48.3 33.57C50.04 34.42 51.41 35.16 51.37 35.11L53.08 35.3C53.1891 35.3203 53.3009 35.3203 53.41 35.3C53.5168 35.2739 53.6206 35.237 53.72 35.19C47.6 33 42.18 28.08 36.34 25.61Z" fill="#A85A0C"/>
<path opacity="0.5" d="M37.13 15.84C37.2274 16.0852 37.2461 16.3546 37.1834 16.6109C37.1206 16.8672 36.9797 17.0975 36.78 17.27C36.3807 17.6121 35.9188 17.8736 35.42 18.04C34.3591 18.5071 33.3243 19.0312 32.32 19.61C31.519 20.2042 30.6322 20.6729 29.69 21C27.8 21.42 26.51 20.12 25.04 19.16L22.11 17.22C20.6892 16.1192 19.129 15.2114 17.47 14.52C17.12 14.71 16.88 14.86 16.96 14.88C17.82 15.1 18.05 15.22 18.34 15.78C18.5344 16.0362 18.7557 16.2709 19 16.48C19.4189 16.4666 19.8352 16.5499 20.2167 16.7233C20.5982 16.8967 20.9347 17.1556 21.2 17.48C22.4345 18.6093 23.8737 19.4918 25.44 20.08C26.82 20.67 28.25 21.4 28.53 22.61L29.97 23.46C30.0045 22.9465 30.1262 22.4426 30.33 21.97C30.351 21.8057 30.4091 21.6484 30.5 21.51C30.8351 21.1057 31.2419 20.7667 31.7 20.51C32.57 19.92 33.53 19.51 34.42 18.95C35.1494 18.4854 35.9316 18.1094 36.75 17.83C37.09 17.72 39.06 17.14 39.31 17.48C38.7806 16.7112 38.0154 16.1356 37.13 15.84Z" fill="#A85A0C"/>
<path d="M30.43 22.26C30.29 22.07 30.28 21.86 30.5 21.5C30.8351 21.0957 31.2419 20.7567 31.7 20.5C32.57 19.91 33.53 19.5 34.42 18.94C35.1494 18.4754 35.9316 18.0994 36.75 17.82C37.09 17.71 39.06 17.13 39.31 17.47C38.7697 16.7273 38.0057 16.1771 37.13 15.9C37.2274 16.1452 37.2461 16.4146 37.1833 16.6709C37.1206 16.9272 36.9796 17.1575 36.78 17.33C36.3807 17.6721 35.9188 17.9336 35.42 18.1C34.3591 18.5671 33.3243 19.0912 32.32 19.67C31.5152 20.2431 30.6286 20.6915 29.69 21C29.5453 21.0309 29.3979 21.0477 29.25 21.05C29.2699 21.1057 29.2866 21.1624 29.3 21.22C29.5301 21.8612 29.6419 22.5389 29.63 23.22L30.36 23.66C30.38 23.2 30.39 22.73 30.43 22.26Z" fill="#894903"/>
<path d="M63.21 29.11C62.4948 28.6989 61.7569 28.3283 61 28C59.28 27.26 57.58 26.45 55.89 25.65C54.64 25.06 53.4 24.46 52.16 23.84C51.65 23.59 49.05 22.66 49.11 22.08C49.1718 21.8033 49.3361 21.5603 49.57 21.4C51.86 19.4 54.02 17.51 57.22 17.3C56.4904 16.7365 55.6727 16.2973 54.8 16C55.7 16.35 52.7 18.3 52.6 18.37L48.84 20.88C48.57 21.0934 48.2556 21.2437 47.92 21.32C47 21.45 45.74 20.42 45.03 19.93C40.5151 16.8288 35.8312 13.981 31 11.4C30.27 11 28.12 9 27.4 8.52C25.97 8.97 27.74 10.11 28.3 10.76C28.3732 10.8499 28.4572 10.9305 28.55 11C30.49 12.47 41 19 44 21C45.37 21.89 60.32 28.59 61.72 29.35C61.87 29.35 62.16 29.6 62.3 29.59C62.44 29.58 62.72 29.37 63.21 29.11Z" fill="#D88500"/>
<path opacity="0.5" d="M50.06 23.63C50.8225 23.5377 51.5959 23.6374 52.31 23.92L52.2 23.86C51.69 23.61 49.09 22.68 49.15 22.1C49.2118 21.8233 49.3761 21.5803 49.61 21.42C51.9 19.42 54.06 17.53 57.26 17.32C56.5196 16.7455 55.6881 16.2994 54.8 16C55.7 16.35 52.7 18.3 52.6 18.37C51.34 19.2033 50.0867 20.04 48.84 20.88C48.57 21.0934 48.2556 21.2437 47.92 21.32C47 21.45 45.74 20.42 45.03 19.93C40.5151 16.8288 35.8312 13.981 31 11.4C30.27 11 28.12 9 27.4 8.52C25.97 8.97 27.74 10.11 28.3 10.76C28.3732 10.8499 28.4572 10.9305 28.55 11L28.96 11.3C28.9553 11.2803 28.9553 11.2597 28.96 11.24C28.96 10.98 29.31 10.93 29.5 11.02C29.7252 11.1215 29.9396 11.2455 30.14 11.39C30.6596 11.5872 31.1453 11.8638 31.58 12.21C33.34 13.44 35.29 14.33 37.07 15.53C39.44 17.13 41.97 18.46 44.36 20.02C45.3347 20.578 46.1532 21.3724 46.74 22.33L49.84 23.79C49.8637 23.7496 49.8955 23.7146 49.9333 23.687C49.9712 23.6595 50.0143 23.6401 50.06 23.63Z" fill="#A85A0C"/>
<path opacity="0.5" d="M61 28C59.28 27.26 57.58 26.45 55.89 25.65L54 24.76C55.2 25.47 56.34 26.35 57.36 26.94C58.38 27.53 61.15 27.94 61.29 29.1L61.72 29.31C61.87 29.31 62.16 29.56 62.3 29.55C62.44 29.54 62.68 29.37 63.17 29.11C62.4677 28.7002 61.7433 28.3296 61 28Z" fill="#A85A0C"/>
<path d="M49.18 22.24C49.1661 22.1944 49.1661 22.1456 49.18 22.1C49.2417 21.8233 49.4061 21.5803 49.64 21.42C51.93 19.42 54.09 17.53 57.29 17.32C56.5405 16.7426 55.6986 16.2963 54.8 16C55.7 16.35 52.7 18.3 52.6 18.37L48.84 20.88C48.5699 21.0934 48.2556 21.2437 47.92 21.32C48.1962 21.8783 48.3722 22.4808 48.44 23.1L49.23 23.47C49.2 23.07 49.19 22.65 49.18 22.24Z" fill="#894903"/>
<path d="M67.44 14.47L67 14.21C65.5655 15.397 64.0334 16.4607 62.42 17.39C62.124 17.6006 61.7804 17.7346 61.42 17.78C61.1509 17.8099 60.8792 17.8099 60.61 17.78C59.2753 17.4598 57.983 16.9832 56.76 16.36C55.2234 15.7711 53.7181 15.1035 52.25 14.36C50.6466 13.4639 49.1329 12.4157 47.73 11.23C47.09 10.72 43.86 8.69 44.23 7.94C44.3442 7.73564 44.5011 7.55829 44.69 7.42C46.2203 6.11769 47.8985 5 49.69 4.09L49.18 3.82C48.7742 4.17418 48.3355 4.48893 47.87 4.76L44.52 6.8C44.2172 7.01016 43.8782 7.16271 43.52 7.25C42.15 7.52 40.98 6.72 39.78 6.16C38.41 5.5 36.63 5.05 35.44 4C35.4366 4.03993 35.4366 4.08007 35.44 4.12C35.4351 4.15985 35.4351 4.20015 35.44 4.24V4.31C35.5151 4.39169 35.5952 4.46851 35.68 4.54C35.8691 4.67832 36.0175 4.86479 36.11 5.08C38.48 6.74 40.53 8.4 43.11 9.89C46.72 12.02 50.55 13.74 54.18 15.82C58 18.02 61.52 20.71 65.74 22.14C67.2308 22.6193 68.611 23.391 69.8 24.41C70.0364 24.3949 70.2736 24.3949 70.51 24.41C70.7156 24.4279 70.9195 24.4613 71.12 24.51C70.95 24.51 70.52 23.94 70.38 23.82C69.7134 23.24 69.0134 22.68 68.28 22.14C67.28 21.4 66.28 20.69 65.28 20.04C64.75 19.71 62.6 18.89 62.71 18.16C62.7838 17.8828 62.9408 17.635 63.16 17.45C64.4345 16.2542 65.8763 15.2503 67.44 14.47Z" fill="#D88500"/>
<path opacity="0.5" d="M70.42 24C69.7534 23.42 69.0534 22.86 68.32 22.32C67.32 21.58 66.32 20.87 65.32 20.22C64.79 19.89 62.64 19.07 62.75 18.34C62.8238 18.0628 62.9808 17.815 63.2 17.63C64.4541 16.3615 65.8898 15.2864 67.46 14.44L67 14.21C65.5655 15.397 64.0334 16.4607 62.42 17.39C62.124 17.6006 61.7804 17.7346 61.42 17.78C61.1509 17.8099 60.8792 17.8099 60.61 17.78C59.2753 17.4598 57.983 16.9832 56.76 16.36C55.2234 15.7711 53.7181 15.1035 52.25 14.36C50.6466 13.4639 49.1329 12.4157 47.73 11.23C47.09 10.72 43.86 8.69 44.23 7.94C44.3442 7.73564 44.5011 7.55829 44.69 7.42C46.2203 6.11769 47.8985 5 49.69 4.09L49.18 3.82C48.7742 4.17418 48.3355 4.48893 47.87 4.76L44.52 6.8C44.2172 7.01016 43.8782 7.16271 43.52 7.25C42.15 7.52 40.98 6.72 39.78 6.16C38.41 5.5 36.63 5.05 35.44 4C35.4366 4.03993 35.4366 4.08007 35.44 4.12C35.4351 4.15985 35.4351 4.20015 35.44 4.24V4.31C35.5151 4.39169 35.5952 4.46851 35.68 4.54C35.8691 4.67832 36.0175 4.86479 36.11 5.08C36.72 5.51 37.31 5.93 37.89 6.36C39.6576 6.4801 41.3353 7.18355 42.66 8.36C43.0714 8.84758 43.3166 9.45358 43.36 10.09C43.77 10.33 44.18 10.54 44.59 10.77C44.97 9.97 45.89 10.02 46.74 10.83C47.43 11.5 48.04 12.27 48.74 12.97C50.55 13.9 52.38 14.83 54.15 15.85L54.41 16.01C55.1179 16.1263 55.7969 16.3775 56.41 16.75C57.3279 17.1426 58.2698 17.4766 59.23 17.75C59.6961 17.8784 60.105 18.1607 60.39 18.5511C60.6751 18.9416 60.8196 19.417 60.8 19.9C61.5 20.3 62.22 20.68 62.95 21.04C62.9595 20.815 63.0446 20.5998 63.1916 20.4292C63.3386 20.2586 63.5389 20.1426 63.76 20.1C64.3793 20.0741 64.9857 20.281 65.46 20.68C66.4807 21.3701 67.3459 22.2659 68 23.31C68.652 23.682 69.268 24.1139 69.84 24.6C70.0765 24.5849 70.3136 24.5849 70.55 24.6C70.7556 24.6179 70.9595 24.6513 71.16 24.7C71 24.69 70.56 24.15 70.42 24Z" fill="#A85A0C"/>
<path d="M44.38 10.77C44.4231 9.92508 44.3862 9.07799 44.27 8.24C44.2455 8.18492 44.2328 8.12529 44.2328 8.065C44.2328 8.0047 44.2455 7.94508 44.27 7.89C44.3842 7.68564 44.5411 7.50829 44.73 7.37C46.2603 6.06769 47.9385 4.95 49.73 4.04L49.22 3.77C48.8142 4.12418 48.3755 4.43893 47.91 4.71L44.52 6.8C44.2172 7.01016 43.8782 7.16271 43.52 7.25H43.32C43.552 8.25924 43.6428 9.29578 43.59 10.33C43.87 10.49 44.13 10.62 44.38 10.77Z" fill="#894903"/>
<path d="M62.8 21C62.8 20.23 62.71 19.47 62.8 18.71C62.7463 18.6235 62.725 18.5207 62.74 18.42C62.8137 18.1428 62.9708 17.895 63.19 17.71C64.4441 16.4415 65.8798 15.3664 67.45 14.52L67 14.21C65.5655 15.397 64.0334 16.4607 62.42 17.39C62.1718 17.5541 61.8981 17.6758 61.61 17.75C61.7607 18.6788 61.8277 19.6192 61.81 20.56C62.13 20.74 62.46 20.91 62.81 21.07C62.79 21 62.8 21 62.8 21Z" fill="#894903"/>
</g>
<defs>
<radialGradient id="paint0_radial" cx="0" cy="0" r="1" gradientUnits="userSpaceOnUse" gradientTransform="translate(42 25) rotate(90) scale(25.1429 42)">
<stop/>
<stop offset="1" stop-opacity="0"/>
</radialGradient>
<clipPath id="clip0">
<rect width="70.75" height="46.39" fill="white" transform="translate(7)"/>
</clipPath>
</defs>
</svg>
