<svg width="50" height="50" viewBox="0 0 50 50" fill="none" xmlns="http://www.w3.org/2000/svg">
<circle cx="25" cy="25" r="25" fill="#E8E8E8"/>
<g clip-path="url(#clip0)">
<path fill-rule="evenodd" clip-rule="evenodd" d="M23.3921 32.2208C20.1493 33.3612 16.0651 31.4628 15.2392 28.3164C11.162 28.3093 8.034 26.3218 8 22.8112C7.94617 17.1007 14.3977 9.42658 25 9.41667C35.6037 9.40675 41.9943 16.942 42 24.0494C42.0057 31.1568 36.0755 33.8202 31.2234 32.922C30.7078 35.0569 30.9812 37.9908 31.5521 39.6469L28.5643 40.5833C27.4126 36.6337 25.4477 33.5468 23.3921 32.2208V32.2208ZM22.4117 19.0797C21.4328 18.6349 20.75 17.6461 20.75 16.5C20.75 14.936 22.0193 13.6667 23.5833 13.6667C25.1473 13.6667 26.4167 14.936 26.4167 16.5C26.4167 16.8683 26.3458 17.2211 26.2183 17.5455C27.9382 18.8361 29.6254 20.1734 31.3169 21.5037C31.919 21.0319 32.6769 20.75 33.5 20.75C35.455 20.75 37.0417 22.3367 37.0417 24.2917C37.0417 26.2467 35.455 27.8333 33.5 27.8333C31.8411 27.8333 30.4471 26.6901 30.0632 25.1487C28.3617 25.2876 26.6575 25.3938 24.9547 25.5086C24.7152 26.8303 23.5564 27.8333 22.1667 27.8333C20.6027 27.8333 19.3333 26.564 19.3333 25C19.3333 23.5366 20.4454 22.331 21.8692 22.1822C22.0406 21.1467 22.2262 20.1139 22.4117 19.0797V19.0797ZM25.3301 18.7312C24.9093 19.0599 24.3937 19.2738 23.8312 19.322L23.317 22.4103C24.031 22.7277 24.5892 23.3326 24.847 24.0778L30.0136 23.6683C30.0802 23.2901 30.2077 22.9331 30.3847 22.6072L25.3301 18.7312V18.7312Z" fill="black"/>
</g>
<defs>
<clipPath id="clip0">
<rect width="34" height="34" fill="white" transform="translate(8 8)"/>
</clipPath>
</defs>
</svg>
