<svg width="50" height="50" viewBox="0 0 50 50" fill="none" xmlns="http://www.w3.org/2000/svg">
<circle cx="25" cy="25" r="25" fill="#E8E8E8"/>
<path d="M17.9679 35C17.9679 33.7333 17.4558 32.6 16.6536 31.7333L23.7369 19.85C24.1295 19.9333 24.5221 20 24.9317 20C25.3414 20 25.7339 19.9333 26.1265 19.85L33.1416 31.6C32.2882 32.5 31.759 33.6833 31.759 35C31.759 37.7667 34.0462 40 36.8795 40C39.7129 40 42 37.7667 42 35C42 32.2333 39.7129 30 36.8795 30C36.4699 30 36.0773 30.0667 35.6847 30.15L28.6697 18.4C29.5231 17.5 30.0522 16.3167 30.0522 15C30.0522 12.2333 27.7651 10 24.9317 10C22.0984 10 19.8112 12.2333 19.8112 15C19.8112 16.3167 20.3404 17.5 21.1938 18.4L14.0934 30.2667C13.7349 30.1833 13.3594 30.1333 12.9839 30.1333C10.2359 30.1333 8 32.3167 8 35C8 37.6833 10.2359 39.8667 12.9839 39.8667C15.7319 39.8667 17.9679 37.6833 17.9679 35Z" fill="black"/>
</svg>
