<svg width="71" height="46" viewBox="0 0 71 46" fill="none" xmlns="http://www.w3.org/2000/svg">
<path d="M70.13 20.1345L70.08 25.3045L35.15 45.6045L35.21 40.4345L70.13 20.1345Z" fill="#8BB590"/>
<path d="M35.21 40.4345L35.15 45.6045L0 25.3045L0.02 23.4845L0.05 20.1345L35.21 40.4345Z" fill="#93C499"/>
<path d="M70.13 20.1345L70.08 25.3045L35.15 45.6045L35.21 40.2345L35.73 39.1445L67.91 20.6945L70.13 20.1345Z" fill="#9B7221"/>
<path d="M35.21 40.2345L35.15 45.6045L0 25.3045L0.02 23.4845L0.05 20.1345L4.58 20.8045L18.95 28.7345L35.21 40.2345Z" fill="#C69934"/>
<path d="M70.13 20.1345C70.13 20.7745 68.66 21.3445 68.21 21.6145C68.11 21.6645 68.02 21.7245 67.92 21.7645C67.7415 21.8022 67.5697 21.8663 67.41 21.9545C67.3182 22.0496 67.2214 22.1398 67.12 22.2245C66.56 22.5845 65.83 22.8745 65.23 23.2245C64.35 23.7245 63.33 24.1445 62.51 24.7145L60.35 26.2345C59.536 26.8542 58.6616 27.3903 57.74 27.8345C57.1627 28.0189 56.6286 28.3183 56.17 28.7145C56.0149 28.9112 55.8407 29.0921 55.65 29.2545C55.3812 29.3787 55.0995 29.4726 54.81 29.5345C54.3897 29.7523 53.9853 29.9995 53.6 30.2745C52.98 30.5945 52.29 30.6345 51.68 31.0145L50.09 32.0145C49.829 32.186 49.5548 32.3365 49.27 32.4645C49.01 32.5745 48.72 32.6245 48.46 32.7545C48.207 32.9158 47.9893 33.1268 47.82 33.3745C47.3975 33.7584 46.8592 33.9906 46.29 34.0345C46.1651 34.0465 46.0432 34.0804 45.93 34.1345C45.8133 34.2163 45.7117 34.3178 45.63 34.4345C44.9479 35.1732 44.1252 35.7682 43.21 36.1845C42.8718 36.3826 42.5037 36.5245 42.12 36.6045C41.9174 36.621 41.7184 36.6682 41.53 36.7445C41.05 36.9845 40.77 37.5045 40.3 37.7445C39.83 37.9845 39.24 38.4145 38.72 38.7445C38.3217 39.0037 37.8998 39.2246 37.46 39.4045C37.064 39.4688 36.6753 39.5727 36.3 39.7145C36.2076 39.7889 36.1267 39.8765 36.06 39.9745C35.9069 40.173 35.6917 40.3143 35.4487 40.376C35.2058 40.4376 34.9492 40.416 34.72 40.3145C33.9785 40.0844 33.2745 39.7475 32.63 39.3145C32.314 39.085 32.0195 38.8273 31.75 38.5445C31.47 38.2445 31.19 38.2645 30.81 38.2245C30.4343 38.1614 30.086 37.9872 29.81 37.7245C29.6197 37.5954 29.448 37.4406 29.3 37.2645C29.134 37.026 28.89 36.8527 28.61 36.7745C28.2842 36.6334 27.9756 36.4555 27.69 36.2445C27.6193 36.2039 27.5606 36.1453 27.52 36.0745C27.5299 36.0318 27.5299 35.9873 27.52 35.9445H27.43C26.7337 35.7412 26.0627 35.4594 25.43 35.1045C25.11 34.9245 24.79 34.7345 24.49 34.5245C24.2359 34.3899 24.0194 34.194 23.86 33.9545C23.8633 33.9313 23.8633 33.9078 23.86 33.8845C23.8305 33.8773 23.7996 33.8773 23.77 33.8845C23.56 33.8345 23.34 33.7845 23.13 33.7145C22.1228 33.2721 21.2096 32.6407 20.44 31.8545C20.3891 31.7976 20.3233 31.7561 20.25 31.7345C19.9111 31.6894 19.5766 31.6158 19.25 31.5145C18.8968 31.3873 18.5972 31.144 18.4 30.8245C18.34 30.7145 18.28 30.5745 18.16 30.5445C18.1105 30.5346 18.0595 30.5346 18.01 30.5445C17.7202 30.5108 17.4479 30.3886 17.23 30.1945C16.9349 29.9442 16.5958 29.7509 16.23 29.6245C16.05 29.6245 15.86 29.5545 15.68 29.5045C15.4793 29.4392 15.2878 29.3484 15.11 29.2345C14.8996 29.1188 14.7019 28.9814 14.52 28.8245C14.14 28.4945 13.88 27.8945 13.38 27.8245C12.0831 27.5564 10.9179 26.8502 10.08 25.8245C9.99202 25.7156 9.87874 25.6298 9.75002 25.5745C9.3148 25.483 8.88696 25.3593 8.47002 25.2045C8.29002 25.1045 8.13002 24.9545 7.96002 24.8445C7.41651 24.6326 6.91019 24.3356 6.46002 23.9645C6.30002 23.7745 6.20002 23.5345 5.98002 23.4145C5.28002 23.0045 4.36002 23.1645 3.90002 22.3445C3.41375 22.2828 2.93888 22.1515 2.49002 21.9545C2.27457 21.8709 2.07245 21.7564 1.89002 21.6145C1.64002 21.3945 1.46002 21.1445 1.19002 20.9445C1.00819 20.7999 0.817846 20.6664 0.620019 20.5445C0.521163 20.4771 0.417559 20.417 0.310019 20.3645L0.140019 20.2845C0.140019 20.2845 0.0400194 20.1945 0.0500194 20.1745C0.0958641 20.0674 0.177036 19.9791 0.280019 19.9245C0.374207 19.8676 0.480333 19.8334 0.590019 19.8245C0.639909 19.8292 0.69013 19.8292 0.740019 19.8245C0.792275 19.8101 0.838096 19.7784 0.870019 19.7345C1.33979 19.1942 1.95373 18.7987 2.64002 18.5945C2.96002 18.4945 3.27002 18.3545 3.58002 18.2245C3.80989 18.1321 4.03368 18.0253 4.25002 17.9045L4.94002 17.5345C5.09994 17.4651 5.24571 17.3668 5.37002 17.2445C5.44984 17.1119 5.54741 16.9908 5.66002 16.8845L5.96002 16.6545C6.10887 16.5544 6.26613 16.4674 6.43002 16.3945C6.91002 16.1645 7.43002 15.9545 7.85002 15.6845C8.32569 15.4385 8.82486 15.2408 9.34002 15.0945C9.39784 15.065 9.44631 15.02 9.48002 14.9645C9.51813 14.9353 9.54894 14.8977 9.57002 14.8545C9.82376 14.4625 10.1585 14.1293 10.5518 13.8775C10.9451 13.6257 11.3878 13.461 11.85 13.3945C11.8649 13.3313 11.8936 13.2721 11.9341 13.2212C11.9746 13.1704 12.0258 13.1291 12.0842 13.1004C12.1425 13.0718 12.2064 13.0564 12.2714 13.0553C12.3364 13.0543 12.4008 13.0677 12.46 13.0945C12.57 12.7045 13.01 12.5245 13.39 12.3745C13.77 12.2245 13.92 12.2445 14.17 12.1245C14.4457 11.9874 14.6987 11.8087 14.92 11.5945C15.2734 11.2462 15.6584 10.9315 16.07 10.6545C16.5196 10.4431 16.9802 10.2561 17.45 10.0945C17.87 9.89454 18.25 9.62454 18.65 9.40454C19.0515 9.14576 19.5227 9.01659 20 9.03454C20.0618 9.05443 20.1282 9.05443 20.19 9.03454C20.2278 8.99913 20.2554 8.95424 20.27 8.90454C20.4428 8.45893 20.7373 8.07085 21.12 7.78454C21.31 7.64455 21.51 7.59454 21.7 7.47455C21.9393 7.3004 22.1634 7.10638 22.37 6.89454C23.2049 6.16433 24.1632 5.58868 25.2 5.19454C25.9015 5.03967 26.5758 4.7801 27.2 4.42454C27.5347 4.12713 27.8334 3.79151 28.09 3.42454C28.668 2.6298 29.5068 2.06346 30.46 1.82454C30.7475 1.77639 31.0386 1.75297 31.33 1.75454C31.5557 1.77152 31.7827 1.74781 32 1.68454C32.369 1.44292 32.723 1.1791 33.06 0.894545C33.5632 0.563732 34.0914 0.272842 34.64 0.0245447C35.0928 -0.0470398 35.5563 0.0390577 35.9532 0.268426C36.35 0.497795 36.656 0.856515 36.82 1.28454C37.0267 1.18777 37.2566 1.15144 37.4831 1.17975C37.7096 1.20806 37.9235 1.29986 38.1 1.44454C38.27 1.58454 38.39 1.77454 38.57 1.91454C38.7568 2.03806 38.963 2.12933 39.18 2.18454C40.7874 2.62122 42.2481 3.4811 43.41 4.67454C43.5084 4.82357 43.6471 4.9415 43.81 5.01454C43.9131 5.02427 44.0169 5.02427 44.12 5.01454C44.3363 5.04546 44.5413 5.13038 44.7161 5.26147C44.8909 5.39255 45.0298 5.56557 45.12 5.76454C45.1444 5.83726 45.1817 5.90501 45.23 5.96454C45.285 6.00128 45.3459 6.02834 45.41 6.04454C46.1054 6.22844 46.7767 6.4936 47.41 6.83454C47.7275 7.01023 48.0346 7.20387 48.33 7.41454C48.54 7.56454 48.76 7.91454 48.97 8.01454C49.0922 8.05792 49.2204 8.08154 49.35 8.08454C49.9808 8.20852 50.5818 8.45299 51.12 8.80454C51.3385 8.89498 51.5411 9.0199 51.72 9.17454C51.8858 9.38699 52.0735 9.5814 52.28 9.75454C52.6319 9.90441 53.0016 10.0086 53.38 10.0645C53.6823 10.1873 53.9601 10.3634 54.2 10.5845L55.2 11.3945C55.302 11.4792 55.4126 11.5529 55.53 11.6145L55.79 11.6945C56.8322 11.9737 57.7705 12.5505 58.49 13.3545C58.5485 13.4164 58.6121 13.4732 58.68 13.5245C58.9 13.6745 59.17 13.6145 59.42 13.6745C59.7351 13.7804 60.0345 13.9285 60.31 14.1145C60.9442 14.4338 61.53 14.8412 62.05 15.3245L62.16 15.4345C62.2517 15.4592 62.3483 15.4592 62.44 15.4345C62.6282 15.4156 62.8174 15.4592 62.9783 15.5586C63.1392 15.6581 63.2628 15.8078 63.33 15.9845C63.341 16.0425 63.3649 16.0972 63.4 16.1445L63.48 16.1945L65.07 16.8445C65.6666 17.0215 66.1985 17.3691 66.6 17.8445C66.6752 17.9828 66.7587 18.1164 66.85 18.2445C66.9712 18.3766 67.113 18.4881 67.27 18.5745C67.751 18.9248 68.2797 19.2043 68.84 19.4045C69.15 19.5045 69.77 19.5545 70.04 19.8445C70.0737 19.8844 70.0989 19.9306 70.1144 19.9804C70.1299 20.0302 70.1352 20.0826 70.13 20.1345Z" fill="#FCE086"/>
<path d="M39.89 31.7645L39.8 31.6945L39.89 31.7645Z" fill="#C78984"/>
<path d="M61.3 25.5345C61.3 25.5345 61.33 25.5145 61.3 25.5345V25.5345Z" fill="#C78984"/>
<path d="M52.88 26.2345C52.88 26.2345 52.89 26.2245 52.88 26.2345V26.2345Z" fill="#AAE8C1"/>
<path d="M22.35 21.1845L22.26 21.1145L22.35 21.1845Z" fill="#C78984"/>
<path d="M35.34 15.6545C35.34 15.6545 35.35 15.6445 35.34 15.6545V15.6545Z" fill="#AAE8C1"/>
<path d="M20.48 9.08454C20.48 9.08454 20.5 9.06454 20.48 9.08454V9.08454Z" fill="#C78984"/>
<path opacity="0.6" d="M42.8101 20.8445C42.8101 21.1545 42.3701 21.4045 41.8101 21.4045C41.2501 21.4045 40.8101 21.1545 40.8101 20.8445C40.8101 20.5345 41.2501 20.2745 41.8101 20.2745C42.3701 20.2745 42.8101 20.5345 42.8101 20.8445Z" fill="#F7C548"/>
<path opacity="0.6" d="M37.72 22.4745C37.72 22.7845 37.28 23.0345 36.72 23.0345C36.16 23.0345 35.72 22.7845 35.72 22.4745C35.72 22.1645 36.16 21.9145 36.72 21.9145C37.28 21.9145 37.72 22.1645 37.72 22.4745Z" fill="#F7C548"/>
<path opacity="0.6" d="M47.7 18.2545C47.7 18.5645 47.26 18.8145 46.7 18.8145C46.14 18.8145 45.7 18.5645 45.7 18.2545C45.7 17.9445 46.14 17.6945 46.7 17.6945C47.26 17.6945 47.7 17.9645 47.7 18.2545Z" fill="#F7C548"/>
<path opacity="0.6" d="M42.36 17.1345C42.36 17.4445 41.92 17.6945 41.36 17.6945C40.8 17.6945 40.36 17.4445 40.36 17.1345C40.36 16.8245 40.8 16.5745 41.36 16.5745C41.92 16.5745 42.36 16.8245 42.36 17.1345Z" fill="#F7C548"/>
<path opacity="0.6" d="M38.83 18.8145C38.83 19.1245 38.39 19.3845 37.83 19.3845C37.27 19.3845 36.83 19.1245 36.83 18.8145C36.83 18.5045 37.27 18.2545 37.83 18.2545C38.39 18.2545 38.83 18.5045 38.83 18.8145Z" fill="#F7C548"/>
<path opacity="0.6" d="M49.15 21.4045C49.15 21.7145 48.71 21.9645 48.15 21.9645C47.59 21.9645 47.15 21.7145 47.15 21.4045C47.15 21.0945 47.59 20.8445 48.15 20.8445C48.71 20.8445 49.15 21.0945 49.15 21.4045Z" fill="#F7C548"/>
<path opacity="0.6" d="M43.79 24.5545C43.79 24.8645 43.35 25.1145 42.79 25.1145C42.23 25.1145 41.79 24.8645 41.79 24.5545C41.79 24.2445 42.23 23.9845 42.79 23.9845C43.35 23.9845 43.79 24.2345 43.79 24.5545Z" fill="#F7C548"/>
<path opacity="0.6" d="M53.87 22.5245C53.87 22.8345 53.43 23.0945 52.87 23.0945C52.31 23.0945 51.87 22.8345 51.87 22.5245C51.87 22.2145 52.31 21.9645 52.87 21.9645C53.43 21.9645 53.87 22.2145 53.87 22.5245Z" fill="#F7C548"/>
<path opacity="0.6" d="M48.6801 24.5545C48.6801 24.8645 48.2401 25.1145 47.6801 25.1145C47.1201 25.1145 46.6801 24.8645 46.6801 24.5545C46.6801 24.2445 47.1201 23.9845 47.6801 23.9845C48.2401 23.9845 48.6801 24.2345 48.6801 24.5545Z" fill="#F7C548"/>
<path opacity="0.6" d="M46.71 19.8845C46.71 20.1945 46.27 20.4445 45.71 20.4445C45.15 20.4445 44.71 20.1945 44.71 19.8845C44.71 19.5745 45.15 19.3245 45.71 19.3245C46.27 19.3245 46.71 19.5745 46.71 19.8845Z" fill="#F7C548"/>
<path opacity="0.6" d="M53.0601 24.9645C53.0601 25.2745 52.6201 25.5245 52.0601 25.5245C51.5001 25.5245 51.0601 25.2745 51.0601 24.9645C51.0601 24.6545 51.5001 24.4045 52.0601 24.4045C52.6201 24.4045 53.0601 24.6345 53.0601 24.9645Z" fill="#F7C548"/>
<path opacity="0.6" d="M52.62 28.2345C52.62 28.5445 52.18 28.7945 51.62 28.7945C51.06 28.7945 50.62 28.5445 50.62 28.2345C50.62 27.9245 51.06 27.6745 51.62 27.6745C52.18 27.6745 52.62 27.9645 52.62 28.2345Z" fill="#F7C548"/>
<path opacity="0.6" d="M49.9399 31.2245C49.9399 31.5345 49.4999 31.7845 48.9399 31.7845C48.3799 31.7845 47.9399 31.5345 47.9399 31.2245C47.9399 30.9145 48.3799 30.6545 48.9399 30.6545C49.4999 30.6545 49.9399 30.9045 49.9399 31.2245Z" fill="#F7C548"/>
<path opacity="0.6" d="M57.4301 25.1845C57.4301 25.4945 56.9901 25.7445 56.4301 25.7445C55.8701 25.7445 55.4301 25.4945 55.4301 25.1845C55.4301 24.8745 55.8701 24.6245 56.4301 24.6245C56.9901 24.6245 57.4301 24.8745 57.4301 25.1845Z" fill="#F7C548"/>
<path opacity="0.6" d="M47 27.0545C47 27.3645 46.56 27.6145 46 27.6145C45.44 27.6145 45 27.3645 45 27.0545C45 26.7445 45.44 26.4945 46 26.4945C46.56 26.4945 47 26.7445 47 27.0545Z" fill="#F7C548"/>
<path opacity="0.5" d="M43.61 18.3145C43.61 18.5345 43.3 18.7045 42.92 18.7045C42.54 18.7045 42.23 18.5345 42.23 18.3145C42.23 18.0945 42.54 17.9245 42.92 17.9245C43.3 17.9245 43.61 18.0945 43.61 18.3145Z" fill="#BA7D20"/>
<path opacity="0.5" d="M54.15 25.3545C54.15 25.5645 53.84 25.7445 53.46 25.7445C53.08 25.7445 52.77 25.5645 52.77 25.3545C52.77 25.1445 53.08 24.9545 53.46 24.9545C53.84 24.9545 54.15 25.1345 54.15 25.3545Z" fill="#BA7D20"/>
<path opacity="0.5" d="M57.72 27.2145C57.72 27.4245 57.41 27.6045 57.03 27.6045C56.65 27.6045 56.34 27.4245 56.34 27.2145C56.34 27.0045 56.65 26.8145 57.03 26.8145C57.41 26.8145 57.72 26.9645 57.72 27.2145Z" fill="#BA7D20"/>
<path opacity="0.5" d="M48.8101 26.4945C48.8101 26.7045 48.5001 26.8845 48.1201 26.8845C47.7401 26.8845 47.4301 26.7045 47.4301 26.4945C47.4301 26.2845 47.7401 26.0945 48.1201 26.0945C48.5001 26.0945 48.8101 26.2745 48.8101 26.4945Z" fill="#BA7D20"/>
<path opacity="0.5" d="M20.72 30.6045C20.72 30.8145 20.41 30.9945 20.03 30.9945C19.65 30.9945 19.34 30.8145 19.34 30.6045C19.34 30.3945 19.65 30.2045 20.03 30.2045C20.41 30.2045 20.72 30.3845 20.72 30.6045Z" fill="#BA7D20"/>
<path opacity="0.5" d="M39.76 22.3545C39.76 22.5745 39.45 22.7545 39.07 22.7545C38.69 22.7545 38.38 22.5745 38.38 22.3545C38.38 22.1345 38.69 21.9645 39.07 21.9645C39.45 21.9645 39.76 22.1445 39.76 22.3545Z" fill="#BA7D20"/>
<path opacity="0.5" d="M55.53 27.0545C55.53 27.2745 55.22 27.4445 54.84 27.4445C54.46 27.4445 54.15 27.2745 54.15 27.0545C54.15 26.8345 54.46 26.6645 54.84 26.6645C55.22 26.6645 55.53 26.8345 55.53 27.0545Z" fill="#BA7D20"/>
<path opacity="0.5" d="M44.48 23.0945C44.48 23.3045 44.17 23.4845 43.79 23.4845C43.41 23.4845 43.1 23.3045 43.1 23.0945C43.1 22.8845 43.41 22.6945 43.79 22.6945C44.17 22.6945 44.48 22.8745 44.48 23.0945Z" fill="#BA7D20"/>
<path opacity="0.69" d="M45 16.9645C45 17.1845 44.69 17.3545 44.31 17.3545C43.93 17.3545 43.62 17.1845 43.62 16.9645C43.62 16.7445 43.93 16.5745 44.31 16.5745C44.69 16.5745 45 16.7445 45 16.9645Z" fill="#FFFBDC"/>
<path opacity="0.69" d="M39.07 17.7445C39.4511 17.7445 39.76 17.5699 39.76 17.3545C39.76 17.1392 39.4511 16.9645 39.07 16.9645C38.6889 16.9645 38.38 17.1392 38.38 17.3545C38.38 17.5699 38.6889 17.7445 39.07 17.7445Z" fill="#FFFBDC"/>
<path opacity="0.69" d="M38.54 20.7345C38.54 20.9545 38.23 21.1345 37.85 21.1345C37.47 21.1345 37.16 20.9545 37.16 20.7345C37.16 20.5145 37.47 20.3445 37.85 20.3445C38.23 20.3445 38.54 20.5245 38.54 20.7345Z" fill="#FFFBDC"/>
<path opacity="0.69" d="M43.61 20.4445C43.61 20.6645 43.3 20.8445 42.92 20.8445C42.54 20.8445 42.23 20.6645 42.23 20.4445C42.23 20.2245 42.54 20.0545 42.92 20.0545C43.3 20.0545 43.61 20.2345 43.61 20.4445Z" fill="#FFFBDC"/>
<path opacity="0.69" d="M41.09 19.7245C41.09 19.9445 40.78 20.1145 40.4 20.1145C40.02 20.1145 39.71 19.9445 39.71 19.7245C39.71 19.5045 40.02 19.3245 40.4 19.3245C40.78 19.3245 41.09 19.5045 41.09 19.7245Z" fill="#FFFBDC"/>
<path opacity="0.69" d="M41.77 23.9645C41.77 24.1845 41.47 24.3645 41.09 24.3645C40.71 24.3645 40.4 24.1845 40.4 23.9645C40.4 23.7445 40.71 23.5745 41.09 23.5745C41.47 23.5745 41.77 23.7745 41.77 23.9645Z" fill="#FFFBDC"/>
<path opacity="0.69" d="M47 22.3545C47 22.5745 46.7 22.7545 46.32 22.7545C45.94 22.7545 45.63 22.5745 45.63 22.3545C45.63 22.1345 45.94 21.9645 46.32 21.9645C46.7 21.9645 47 22.1445 47 22.3545Z" fill="#FFFBDC"/>
<path opacity="0.69" d="M50.66 26.4945C50.66 26.7045 50.35 26.8845 49.97 26.8845C49.59 26.8845 49.28 26.7045 49.28 26.4945C49.28 26.2845 49.59 26.0945 49.97 26.0945C50.35 26.0945 50.66 26.2745 50.66 26.4945Z" fill="#FFFBDC"/>
<path opacity="0.69" d="M46.42 25.1145C46.42 25.3245 46.11 25.5045 45.73 25.5045C45.35 25.5045 45.04 25.3245 45.04 25.1145C45.04 24.9045 45.35 24.7145 45.73 24.7145C46.11 24.7145 46.42 24.8945 46.42 25.1145Z" fill="#FFFBDC"/>
<path opacity="0.69" d="M52 20.8445C52 21.0545 51.69 21.2345 51.31 21.2345C50.93 21.2345 50.63 21.0545 50.63 20.8445C50.63 20.6345 50.93 20.4445 51.31 20.4445C51.69 20.4445 52 20.6245 52 20.8445Z" fill="#FFFBDC"/>
<path opacity="0.69" d="M59.67 25.7445C59.67 25.9645 59.36 26.1345 58.98 26.1345C58.6 26.1345 58.3 25.9645 58.3 25.7445C58.3 25.5245 58.6 25.3545 58.98 25.3545C59.36 25.3545 59.67 25.5245 59.67 25.7445Z" fill="#FFFBDC"/>
<path opacity="0.69" d="M55.53 23.5945C55.53 23.8145 55.22 23.9845 54.84 23.9845C54.46 23.9845 54.15 23.8145 54.15 23.5945C54.15 23.3745 54.46 23.2045 54.84 23.2045C55.22 23.2045 55.53 23.3745 55.53 23.5945Z" fill="#FFFBDC"/>
<path opacity="0.69" d="M50.66 23.2045C50.66 23.4145 50.35 23.5945 49.97 23.5945C49.59 23.5945 49.28 23.4145 49.28 23.2045C49.28 22.9945 49.59 22.8045 49.97 22.8045C50.35 22.8045 50.66 22.9645 50.66 23.2045Z" fill="#FFFBDC"/>
<path opacity="0.69" d="M44.3 26.4945C44.3 26.7045 43.99 26.8845 43.61 26.8845C43.23 26.8845 42.92 26.7045 42.92 26.4945C42.92 26.2845 43.23 26.0945 43.61 26.0945C43.99 26.0945 44.3 26.2745 44.3 26.4945Z" fill="#FFFBDC"/>
<path opacity="0.69" d="M49.25 28.6245C49.25 28.8445 48.94 29.0245 48.56 29.0245C48.18 29.0245 47.87 28.8445 47.87 28.6245C47.87 28.4045 48.18 28.2345 48.56 28.2345C48.94 28.2345 49.25 28.4145 49.25 28.6245Z" fill="#FFFBDC"/>
<path opacity="0.69" d="M54.84 28.6245C54.84 28.8445 54.53 29.0245 54.15 29.0245C53.77 29.0245 53.46 28.8445 53.46 28.6245C53.46 28.4045 53.77 28.2345 54.15 28.2345C54.53 28.2345 54.84 28.4145 54.84 28.6245Z" fill="#FFFBDC"/>
<path opacity="0.69" d="M53.3101 29.6445C53.3101 29.8645 53.0001 30.0345 52.6201 30.0345C52.2401 30.0345 51.9301 29.8645 51.9301 29.6445C51.9301 29.4245 52.2401 29.2545 52.6201 29.2545C53.0001 29.2545 53.3101 29.4245 53.3101 29.6445Z" fill="#FFFBDC"/>
<path opacity="0.69" d="M48.86 19.4945C48.86 19.7045 48.55 19.8845 48.17 19.8845C47.79 19.8845 47.48 19.7045 47.48 19.4945C47.48 19.2845 47.79 19.0945 48.17 19.0945C48.55 19.0945 48.86 19.2745 48.86 19.4945Z" fill="#FFFBDC"/>
<path opacity="0.69" d="M42.92 15.9645C42.92 16.1745 42.61 16.3545 42.23 16.3545C41.85 16.3545 41.55 16.1745 41.55 15.9645C41.55 15.7545 41.85 15.5645 42.23 15.5645C42.61 15.5645 42.92 15.7345 42.92 15.9645Z" fill="#FFFBDC"/>
<path opacity="0.5" d="M51.34 19.8845C51.34 20.1045 51.04 20.2745 50.66 20.2745C50.28 20.2745 49.97 20.1045 49.97 19.8845C49.97 19.6645 50.28 19.4945 50.66 19.4945C51.04 19.4945 51.34 19.6645 51.34 19.8845Z" fill="#BA7D20"/>
<path opacity="0.5" d="M50.85 30.0345C50.85 30.2545 50.54 30.4345 50.16 30.4345C49.78 30.4345 49.47 30.2545 49.47 30.0345C49.47 29.8145 49.78 29.6445 50.16 29.6445C50.54 29.6445 50.85 29.8245 50.85 30.0345Z" fill="#BA7D20"/>
<path opacity="0.5" d="M47.4 28.8545C47.4 29.0745 47.09 29.2545 46.71 29.2545C46.33 29.2545 46.03 29.0745 46.03 28.8545C46.03 28.6345 46.33 28.4645 46.71 28.4645C47.09 28.4645 47.4 28.6345 47.4 28.8545Z" fill="#BA7D20"/>
<path opacity="0.6" d="M45.49 12.6845C45.49 12.9945 45.05 13.2445 44.49 13.2445C43.93 13.2445 43.49 12.9945 43.49 12.6845C43.49 12.3745 43.93 12.1245 44.49 12.1245C45.05 12.1245 45.49 12.3745 45.49 12.6845Z" fill="#F7C548"/>
<path opacity="0.6" d="M50.38 10.0945C50.38 10.4045 49.94 10.6645 49.38 10.6645C48.82 10.6645 48.38 10.4045 48.38 10.0945C48.38 9.78455 48.82 9.53455 49.38 9.53455C49.94 9.53455 50.38 9.78455 50.38 10.0945Z" fill="#F7C548"/>
<path opacity="0.6" d="M45.05 8.96455C45.05 9.27455 44.61 9.52455 44.05 9.52455C43.49 9.52455 43.05 9.27455 43.05 8.96455C43.05 8.65455 43.49 8.40454 44.05 8.40454C44.61 8.40454 45.05 8.66455 45.05 8.96455Z" fill="#F7C548"/>
<path opacity="0.6" d="M44.0601 5.65454C44.0601 5.96454 43.6201 6.21454 43.0601 6.21454C42.5001 6.21454 42.0601 5.96454 42.0601 5.65454C42.0601 5.34454 42.5001 5.09454 43.0601 5.09454C43.6201 5.09454 44.0601 5.34454 44.0601 5.65454Z" fill="#F7C548"/>
<path opacity="0.6" d="M51.83 13.2445C51.83 13.5545 51.39 13.8045 50.83 13.8045C50.27 13.8045 49.83 13.5545 49.83 13.2445C49.83 12.9345 50.27 12.6845 50.83 12.6845C51.39 12.6845 51.83 12.9645 51.83 13.2445Z" fill="#F7C548"/>
<path opacity="0.6" d="M61.1 19.2845C61.1 19.6045 60.66 19.8545 60.1 19.8545C59.54 19.8545 59.1 19.6045 59.1 19.2845C59.1 18.9645 59.54 18.7245 60.1 18.7245C60.66 18.7245 61.1 18.9645 61.1 19.2845Z" fill="#F7C548"/>
<path opacity="0.6" d="M56.5601 14.3645C56.5601 14.6845 56.1201 14.9345 55.5601 14.9345C55.0001 14.9345 54.5601 14.6845 54.5601 14.3645C54.5601 14.0445 55.0001 13.8045 55.5601 13.8045C56.1201 13.8045 56.5601 14.0545 56.5601 14.3645Z" fill="#F7C548"/>
<path opacity="0.6" d="M51.36 16.3945C51.36 16.7045 50.92 16.9545 50.36 16.9545C49.8 16.9545 49.36 16.7045 49.36 16.3945C49.36 16.0845 49.8 15.8345 50.36 15.8345C50.92 15.8345 51.36 16.0845 51.36 16.3945Z" fill="#F7C548"/>
<path opacity="0.6" d="M49.4 11.7245C49.4 12.0345 48.96 12.2845 48.4 12.2845C47.84 12.2845 47.4 12.0345 47.4 11.7245C47.4 11.4145 47.84 11.1645 48.4 11.1645C48.96 11.1645 49.4 11.4145 49.4 11.7245Z" fill="#F7C548"/>
<path opacity="0.6" d="M55.74 16.7845C55.74 17.0945 55.3 17.3445 54.74 17.3445C54.18 17.3445 53.74 17.0945 53.74 16.7845C53.74 16.4745 54.18 16.2245 54.74 16.2245C55.3 16.2245 55.74 16.4745 55.74 16.7845Z" fill="#F7C548"/>
<path opacity="0.6" d="M55.3 20.0745C55.3 20.3845 54.86 20.6445 54.3 20.6445C53.74 20.6445 53.3 20.3845 53.3 20.0745C53.3 19.7645 53.74 19.5145 54.3 19.5145C54.86 19.5145 55.3 19.7645 55.3 20.0745Z" fill="#F7C548"/>
<path opacity="0.6" d="M60.11 17.0245C60.11 17.3345 59.67 17.5845 59.11 17.5845C58.55 17.5845 58.11 17.3345 58.11 17.0245C58.11 16.7145 58.55 16.4645 59.11 16.4645C59.67 16.4645 60.11 16.7145 60.11 17.0245Z" fill="#F7C548"/>
<path opacity="0.6" d="M59.65 15.3145C60.1913 15.3145 60.63 15.0638 60.63 14.7545C60.63 14.4453 60.1913 14.1945 59.65 14.1945C59.1088 14.1945 58.67 14.4453 58.67 14.7545C58.67 15.0638 59.1088 15.3145 59.65 15.3145Z" fill="#F7C548"/>
<path opacity="0.6" d="M66.73 19.8545C66.73 20.1645 66.29 20.4145 65.73 20.4145C65.17 20.4145 64.73 20.1645 64.73 19.8545C64.73 19.5445 65.17 19.2845 65.73 19.2845C66.29 19.2845 66.73 19.5445 66.73 19.8545Z" fill="#F7C548"/>
<path opacity="0.6" d="M60.11 21.1645C60.11 21.4745 59.67 21.7245 59.11 21.7245C58.55 21.7245 58.11 21.4745 58.11 21.1645C58.11 20.8545 58.55 20.5945 59.11 20.5945C59.67 20.5945 60.11 20.8545 60.11 21.1645Z" fill="#F7C548"/>
<path opacity="0.5" d="M46.29 10.1545C46.29 10.3745 45.98 10.5445 45.6 10.5445C45.22 10.5445 44.91 10.3745 44.91 10.1545C44.91 9.93454 45.22 9.76455 45.6 9.76455C45.98 9.76455 46.29 9.96454 46.29 10.1545Z" fill="#BA7D20"/>
<path opacity="0.5" d="M56.83 17.1945C56.83 17.4145 56.5199 17.5845 56.1399 17.5845C55.7599 17.5845 55.45 17.4145 55.45 17.1945C55.45 16.9745 55.7599 16.7945 56.1399 16.7945C56.5199 16.7945 56.83 16.9645 56.83 17.1945Z" fill="#BA7D20"/>
<path opacity="0.5" d="M51.49 18.3345C51.49 18.5545 51.18 18.7245 50.8 18.7245C50.42 18.7245 50.11 18.5545 50.11 18.3345C50.11 18.1145 50.42 17.9445 50.8 17.9445C51.18 17.9445 51.49 18.1145 51.49 18.3345Z" fill="#BA7D20"/>
<path opacity="0.5" d="M64.37 18.5045C64.37 18.7145 64.06 18.8945 63.68 18.8945C63.3 18.8945 63 18.7145 63 18.5045C63 18.2945 63.3 18.1045 63.68 18.1045C64.06 18.1045 64.37 18.2845 64.37 18.5045Z" fill="#BA7D20"/>
<path opacity="0.5" d="M64.76 21.7245C64.76 21.9445 64.45 22.1145 64.07 22.1145C63.69 22.1145 63.38 21.9445 63.38 21.7245C63.38 21.5045 63.69 21.3245 64.07 21.3245C64.45 21.3245 64.76 21.5045 64.76 21.7245Z" fill="#BA7D20"/>
<path opacity="0.5" d="M58.21 18.8945C58.21 19.1145 57.9 19.2845 57.52 19.2845C57.14 19.2845 56.83 19.1145 56.83 18.8945C56.83 18.6745 57.14 18.5045 57.52 18.5045C57.9 18.5045 58.21 18.6745 58.21 18.8945Z" fill="#BA7D20"/>
<path opacity="0.5" d="M47.16 14.9645C47.16 15.1745 46.85 15.3545 46.47 15.3545C46.09 15.3545 45.78 15.1745 45.78 14.9645C45.78 14.7545 46.09 14.5645 46.47 14.5645C46.85 14.5645 47.16 14.7145 47.16 14.9645Z" fill="#BA7D20"/>
<path opacity="0.69" d="M47.68 8.80454C47.68 9.02454 47.3701 9.19454 46.9901 9.19454C46.6101 9.19454 46.3 9.02454 46.3 8.80454C46.3 8.58454 46.6101 8.41454 46.9901 8.41454C47.3701 8.41454 47.68 8.58454 47.68 8.80454Z" fill="#FFFBDC"/>
<path opacity="0.69" d="M43.58 7.23454C43.58 7.44454 43.2699 7.62454 42.8899 7.62454C42.5099 7.62454 42.2 7.44454 42.2 7.23454C42.2 7.02454 42.5099 6.83454 42.8899 6.83454C43.2699 6.83454 43.58 7.01454 43.58 7.23454Z" fill="#FFFBDC"/>
<path opacity="0.69" d="M46.29 12.2845C46.29 12.5045 45.98 12.6845 45.6 12.6845C45.22 12.6845 44.91 12.5045 44.91 12.2845C44.91 12.0645 45.22 11.8945 45.6 11.8945C45.98 11.8945 46.29 12.0745 46.29 12.2845Z" fill="#FFFBDC"/>
<path opacity="0.69" d="M44.27 10.9645C44.27 11.1745 43.96 11.3545 43.58 11.3545C43.2 11.3545 42.89 11.1745 42.89 10.9645C42.89 10.7545 43.2 10.5645 43.58 10.5645C43.96 10.5645 44.27 10.7245 44.27 10.9645Z" fill="#FFFBDC"/>
<path opacity="0.69" d="M66.6899 22.1145C66.6899 22.3345 66.3899 22.5145 66.0099 22.5145C65.6299 22.5145 65.3199 22.3345 65.3199 22.1145C65.3199 21.8945 65.6299 21.7245 66.0099 21.7245C66.3899 21.7245 66.6899 21.8945 66.6899 22.1145Z" fill="#FFFBDC"/>
<path opacity="0.69" d="M49.65 14.2045C49.65 14.4145 49.34 14.5945 48.96 14.5945C48.58 14.5945 48.27 14.4145 48.27 14.2045C48.27 13.9945 48.58 13.8045 48.96 13.8045C49.34 13.8045 49.65 13.9645 49.65 14.2045Z" fill="#FFFBDC"/>
<path opacity="0.69" d="M53.34 18.3345C53.34 18.5545 53.03 18.7245 52.65 18.7245C52.27 18.7245 51.96 18.5545 51.96 18.3345C51.96 18.1145 52.27 17.9445 52.65 17.9445C53.03 17.9445 53.34 18.1145 53.34 18.3345Z" fill="#FFFBDC"/>
<path opacity="0.69" d="M49.1 16.9645C49.1 17.1845 48.79 17.3545 48.41 17.3545C48.03 17.3545 47.72 17.1845 47.72 16.9645C47.72 16.7445 48.03 16.5745 48.41 16.5745C48.79 16.5745 49.1 16.7345 49.1 16.9645Z" fill="#FFFBDC"/>
<path opacity="0.69" d="M54.71 12.6845C54.71 12.9045 54.41 13.0745 54.03 13.0745C53.65 13.0745 53.34 12.9045 53.34 12.6845C53.34 12.4645 53.64 12.2845 54.03 12.2845C54.42 12.2845 54.71 12.4645 54.71 12.6845Z" fill="#FFFBDC"/>
<path opacity="0.69" d="M62 16.0545C62 16.2645 61.7 16.4445 61.32 16.4445C60.94 16.4445 60.63 16.2645 60.63 16.0545C60.63 15.8445 60.94 15.6545 61.32 15.6545C61.7 15.6545 62 15.8345 62 16.0545Z" fill="#FFFBDC"/>
<path opacity="0.69" d="M62.35 17.5845C62.35 17.8045 62.05 17.9845 61.66 17.9845C61.27 17.9845 60.98 17.8045 60.98 17.5845C60.98 17.3645 61.28 17.1945 61.66 17.1945C62.04 17.1945 62.35 17.3645 62.35 17.5845Z" fill="#FFFBDC"/>
<path opacity="0.69" d="M58.21 15.4345C58.21 15.6545 57.9 15.8345 57.52 15.8345C57.14 15.8345 56.83 15.6545 56.83 15.4345C56.83 15.2145 57.14 15.0445 57.52 15.0445C57.9 15.0445 58.21 15.2145 58.21 15.4345Z" fill="#FFFBDC"/>
<path opacity="0.69" d="M53.34 15.0445C53.34 15.2645 53.03 15.4345 52.65 15.4345C52.27 15.4345 52 15.2645 52 15.0445C52 14.8245 52.31 14.6445 52.69 14.6445C53.07 14.6445 53.34 14.8245 53.34 15.0445Z" fill="#FFFBDC"/>
<path opacity="0.69" d="M63.6801 20.0745C63.6801 20.2945 63.3801 20.4745 63.0001 20.4745C62.6201 20.4745 62.3101 20.2945 62.3101 20.0745C62.3101 19.8545 62.6201 19.6845 63.0001 19.6845C63.3801 19.6845 63.6801 19.8645 63.6801 20.0745Z" fill="#FFFBDC"/>
<path opacity="0.69" d="M61.79 21.7245C61.79 21.9445 61.48 22.1145 61.1 22.1145C60.72 22.1145 60.41 21.9445 60.41 21.7245C60.41 21.5045 60.72 21.3245 61.1 21.3245C61.48 21.3245 61.79 21.5045 61.79 21.7245Z" fill="#FFFBDC"/>
<path opacity="0.69" d="M57.52 20.4745C57.52 20.6845 57.21 20.8645 56.83 20.8645C56.45 20.8645 56.14 20.6845 56.14 20.4745C56.14 20.2645 56.45 20.0745 56.83 20.0745C57.21 20.0745 57.52 20.2545 57.52 20.4745Z" fill="#FFFBDC"/>
<path opacity="0.69" d="M51.54 11.3345C51.54 11.5545 51.23 11.7245 50.85 11.7245C50.47 11.7245 50.16 11.5545 50.16 11.3345C50.16 11.1145 50.47 10.9445 50.85 10.9445C51.23 10.9445 51.54 11.1145 51.54 11.3345Z" fill="#FFFBDC"/>
<path opacity="0.6" d="M42.4 8.82454C42.4 9.13454 41.96 9.38455 41.4 9.38455C40.84 9.38455 40.4 9.13454 40.4 8.82454C40.4 8.51454 40.84 8.26455 41.4 8.26455C41.96 8.26455 42.4 8.51454 42.4 8.82454Z" fill="#F7C548"/>
<path opacity="0.6" d="M41.42 10.4545C41.42 10.7645 40.98 11.0145 40.42 11.0145C39.86 11.0145 39.42 10.7645 39.42 10.4545C39.42 10.1445 39.86 9.89455 40.42 9.89455C40.98 9.89455 41.42 10.1445 41.42 10.4545Z" fill="#F7C548"/>
<path opacity="0.69" d="M39.7 7.53454C39.7 7.75454 39.39 7.92454 39.01 7.92454C38.63 7.92454 38.33 7.75454 38.33 7.53454C38.33 7.31454 38.63 7.13454 39.01 7.13454C39.39 7.13454 39.7 7.31454 39.7 7.53454Z" fill="#FFFBDC"/>
<path opacity="0.69" d="M42.92 12.0245C42.92 12.2445 42.61 12.4145 42.23 12.4145C41.85 12.4145 41.55 12.2445 41.55 12.0245C41.55 11.8045 41.85 11.6345 42.23 11.6345C42.61 11.6345 42.92 11.8045 42.92 12.0245Z" fill="#FFFBDC"/>
<path opacity="0.69" d="M45.91 7.39455C45.91 7.61455 45.6 7.79455 45.22 7.79455C44.84 7.79455 44.54 7.61455 44.54 7.39455C44.54 7.17455 44.84 7.00455 45.22 7.00455C45.6 7.00455 45.91 7.18455 45.91 7.39455Z" fill="#FFFBDC"/>
<path opacity="0.5" d="M54 11.7245C54 11.9445 53.69 12.1245 53.31 12.1245C52.93 12.1245 52.62 11.9445 52.62 11.7245C52.62 11.5045 52.93 11.3345 53.31 11.3345C53.69 11.3345 54 11.5145 54 11.7245Z" fill="#BA7D20"/>
<path opacity="0.5" d="M57.24 13.1745C57.24 13.3945 56.94 13.5645 56.56 13.5645C56.18 13.5645 55.87 13.3945 55.87 13.1745C55.87 12.9545 56.18 12.7845 56.56 12.7845C56.94 12.7845 57.24 12.9645 57.24 13.1745Z" fill="#BA7D20"/>
<path opacity="0.6" d="M38.5601 8.96455C38.5601 9.27455 38.1201 9.52455 37.5601 9.52455C37.0001 9.52455 36.5601 9.27455 36.5601 8.96455C36.5601 8.65455 37.0001 8.40454 37.5601 8.40454C38.1201 8.40454 38.5601 8.66455 38.5601 8.96455Z" fill="#F7C548"/>
<path opacity="0.6" d="M31.39 4.54454C31.39 4.85454 30.95 5.11454 30.39 5.11454C29.83 5.11454 29.39 4.85454 29.39 4.54454C29.39 4.23454 29.83 3.98454 30.39 3.98454C30.95 3.98454 31.39 4.23454 31.39 4.54454Z" fill="#F7C548"/>
<path opacity="0.6" d="M36.12 5.67455C36.12 5.98455 35.68 6.23455 35.12 6.23455C34.56 6.23455 34.12 5.98455 34.12 5.67455C34.12 5.36455 34.56 5.11455 35.12 5.11455C35.68 5.11455 36.12 5.36455 36.12 5.67455Z" fill="#F7C548"/>
<path opacity="0.6" d="M40.1899 6.06454C40.1899 6.37454 39.7499 6.62454 39.1899 6.62454C38.6299 6.62454 38.1899 6.37454 38.1899 6.06454C38.1899 5.75454 38.6299 5.49454 39.1899 5.49454C39.7499 5.49454 40.1899 5.75454 40.1899 6.06454Z" fill="#F7C548"/>
<path opacity="0.6" d="M39.8101 4.54454C39.8101 4.85454 39.3701 5.11454 38.8101 5.11454C38.2501 5.11454 37.8101 4.85454 37.8101 4.54454C37.8101 4.23454 38.2501 3.98454 38.8101 3.98454C39.3701 3.98454 39.8101 4.23454 39.8101 4.54454Z" fill="#F7C548"/>
<path opacity="0.6" d="M36.05 1.50454C36.05 1.81454 35.61 2.06454 35.05 2.06454C34.49 2.06454 34.05 1.81454 34.05 1.50454C34.05 1.19454 34.49 0.944542 35.05 0.944542C35.61 0.944542 36.05 1.19454 36.05 1.50454Z" fill="#F7C548"/>
<path opacity="0.69" d="M34.27 3.96455C34.27 4.18455 33.96 4.35455 33.58 4.35455C33.2 4.35455 32.9 4.20455 32.9 3.96455C32.9 3.72455 33.2 3.57455 33.58 3.57455C33.96 3.57455 34.27 3.76455 34.27 3.96455Z" fill="#FFFBDC"/>
<path opacity="0.69" d="M37.77 6.73454C37.77 6.95454 37.46 7.13454 37.08 7.13454C36.7 7.13454 36.39 6.95454 36.39 6.73454C36.39 6.51454 36.7 6.34454 37.08 6.34454C37.46 6.34454 37.77 6.52454 37.77 6.73454Z" fill="#FFFBDC"/>
<path opacity="0.69" d="M32.9 6.34454C32.9 6.56454 32.59 6.73454 32.21 6.73454C31.83 6.73454 31.52 6.56454 31.52 6.34454C31.52 6.12454 31.83 5.95454 32.21 5.95454C32.59 5.95454 32.9 6.12454 32.9 6.34454Z" fill="#FFFBDC"/>
<path opacity="0.69" d="M31.1 2.63455C31.1 2.85455 30.79 3.03454 30.41 3.03454C30.03 3.03454 29.72 2.85455 29.72 2.63455C29.72 2.41455 30.03 2.24454 30.41 2.24454C30.79 2.24454 31.1 2.41455 31.1 2.63455Z" fill="#FFFBDC"/>
<path opacity="0.69" d="M36.89 3.03454C36.89 3.24454 36.58 3.42454 36.2 3.42454C35.82 3.42454 35.51 3.24454 35.51 3.03454C35.51 2.82454 35.82 2.63454 36.2 2.63454C36.58 2.63454 36.89 2.81454 36.89 3.03454Z" fill="#FFFBDC"/>
<path opacity="0.5" d="M33.58 3.03454C33.58 3.24454 33.28 3.42454 32.9 3.42454C32.52 3.42454 32.21 3.24454 32.21 3.03454C32.21 2.82454 32.52 2.63454 32.9 2.63454C33.28 2.63454 33.58 2.81454 33.58 3.03454Z" fill="#BA7D20"/>
<path opacity="0.5" d="M36.8001 4.47454C36.8001 4.69454 36.5001 4.87454 36.1201 4.87454C35.7401 4.87454 35.4301 4.69454 35.4301 4.47454C35.4301 4.25454 35.7401 4.08454 36.1201 4.08454C36.5001 4.08454 36.8001 4.26454 36.8001 4.47454Z" fill="#BA7D20"/>
<path opacity="0.5" d="M69.12 20.1745C69.12 20.3945 68.81 20.5645 68.43 20.5645C68.05 20.5645 67.74 20.3945 67.74 20.1745C67.74 19.9545 68.05 19.7845 68.43 19.7845C68.81 19.7845 69.12 19.9645 69.12 20.1745Z" fill="#BA7D20"/>
<path opacity="0.6" d="M10 20.3445C10 20.6545 9.56 20.9045 9 20.9045C8.44 20.9045 8 20.6545 8 20.3445C8 20.0345 8.44 19.7845 9 19.7845C9.56 19.7845 10 20.0345 10 20.3445Z" fill="#F7C548"/>
<path opacity="0.6" d="M14.84 17.7545C14.84 18.0645 14.4 18.3245 13.84 18.3245C13.28 18.3245 12.84 18.0645 12.84 17.7545C12.84 17.4445 13.28 17.1945 13.84 17.1945C14.4 17.1945 14.84 17.4445 14.84 17.7545Z" fill="#F7C548"/>
<path opacity="0.6" d="M9.5 16.6345C9.5 16.9445 9.06 17.1945 8.5 17.1945C7.94 17.1945 7.5 16.9445 7.5 16.6345C7.5 16.3245 7.94 16.0745 8.5 16.0745C9.06 16.0745 9.5 16.3245 9.5 16.6345Z" fill="#F7C548"/>
<path opacity="0.6" d="M6 18.3245C6 18.6345 5.56 18.8845 5 18.8845C4.44 18.8845 4 18.6345 4 18.3245C4 18.0145 4.44 17.7545 5 17.7545C5.56 17.7545 6 18.0145 6 18.3245Z" fill="#F7C548"/>
<path opacity="0.6" d="M16.29 20.9045C16.29 21.2145 15.85 21.4645 15.29 21.4645C14.73 21.4645 14.29 21.2145 14.29 20.9045C14.29 20.5945 14.73 20.3445 15.29 20.3445C15.85 20.3445 16.29 20.5945 16.29 20.9045Z" fill="#F7C548"/>
<path opacity="0.6" d="M10.9301 24.0545C10.9301 24.3645 10.4901 24.6145 9.93005 24.6145C9.37005 24.6145 8.93005 24.3645 8.93005 24.0545C8.93005 23.7445 9.37005 23.4945 9.93005 23.4945C10.4901 23.4945 10.9301 23.7445 10.9301 24.0545Z" fill="#F7C548"/>
<path opacity="0.6" d="M21 22.0345C21 22.3445 20.56 22.5945 20 22.5945C19.44 22.5945 19 22.3445 19 22.0345C19 21.7245 19.44 21.4645 20 21.4645C20.56 21.4645 21 21.7245 21 22.0345Z" fill="#F7C548"/>
<path opacity="0.6" d="M15.8199 24.0545C15.8199 24.3645 15.3799 24.6145 14.8199 24.6145C14.2599 24.6145 13.8199 24.3645 13.8199 24.0545C13.8199 23.7445 14.2599 23.4945 14.8199 23.4945C15.3799 23.4945 15.8199 23.7445 15.8199 24.0545Z" fill="#F7C548"/>
<path opacity="0.6" d="M13.85 19.3845C13.85 19.6945 13.41 19.9545 12.85 19.9545C12.29 19.9545 11.85 19.6945 11.85 19.3845C11.85 19.0745 12.29 18.8245 12.85 18.8245C13.41 18.8245 13.85 19.0745 13.85 19.3845Z" fill="#F7C548"/>
<path opacity="0.6" d="M9.5 22.2545C9.5 22.5645 9.06 22.8145 8.5 22.8145C7.94 22.8145 7.5 22.5645 7.5 22.2545C7.5 21.9445 7.94 21.6945 8.5 21.6945C9.06 21.6945 9.5 21.9645 9.5 22.2545Z" fill="#F7C548"/>
<path opacity="0.6" d="M13.83 13.9045C13.83 14.2145 13.39 14.4645 12.83 14.4645C12.27 14.4645 11.83 14.2145 11.83 13.9045C11.83 13.5945 12.27 13.3445 12.83 13.3445C13.39 13.3445 13.83 13.5945 13.83 13.9045Z" fill="#F7C548"/>
<path opacity="0.6" d="M20.2 24.4445C20.2 24.7545 19.76 25.0045 19.2 25.0045C18.64 25.0045 18.2 24.7545 18.2 24.4445C18.2 24.1345 18.64 23.8845 19.2 23.8845C19.76 23.8845 20.2 24.1345 20.2 24.4445Z" fill="#F7C548"/>
<path opacity="0.6" d="M19.76 27.7345C19.76 28.0445 19.32 28.3045 18.76 28.3045C18.2 28.3045 17.76 28.0445 17.76 27.7345C17.76 27.4245 18.2 27.1745 18.76 27.1745C19.32 27.1745 19.76 27.4245 19.76 27.7345Z" fill="#F7C548"/>
<path opacity="0.6" d="M24.5699 24.6845C24.5699 24.9945 24.1299 25.2445 23.5699 25.2445C23.0099 25.2445 22.5699 24.9945 22.5699 24.6845C22.5699 24.3745 23.0099 24.1245 23.5699 24.1245C24.1299 24.1245 24.5699 24.3745 24.5699 24.6845Z" fill="#F7C548"/>
<path opacity="0.6" d="M14.1 26.5545C14.1 26.8645 13.66 27.1145 13.1 27.1145C12.54 27.1145 12.1 26.8645 12.1 26.5545C12.1 26.2445 12.54 25.9945 13.1 25.9945C13.66 25.9945 14.1 26.2445 14.1 26.5545Z" fill="#F7C548"/>
<path opacity="0.5" d="M10.75 17.8145C10.75 18.0345 10.44 18.2145 10.06 18.2145C9.68 18.2145 9.37 18.0345 9.37 17.8145C9.37 17.5945 9.68 17.4245 10.06 17.4245C10.44 17.4245 10.75 17.5945 10.75 17.8145Z" fill="#BA7D20"/>
<path opacity="0.5" d="M8.22998 18.3745C8.22998 18.5945 7.91998 18.7645 7.53998 18.7645C7.15998 18.7645 6.84998 18.5945 6.84998 18.3745C6.84998 18.1545 7.15998 17.9745 7.53998 17.9745C7.91998 17.9745 8.22998 18.1545 8.22998 18.3745Z" fill="#BA7D20"/>
<path opacity="0.5" d="M3 20.9645C3 21.1745 2.69 21.3545 2.31 21.3545C1.93 21.3545 1.63 21.1745 1.63 20.9645C1.63 20.7545 1.93 20.5645 2.31 20.5645C2.69 20.5645 3 20.7445 3 20.9645Z" fill="#BA7D20"/>
<path opacity="0.5" d="M21.29 24.8545C21.29 25.0745 20.98 25.2445 20.6 25.2445C20.22 25.2445 19.91 25.0745 19.91 24.8545C19.91 24.6345 20.22 24.4545 20.6 24.4545C20.98 24.4545 21.29 24.6345 21.29 24.8545Z" fill="#BA7D20"/>
<path opacity="0.5" d="M16 25.9645C16 26.1845 15.69 26.3545 15.31 26.3545C14.93 26.3545 14.62 26.1845 14.62 25.9645C14.62 25.7445 14.93 25.5745 15.31 25.5745C15.69 25.5745 16 25.7745 16 25.9645Z" fill="#BA7D20"/>
<path opacity="0.5" d="M6.90002 21.8645C6.90002 22.0745 6.59002 22.2545 6.21002 22.2545C5.83002 22.2545 5.52002 22.0745 5.52002 21.8645C5.52002 21.6545 5.83002 21.4645 6.21002 21.4645C6.59002 21.4645 6.90002 21.6445 6.90002 21.8645Z" fill="#BA7D20"/>
<path opacity="0.5" d="M22.67 26.5545C22.67 26.7745 22.36 26.9545 21.98 26.9545C21.6 26.9545 21.29 26.7745 21.29 26.5545C21.29 26.3345 21.6 26.1645 21.98 26.1645C22.36 26.1645 22.67 26.3345 22.67 26.5545Z" fill="#BA7D20"/>
<path opacity="0.5" d="M18 29.0845C18 29.2945 17.7 29.4745 17.32 29.4745C16.94 29.4745 16.63 29.2945 16.63 29.0845C16.63 28.8745 16.94 28.6845 17.32 28.6845C17.7 28.6845 18 28.8645 18 29.0845Z" fill="#BA7D20"/>
<path opacity="0.5" d="M11.62 22.5945C11.62 22.8145 11.31 22.9845 10.93 22.9845C10.55 22.9845 10.24 22.8145 10.24 22.5945C10.24 22.3745 10.55 22.1945 10.93 22.1945C11.31 22.1945 11.62 22.3745 11.62 22.5945Z" fill="#BA7D20"/>
<path opacity="0.69" d="M12.14 16.4645C12.14 16.6845 11.83 16.8645 11.45 16.8645C11.07 16.8645 10.76 16.6845 10.76 16.4645C10.76 16.2445 11.07 16.0745 11.45 16.0745C11.83 16.0745 12.14 16.2445 12.14 16.4645Z" fill="#FFFBDC"/>
<path opacity="0.69" d="M6.90002 16.8645C6.90002 17.0745 6.59002 17.2545 6.21002 17.2545C5.83002 17.2545 5.52002 17.0745 5.52002 16.8645C5.52002 16.6545 5.83002 16.4645 6.21002 16.4645C6.59002 16.4645 6.90002 16.6445 6.90002 16.8645Z" fill="#FFFBDC"/>
<path opacity="0.69" d="M10.75 19.9645C10.75 20.1745 10.44 20.3545 10.06 20.3545C9.68 20.3545 9.37 20.1745 9.37 19.9645C9.37 19.7545 9.68 19.5645 10.06 19.5645C10.44 19.5645 10.75 19.7345 10.75 19.9645Z" fill="#FFFBDC"/>
<path opacity="0.69" d="M7.58996 20.4745C7.58996 20.6845 7.27996 20.8645 6.89996 20.8645C6.51996 20.8645 6.20996 20.6845 6.20996 20.4745C6.20996 20.2645 6.51996 20.0745 6.89996 20.0745C7.27996 20.0745 7.58996 20.2545 7.58996 20.4745Z" fill="#FFFBDC"/>
<path opacity="0.69" d="M8.91004 23.4945C8.91004 23.7045 8.61004 23.8845 8.23004 23.8845C7.85004 23.8845 7.54004 23.7045 7.54004 23.4945C7.54004 23.2845 7.85004 23.0945 8.23004 23.0945C8.61004 23.0945 8.91004 23.2745 8.91004 23.4945Z" fill="#FFFBDC"/>
<path opacity="0.69" d="M14.1 21.8645C14.1 22.0745 13.79 22.2545 13.41 22.2545C13.03 22.2545 12.73 22.0745 12.73 21.8645C12.73 21.6545 13.03 21.4645 13.41 21.4645C13.79 21.4645 14.1 21.6445 14.1 21.8645Z" fill="#FFFBDC"/>
<path opacity="0.69" d="M17.79 25.9645C17.79 26.1845 17.49 26.3545 17.11 26.3545C16.73 26.3545 16.42 26.1845 16.42 25.9645C16.42 25.7445 16.73 25.5745 17.11 25.5745C17.49 25.5745 17.79 25.7745 17.79 25.9645Z" fill="#FFFBDC"/>
<path opacity="0.69" d="M13.5601 24.6145C13.5601 24.8345 13.2501 25.0045 12.8701 25.0045C12.4901 25.0045 12.1801 24.8345 12.1801 24.6145C12.1801 24.3945 12.4901 24.2245 12.8701 24.2245C13.2501 24.2245 13.5601 24.3945 13.5601 24.6145Z" fill="#FFFBDC"/>
<path opacity="0.69" d="M19.17 20.3445C19.17 20.5645 18.86 20.7345 18.48 20.7345C18.1 20.7345 17.79 20.5645 17.79 20.3445C17.79 20.1245 18.1 19.9545 18.48 19.9545C18.86 19.9545 19.17 20.1245 19.17 20.3445Z" fill="#FFFBDC"/>
<path opacity="0.69" d="M26.8101 25.2445C26.8101 25.4645 26.5001 25.6445 26.1201 25.6445C25.7401 25.6445 25.4301 25.4645 25.4301 25.2445C25.4301 25.0245 25.7401 24.8545 26.1201 24.8545C26.5001 24.8545 26.8101 25.0245 26.8101 25.2445Z" fill="#FFFBDC"/>
<path opacity="0.69" d="M22.67 23.0945C22.67 23.3145 22.36 23.4945 21.98 23.4945C21.6 23.4945 21.29 23.3145 21.29 23.0945C21.29 22.8745 21.6 22.7045 21.98 22.7045C22.36 22.7045 22.67 22.8745 22.67 23.0945Z" fill="#FFFBDC"/>
<path opacity="0.69" d="M17.79 22.7045C17.79 22.9245 17.49 23.0945 17.11 23.0945C16.73 23.0945 16.42 22.9245 16.42 22.7045C16.42 22.4845 16.73 22.3045 17.11 22.3045C17.49 22.3045 17.79 22.4845 17.79 22.7045Z" fill="#FFFBDC"/>
<path opacity="0.69" d="M11.4401 25.9645C11.4401 26.1845 11.1301 26.3545 10.7501 26.3545C10.3701 26.3545 10.0601 26.1845 10.0601 25.9645C10.0601 25.7445 10.3701 25.5745 10.7501 25.5745C11.1301 25.5745 11.4401 25.7745 11.4401 25.9645Z" fill="#FFFBDC"/>
<path opacity="0.69" d="M16.39 28.1345C16.39 28.3445 16.08 28.5245 15.7 28.5245C15.32 28.5245 15.01 28.3445 15.01 28.1345C15.01 27.9245 15.32 27.7345 15.7 27.7345C16.08 27.7345 16.39 27.9645 16.39 28.1345Z" fill="#FFFBDC"/>
<path opacity="0.69" d="M22 28.1345C22 28.3445 21.69 28.5245 21.31 28.5245C20.93 28.5245 20.62 28.3445 20.62 28.1345C20.62 27.9245 20.93 27.7345 21.31 27.7345C21.69 27.7345 22 27.9645 22 28.1345Z" fill="#FFFBDC"/>
<path opacity="0.69" d="M16 18.9645C16 19.1845 15.69 19.3545 15.31 19.3545C14.93 19.3545 14.62 19.1845 14.62 18.9645C14.62 18.7445 14.93 18.5745 15.31 18.5745C15.69 18.5745 16 18.7745 16 18.9645Z" fill="#FFFBDC"/>
<path opacity="0.69" d="M10.0601 15.4545C10.0601 15.6745 9.75005 15.8445 9.37005 15.8445C8.99005 15.8445 8.68005 15.6745 8.68005 15.4545C8.68005 15.2345 8.99005 15.0545 9.37005 15.0545C9.75005 15.0545 10.0601 15.2345 10.0601 15.4545Z" fill="#FFFBDC"/>
<path opacity="0.6" d="M5.56995 20.8045C5.56995 21.1145 5.12995 21.3645 4.56995 21.3645C4.00995 21.3645 3.56995 21.1145 3.56995 20.8045C3.56995 20.4945 4.00995 20.2445 4.56995 20.2445C5.12995 20.2445 5.56995 20.4945 5.56995 20.8045Z" fill="#F7C548"/>
<path opacity="0.69" d="M3.65002 19.4945C3.65002 19.7045 3.34002 19.8845 2.96002 19.8845C2.58002 19.8845 2.27002 19.7045 2.27002 19.4945C2.27002 19.2845 2.58002 19.0945 2.96002 19.0945C3.34002 19.0945 3.65002 19.2745 3.65002 19.4945Z" fill="#FFFBDC"/>
<path opacity="0.69" d="M6.12 19.6245C6.12 19.8345 5.82 20.0145 5.44 20.0145C5.06 20.0145 4.75 19.8345 4.75 19.6245C4.75 19.4145 5.06 19.2245 5.44 19.2245C5.82 19.2245 6.12 19.4045 6.12 19.6245Z" fill="#FFFBDC"/>
<path opacity="0.5" d="M18.48 19.3845C18.48 19.6045 18.17 19.7845 17.79 19.7845C17.41 19.7845 17.11 19.6045 17.11 19.3845C17.11 19.1645 17.41 18.9945 17.79 18.9945C18.17 18.9945 18.48 19.1745 18.48 19.3845Z" fill="#BA7D20"/>
<path opacity="0.6" d="M26.3199 9.39455C26.3199 9.70455 25.8799 9.95455 25.3199 9.95455C24.7599 9.95455 24.3199 9.70455 24.3199 9.39455C24.3199 9.08455 24.7599 8.83455 25.3199 8.83455C25.8799 8.83455 26.3199 9.08455 26.3199 9.39455Z" fill="#F7C548"/>
<path opacity="0.6" d="M31.21 6.81455C31.21 7.12455 30.77 7.37455 30.21 7.37455C29.65 7.37455 29.21 7.12455 29.21 6.81455C29.21 6.50455 29.65 6.25455 30.21 6.25455C30.77 6.25455 31.21 6.50455 31.21 6.81455Z" fill="#F7C548"/>
<path opacity="0.6" d="M45.05 15.4545C45.05 15.7645 44.61 16.0145 44.05 16.0145C43.49 16.0145 43.05 15.7645 43.05 15.4545C43.05 15.1445 43.49 14.8945 44.05 14.8945C44.61 14.8945 45.05 15.1445 45.05 15.4545Z" fill="#F7C548"/>
<path opacity="0.6" d="M25 7.65454C25 7.96454 24.56 8.21454 24 8.21454C23.44 8.21454 23 7.96454 23 7.65454C23 7.34454 23.44 7.09454 24 7.09454C24.56 7.09454 25 7.34454 25 7.65454Z" fill="#F7C548"/>
<path opacity="0.6" d="M32.66 9.96455C32.66 10.2745 32.22 10.5345 31.66 10.5345C31.1 10.5345 30.66 10.2745 30.66 9.96455C30.66 9.65455 31.1 9.40454 31.66 9.40454C32.22 9.40454 32.66 9.64455 32.66 9.96455Z" fill="#F7C548"/>
<path opacity="0.6" d="M27.3 13.1045C27.3 13.4145 26.86 13.6645 26.3 13.6645C25.74 13.6645 25.3 13.4145 25.3 13.1045C25.3 12.7945 25.74 12.5445 26.3 12.5445C26.86 12.5445 27.3 12.7945 27.3 13.1045Z" fill="#F7C548"/>
<path opacity="0.6" d="M27.51 16.7845C27.51 17.0945 27.07 17.3445 26.51 17.3445C25.95 17.3445 25.51 17.0945 25.51 16.7845C25.51 16.4745 25.95 16.2245 26.51 16.2245C27.07 16.2245 27.51 16.4745 27.51 16.7845Z" fill="#F7C548"/>
<path opacity="0.6" d="M21.89 16.0745C21.89 16.3845 21.45 16.6345 20.89 16.6345C20.33 16.6345 19.89 16.3845 19.89 16.0745C19.89 15.7645 20.33 15.5145 20.89 15.5145C21.45 15.5145 21.89 15.7645 21.89 16.0745Z" fill="#F7C548"/>
<path opacity="0.6" d="M37.39 11.0845C37.39 11.3945 36.95 11.6445 36.39 11.6445C35.83 11.6445 35.39 11.3945 35.39 11.0845C35.39 10.7745 35.83 10.5245 36.39 10.5245C36.95 10.5245 37.39 10.7745 37.39 11.0845Z" fill="#F7C548"/>
<path opacity="0.6" d="M32.1899 13.1045C32.1899 13.4145 31.7499 13.6645 31.1899 13.6645C30.6299 13.6645 30.1899 13.4145 30.1899 13.1045C30.1899 12.7945 30.6299 12.5445 31.1899 12.5445C31.7499 12.5445 32.1899 12.7945 32.1899 13.1045Z" fill="#F7C548"/>
<path opacity="0.6" d="M30.22 8.44454C30.22 8.75454 29.78 9.00454 29.22 9.00454C28.66 9.00454 28.22 8.75454 28.22 8.44454C28.22 8.13454 28.66 7.87454 29.22 7.87454C29.78 7.87454 30.22 8.13454 30.22 8.44454Z" fill="#F7C548"/>
<path opacity="0.6" d="M36.5699 13.4945C36.5699 13.8145 36.1299 14.0645 35.5699 14.0645C35.0099 14.0645 34.5699 13.8145 34.5699 13.4945C34.5699 13.1745 35.0099 12.9345 35.5699 12.9345C36.1299 12.9345 36.5699 13.1845 36.5699 13.4945Z" fill="#F7C548"/>
<path opacity="0.6" d="M36.13 16.7945C36.13 17.1045 35.69 17.3545 35.13 17.3545C34.57 17.3545 34.13 17.1045 34.13 16.7945C34.13 16.4845 34.57 16.2245 35.13 16.2245C35.69 16.2245 36.13 16.4845 36.13 16.7945Z" fill="#F7C548"/>
<path opacity="0.6" d="M40.9399 13.7345C40.9399 14.0445 40.4999 14.3045 39.9399 14.3045C39.3799 14.3045 38.9399 14.0445 38.9399 13.7345C38.9399 13.4245 39.3799 13.1745 39.9399 13.1745C40.4999 13.1745 40.9399 13.4245 40.9399 13.7345Z" fill="#F7C548"/>
<path opacity="0.6" d="M30.47 15.6045C30.47 15.9245 30.03 16.1745 29.47 16.1745C28.91 16.1745 28.47 15.9245 28.47 15.6045C28.47 15.2845 28.91 15.0445 29.47 15.0445C30.03 15.0445 30.47 15.2945 30.47 15.6045Z" fill="#F7C548"/>
<path opacity="0.6" d="M40.4399 24.9645C40.4399 25.2745 39.9999 25.5245 39.4399 25.5245C38.8799 25.5245 38.4399 25.2745 38.4399 24.9645C38.4399 24.6545 38.8799 24.4045 39.4399 24.4045C39.9999 24.4045 40.4399 24.6445 40.4399 24.9645Z" fill="#F7C548"/>
<path opacity="0.5" d="M27.12 6.86455C27.12 7.08455 26.81 7.26455 26.43 7.26455C26.05 7.26455 25.74 7.08455 25.74 6.86455C25.74 6.64455 26.05 6.47455 26.43 6.47455C26.81 6.47455 27.12 6.65455 27.12 6.86455Z" fill="#BA7D20"/>
<path opacity="0.5" d="M37.66 13.9045C37.66 14.1245 37.35 14.3045 36.97 14.3045C36.59 14.3045 36.28 14.1245 36.28 13.9045C36.28 13.6845 36.59 13.5145 36.97 13.5145C37.35 13.5145 37.66 13.6845 37.66 13.9045Z" fill="#BA7D20"/>
<path opacity="0.5" d="M32.3199 15.0445C32.3199 15.2645 32.0099 15.4445 31.6299 15.4445C31.2499 15.4445 30.9399 15.2645 30.9399 15.0445C30.9399 14.8245 31.2499 14.6545 31.6299 14.6545C32.0099 14.6545 32.3199 14.8345 32.3199 15.0445Z" fill="#BA7D20"/>
<path opacity="0.5" d="M23.27 10.9645C23.27 11.1845 22.96 11.3545 22.58 11.3545C22.2 11.3545 21.89 11.1845 21.89 10.9645C21.89 10.7445 22.2 10.5745 22.58 10.5745C22.96 10.5745 23.27 10.6945 23.27 10.9645Z" fill="#BA7D20"/>
<path opacity="0.5" d="M39 15.6045C39 15.8245 38.69 16.0045 38.31 16.0045C37.93 16.0045 37.62 15.8245 37.62 15.6045C37.62 15.3845 37.93 15.2145 38.31 15.2145C38.69 15.2145 39 15.3945 39 15.6045Z" fill="#BA7D20"/>
<path opacity="0.5" d="M28 11.6445C28 11.8645 27.69 12.0345 27.31 12.0345C26.93 12.0345 26.62 11.8645 26.62 11.6445C26.62 11.4245 26.93 11.2545 27.31 11.2545C27.69 11.2545 28 11.4245 28 11.6445Z" fill="#BA7D20"/>
<path opacity="0.5" d="M29 17.6945C29 17.9145 28.69 18.0845 28.31 18.0845C27.93 18.0845 27.62 17.9145 27.62 17.6945C27.62 17.4745 27.93 17.3045 28.31 17.3045C28.69 17.3045 29 17.4745 29 17.6945Z" fill="#BA7D20"/>
<path opacity="0.69" d="M28.51 5.51454C28.51 5.73454 28.2 5.91454 27.82 5.91454C27.44 5.91454 27.13 5.73454 27.13 5.51454C27.13 5.29454 27.44 5.12454 27.82 5.12454C28.2 5.12454 28.51 5.30454 28.51 5.51454Z" fill="#FFFBDC"/>
<path opacity="0.69" d="M41.63 3.96455C41.63 4.18455 41.32 4.35455 40.94 4.35455C40.56 4.35455 40.26 4.18455 40.26 3.96455C40.26 3.74455 40.56 3.57455 40.94 3.57455C41.32 3.57455 41.63 3.76455 41.63 3.96455Z" fill="#FFFBDC"/>
<path opacity="0.6" d="M61.61 22.9645C61.61 23.2745 61.17 23.5345 60.61 23.5345C60.05 23.5345 59.61 23.2745 59.61 22.9645C59.61 22.6545 60.05 22.4045 60.61 22.4045C61.17 22.4045 61.61 22.6345 61.61 22.9645Z" fill="#F7C548"/>
<path opacity="0.6" d="M56.4399 21.4645C56.4399 21.7745 55.9999 22.0345 55.4399 22.0345C54.8799 22.0345 54.4399 21.7745 54.4399 21.4645C54.4399 21.1545 54.8799 20.9045 55.4399 20.9045C55.9999 20.9045 56.4399 21.1545 56.4399 21.4645Z" fill="#F7C548"/>
<path opacity="0.6" d="M59.65 25.1345C60.1913 25.1345 60.63 24.8838 60.63 24.5745C60.63 24.2653 60.1913 24.0145 59.65 24.0145C59.1088 24.0145 58.67 24.2653 58.67 24.5745C58.67 24.8838 59.1088 25.1345 59.65 25.1345Z" fill="#F7C548"/>
<path opacity="0.5" d="M57.52 22.9645C57.52 23.1845 57.22 23.3545 56.84 23.3545C56.46 23.3545 56.15 23.1845 56.15 22.9645C56.15 22.7445 56.46 22.5745 56.84 22.5745C57.22 22.5745 57.52 22.7845 57.52 22.9645Z" fill="#BA7D20"/>
<path opacity="0.5" d="M63.6801 23.5145C63.6801 23.7245 63.3801 23.9045 63.0001 23.9045C62.6201 23.9045 62.3101 23.7245 62.3101 23.5145C62.3101 23.3045 62.6201 23.1145 63.0001 23.1145C63.3801 23.1145 63.6801 23.2945 63.6801 23.5145Z" fill="#BA7D20"/>
<path opacity="0.69" d="M58.22 22.0445C58.6011 22.0445 58.91 21.8699 58.91 21.6545C58.91 21.4392 58.6011 21.2645 58.22 21.2645C57.839 21.2645 57.53 21.4392 57.53 21.6545C57.53 21.8699 57.839 22.0445 58.22 22.0445Z" fill="#FFFBDC"/>
<path opacity="0.69" d="M21.7 9.83454C21.7 10.0545 21.39 10.2345 21.01 10.2345C20.63 10.2345 20.33 10.0545 20.33 9.83454C20.33 9.61454 20.63 9.44454 21.01 9.44454C21.39 9.44454 21.7 9.61454 21.7 9.83454Z" fill="#FFFBDC"/>
<path opacity="0.69" d="M27.12 8.96454C27.12 9.18454 26.81 9.35454 26.43 9.35454C26.05 9.35454 25.74 9.18454 25.74 8.96454C25.74 8.74454 26.05 8.56454 26.43 8.56454C26.81 8.56454 27.12 8.78454 27.12 8.96454Z" fill="#FFFBDC"/>
<path opacity="0.69" d="M23.72 8.96454C23.72 9.18454 23.41 9.35454 23.03 9.35454C22.65 9.35454 22.34 9.18454 22.34 8.96454C22.34 8.74454 22.65 8.56454 23.03 8.56454C23.41 8.56454 23.72 8.78454 23.72 8.96454Z" fill="#FFFBDC"/>
<path opacity="0.6" d="M35.0601 20.9645C35.0601 21.2745 34.6201 21.5245 34.0601 21.5245C33.5001 21.5245 33.0601 21.2745 33.0601 20.9645C33.0601 20.6545 33.5001 20.3945 34.0601 20.3945C34.6201 20.3945 35.0601 20.6545 35.0601 20.9645Z" fill="#F7C548"/>
<path opacity="0.6" d="M30.08 32.3045C30.08 32.6145 29.64 32.8645 29.08 32.8645C28.52 32.8645 28.08 32.6145 28.08 32.3045C28.08 31.9945 28.52 31.7445 29.08 31.7445C29.64 31.7445 30.08 31.9645 30.08 32.3045Z" fill="#F7C548"/>
<path opacity="0.6" d="M33.74 19.2145C33.74 19.5245 33.3 19.7845 32.74 19.7845C32.18 19.7845 31.74 19.5245 31.74 19.2145C31.74 18.9045 32.18 18.6545 32.74 18.6545C33.3 18.6545 33.74 18.9045 33.74 19.2145Z" fill="#F7C548"/>
<path opacity="0.5" d="M35.87 18.4345C35.87 18.6545 35.56 18.8245 35.18 18.8245C34.8 18.8245 34.49 18.6545 34.49 18.4345C34.49 18.2145 34.8 18.0445 35.18 18.0445C35.56 18.0445 35.87 18.2145 35.87 18.4345Z" fill="#BA7D20"/>
<path opacity="0.69" d="M35.87 20.5645C35.87 20.7845 35.56 20.9645 35.18 20.9645C34.8 20.9645 34.49 20.7845 34.49 20.5645C34.49 20.3445 34.8 20.1745 35.18 20.1745C35.56 20.1745 35.87 20.3545 35.87 20.5645Z" fill="#FFFBDC"/>
<path opacity="0.69" d="M32.47 20.5645C32.47 20.7845 32.16 20.9645 31.78 20.9645C31.4 20.9645 31.09 20.7845 31.09 20.5645C31.09 20.3445 31.4 20.1745 31.78 20.1745C32.16 20.1745 32.47 20.3545 32.47 20.5645Z" fill="#FFFBDC"/>
<path opacity="0.6" d="M22.88 20.3945C22.88 20.7045 22.44 20.9545 21.88 20.9545C21.32 20.9545 20.88 20.7045 20.88 20.3945C20.88 20.0845 21.32 19.8345 21.88 19.8345C22.44 19.8345 22.88 20.0845 22.88 20.3945Z" fill="#F7C548"/>
<path opacity="0.6" d="M21.55 18.6545C21.55 18.9645 21.11 19.2145 20.55 19.2145C19.99 19.2145 19.55 18.9645 19.55 18.6545C19.55 18.3445 19.99 18.0945 20.55 18.0945C21.11 18.0945 21.55 18.3445 21.55 18.6545Z" fill="#F7C548"/>
<path opacity="0.5" d="M30.83 19.0945C30.83 19.3145 30.5199 19.4945 30.1399 19.4945C29.7599 19.4945 29.45 19.3145 29.45 19.0945C29.45 18.8745 29.7599 18.7045 30.1399 18.7045C30.5199 18.7045 30.83 18.8845 30.83 19.0945Z" fill="#BA7D20"/>
<path opacity="0.69" d="M23.68 19.9645C23.68 20.1845 23.37 20.3545 22.99 20.3545C22.61 20.3545 22.3 20.1845 22.3 19.9645C22.3 19.7445 22.61 19.5745 22.99 19.5745C23.37 19.5745 23.68 19.7845 23.68 19.9645Z" fill="#FFFBDC"/>
<path opacity="0.69" d="M23 21.9645C23 22.1845 22.69 22.3545 22.31 22.3545C21.93 22.3545 21.62 22.1845 21.62 21.9645C21.62 21.7445 21.93 21.5745 22.31 21.5745C22.69 21.5745 23 21.6945 23 21.9645Z" fill="#FFFBDC"/>
<path opacity="0.69" d="M25.29 12.5445C25.29 12.7645 24.98 12.9345 24.6 12.9345C24.22 12.9345 23.91 12.7645 23.91 12.5445C23.91 12.3245 24.22 12.1545 24.6 12.1545C24.98 12.1545 25.29 12.3245 25.29 12.5445Z" fill="#FFFBDC"/>
<path opacity="0.69" d="M30.47 10.9645C30.47 11.1845 30.17 11.3545 29.79 11.3545C29.41 11.3545 29.1 11.1845 29.1 10.9645C29.1 10.7445 29.41 10.5745 29.79 10.5745C30.17 10.5745 30.47 10.6945 30.47 10.9645Z" fill="#FFFBDC"/>
<path opacity="0.69" d="M34.17 15.0445C34.17 15.2645 33.86 15.4445 33.48 15.4445C33.1 15.4445 32.79 15.2645 32.79 15.0445C32.79 14.8245 33.1 14.6545 33.48 14.6545C33.86 14.6545 34.17 14.8345 34.17 15.0445Z" fill="#FFFBDC"/>
<path opacity="0.69" d="M29.93 13.6645C29.93 13.8845 29.62 14.0645 29.24 14.0645C28.86 14.0645 28.55 13.8845 28.55 13.6645C28.55 13.4445 28.86 13.2745 29.24 13.2745C29.62 13.2745 29.93 13.4545 29.93 13.6645Z" fill="#FFFBDC"/>
<path opacity="0.69" d="M35.54 9.39454C35.54 9.61454 35.23 9.79454 34.85 9.79454C34.47 9.79454 34.17 9.61454 34.17 9.39454C34.17 9.17454 34.47 9.00454 34.85 9.00454C35.23 9.00454 35.54 9.17454 35.54 9.39454Z" fill="#FFFBDC"/>
<path opacity="0.69" d="M43.1801 14.3045C43.1801 14.5145 42.8701 14.6945 42.4901 14.6945C42.1101 14.6945 41.8101 14.5145 41.8101 14.3045C41.8101 14.0945 42.1101 13.9045 42.4901 13.9045C42.8701 13.9045 43.1801 14.0845 43.1801 14.3045Z" fill="#FFFBDC"/>
<path opacity="0.69" d="M39 12.1545C39 12.3645 38.69 12.5445 38.31 12.5445C37.93 12.5445 37.62 12.3645 37.62 12.1545C37.62 11.9445 37.93 11.7545 38.31 11.7545C38.69 11.7545 39 11.9645 39 12.1545Z" fill="#FFFBDC"/>
<path opacity="0.69" d="M34.17 11.7545C34.17 11.9745 33.86 12.1545 33.48 12.1545C33.1 12.1545 32.79 11.9745 32.79 11.7545C32.79 11.5345 33.1 11.3645 33.48 11.3645C33.86 11.3645 34.17 11.5345 34.17 11.7545Z" fill="#FFFBDC"/>
<path opacity="0.69" d="M27.8101 15.0445C27.8101 15.2645 27.5001 15.4445 27.1201 15.4445C26.7401 15.4445 26.4301 15.2645 26.4301 15.0445C26.4301 14.8245 26.7401 14.6545 27.1201 14.6545C27.5001 14.6545 27.8101 14.8345 27.8101 15.0445Z" fill="#FFFBDC"/>
<path opacity="0.69" d="M32.76 17.1845C32.76 17.4045 32.45 17.5745 32.07 17.5745C31.69 17.5745 31.38 17.4045 31.38 17.1845C31.38 16.9645 31.69 16.7945 32.07 16.7945C32.45 16.7945 32.76 16.9645 32.76 17.1845Z" fill="#FFFBDC"/>
<path opacity="0.69" d="M37.57 16.9645C37.57 17.1845 37.2699 17.3545 36.8899 17.3545C36.5099 17.3545 36.2 17.1845 36.2 16.9645C36.2 16.7445 36.5099 16.5745 36.8899 16.5745C37.2699 16.5745 37.57 16.7345 37.57 16.9645Z" fill="#FFFBDC"/>
<path opacity="0.69" d="M36.73 15.3245C36.73 15.5445 36.43 15.7145 36.05 15.7145C35.67 15.7145 35.36 15.5445 35.36 15.3245C35.36 15.1045 35.67 14.9345 36.05 14.9345C36.43 14.9345 36.73 15.1045 36.73 15.3245Z" fill="#FFFBDC"/>
<path opacity="0.69" d="M32.37 8.04454C32.37 8.26454 32.06 8.44454 31.68 8.44454C31.3 8.44454 31 8.26454 31 8.04454C31 7.82454 31.31 7.65454 31.69 7.65454C32.07 7.65454 32.37 7.83454 32.37 8.04454Z" fill="#FFFBDC"/>
<path opacity="0.69" d="M25.43 11.4445C25.8111 11.4445 26.12 11.2699 26.12 11.0545C26.12 10.8392 25.8111 10.6645 25.43 10.6645C25.0489 10.6645 24.74 10.8392 24.74 11.0545C24.74 11.2699 25.0489 11.4445 25.43 11.4445Z" fill="#FFFBDC"/>
<path opacity="0.69" d="M25.4301 15.1145C25.4301 15.3345 25.1301 15.5045 24.7501 15.5045C24.3701 15.5045 24.0601 15.3345 24.0601 15.1145C24.0601 14.8945 24.3701 14.7245 24.7501 14.7245C25.1301 14.7245 25.4301 14.8945 25.4301 15.1145Z" fill="#FFFBDC"/>
<path opacity="0.6" d="M17.46 14.5545C17.46 14.8645 17.02 15.1145 16.46 15.1145C15.9 15.1145 15.46 14.8645 15.46 14.5545C15.46 14.2445 15.9 13.9945 16.46 13.9945C17.02 13.9945 17.46 14.2445 17.46 14.5545Z" fill="#F7C548"/>
<path opacity="0.6" d="M16.13 12.8045C16.13 13.1145 15.69 13.3745 15.13 13.3745C14.57 13.3745 14.13 13.1145 14.13 12.8045C14.13 12.4945 14.57 12.2445 15.13 12.2445C15.69 12.2445 16.13 12.4945 16.13 12.8045Z" fill="#F7C548"/>
<path opacity="0.6" d="M21.37 13.5945C21.37 13.9045 20.93 14.1545 20.37 14.1545C19.81 14.1545 19.37 13.9045 19.37 13.5945C19.37 13.2845 19.81 13.0345 20.37 13.0345C20.93 13.0345 21.37 13.2845 21.37 13.5945Z" fill="#F7C548"/>
<path opacity="0.5" d="M18.26 12.0245C18.26 12.2445 17.96 12.4145 17.58 12.4145C17.2 12.4145 16.89 12.2445 16.89 12.0245C16.89 11.8045 17.2 11.6345 17.58 11.6345C17.96 11.6345 18.26 11.8045 18.26 12.0245Z" fill="#BA7D20"/>
<path opacity="0.5" d="M23.35 12.5445C23.35 12.7645 23.05 12.9345 22.67 12.9345C22.29 12.9345 22 12.7645 22 12.5445C22 12.3245 22.31 12.1545 22.69 12.1545C23.07 12.1545 23.35 12.3245 23.35 12.5445Z" fill="#BA7D20"/>
<path opacity="0.5" d="M14.41 16.0745C14.41 16.2845 14.1 16.4645 13.72 16.4645C13.34 16.4645 13.04 16.2845 13.04 16.0745C13.04 15.8645 13.34 15.6745 13.72 15.6745C14.1 15.6745 14.41 15.8545 14.41 16.0745Z" fill="#BA7D20"/>
<path opacity="0.5" d="M19.13 16.8045C19.13 17.0145 18.82 17.1945 18.44 17.1945C18.06 17.1945 17.76 17.0145 17.76 16.8045C17.76 16.5945 18.06 16.4045 18.44 16.4045C18.82 16.4045 19.13 16.5845 19.13 16.8045Z" fill="#BA7D20"/>
<path opacity="0.69" d="M18.96 11.0645C19.3411 11.0645 19.65 10.8899 19.65 10.6745C19.65 10.4592 19.3411 10.2845 18.96 10.2845C18.5789 10.2845 18.27 10.4592 18.27 10.6745C18.27 10.8899 18.5789 11.0645 18.96 11.0645Z" fill="#FFFBDC"/>
<path opacity="0.69" d="M23.72 14.5345C23.72 14.7545 23.41 14.9345 23.03 14.9345C22.65 14.9345 22.34 14.7545 22.34 14.5345C22.34 14.3145 22.65 14.1445 23.03 14.1445C23.41 14.1445 23.72 14.3245 23.72 14.5345Z" fill="#FFFBDC"/>
<path opacity="0.69" d="M12.84 14.9645C12.84 15.1745 12.54 15.3545 12.16 15.3545C11.78 15.3545 11.47 15.1745 11.47 14.9645C11.47 14.7545 11.78 14.5645 12.16 14.5645C12.54 14.5645 12.84 14.7745 12.84 14.9645Z" fill="#FFFBDC"/>
<path opacity="0.69" d="M18.26 14.1545C18.26 14.3745 17.96 14.5545 17.58 14.5545C17.2 14.5545 16.89 14.3745 16.89 14.1545C16.89 13.9345 17.2 13.7645 17.58 13.7645C17.96 13.7645 18.26 13.9645 18.26 14.1545Z" fill="#FFFBDC"/>
<path opacity="0.69" d="M14.86 14.1545C14.86 14.3745 14.55 14.5545 14.17 14.5545C13.79 14.5545 13.49 14.3745 13.49 14.1545C13.49 13.9345 13.79 13.7645 14.17 13.7645C14.55 13.7645 14.86 13.9645 14.86 14.1545Z" fill="#FFFBDC"/>
<path opacity="0.69" d="M17.27 16.2145C17.27 16.4245 16.96 16.6045 16.58 16.6045C16.2 16.6045 15.89 16.4245 15.89 16.2145C15.89 16.0045 16.2 15.8145 16.58 15.8145C16.96 15.8145 17.27 15.9645 17.27 16.2145Z" fill="#FFFBDC"/>
<path opacity="0.5" d="M34.85 8.44454C34.85 8.65454 34.55 8.83454 34.17 8.83454C33.79 8.83454 33.48 8.65454 33.48 8.44454C33.48 8.23454 33.79 8.04454 34.17 8.04454C34.55 8.04454 34.85 8.22454 34.85 8.44454Z" fill="#BA7D20"/>
<path opacity="0.5" d="M38.91 3.03454C38.91 3.24454 38.6 3.42454 38.22 3.42454C37.84 3.42454 37.53 3.24454 37.53 3.03454C37.53 2.82454 37.84 2.63454 38.22 2.63454C38.6 2.63454 38.91 2.81454 38.91 3.03454Z" fill="#BA7D20"/>
<path opacity="0.5" d="M41.63 5.09454C41.63 5.31454 41.32 5.48454 40.94 5.48454C40.56 5.48454 40.26 5.31454 40.26 5.09454C40.26 4.87454 40.56 4.69454 40.94 4.69454C41.32 4.69454 41.63 4.87454 41.63 5.09454Z" fill="#BA7D20"/>
<path opacity="0.6" d="M26.23 23.4345C26.23 23.7445 25.79 23.9945 25.23 23.9945C24.67 23.9945 24.23 23.7445 24.23 23.4345C24.23 23.1245 24.67 22.8645 25.23 22.8645C25.79 22.8645 26.23 23.1245 26.23 23.4345Z" fill="#F7C548"/>
<path opacity="0.6" d="M31.12 20.8445C31.12 21.1545 30.68 21.4045 30.12 21.4045C29.56 21.4045 29.12 21.1545 29.12 20.8445C29.12 20.5345 29.56 20.2845 30.12 20.2845C30.68 20.2845 31.12 20.5345 31.12 20.8445Z" fill="#F7C548"/>
<path opacity="0.6" d="M25.79 19.7245C25.79 20.0345 25.35 20.2845 24.79 20.2845C24.23 20.2845 23.79 20.0345 23.79 19.7245C23.79 19.4145 24.23 19.1645 24.79 19.1645C25.35 19.1645 25.79 19.4145 25.79 19.7245Z" fill="#F7C548"/>
<path opacity="0.6" d="M24.8101 16.4045C24.8101 16.7145 24.3701 16.9645 23.8101 16.9645C23.2501 16.9645 22.8101 16.7145 22.8101 16.4045C22.8101 16.0945 23.2501 15.8445 23.8101 15.8445C24.3701 15.8445 24.8101 16.0945 24.8101 16.4045Z" fill="#F7C548"/>
<path opacity="0.6" d="M32.58 23.9645C32.58 24.2745 32.14 24.5245 31.58 24.5245C31.02 24.5245 30.58 24.2745 30.58 23.9645C30.58 23.6545 31.02 23.4045 31.58 23.4045C32.14 23.4045 32.58 23.6845 32.58 23.9645Z" fill="#F7C548"/>
<path opacity="0.6" d="M41.84 30.0345C41.84 30.3445 41.4 30.6045 40.84 30.6045C40.28 30.6045 39.84 30.3445 39.84 30.0345C39.84 29.7245 40.28 29.4745 40.84 29.4745C41.4 29.4745 41.84 29.7245 41.84 30.0345Z" fill="#F7C548"/>
<path opacity="0.6" d="M37.3 25.1145C37.3 25.4245 36.86 25.6845 36.3 25.6845C35.74 25.6845 35.3 25.4245 35.3 25.1145C35.3 24.8045 35.74 24.5545 36.3 24.5545C36.86 24.5545 37.3 24.8045 37.3 25.1145Z" fill="#F7C548"/>
<path opacity="0.6" d="M32.1 27.1445C32.1 27.4545 31.66 27.7045 31.1 27.7045C30.54 27.7045 30.1 27.4545 30.1 27.1445C30.1 26.8345 30.54 26.5745 31.1 26.5745C31.66 26.5745 32.1 26.8345 32.1 27.1445Z" fill="#F7C548"/>
<path opacity="0.6" d="M30.14 22.4745C30.14 22.7845 29.7 23.0345 29.14 23.0345C28.58 23.0345 28.14 22.7845 28.14 22.4745C28.14 22.1645 28.58 21.9145 29.14 21.9145C29.7 21.9145 30.14 22.1645 30.14 22.4745Z" fill="#F7C548"/>
<path opacity="0.6" d="M36.48 27.5345C36.48 27.8445 36.04 28.0945 35.48 28.0945C34.92 28.0945 34.48 27.8445 34.48 27.5345C34.48 27.2245 35 26.9645 35.5 26.9645C36 26.9645 36.48 27.2245 36.48 27.5345Z" fill="#F7C548"/>
<path opacity="0.6" d="M36.05 30.8245C36.05 31.1345 35.61 31.3845 35.05 31.3845C34.49 31.3845 34.05 31.1345 34.05 30.8245C34.05 30.5145 34.49 30.2645 35.05 30.2645C35.61 30.2645 36.05 30.5145 36.05 30.8245Z" fill="#F7C548"/>
<path opacity="0.6" d="M40.86 27.7745C40.86 28.0845 40.42 28.3345 39.86 28.3345C39.3 28.3345 38.86 28.0845 38.86 27.7745C38.86 27.4645 39.3 27.2145 39.86 27.2145C40.42 27.2145 40.86 27.4645 40.86 27.7745Z" fill="#F7C548"/>
<path opacity="0.6" d="M47.47 30.6045C47.47 30.9145 47.03 31.1645 46.47 31.1645C45.91 31.1645 45.47 30.9145 45.47 30.6045C45.47 30.2945 45.91 30.0345 46.47 30.0345C47.03 30.0345 47.47 30.2845 47.47 30.6045Z" fill="#F7C548"/>
<path opacity="0.6" d="M40.86 31.9045C40.86 32.2245 40.42 32.4745 39.86 32.4745C39.3 32.4745 38.86 32.2245 38.86 31.9045C38.86 31.5845 39.3 31.3445 39.86 31.3445C40.42 31.3445 40.86 31.5945 40.86 31.9045Z" fill="#F7C548"/>
<path opacity="0.5" d="M27 20.9045C27 21.1245 26.7 21.2945 26.32 21.2945C25.94 21.2945 25.63 21.1245 25.63 20.9045C25.63 20.6845 25.94 20.5145 26.32 20.5145C26.7 20.5145 27 20.6845 27 20.9045Z" fill="#BA7D20"/>
<path opacity="0.5" d="M37.57 27.9645C37.57 28.1745 37.2699 28.3545 36.8899 28.3545C36.5099 28.3545 36.2 28.1745 36.2 27.9645C36.2 27.7545 36.5099 27.5645 36.8899 27.5645C37.2699 27.5645 37.57 27.7245 37.57 27.9645Z" fill="#BA7D20"/>
<path opacity="0.5" d="M32.23 29.0845C32.23 29.2945 31.93 29.4745 31.55 29.4745C31.17 29.4745 30.86 29.2945 30.86 29.0845C30.86 28.8745 31.17 28.6845 31.55 28.6845C31.93 28.6845 32.23 28.8645 32.23 29.0845Z" fill="#BA7D20"/>
<path opacity="0.5" d="M45.12 29.2545C45.12 29.4645 44.81 29.6445 44.43 29.6445C44.05 29.6445 43.74 29.4645 43.74 29.2545C43.74 29.0445 44.05 28.8545 44.43 28.8545C44.81 28.8545 45.12 29.0345 45.12 29.2545Z" fill="#BA7D20"/>
<path opacity="0.5" d="M45.5 32.4745C45.5 32.6845 45.2 32.8645 44.82 32.8645C44.44 32.8645 44.13 32.6845 44.13 32.4745C44.13 32.2645 44.44 32.0745 44.82 32.0745C45.2 32.0745 45.5 32.2545 45.5 32.4745Z" fill="#BA7D20"/>
<path opacity="0.5" d="M39 29.6445C39 29.8645 38.69 30.0345 38.31 30.0345C37.93 30.0345 37.62 29.8645 37.62 29.6445C37.62 29.4245 37.93 29.2545 38.31 29.2545C38.69 29.2545 39 29.4245 39 29.6445Z" fill="#BA7D20"/>
<path opacity="0.5" d="M27.9 25.6845C27.9 25.8945 27.59 26.0745 27.21 26.0745C26.83 26.0745 26.53 25.8945 26.53 25.6845C26.53 25.4745 26.83 25.2845 27.21 25.2845C27.59 25.2845 27.9 25.4645 27.9 25.6845Z" fill="#BA7D20"/>
<path opacity="0.69" d="M28.42 19.5545C28.42 19.7745 28.11 19.9445 27.73 19.9445C27.35 19.9445 27.05 19.7745 27.05 19.5545C27.05 19.3345 27.35 19.1645 27.73 19.1645C28.11 19.1645 28.42 19.3345 28.42 19.5545Z" fill="#FFFBDC"/>
<path opacity="0.69" d="M24.3199 17.9645C24.3199 18.1845 24.0099 18.3645 23.6299 18.3645C23.2499 18.3645 22.9399 18.1845 22.9399 17.9645C22.9399 17.7445 23.2499 17.5745 23.6299 17.5745C24.0099 17.5745 24.3199 17.7645 24.3199 17.9645Z" fill="#FFFBDC"/>
<path opacity="0.69" d="M27 23.0345C27 23.2545 26.7 23.4345 26.32 23.4345C25.94 23.4345 25.63 23.2545 25.63 23.0345C25.63 22.8145 25.94 22.6445 26.32 22.6445C26.7 22.6445 27 22.8245 27 23.0345Z" fill="#FFFBDC"/>
<path opacity="0.69" d="M25 21.6845C25 21.9045 24.69 22.0845 24.31 22.0845C23.93 22.0845 23.62 21.9045 23.62 21.6845C23.62 21.4645 23.93 21.2945 24.31 21.2945C24.69 21.2945 25 21.4745 25 21.6845Z" fill="#FFFBDC"/>
<path opacity="0.69" d="M47.4401 32.8645C47.4401 33.0845 47.1301 33.2545 46.7501 33.2545C46.3701 33.2545 46.0601 33.0845 46.0601 32.8645C46.0601 32.6445 46.3701 32.4745 46.7501 32.4745C47.1301 32.4745 47.4401 32.6445 47.4401 32.8645Z" fill="#FFFBDC"/>
<path opacity="0.69" d="M30.39 24.9645C30.39 25.1845 30.08 25.3645 29.7 25.3645C29.32 25.3645 29 25.1645 29 24.9645C29 24.7645 29.31 24.5745 29.69 24.5745C30.07 24.5745 30.39 24.7345 30.39 24.9645Z" fill="#FFFBDC"/>
<path opacity="0.69" d="M34.08 29.0845C34.08 29.2945 33.7699 29.4745 33.3899 29.4745C33.0099 29.4745 32.7 29.2945 32.7 29.0845C32.7 28.8745 33.0099 28.6845 33.3899 28.6845C33.7699 28.6845 34.08 28.8645 34.08 29.0845Z" fill="#FFFBDC"/>
<path opacity="0.69" d="M29.84 27.7045C29.84 27.9245 29.54 28.0945 29.16 28.0945C28.78 28.0945 28.47 27.9245 28.47 27.7045C28.47 27.4845 28.78 27.3045 29.16 27.3045C29.54 27.3045 29.84 27.4845 29.84 27.7045Z" fill="#FFFBDC"/>
<path opacity="0.69" d="M35.46 23.4345C35.46 23.6445 35.15 23.8245 34.77 23.8245C34.39 23.8245 34.08 23.6445 34.08 23.4345C34.08 23.2245 34.39 23.0345 34.77 23.0345C35.15 23.0345 35.46 23.2145 35.46 23.4345Z" fill="#FFFBDC"/>
<path opacity="0.69" d="M42.41 28.7245C42.791 28.7245 43.1 28.5499 43.1 28.3345C43.1 28.1192 42.791 27.9445 42.41 27.9445C42.0289 27.9445 41.72 28.1192 41.72 28.3345C41.72 28.5499 42.0289 28.7245 42.41 28.7245Z" fill="#FFFBDC"/>
<path opacity="0.69" d="M39 26.1845C39 26.4045 38.69 26.5745 38.31 26.5745C37.93 26.5745 37.62 26.4045 37.62 26.1845C37.62 25.9645 37.93 25.7945 38.31 25.7945C38.69 25.7945 39 25.9645 39 26.1845Z" fill="#FFFBDC"/>
<path opacity="0.69" d="M34.08 25.7945C34.08 26.0045 33.7699 26.1845 33.3899 26.1845C33.0099 26.1845 32.7 26.0045 32.7 25.7945C32.7 25.5845 33.0099 25.3945 33.3899 25.3945C33.7699 25.3945 34.08 25.5745 34.08 25.7945Z" fill="#FFFBDC"/>
<path opacity="0.69" d="M44.43 30.8245C44.43 31.0445 44.1201 31.2245 43.7401 31.2245C43.3601 31.2245 43.05 31.0445 43.05 30.8245C43.05 30.6045 43.3601 30.4345 43.7401 30.4345C44.1201 30.4345 44.43 30.6045 44.43 30.8245Z" fill="#FFFBDC"/>
<path opacity="0.6" d="M32.45 33.8245C32.45 34.1345 32.01 34.3845 31.45 34.3845C30.89 34.3845 30.45 34.1345 30.45 33.8245C30.45 33.5145 30.89 33.2545 31.45 33.2545C32.01 33.2545 32.45 33.5145 32.45 33.8245Z" fill="#F7C548"/>
<path opacity="0.6" d="M25 32.4745C25 32.7845 24.56 33.0345 24 33.0345C23.44 33.0345 23 32.7845 23 32.4745C23 32.1645 23.44 31.9045 24 31.9045C24.56 31.9045 25 32.1645 25 32.4745Z" fill="#F7C548"/>
<path opacity="0.6" d="M23 29.8745C23 30.1845 22.56 30.4345 22 30.4345C21.44 30.4345 21 30.1845 21 29.8745C21 29.5645 21.44 29.3145 22 29.3145C22.56 29.3145 23 29.5645 23 29.8745Z" fill="#F7C548"/>
<path opacity="0.6" d="M36.8199 34.2145C36.8199 34.5245 36.3799 34.7745 35.8199 34.7745C35.2599 34.7745 34.8199 34.5245 34.8199 34.2145C34.8199 33.9045 35.2599 33.6545 35.8199 33.6545C36.3799 33.6545 36.8199 33.9045 36.8199 34.2145Z" fill="#F7C548"/>
<path opacity="0.6" d="M36.39 37.5045C36.39 37.8145 35.95 38.0645 35.39 38.0645C34.83 38.0645 34.39 37.8145 34.39 37.5045C34.39 37.1945 34.83 36.9445 35.39 36.9445C35.95 36.9445 36.39 37.1945 36.39 37.5045Z" fill="#F7C548"/>
<path opacity="0.6" d="M30 28.4645C30 28.7745 29.56 29.0245 29 29.0245C28.44 29.0245 28 28.7745 28 28.4645C28 28.1545 28.44 27.9045 29 27.9045C29.56 27.9045 30 28.1545 30 28.4645Z" fill="#F7C548"/>
<path opacity="0.6" d="M41.2 34.4545C41.2 34.7645 40.76 35.0145 40.2 35.0145C39.64 35.0145 39.2 34.7645 39.2 34.4545C39.2 34.1445 39.64 33.8945 40.2 33.8945C40.76 33.8945 41.2 34.1445 41.2 34.4545Z" fill="#F7C548"/>
<path opacity="0.6" d="M30.73 36.3245C30.73 36.6345 30.29 36.8845 29.73 36.8845C29.17 36.8845 28.73 36.6345 28.73 36.3245C28.73 36.0145 29.17 35.7645 29.73 35.7645C30.29 35.7645 30.73 36.0145 30.73 36.3245Z" fill="#F7C548"/>
<path opacity="0.5" d="M37.92 34.6245C37.92 34.8345 37.61 35.0145 37.23 35.0145C36.85 35.0145 36.54 34.8345 36.54 34.6245C36.54 34.4145 36.85 34.2245 37.23 34.2245C37.61 34.2245 37.92 34.4045 37.92 34.6245Z" fill="#BA7D20"/>
<path opacity="0.5" d="M34.42 33.1645C34.42 33.3845 34.1201 33.5645 33.7401 33.5645C33.3601 33.5645 33.05 33.3845 33.05 33.1645C33.05 32.9445 33.3601 32.7745 33.7401 32.7745C34.1201 32.7745 34.42 32.9645 34.42 33.1645Z" fill="#BA7D20"/>
<path opacity="0.5" d="M27.9 34.2145C27.9 34.4345 27.59 34.6045 27.21 34.6045C26.83 34.6045 26.53 34.4345 26.53 34.2145C26.53 33.9945 26.83 33.8245 27.21 33.8245C27.59 33.8245 27.9 33.9645 27.9 34.2145Z" fill="#BA7D20"/>
<path opacity="0.5" d="M23.53 31.6245C23.53 31.8345 23.22 32.0145 22.84 32.0145C22.46 32.0145 22.15 31.8345 22.15 31.6245C22.15 31.4145 22.46 31.2245 22.84 31.2245C23.22 31.2245 23.53 31.4045 23.53 31.6245Z" fill="#BA7D20"/>
<path opacity="0.5" d="M41.49 36.4845C41.49 36.6945 41.18 36.8745 40.8 36.8745C40.42 36.8745 40.11 36.6945 40.11 36.4845C40.11 36.2745 40.42 36.0845 40.8 36.0845C41.18 36.0845 41.49 36.2645 41.49 36.4845Z" fill="#BA7D20"/>
<path opacity="0.5" d="M32.58 35.7645C32.58 35.9845 32.2699 36.1545 31.8899 36.1545C31.5099 36.1545 31.2 35.9845 31.2 35.7645C31.2 35.5445 31.5099 35.3645 31.8899 35.3645C32.2699 35.3645 32.58 35.5445 32.58 35.7645Z" fill="#BA7D20"/>
<path opacity="0.5" d="M39.29 36.3245C39.29 36.5445 38.99 36.7145 38.61 36.7145C38.23 36.7145 37.92 36.5445 37.92 36.3245C37.92 36.1045 38.23 35.9345 38.61 35.9345C38.99 35.9345 39.29 36.1045 39.29 36.3245Z" fill="#BA7D20"/>
<path opacity="0.69" d="M34.42 35.7645C34.42 35.9845 34.1201 36.1545 33.7401 36.1545C33.3601 36.1545 33.05 35.9845 33.05 35.7645C33.05 35.5445 33.3601 35.3645 33.7401 35.3645C34.1201 35.3645 34.42 35.5445 34.42 35.7645Z" fill="#FFFBDC"/>
<path opacity="0.69" d="M30.1901 34.3845C30.1901 34.6045 29.8801 34.7745 29.5001 34.7745C29.1201 34.7745 28.8101 34.6045 28.8101 34.3845C28.8101 34.1645 29.1201 33.9945 29.5001 33.9945C29.8801 33.9945 30.1901 34.1645 30.1901 34.3845Z" fill="#FFFBDC"/>
<path opacity="0.69" d="M19.9 29.2545C19.9 29.4645 19.59 29.6445 19.21 29.6445C18.83 29.6445 18.52 29.4645 18.52 29.2545C18.52 29.0445 18.83 28.8545 19.21 28.8545C19.59 28.8545 19.9 29.0345 19.9 29.2545Z" fill="#FFFBDC"/>
<path opacity="0.69" d="M43.4401 35.0145C43.4401 35.2345 43.1301 35.4045 42.7501 35.4045C42.3701 35.4045 42.0601 35.2345 42.0601 35.0145C42.0601 34.7945 42.3701 34.6245 42.7501 34.6245C43.1301 34.6245 43.4401 34.7945 43.4401 35.0145Z" fill="#FFFBDC"/>
<path opacity="0.69" d="M39.29 32.8645C39.29 33.0845 38.99 33.2545 38.61 33.2545C38.23 33.2545 37.92 33.0845 37.92 32.8645C37.92 32.6445 38.23 32.4745 38.61 32.4745C38.99 32.4745 39.29 32.6445 39.29 32.8645Z" fill="#FFFBDC"/>
<path opacity="0.69" d="M28.51 35.3645C28.51 35.5845 28.2 35.7645 27.82 35.7645C27.44 35.7645 27.13 35.5845 27.13 35.3645C27.13 35.1445 27.44 34.9745 27.82 34.9745C28.2 34.9745 28.51 35.1545 28.51 35.3645Z" fill="#FFFBDC"/>
<path opacity="0.69" d="M33 37.9045C33 38.1145 32.69 38.2945 32.31 38.2945C31.93 38.2945 31.62 38.1145 31.62 37.9045C31.62 37.6945 31.93 37.5045 32.31 37.5045C32.69 37.5045 33 37.6845 33 37.9045Z" fill="#FFFBDC"/>
<path opacity="0.69" d="M37.92 38.2945C38.3011 38.2945 38.61 38.1199 38.61 37.9045C38.61 37.6892 38.3011 37.5145 37.92 37.5145C37.5389 37.5145 37.23 37.6892 37.23 37.9045C37.23 38.1199 37.5389 38.2945 37.92 38.2945Z" fill="#FFFBDC"/>
<path opacity="0.69" d="M37.08 38.9645C37.08 39.1845 36.7699 39.3545 36.3899 39.3545C36.0099 39.3545 35.7 39.1845 35.7 38.9645C35.7 38.7445 36.0099 38.5745 36.3899 38.5745C36.7699 38.5745 37.08 38.6945 37.08 38.9645Z" fill="#FFFBDC"/>
<path opacity="0.5" d="M34.62 39.3045C34.62 39.5245 34.31 39.7045 33.93 39.7045C33.55 39.7045 33.24 39.5245 33.24 39.3045C33.24 39.0845 33.55 38.9145 33.93 38.9145C34.31 38.9145 34.62 39.0945 34.62 39.3045Z" fill="#BA7D20"/>
<path opacity="0.5" d="M36.89 36.0845C36.89 36.3045 36.58 36.4845 36.2 36.4845C35.82 36.4845 35.51 36.3045 35.51 36.0845C35.51 35.8645 35.82 35.6945 36.2 35.6945C36.58 35.6945 36.89 35.8745 36.89 36.0845Z" fill="#BA7D20"/>
<path opacity="0.6" d="M44.4 33.8445C44.4 34.1545 43.96 34.4145 43.4 34.4145C42.84 34.4145 42.4 34.1545 42.4 33.8445C42.4 33.5345 42.84 33.2845 43.4 33.2845C43.96 33.2845 44.4 33.5345 44.4 33.8445Z" fill="#F7C548"/>
<path opacity="0.6" d="M27.5 27.8445C27.5 28.1545 27.06 28.4045 26.5 28.4045C25.94 28.4045 25.5 28.1545 25.5 27.8445C25.5 27.5345 25.94 27.2845 26.5 27.2845C27.06 27.2845 27.5 27.5345 27.5 27.8445Z" fill="#F7C548"/>
<path opacity="0.6" d="M26.42 33.8445C26.42 34.1545 25.98 34.4145 25.42 34.4145C24.86 34.4145 24.42 34.1545 24.42 33.8445C24.42 33.5345 24.86 33.2845 25.42 33.2845C25.98 33.2845 26.42 33.5345 26.42 33.8445Z" fill="#F7C548"/>
<path opacity="0.5" d="M25.15 26.4945C25.15 26.7145 24.84 26.8845 24.46 26.8845C24.08 26.8845 23.77 26.7145 23.77 26.4945C23.77 26.2745 24.08 26.0945 24.46 26.0945C24.84 26.0945 25.15 26.2745 25.15 26.4945Z" fill="#BA7D20"/>
<path opacity="0.5" d="M25.53 29.7145C25.53 29.9345 25.23 30.1045 24.85 30.1045C24.47 30.1045 24.16 29.9345 24.16 29.7145C24.16 29.4945 24.47 29.3245 24.85 29.3245C25.23 29.3245 25.53 29.4945 25.53 29.7145Z" fill="#BA7D20"/>
<path opacity="0.69" d="M27.47 30.1045C27.47 30.3245 27.16 30.5045 26.78 30.5045C26.4 30.5045 26.09 30.3245 26.09 30.1045C26.09 29.8845 26.4 29.7145 26.78 29.7145C27.16 29.7145 27.47 29.8945 27.47 30.1045Z" fill="#FFFBDC"/>
<path opacity="0.69" d="M24.46 28.0645C24.46 28.2845 24.15 28.4645 23.77 28.4645C23.39 28.4645 23.08 28.2845 23.08 28.0645C23.08 27.8445 23.39 27.6745 23.77 27.6745C24.15 27.6745 24.46 27.8545 24.46 28.0645Z" fill="#FFFBDC"/>
<path opacity="0.69" d="M42.53 32.4745C42.53 32.6845 42.22 32.8645 41.84 32.8645C41.46 32.8645 41.15 32.6845 41.15 32.4745C41.15 32.2645 41.46 32.0745 41.84 32.0745C42.22 32.0745 42.53 32.2545 42.53 32.4745Z" fill="#FFFBDC"/>
<path opacity="0.69" d="M38.26 31.2245C38.26 31.4345 37.95 31.6145 37.57 31.6145C37.19 31.6145 36.89 31.4345 36.89 31.2245C36.89 31.0145 37.19 30.8245 37.57 30.8245C37.95 30.8245 38.26 30.9645 38.26 31.2245Z" fill="#FFFBDC"/>
<path opacity="0.69" d="M37.17 32.4745C37.17 32.6845 36.86 32.8645 36.48 32.8645C36.1 32.8645 35.79 32.6845 35.79 32.4745C35.79 32.2645 36.1 32.0745 36.48 32.0745C36.86 32.0745 37.17 32.2545 37.17 32.4745Z" fill="#FFFBDC"/>
<path opacity="0.69" d="M32.28 22.0845C32.28 22.2945 31.97 22.4745 31.59 22.4745C31.21 22.4745 30.91 22.2945 30.91 22.0845C30.91 21.8745 31.21 21.6845 31.59 21.6845C31.97 21.6845 32.28 21.8645 32.28 22.0845Z" fill="#FFFBDC"/>
<path opacity="0.69" d="M32.79 31.6145C32.79 31.8345 32.48 32.0045 32.1 32.0045C31.72 32.0045 31.42 31.8345 31.42 31.6145C31.42 31.3945 31.72 31.2245 32.1 31.2245C32.48 31.2245 32.79 31.3945 32.79 31.6145Z" fill="#FFFBDC"/>
<path opacity="0.69" d="M28.8001 31.2245C28.8001 31.4445 28.5001 31.6245 28.1201 31.6245C27.7401 31.6245 27.4301 31.4445 27.4301 31.2245C27.4301 31.0045 27.7401 30.8345 28.1201 30.8345C28.5001 30.8345 28.8001 30.9645 28.8001 31.2245Z" fill="#FFFBDC"/>
<path opacity="0.69" d="M26.8101 31.9045C26.8101 32.1245 26.5001 32.3045 26.1201 32.3045C25.7401 32.3045 25.4301 32.1245 25.4301 31.9045C25.4301 31.6845 25.7401 31.5145 26.1201 31.5145C26.5001 31.5145 26.8101 31.6945 26.8101 31.9045Z" fill="#FFFBDC"/>
<path opacity="0.69" d="M26.66 18.1445C26.66 18.3645 26.35 18.5445 25.97 18.5445C25.59 18.5445 25.28 18.3645 25.28 18.1445C25.28 17.9245 25.59 17.7545 25.97 17.7545C26.35 17.7545 26.66 17.9645 26.66 18.1445Z" fill="#FFFBDC"/>
<path opacity="0.5" d="M34.77 22.4745C34.77 22.6945 34.46 22.8645 34.08 22.8645C33.7 22.8645 33.39 22.6945 33.39 22.4745C33.39 22.2545 33.7 22.0845 34.08 22.0845C34.46 22.0845 34.77 22.2545 34.77 22.4745Z" fill="#BA7D20"/>
<path opacity="0.5" d="M29.79 30.2645C29.79 30.4845 29.48 30.6545 29.1 30.6545C28.72 30.6545 28.41 30.4845 28.41 30.2645C28.41 30.0445 28.72 29.8745 29.1 29.8745C29.48 29.8745 29.79 30.0445 29.79 30.2645Z" fill="#BA7D20"/>
</svg>
