<svg width="74" height="52" viewBox="0 0 74 52" fill="none" xmlns="http://www.w3.org/2000/svg">
<path d="M71.92 25.84L71.87 31.03L36.83 51.39L36.88 46.01L37.41 44.92L69.69 26.4L71.92 25.84Z" fill="#507603"/>
<path d="M65.76 30.9C63.5852 31.7207 61.6184 33.0114 60 34.68C58.24 36.32 56.79 38.88 53 40.11C50.63 40.87 48.43 41.11 47.36 41.45C46.1632 41.912 45.0789 42.6246 44.18 43.54C42.1 45.46 38.85 49.21 36.89 49.54V51.37L71.87 31V29.18C71 29.41 67.6 30.37 65.76 30.9Z" fill="#996333"/>
<path d="M71.92 25.87C71.92 26.21 71.39 26.76 71.12 26.87C70.7758 26.9962 70.4156 27.0736 70.05 27.1C69.9416 27.1086 69.8361 27.1392 69.74 27.19C69.6767 27.232 69.6195 27.2825 69.57 27.34C68.8085 28.0656 67.9421 28.6724 67 29.14L65.61 29.92C65.3702 30.0807 65.0963 30.1834 64.81 30.22C64.57 30.22 64.29 30.15 64.14 30.33C64.0901 30.4047 64.0498 30.4853 64.02 30.57C63.8895 30.7845 63.698 30.9551 63.47 31.06L62.47 31.63C62.2883 31.7518 62.0844 31.8368 61.87 31.88C61.44 31.94 61.43 31.98 61.19 32.34C61.0042 32.6273 60.7861 32.8923 60.54 33.13C59.8833 33.6364 59.1266 33.9977 58.32 34.19C57.8374 34.3049 57.363 34.4519 56.9 34.63C56.5878 34.8271 56.319 35.0857 56.11 35.39C55.8492 35.7165 55.4736 35.9311 55.06 35.99C54.9087 35.9543 54.7512 35.9543 54.6 35.99C54.5068 36.0434 54.4253 36.1148 54.36 36.2C54.0555 36.4748 53.7198 36.7131 53.36 36.91L51.77 37.91C51.5064 38.0741 51.2325 38.2211 50.95 38.35C50.6714 38.435 50.3976 38.5351 50.13 38.65C49.8769 38.8113 49.6592 39.0222 49.49 39.27C49.0877 39.6714 48.5637 39.9281 48 40C47.8753 40.0133 47.7537 40.0471 47.64 40.1C47.5255 40.1844 47.4244 40.2855 47.34 40.4C46.661 41.1447 45.8376 41.7435 44.92 42.16C44.5782 42.3581 44.2068 42.5 43.82 42.58C43.6139 42.5954 43.4115 42.6426 43.22 42.72C42.74 42.96 42.47 43.48 41.99 43.72C41.51 43.96 40.93 44.4 40.41 44.72C40.0116 44.9791 39.5898 45.2001 39.15 45.38C38.7506 45.4442 38.3587 45.548 37.98 45.69C37.8876 45.7643 37.8067 45.852 37.74 45.95C37.5863 46.1507 37.3693 46.2935 37.1242 46.3552C36.8791 46.417 36.6203 46.394 36.39 46.29C35.6475 46.0623 34.9431 45.7253 34.3 45.29C33.9793 45.0663 33.6842 44.8081 33.42 44.52C33.286 44.3985 33.127 44.3078 32.9543 44.2543C32.7815 44.2007 32.5992 44.1856 32.42 44.21C32.0459 44.1418 31.699 43.9683 31.42 43.71C31.2293 43.5774 31.0577 43.4193 30.91 43.24C30.7411 43.0043 30.4982 42.8318 30.22 42.75C29.8888 42.6093 29.5764 42.4279 29.29 42.21C29.2533 42.1938 29.2202 42.1704 29.1928 42.1412C29.1653 42.112 29.1439 42.0776 29.13 42.04C29.13 42.04 29.13 41.95 29.08 41.92C29.0472 41.9111 29.0127 41.9111 28.98 41.92C28.2899 41.6826 27.6264 41.3743 27 41C26.6786 40.8292 26.368 40.6388 26.07 40.43C25.8134 40.2943 25.5963 40.0945 25.44 39.85L25.39 39.78C25.3636 39.7746 25.3364 39.7746 25.31 39.78C25.09 39.73 24.87 39.68 24.66 39.61C23.6595 39.1668 22.7557 38.5314 22 37.74C21.9435 37.6851 21.875 37.644 21.8 37.62C21.4603 37.5794 21.1253 37.5057 20.8 37.4C20.4438 37.2733 20.1408 37.0302 19.94 36.71C19.88 36.6 19.82 36.46 19.7 36.43C19.6505 36.42 19.5995 36.42 19.55 36.43C19.2615 36.4024 18.9904 36.2792 18.78 36.08C18.4679 35.8271 18.112 35.6339 17.73 35.51C17.55 35.51 17.36 35.44 17.18 35.39C16.9792 35.3246 16.7877 35.2339 16.61 35.12C16.3984 34.9974 16.1976 34.8568 16.01 34.7C15.63 34.37 15.37 33.78 14.87 33.7C13.5697 33.4332 12.4009 32.727 11.56 31.7C11.5111 31.6361 11.4539 31.5789 11.39 31.53C11.3385 31.4934 11.2809 31.4663 11.22 31.45C10.7597 31.3327 10.3085 31.1823 9.86997 31C9.69371 30.8891 9.52347 30.7689 9.35997 30.64C8.88629 30.4266 8.44524 30.1471 8.04997 29.81C7.88997 29.62 7.77997 29.38 7.56997 29.26C6.86997 28.85 5.93997 29.01 5.47997 28.19C4.99287 28.1266 4.51777 27.9919 4.06997 27.79C3.85138 27.7065 3.64594 27.592 3.45997 27.45C3.20997 27.23 3.03997 26.99 2.76997 26.78C2.49997 26.57 2.38997 26.5 2.18997 26.37L1.87997 26.2L1.70997 26.12C1.70997 26.12 1.60997 26.03 1.61997 26.01C1.66581 25.9028 1.74698 25.8146 1.84997 25.76C1.94557 25.7044 2.0507 25.6671 2.15997 25.65C2.20949 25.6597 2.26044 25.6597 2.30997 25.65C2.36125 25.6285 2.40606 25.5941 2.43997 25.55C2.91738 25.0138 3.53322 24.6194 4.21997 24.41C4.5405 24.3058 4.85441 24.1822 5.15997 24.04C5.38984 23.9476 5.61362 23.8407 5.82997 23.72L6.52997 23.35C6.70305 23.2922 6.86284 23.2004 6.99997 23.08C7.08539 22.9483 7.18245 22.8244 7.28997 22.71L7.59997 22.49C7.72329 22.3888 7.85744 22.3016 7.99997 22.23C8.47997 22 8.99997 21.78 9.41997 21.51C9.89663 21.261 10.3998 21.0665 10.92 20.93C10.9694 20.9128 11.0165 20.8892 11.06 20.86C11.0953 20.828 11.1256 20.7909 11.15 20.75C11.4048 20.3568 11.7411 20.0229 12.1362 19.771C12.5313 19.5191 12.9759 19.3551 13.44 19.29C13.4512 19.2247 13.4778 19.1629 13.5175 19.1098C13.5573 19.0567 13.609 19.0138 13.6685 18.9845C13.728 18.9552 13.7936 18.9405 13.8599 18.9414C13.9262 18.9424 13.9913 18.959 14.05 18.99C14.16 18.59 14.6 18.41 14.98 18.26C15.36 18.11 15.51 18.14 15.76 18.01C16.0364 17.873 16.2922 17.698 16.52 17.49C16.8684 17.1333 17.2539 16.8148 17.67 16.54C18.1 16.29 18.6 16.18 19.05 15.97C19.5 15.76 19.85 15.51 20.26 15.28C20.6575 15.0386 21.1149 14.9139 21.58 14.92C21.6416 14.9406 21.7083 14.9406 21.77 14.92C21.8081 14.8809 21.8357 14.8327 21.85 14.78C22.0264 14.3337 22.3243 13.9457 22.71 13.66C22.8979 13.5469 23.0915 13.4434 23.29 13.35C23.5273 13.1734 23.7512 12.9796 23.96 12.77C24.8069 12.0407 25.7794 11.4714 26.83 11.09C27.5339 10.938 28.209 10.6747 28.83 10.31C29.1639 10.0342 29.4628 9.71852 29.72 9.37C30.3029 8.5739 31.1441 8.00484 32.1 7.76C32.3967 7.7034 32.6979 7.67328 33 7.67C33.2319 7.66973 33.462 7.62912 33.68 7.55C34.0524 7.30871 34.4097 7.04489 34.75 6.76C35.2543 6.42539 35.7862 6.13433 36.34 5.89C37.07 5.58 38.34 6.44 38.53 7.15C38.737 7.0544 38.9666 7.01871 39.1928 7.04699C39.4191 7.07527 39.6329 7.16639 39.81 7.31C39.98 7.45 40.1 7.64 40.27 7.78C40.4607 7.9052 40.6699 7.99969 40.89 8.06C42.5019 8.49273 43.9669 9.35307 45.13 10.55C45.2334 10.6983 45.3751 10.8158 45.54 10.89C45.643 10.901 45.7469 10.901 45.85 10.89C46.0656 10.9227 46.2699 11.0082 46.4444 11.1391C46.6189 11.27 46.7582 11.4421 46.85 11.64C46.8704 11.7144 46.9081 11.7829 46.96 11.84C47.0128 11.8806 47.0745 11.908 47.14 11.92C48.1664 12.2291 49.1333 12.7092 50 13.34C50.21 13.49 50.43 13.84 50.64 13.94C50.7621 13.9834 50.8904 14.007 51.02 14.01C51.6508 14.134 52.2517 14.3784 52.79 14.73C53.0108 14.8218 53.2165 14.9466 53.4 15.1C53.5664 15.3182 53.7577 15.5162 53.97 15.69C54.3185 15.8398 54.6848 15.944 55.06 16C55.3626 16.1236 55.6429 16.2959 55.89 16.51L56.89 17.33C56.9911 17.4158 57.1019 17.4896 57.22 17.55C57.307 17.5858 57.3975 17.6126 57.49 17.63C58.534 17.9116 59.4748 18.4879 60.2 19.29C60.2496 19.3596 60.3104 19.4204 60.38 19.47C60.6 19.62 60.88 19.56 61.13 19.62C61.4411 19.728 61.7369 19.8759 62.01 20.06C62.6472 20.3792 63.2363 20.7865 63.76 21.27C63.7914 21.3115 63.8284 21.3485 63.87 21.38C63.9643 21.4099 64.0656 21.4099 64.16 21.38C64.3494 21.3617 64.5395 21.4068 64.7005 21.5081C64.8616 21.6095 64.9845 21.7613 65.05 21.94C65.0548 21.9948 65.0757 22.047 65.11 22.09C65.1351 22.1142 65.1661 22.1315 65.2 22.14C65.73 22.35 66.2 22.58 66.79 22.79C67.3902 22.9652 67.9257 23.3129 68.33 23.79C68.4038 23.9258 68.4874 24.0562 68.58 24.18C68.7039 24.3118 68.8452 24.4262 69 24.52C69.4879 24.8648 70.0192 25.1438 70.58 25.35C70.89 25.45 71.43 25.24 71.7 25.53C71.7943 25.6283 71.8689 25.7437 71.92 25.87Z" fill="#8FBB02"/>
<path d="M62.17 30.84C62.3563 30.8553 62.5436 30.8553 62.73 30.84C64.6092 28.9872 66.979 27.7104 69.56 27.16C70.25 26.41 71.43 26.64 71.89 25.87C71.81 25.56 71.15 24.23 71.14 23.98C71.0942 23.2501 71.1651 22.5176 71.35 21.81C71.8516 20.2035 72.5825 18.6777 73.52 17.28C72.7961 17.4771 72.1029 17.7732 71.46 18.16C70.7083 18.918 70.038 19.7525 69.46 20.65C69.0771 18.3797 69.4942 16.0469 70.64 14.05C70.3745 14.0918 70.1224 14.1949 69.9037 14.3512C69.685 14.5074 69.5057 14.7124 69.38 14.95C68.5914 16.0628 68.012 17.3097 67.67 18.63C67.6468 17.3868 67.7137 16.1435 67.87 14.91C67.9969 13.6713 67.6893 12.427 67 11.39C67.1332 12.9382 66.9978 14.4978 66.6 16C66.1727 17.5198 65.2147 18.8361 63.9 19.71C63.5 19.96 63.31 16.77 63.4 16.47C63.8179 15.3286 64.4377 14.2718 65.23 13.35C64.4602 13.5795 63.7456 13.964 63.1299 14.48C62.5142 14.9959 62.0106 15.6323 61.65 16.35C61.6301 14.6191 62.098 12.9175 63 11.44C61.436 12.5594 60.1888 14.065 59.38 15.81C60.0229 14.2936 60.2373 12.6299 60 11C59.823 11.8847 59.4652 12.7233 58.949 13.4633C58.4328 14.2032 57.7692 14.8285 57 15.3C57.5682 14.4784 57.9518 13.5435 58.1244 12.5596C58.2971 11.5756 58.2546 10.566 58 9.6C57.64 10.35 57.38 11.18 57 11.92C56.8071 12.3165 56.5541 12.6808 56.25 13C56.1 13.15 55.35 13.49 55.31 13.62C56.03 11.62 56.77 9.37 56.14 7.29C55.8067 8.76548 55.1204 10.1381 54.14 11.29C54.4592 10.0928 54.6206 8.85902 54.62 7.62C53.3837 8.73882 52.4513 10.1529 51.91 11.73C51.7 9.87 53.34 4.87 55.84 4.93C54.4426 4.99914 53.0921 5.45623 51.94 6.25C50.94 6.82 49.94 7.69 50.08 8.8C49.8205 7.61838 49.8018 6.39657 50.0252 5.20759C50.2485 4.01861 50.7093 2.88687 51.38 1.88C50.2579 2.64526 49.3416 3.67508 48.712 4.8785C48.0824 6.08191 47.7589 7.42187 47.77 8.78C47.77 7.12 47.64 5.27 46.42 4.14C46.91 6.58 46.19 8.57 45.12 10.69C45.0601 9.18401 44.8388 7.68879 44.46 6.23C44.34 7.3 43.85 9 42.84 9.6C41.84 8.15 41.79 4.07 43.49 2.95C42.342 3.69837 41.4082 4.73214 40.78 5.95C40.3878 3.8828 40.7799 1.74362 41.88 -0.0500031C40.1816 1.35895 38.9881 3.28257 38.48 5.43C38.5496 4.96635 38.5069 4.49278 38.3555 4.04906C38.2041 3.60534 37.9484 3.20443 37.61 2.88C37.5906 3.91742 37.2899 4.93012 36.74 5.81C36.5446 4.97488 36.2063 4.17984 35.74 3.46C34.9262 2.45236 33.8698 1.66785 32.67 1.18C32.67 1.18 34.79 3.43 35.1 5.18C35.266 5.95583 35.2315 6.76116 35 7.52C34.5674 8.44139 33.8714 9.21391 33 9.74C32.76 9.92 31.62 10.62 31.54 10.66C30.9324 11.0015 30.3479 11.3823 29.79 11.8C29.4001 12.1148 29.0448 12.4701 28.73 12.86L28.81 12.91C29.01 13.04 29.2 13.18 29.39 13.32C29.58 13.46 29.83 13.77 30.09 13.99C30.271 14.1339 30.4735 14.2486 30.69 14.33C31.1435 14.5236 31.6212 14.6548 32.11 14.72C32.57 15.55 33.49 15.38 34.19 15.79C34.41 15.91 34.51 16.15 34.67 16.34C35.069 16.6748 35.5092 16.9571 35.98 17.18C36.16 17.29 36.31 17.43 36.5 17.53C36.9151 17.6927 37.3433 17.8198 37.78 17.91C37.8589 17.9239 37.9339 17.9546 38 18C38.0605 18.0456 38.1144 18.0994 38.16 18.16C39.0009 19.1869 40.1697 19.8932 41.47 20.16C41.97 20.26 42.24 20.85 42.61 21.16C42.7926 21.3234 42.994 21.4644 43.21 21.58C43.3877 21.6939 43.5793 21.7846 43.78 21.85C43.96 21.91 44.15 21.92 44.33 21.97C44.7139 22.0894 45.0707 22.2831 45.38 22.54L45.66 22.73C47.12 22.84 47.98 23.79 49.28 24.73C50.1 25.34 51.11 25.57 51.92 26.18C52.35 26.51 52.75 26.86 53.14 27.18L53.49 27.35L53.67 27.46C53.99 27.63 54.31 27.8 54.67 27.94L55.88 28.56L55.98 28.65C56.2704 28.859 56.5821 29.0367 56.91 29.18C57.1875 29.2632 57.43 29.4354 57.6 29.67C57.7526 29.8445 57.9236 30.0021 58.11 30.14C58.389 30.3983 58.7359 30.5718 59.11 30.64C59.5 30.64 59.78 30.64 60.11 30.96L60.56 31.39C60.7538 31.1616 61.0057 30.9899 61.2892 30.8931C61.5726 30.7962 61.877 30.7779 62.17 30.84Z" fill="#8FBB02"/>
<path d="M40.64 18L40.79 18.13C42.2651 19.2798 43.9074 20.1971 45.66 20.85C46.81 21.34 48.88 22.9 50.11 22.36C50.5979 22.0943 51.0658 21.7935 51.51 21.46C52.143 21.0757 52.8608 20.8529 53.6001 20.811C54.3394 20.7692 55.0777 20.9096 55.75 21.22C55.4608 20.6067 55.0433 20.0625 54.5258 19.6244C54.0082 19.1862 53.4027 18.8641 52.75 18.68C53.6959 18.3517 54.6889 18.1794 55.69 18.17C54.2644 17.4967 52.6331 17.4035 51.14 17.91C52.79 16.5067 54.8407 15.6598 57 15.49C54.64 14.33 51.85 15.05 49.34 15.82C49.9701 14.8863 50.7802 14.0877 51.7229 13.4712C52.6657 12.8548 53.722 12.4328 54.83 12.23C53.1259 11.951 51.3797 12.0883 49.74 12.63C51.1011 11.24 52.8906 10.3488 54.82 10.1C53.28 9.1 51.26 9.47 49.46 9.88C50.8037 8.50209 51.6121 6.69031 51.74 4.77C51.0639 6.35572 49.9374 7.70824 48.5 8.66C49.88 7.3 49.67 5.06 49.37 3.16C49.1308 4.83182 48.3878 6.39106 47.24 7.63C47.3623 5.90596 46.8303 4.19917 45.75 2.85C46.0098 3.55285 46.0669 4.31453 45.9148 5.04826C45.7628 5.78198 45.4077 6.45824 44.89 7C44.6008 5.58017 44.6384 4.11313 45 2.71C43.6272 3.93239 42.7903 5.64574 42.67 7.48C42.5728 5.7851 42.8037 4.08737 43.35 2.48C43.11 3.18 42.18 3.87 41.85 4.61C41.5298 5.50214 41.3346 6.43432 41.27 7.38C41.2413 6.48902 40.9157 5.63318 40.345 4.94835C39.7743 4.26353 38.9912 3.78896 38.12 3.6C38.3764 3.83465 38.5797 4.12137 38.7163 4.44097C38.8529 4.76056 38.9197 5.10565 38.9121 5.45313C38.9045 5.80062 38.8228 6.14247 38.6724 6.45581C38.522 6.76915 38.3064 7.04674 38.04 7.27C37.69 7.63 37.27 7.91 36.89 8.27C36.1493 8.81082 35.6169 9.58979 35.382 10.4764C35.1472 11.363 35.2241 12.3034 35.6 13.14C36.0838 14.0373 36.7683 14.8107 37.6 15.4L40.64 18Z" fill="#6C9905"/>
<path d="M68.45 26.2V26.14C68.45 25.83 68.45 25.52 68.45 25.2C68.445 25.1501 68.445 25.0999 68.45 25.05C68.45 24.75 68.45 24.45 68.45 24.15C68.64 22.15 69.3 20.15 70.89 19.23C69.07 20.32 66.07 23.23 66.05 25.63C66.0612 24.4464 66.2293 23.2694 66.55 22.13C65.7258 22.978 65.0497 23.9583 64.55 25.03C64.44 23.25 64.36 21.33 65.3 19.81C64.3462 20.1266 63.5465 20.7906 63.06 21.67C62.8694 20.4186 62.9203 19.1423 63.21 17.91C63.3 17.59 64.11 15.37 64.36 15.37C64.0932 15.4119 63.8397 15.5149 63.6194 15.671C63.3991 15.8272 63.2179 16.0322 63.09 16.27C62.351 17.3292 61.7965 18.5058 61.45 19.75C61.4254 19.8152 61.4054 19.882 61.39 19.95C61.39 19.88 61.39 19.8 61.39 19.72C61.3968 18.554 61.4635 17.3891 61.59 16.23C61.7476 14.9809 61.4493 13.7169 60.75 12.67C61.24 13.3 60.83 15.56 60.63 16.33C60.49 16.86 57.74 21.97 57.37 21.15C56.9866 20.2718 56.8245 19.3131 56.8977 18.3577C56.9709 17.4023 57.2773 16.4795 57.79 15.67C56.7513 16.1371 55.8967 16.9354 55.36 17.94C55.372 17.2519 55.5557 16.5777 55.8945 15.9787C56.2333 15.3797 56.7164 14.8748 57.3 14.51C56.5602 14.8083 55.8873 15.2512 55.3207 15.8126C54.754 16.3741 54.305 17.0429 54 17.78C53.886 16.1934 54.3436 14.6185 55.29 13.34C53.9537 14.4256 52.9204 15.8379 52.29 17.44C52.727 16.5296 53.0623 15.5738 53.29 14.59C53.5269 13.602 53.4247 12.563 53 11.64C52.9493 12.4355 52.738 13.2124 52.3788 13.924C52.0196 14.6355 51.5199 15.2669 50.91 15.78C51.2936 14.7467 51.575 13.6782 51.75 12.59C51.81 12.1 51.58 11.18 51.75 10.78C51.11 12.32 50.01 14.34 48.5 15.18C49.2071 14.2522 49.6981 13.1781 49.9368 12.0362C50.1756 10.8943 50.1562 9.71343 49.88 8.58C50.23 9.73 48.48 12.04 47.57 12.58C47.873 11.637 48.0183 10.6504 48 9.66C47.6465 10.6429 47.0637 11.5274 46.3 12.24C46.1784 10.8392 46.4194 9.43064 47 8.15C45.7388 8.8931 44.8223 10.1043 44.45 11.52C44.3256 10.728 44.3634 9.91895 44.5611 9.14198C44.7588 8.365 45.1122 7.63628 45.6 7C44.8461 7.37641 44.1829 7.91204 43.6563 8.56986C43.1297 9.22768 42.7522 9.992 42.55 10.81C42.67 9.18 42.77 7.43 41.94 6.02C41.8753 7.60844 41.366 9.14682 40.47 10.46C40.7241 8.93168 40.3647 7.36484 39.47 6.1C39.7678 6.95622 39.8414 7.87442 39.6839 8.76716C39.5263 9.65989 39.1429 10.4974 38.57 11.2C38.8074 9.48982 38.5252 7.74775 37.76 6.2C37.8225 6.86967 37.7296 7.54473 37.4885 8.17262C37.2474 8.8005 36.8646 9.36426 36.37 9.82C36.0402 9.09261 35.779 8.33599 35.59 7.56C35.5247 6.68602 35.6058 5.80726 35.83 4.96C36.1102 3.23374 36.9417 1.64455 38.2 0.43C35.59 1.43 34.07 4.36 32.65 6.57C32.77 5.32288 32.77 4.06712 32.65 2.82C32.4773 2.00068 32.2157 1.20263 31.87 0.44C32.0075 2.86346 31.5974 5.28679 30.67 7.53C30.5684 6.51689 30.1563 5.5599 29.49 4.79C28.6744 3.78184 27.6188 2.99447 26.42 2.5C27.95 3.11 28.6 5.6 28.51 7.06C28.2239 6.50317 27.8136 6.01963 27.3107 5.64681C26.8078 5.27398 26.2259 5.02188 25.61 4.91C26.4051 5.66625 26.9838 6.62118 27.2862 7.67602C27.5886 8.73087 27.6037 9.84735 27.33 10.91C27.2678 11.1666 27.1842 11.4174 27.08 11.66V11.75C26.974 11.9903 26.8538 12.224 26.72 12.45C26.3363 12.9813 25.9857 13.5357 25.67 14.11C25.5106 14.4014 25.4313 14.7298 25.4401 15.0617C25.4489 15.3937 25.5455 15.7175 25.72 16C26.38 16.85 27.72 16.75 28.48 17.63C28.8753 17.9671 29.3163 18.2466 29.79 18.46C29.9535 18.5889 30.1237 18.7091 30.3 18.82C30.7167 18.9782 31.1445 19.1052 31.58 19.2L31.75 19.28C31.8139 19.3289 31.8711 19.3861 31.92 19.45C32.7609 20.477 33.9297 21.1832 35.23 21.45C35.73 21.55 35.99 22.14 36.37 22.45C36.5535 22.6076 36.751 22.7481 36.96 22.87C37.1422 22.9822 37.3368 23.0728 37.54 23.14C37.72 23.19 37.9 23.21 38.08 23.26C38.4639 23.3794 38.8207 23.5731 39.13 23.83L39.42 24.02C40.87 24.13 41.74 25.02 43.04 26.02C43.85 26.62 44.86 26.86 45.68 27.47C46.11 27.79 46.5 28.15 46.9 28.47L47.24 28.64L47.42 28.75C47.74 28.9167 48.0733 29.0767 48.42 29.23L49.62 29.85L49.73 29.94C50.019 30.1511 50.331 30.3289 50.66 30.47C50.9362 30.5558 51.1779 30.7274 51.35 30.96C51.4977 31.1392 51.6693 31.2974 51.86 31.43C52.139 31.6883 52.4859 31.8618 52.86 31.93C53.04 31.9048 53.2234 31.9205 53.3965 31.9759C53.5696 32.0313 53.728 32.125 53.86 32.25C54.5665 33.0196 55.5307 33.5035 56.57 33.61C57.1304 33.7075 57.671 33.8967 58.17 34.17L58.35 34.12C59.1566 33.9277 59.9133 33.5664 60.57 33.06C60.8161 32.8224 61.0342 32.5573 61.22 32.27C61.46 31.91 61.47 31.87 61.9 31.81C62.1144 31.7668 62.3183 31.6818 62.5 31.56L63.5 30.99C63.728 30.8851 63.9196 30.7145 64.05 30.5C64.0799 30.4153 64.1202 30.3347 64.17 30.26C64.32 30.08 64.6 30.15 64.84 30.15C65.1263 30.1134 65.4002 30.0107 65.64 29.85L67 29.14C67.5617 28.8376 68.1059 28.5038 68.63 28.14C68.63 27.83 68.55 27.51 68.52 27.14C68.49 26.83 68.47 26.52 68.45 26.2Z" fill="#A4C90A"/>
<path d="M62 28.72C62.0152 28.6313 62.0387 28.5443 62.07 28.46C62.1041 28.3498 62.1476 28.2427 62.2 28.14C62.42 27.7 63.44 26.14 63.98 26.07C63.1452 26.1519 62.3677 26.5317 61.79 27.14C61.2207 27.747 60.7241 28.4181 60.31 29.14C59.6865 28.7731 59.22 28.1892 59 27.5C58.7 26.31 59.53 25.14 60.43 24.31C61.4816 23.3447 62.6886 22.5637 64 22C62.6048 21.8799 61.1998 21.9404 59.82 22.18C59.3834 22.2039 58.9588 22.3316 58.5814 22.5525C58.204 22.7733 57.8847 23.081 57.65 23.45L58.22 21.29C57.3021 22.1699 56.2969 22.954 55.22 23.63C55.7549 21.8255 55.7549 19.9045 55.22 18.1C54.5941 19.9051 53.4794 21.501 52 22.71C52.5941 21.0629 52.6466 19.2691 52.15 17.59C52.0339 18.4495 51.8157 19.2921 51.5 20.1C50.94 21.37 50.1 21.71 48.98 22.32C50.1214 20.5911 50.669 18.5377 50.54 16.47C50.3111 17.3289 49.9091 18.132 49.3589 18.8301C48.8087 19.5283 48.1217 20.1067 47.34 20.53C47.68 19.63 48.03 18.73 48.34 17.82L46.26 20.82C46.2027 19.3612 46.5488 17.9149 47.26 16.64C45.1364 17.9895 43.5244 20.0098 42.68 22.38C42.43 19.78 43.32 17.22 44.19 14.75C43.654 15.1301 43.0384 15.3831 42.39 15.49C42.9116 14.95 43.3467 14.3327 43.68 13.66C43.12 13.92 42.56 14.23 41.99 14.44C42.2309 13.5295 42.6909 12.6918 43.33 12C42.0065 12.789 40.832 13.8044 39.86 15C39.7338 13.8228 39.8288 12.6323 40.14 11.49C39.3719 12.6544 38.4982 13.7457 37.53 14.75C38.0913 13.4842 38.1379 12.0496 37.66 10.75C37.6219 12.1534 37.1464 13.5099 36.3 14.63C35.76 13.63 34.84 12.89 34.3 11.9C33.7332 10.834 33.5329 9.61112 33.73 8.42C33.7646 8.18363 33.8147 7.94979 33.88 7.72C33.88 7.61 33.88 7.5 33.96 7.4C34.2002 6.58657 34.5359 5.80446 34.96 5.07C33.9452 6.0018 33.1171 7.11836 32.52 8.36C32.37 8.65 32.24 8.93 32.11 9.22C32.11 9.3 32.02 9.4 31.94 9.39C31.86 9.38 31.8 9.18 31.85 9.05C31.9166 8.85518 31.9635 8.65418 31.99 8.45V8.36C32.015 8.16413 32.015 7.96587 31.99 7.77C31.9761 7.54277 31.9358 7.31793 31.87 7.1C31.8528 7.34196 31.8194 7.5825 31.77 7.82C31.7005 8.227 31.5796 8.62352 31.41 9V9.05C31.3694 9.13657 31.3226 9.22012 31.27 9.3L31.18 9.46L31.03 9.66L30.88 9.85L30.7 10C30.6315 10.0718 30.558 10.1386 30.48 10.2L30.35 10.32C30.21 10.42 30.08 10.52 29.93 10.61C29.9725 10.3823 29.9959 10.1515 30 9.92C30 9.92 30 9.86 30 9.83C30.0015 9.59815 29.9781 9.36682 29.93 9.14C29.8453 8.61975 29.6438 8.12544 29.3408 7.69419C29.0377 7.26294 28.6408 6.90594 28.18 6.65C28.6162 7.35044 28.7732 8.18921 28.62 9C28.6064 9.58836 28.5053 10.1714 28.32 10.73C28.2262 11.0095 28.0756 11.2666 27.8777 11.4851C27.6798 11.7037 27.4389 11.8789 27.17 12C27.2369 11.8162 27.2806 11.6247 27.3 11.43C27.3149 11.2603 27.3149 11.0897 27.3 10.92C27.3079 10.351 27.2131 9.78529 27.02 9.25C26.674 8.37978 26.2312 7.55124 25.7 6.78C25.9493 7.51967 26.0275 8.30624 25.9288 9.08051C25.83 9.85478 25.5569 10.5966 25.13 11.25C25.1557 10.1488 24.8028 9.07218 24.13 8.2C24.18 9.9 24.18 11.74 23.13 13.08C22.63 13.72 22.62 14.08 22.88 14.41C22.9281 14.4714 22.9817 14.5283 23.04 14.58C23.24 14.76 23.5 14.96 23.79 15.22C23.9751 15.3609 24.1809 15.4722 24.4 15.55C24.8478 15.7519 25.3229 15.8866 25.81 15.95C26.27 16.77 27.2 16.61 27.9 17.02C28.11 17.14 28.22 17.38 28.38 17.57C28.7753 17.9071 29.2164 18.1866 29.69 18.4C29.8535 18.5289 30.0238 18.6491 30.2 18.76C30.6167 18.9182 31.0445 19.0452 31.48 19.14L31.65 19.22C31.714 19.2689 31.7711 19.3261 31.82 19.39C32.661 20.417 33.8298 21.1232 35.13 21.39C35.63 21.49 35.89 22.08 36.27 22.39C36.4536 22.5476 36.6511 22.6881 36.86 22.81C37.0422 22.9222 37.2369 23.0128 37.44 23.08C37.62 23.13 37.8 23.15 37.98 23.2C38.3015 23.2949 38.603 23.4474 38.87 23.65C39.8496 23.8982 40.755 24.3784 41.51 25.05C42.5088 25.5151 43.4515 26.0921 44.32 26.77C45.32 27.4 46.27 27.98 47.18 28.66L47.32 28.75C48.4651 29.3783 49.3874 30.346 49.96 31.52C50.429 32.3443 51.0076 33.1012 51.68 33.77C51.86 33.93 52.05 34.07 52.24 34.21C53.0828 34.7866 54.0155 35.2191 55 35.49L55.78 35.69C55.9025 35.6008 56.0163 35.5004 56.12 35.39C56.3291 35.0857 56.5978 34.8271 56.91 34.63C57.373 34.4519 57.8474 34.3049 58.33 34.19C59.1367 33.9977 59.8934 33.6364 60.55 33.13C60.7962 32.8924 61.0142 32.6273 61.2 32.34C61.44 31.98 61.45 31.94 61.88 31.88C62.0945 31.8368 62.2983 31.7518 62.48 31.63L63.48 31.06C63.6645 30.9677 63.8279 30.8383 63.96 30.68C63.6012 30.5401 63.2506 30.3799 62.91 30.2C62.3 29.87 61.89 29.45 62 28.72Z" fill="#8FBB02"/>
<path d="M36.8799 46.01L36.8299 51.39L1.56995 31.03L1.58995 29.2L1.61995 25.85L6.16995 26.51L20.5799 34.47L36.8799 46.01Z" fill="#90B706"/>
<path d="M33.42 46.73C32.37 45.73 31.83 44.4 30.42 43.73C29.7765 43.43 29.107 43.189 28.42 43.01C26.1901 42.4112 24.002 41.6663 21.87 40.78C20.7782 40.3072 19.7447 39.7099 18.79 39C16.79 37.44 15.66 34.89 13.44 33.68C11.85 32.81 9.95996 32.77 8.18997 32.42C5.71996 31.94 4.18997 31.42 2.50997 29.96C1.94997 29.46 1.58997 29.17 1.58997 29.17V31L36.83 51.39V49.56C35.6307 48.6948 34.4914 47.7493 33.42 46.73Z" fill="#E4980A"/>
<path d="M28.19 29C25.94 28.38 26.37 25 26.28 23.17C26.28 22.23 25.97 16.95 24.67 16.84C25.1267 16.8857 25.5638 17.0488 25.9388 17.3134C26.3138 17.578 26.6139 17.9351 26.81 18.35C26.8505 17.1162 26.7295 15.8824 26.45 14.68C27.0509 15.6915 27.55 16.7601 27.94 17.87C28.01 15.58 29.56 13.65 31.04 11.87C30.1156 13.7255 29.7674 15.815 30.04 17.87C30.2 15.58 32.36 14.03 34.31 12.82C33.0205 14.3349 32.2157 16.2023 32 18.18C33.456 16.731 35.4071 15.8877 37.46 15.82C36.6239 16.1333 35.8918 16.6737 35.3459 17.3803C34.8 18.087 34.4621 18.9318 34.37 19.82C35.8735 18.9684 37.1629 17.785 38.14 16.36C38.1095 18.5416 37.2181 20.6227 35.66 22.15C37.275 20.9262 38.6341 19.3973 39.66 17.65C39.4932 19.0792 38.9932 20.4494 38.2 21.65C37.2344 23.6635 35.94 25.502 34.37 27.09C33.5806 27.898 32.6018 28.4959 31.5225 28.8295C30.4432 29.1631 29.2977 29.2217 28.19 29Z" fill="#C0DD1D"/>
<path d="M19.42 26.78C17.08 26.78 16.62 23.34 16.09 21.63C15.8 20.73 14.19 15.7 12.91 15.92C13.3623 15.845 13.8263 15.8895 14.2561 16.0491C14.6858 16.2088 15.0664 16.4779 15.36 16.83C15.0861 15.6244 14.6522 14.4607 14.07 13.37C14.9143 14.1935 15.6716 15.1016 16.33 16.08C15.81 13.85 16.82 11.59 17.8 9.52C17.4073 11.5356 17.616 13.6221 18.4 15.52C17.97 13.27 19.67 11.22 21.24 9.52C20.3578 11.3206 20.0373 13.3449 20.32 15.33C21.3681 13.5746 23.0391 12.2785 25 11.7C24.2649 12.215 23.6882 12.925 23.3348 13.7501C22.9815 14.5752 22.8655 15.4826 23 16.37C24.2386 15.1583 25.1858 13.6812 25.77 12.05C26.2959 14.1668 25.9653 16.4056 24.85 18.28C26.096 16.6845 27.0167 14.8601 27.56 12.91C27.7681 14.3468 27.638 15.8123 27.18 17.19C26.7598 19.3879 25.9757 21.5003 24.86 23.44C24.2959 24.3994 23.5048 25.2057 22.5563 25.788C21.6078 26.3704 20.5309 26.711 19.42 26.78Z" fill="#C0DD1D"/>
<path d="M47.77 36.46C47.7665 36.5133 47.7665 36.5667 47.77 36.62C48.1864 35.7732 48.8532 35.075 49.68 34.62C48.55 36.31 48.55 38.31 47.75 40.12C48.5497 39.7508 49.265 39.2212 49.8516 38.5641C50.4382 37.907 50.8835 37.1363 51.16 36.3C51.7848 37.2947 52.3075 38.3501 52.72 39.45C53.1701 38.8955 53.4487 38.2217 53.5215 37.5111C53.5943 36.8006 53.4583 36.0843 53.13 35.45C54.2998 36.2259 55.3915 37.1133 56.39 38.1C56.39 37.76 54.79 33.36 54.39 33.73C54.9608 33.2962 55.6784 33.1024 56.39 33.19C57.0997 33.2892 57.7927 33.4844 58.45 33.77C58.124 33.1344 57.6558 32.5826 57.0817 32.1577C56.5075 31.7327 55.843 31.446 55.14 31.32C56.14 30.76 57.14 30.06 58.14 29.52C57.1658 29.6915 56.2111 29.9595 55.29 30.32C56.66 29 57 27 57.34 25.09C56.6533 26.6865 55.5127 28.0461 54.06 29C55.43 27.64 55.23 25.41 54.93 23.5C54.6922 25.1811 53.9494 26.7504 52.8 28C52.9215 26.2744 52.3856 24.5668 51.3 23.22C51.5658 23.9269 51.6262 24.6945 51.474 25.4343C51.3218 26.174 50.9633 26.8555 50.44 27.4C50.147 25.9421 50.1949 24.4363 50.58 23C49.8955 23.6015 49.3371 24.3328 48.9371 25.1516C48.5372 25.9704 48.3036 26.8603 48.25 27.77C48.1447 26.0756 48.3723 24.3769 48.92 22.77C47.51 24.08 46.92 26.32 46.39 28.11C44.9659 27.4477 43.3637 27.2721 41.83 27.61C43.48 28.35 45.25 29.19 46.08 30.8C45.5931 30.7036 45.0896 30.7329 44.6172 30.8851C44.1448 31.0373 43.719 31.3075 43.38 31.67C42.7084 32.3871 41.9866 33.0555 41.22 33.67C42.6879 33.0123 44.2954 32.7272 45.9 32.84L44.61 34.74C45.2471 34.4223 45.918 34.1774 46.61 34.01C46.1292 34.5048 45.6879 35.0364 45.29 35.6C45.0228 35.9015 44.8224 36.2559 44.7018 36.6402C44.5811 37.0245 44.543 37.43 44.59 37.83C45.59 36.4 46.79 34.89 48.46 34.29C48.1636 34.9905 47.9327 35.717 47.77 36.46Z" fill="#C0DD1D"/>
<path d="M43.65 30.52C45.7731 29.5088 48.1719 29.231 50.47 29.73C49.229 30.2112 48.1211 30.9825 47.2391 31.9793C46.3571 32.9762 45.7265 34.1696 45.4 35.46C45.09 36.77 45.09 38.14 44.76 39.46C44.7552 39.6318 44.7153 39.8007 44.6428 39.9565C44.5703 40.1123 44.4667 40.2516 44.3384 40.3658C44.2101 40.4801 44.0598 40.5669 43.8967 40.6209C43.7335 40.675 43.5611 40.6951 43.39 40.68C42.4182 40.6902 41.4516 40.5381 40.53 40.23C36.8336 39.0705 33.6195 36.731 31.38 33.57C30.6311 32.3302 29.8061 31.1379 28.91 30C28.5 29.55 27.91 29.4 27.61 28.88C26.88 27.65 27.61 25.64 28.05 24.41C28.3563 23.6979 28.5486 22.9419 28.62 22.17C28.629 21.6627 28.5122 21.1611 28.28 20.71C28.7916 21.0635 29.2411 21.4994 29.61 22C29.9877 22.505 30.1658 23.1318 30.11 23.76C30.91 22.06 30.35 20.05 29.54 18.46C30.2104 18.8318 30.7763 19.3667 31.1853 20.0152C31.5943 20.6636 31.8332 21.4047 31.88 22.17C31.95 21.17 32.03 20.1 32.11 19.07C32.4523 19.7817 32.6881 20.5398 32.81 21.32C33.0756 19.6575 33.9398 18.1496 35.24 17.08C34.789 17.775 34.4892 18.557 34.36 19.3753C34.2308 20.1936 34.2751 21.0299 34.49 21.83C36.0306 19.6778 36.786 17.0621 36.63 14.42C37.1417 15.8284 37.3689 17.3243 37.2985 18.8211C37.2281 20.3179 36.8615 21.7858 36.22 23.14C36.9208 21.946 37.9196 20.9543 39.1185 20.262C40.3174 19.5696 41.6755 19.2002 43.06 19.19C41.9969 19.6414 40.9901 20.2153 40.06 20.9C39.1108 21.5967 38.438 22.6059 38.16 23.75C38.4583 23.1977 38.8778 22.7201 39.3869 22.353C39.8961 21.9858 40.4817 21.7387 41.1 21.63C42.3368 21.4234 43.598 21.4065 44.84 21.58C43.36 22.04 40.63 22.77 40.92 24.84C41.869 24.0819 42.8716 23.3935 43.92 22.78C43.31 24.18 42.28 25.42 41.78 26.85C43.3066 26.205 44.5738 25.068 45.38 23.62C46.1499 22.1778 46.6706 20.6158 46.92 19C47.2 21.47 46.21 23.88 45.24 26.16C46.3872 25.7537 47.6104 25.6075 48.821 25.732C50.0317 25.8565 51.1995 26.2487 52.24 26.88C50.6175 26.7149 48.9796 26.9619 47.4781 27.5982C45.9765 28.2345 44.6598 29.2394 43.65 30.52Z" fill="#73A905"/>
<path d="M44.91 39.93C44.8167 39.1171 44.6663 38.3118 44.46 37.52C44.4235 36.7897 44.4976 36.0581 44.68 35.35C45.1816 33.7435 45.9125 32.2177 46.85 30.82C46.1241 31.0161 45.4303 31.3158 44.79 31.71C44.036 32.4659 43.3655 33.3007 42.79 34.2C42.405 31.9262 42.8334 29.5894 44 27.6C43.7354 27.6408 43.4839 27.7423 43.2653 27.8968C43.0467 28.0512 42.8668 28.2543 42.74 28.49C41.9407 29.6041 41.3511 30.8545 41 32.18C40.9787 30.9338 41.0422 29.6876 41.19 28.45C41.346 27.2041 41.0478 25.9438 40.35 24.9C40.4836 26.4599 40.338 28.0312 39.92 29.54C39.4956 31.0639 38.5373 32.3842 37.22 33.26C36.82 33.51 36.63 30.32 36.71 30.02C37.1315 28.8782 37.7547 27.8214 38.55 26.9C37.1189 27.254 35.8838 28.1552 35.11 29.41C35.2714 27.3723 36.146 25.4567 37.58 24C36.6707 24.2521 35.8278 24.7007 35.1107 25.3141C34.3937 25.9275 33.8199 26.6907 33.43 27.55C33.8975 26.4168 34.194 25.2204 34.31 24C34.3635 23.3939 34.2965 22.7831 34.1129 22.203C33.9293 21.6229 33.6326 21.0849 33.24 20.62C33.3866 21.6736 33.2976 22.7466 32.9795 23.7617C32.6613 24.7768 32.1218 25.7086 31.4 26.49C31.4 25.29 31.4 24.08 31.4 22.88C31.1662 23.7498 30.8306 24.5889 30.4 25.38C30.2087 25.781 29.9594 26.1517 29.66 26.48C29.51 26.62 28.76 26.97 28.71 27.1C29.44 25.05 30.18 22.84 29.55 20.77C29.2125 22.226 28.5261 23.5782 27.55 24.71C27.8692 23.5162 28.0306 22.2857 28.03 21.05C26.7976 22.1703 25.8688 23.5841 25.33 25.16C25.12 23.29 26.76 18.3 29.26 18.35C27.8587 18.4229 26.5051 18.8833 25.35 19.68C24.35 20.25 23.35 21.12 23.5 22.22C23.239 21.039 23.2187 19.8176 23.4404 18.6286C23.662 17.4397 24.121 16.3076 24.79 15.3C23.6704 16.067 22.7565 17.0975 22.1288 18.3007C21.501 19.5039 21.1786 20.8429 21.19 22.2C21.19 20.55 21.05 18.69 19.84 17.57C20.33 20 19.61 22 18.53 24.12C18.4791 22.6106 18.2611 21.1114 17.88 19.65C17.7443 20.9517 17.206 22.1787 16.34 23.16C16.2006 22.9718 16.0736 22.7748 15.96 22.57C15.9141 22.4966 15.874 22.4197 15.84 22.34C15.77 22.22 15.71 22.09 15.65 21.96L15.53 21.66C15.53 21.55 15.45 21.44 15.42 21.34C15.39 21.24 15.35 21.09 15.32 20.97C15.292 20.8813 15.2686 20.7912 15.25 20.7C15.25 20.56 15.2 20.42 15.17 20.28V20.06C15.17 19.9 15.17 19.74 15.17 19.58C15.1746 19.5268 15.1746 19.4732 15.17 19.42V18.89C15.17 18.89 15.17 18.83 15.17 18.8C15.17 18.6 15.17 18.4 15.17 18.21C15.4215 16.0915 16.3839 14.1209 17.9 12.62C15.29 13.62 13.77 16.54 12.35 18.75C12.4699 17.5062 12.4699 16.2538 12.35 15.01C12.1924 14.1896 11.9477 13.3884 11.62 12.62C11.7576 15.0476 11.344 17.475 10.41 19.72C10.2567 18.6941 9.7844 17.7424 9.05999 17C8.24745 15.9977 7.19489 15.2169 5.99999 14.73C5.99999 14.73 8.11999 16.99 8.41999 18.73C8.59129 19.4797 8.57065 20.2604 8.35999 21C7.92686 21.9211 7.23101 22.6934 6.35999 23.22C6.12999 23.4 4.98999 24.1 4.90999 24.13C4.30734 24.4852 3.72631 24.8759 3.16999 25.3C2.7752 25.6131 2.41933 25.9723 2.10999 26.37H2.18999C2.38999 26.5 2.57999 26.64 2.76999 26.78C2.95999 26.92 3.20999 27.23 3.45999 27.45C3.64596 27.592 3.8514 27.7065 4.06999 27.79C4.51779 27.9919 4.99289 28.1266 5.47999 28.19C5.93999 29.01 6.86999 28.85 7.56999 29.26C7.77999 29.38 7.88999 29.62 8.04999 29.81C8.44526 30.1471 8.88631 30.4266 9.35999 30.64C9.52349 30.7689 9.69373 30.8891 9.86999 31C10.2876 31.1554 10.7152 31.2824 11.15 31.38C11.211 31.3963 11.2685 31.4234 11.32 31.46C11.3839 31.5089 11.4411 31.5661 11.49 31.63C12.3309 32.6569 13.4997 33.3632 14.8 33.63C15.3 33.73 15.56 34.32 15.94 34.63C16.1276 34.7868 16.3284 34.9274 16.54 35.05C16.7177 35.1639 16.9093 35.2546 17.11 35.32C17.29 35.32 17.48 35.39 17.66 35.44C18.042 35.5639 18.398 35.7571 18.71 36.01L18.99 36.2C20.44 36.31 21.31 37.25 22.61 38.2C23.42 38.8 24.43 39.04 25.25 39.65C25.6737 39.962 26.0809 40.2958 26.47 40.65L26.81 40.81L27 41C27.3231 41.1804 27.6571 41.3407 28 41.48L29.2 42.11L29.31 42.19C29.5964 42.4079 29.9088 42.5892 30.24 42.73C30.5182 42.8118 30.7611 42.9843 30.93 43.22C31.0777 43.3992 31.2493 43.5574 31.44 43.69C31.719 43.9483 32.0659 44.1218 32.44 44.19C32.6192 44.1656 32.8016 44.1807 32.9743 44.2343C33.1471 44.2878 33.306 44.3785 33.44 44.5C33.7042 44.7881 33.9993 45.0463 34.32 45.27C34.9631 45.7053 35.6675 46.0423 36.41 46.27C36.6307 46.3768 36.8803 46.4081 37.1205 46.3594C37.3608 46.3106 37.5784 46.1844 37.74 46C37.8067 45.9019 37.8876 45.8143 37.98 45.74C38.3587 45.598 38.7506 45.4942 39.15 45.43C39.5898 45.2501 40.0117 45.0291 40.41 44.77C40.93 44.43 41.41 44.06 41.99 43.77C42.57 43.48 42.74 42.99 43.22 42.77C43.4116 42.6926 43.614 42.6454 43.82 42.63C44.2068 42.5499 44.5782 42.4081 44.92 42.21C45.8377 41.7935 46.661 41.1947 47.34 40.45C47.4244 40.3355 47.5255 40.2344 47.64 40.15L47.84 40.08C47.84 39.59 47.84 39.08 47.84 38.59C47.84 38.44 47.84 38.29 47.84 38.14C47.84 37.99 47.84 37.63 47.84 37.38C47.8443 37.3234 47.8443 37.2666 47.84 37.21C47.84 36.93 47.9 36.66 47.95 36.4C48.2574 34.5719 49.1076 32.8786 50.39 31.54C48.9259 32.4609 47.6781 33.6875 46.7323 35.1356C45.7864 36.5837 45.1648 38.2192 44.91 39.93Z" fill="#A4C90A"/>
<path opacity="0.37" d="M42.49 42.4C41.3 42.2 41.35 41.26 41.8 40.4C42.02 39.96 43.04 38.4 43.58 38.32C42.7452 38.4097 41.9693 38.7924 41.39 39.4C40.8207 40.007 40.324 40.6781 39.91 41.4C39.2863 41.0307 38.8174 40.4482 38.59 39.76C38.29 38.58 39.12 37.41 40.02 36.58C41.0662 35.6096 42.2657 34.8189 43.57 34.24C42.1742 34.1283 40.7699 34.1921 39.39 34.43C38.9539 34.4505 38.5294 34.5769 38.1531 34.7981C37.7768 35.0194 37.4599 35.3289 37.23 35.7C37.41 34.98 37.6 34.26 37.79 33.54C36.8721 34.4199 35.8669 35.204 34.79 35.88C35.3251 34.0721 35.3251 32.1479 34.79 30.34C34.1731 32.1529 33.0654 33.7592 31.59 34.98C32.1818 33.3329 32.2378 31.5408 31.75 29.86C31.627 30.716 31.4055 31.5549 31.09 32.36C30.53 33.64 29.69 33.98 28.57 34.59C29.7114 32.8611 30.259 30.8077 30.13 28.74C29.8983 29.5977 29.4954 30.3996 28.9454 31.0974C28.3954 31.7952 27.7098 32.3744 26.93 32.8C27.28 31.9 27.62 30.99 27.93 30.09L25.85 33.09C25.7927 31.6312 26.1387 30.1849 26.85 28.91C24.7222 30.2548 23.1089 32.2767 22.27 34.65C22.03 32.04 22.91 29.48 23.79 27.02C23.2498 27.3925 22.636 27.6448 21.99 27.76C22.503 27.2152 22.9341 26.5987 23.27 25.93C22.72 26.19 22.15 26.5 21.58 26.71C21.8148 25.8233 22.2608 25.0067 22.88 24.33C21.5511 25.1154 20.3727 26.1313 19.4 27.33C19.2738 26.1528 19.3687 24.9623 19.68 23.82C18.9149 24.9536 18.0516 26.0177 17.1 27C17.6613 25.7342 17.7079 24.2996 17.23 23C17.1973 24.3997 16.725 25.7537 15.88 26.87C15.33 25.87 14.41 25.14 13.88 24.15C13.3139 23.0838 13.1136 21.8611 13.31 20.67C13.5176 19.4846 13.945 18.3484 14.57 17.32C13.3241 18.475 12.3506 19.8925 11.72 21.47C11.72 21.55 11.63 21.65 11.55 21.64C11.47 21.63 11.42 21.43 11.46 21.3C11.6697 20.6669 11.6697 19.9831 11.46 19.35C11.34 20.97 10.46 22.7 8.77999 22.95C8.48999 22.95 7.05999 22.76 6.94999 22.86L6.37999 23.28C6.14999 23.46 5.00999 24.16 4.92999 24.19C4.32202 24.5251 3.73434 24.8957 3.16999 25.3C2.7752 25.6131 2.41933 25.9723 2.10999 26.37H2.18999C2.38999 26.5 2.57999 26.64 2.76999 26.78C2.95999 26.92 3.20999 27.23 3.45999 27.45C3.64596 27.592 3.8514 27.7065 4.06999 27.79C4.51779 27.9919 4.99289 28.1266 5.47999 28.19C5.93999 29.01 6.86999 28.85 7.56999 29.26C7.77999 29.38 7.88999 29.62 8.04999 29.81C8.44526 30.1471 8.88631 30.4266 9.35999 30.64C9.52349 30.7689 9.69373 30.8891 9.86999 31C10.2876 31.1554 10.7152 31.2824 11.15 31.38C11.211 31.3963 11.2685 31.4234 11.32 31.46C11.3839 31.5089 11.4411 31.5661 11.49 31.63C12.3309 32.6569 13.4997 33.3632 14.8 33.63C15.3 33.73 15.56 34.32 15.94 34.63C16.1276 34.7868 16.3284 34.9274 16.54 35.05C16.7177 35.1639 16.9093 35.2546 17.11 35.32C17.29 35.32 17.48 35.39 17.66 35.44C17.9791 35.533 18.2777 35.6857 18.54 35.89C19.5217 36.1403 20.4299 36.6202 21.19 37.29C22.188 37.7764 23.1302 38.3699 24 39.06C24.95 39.7 25.94 40.28 26.86 40.96L27 41C27.3231 41.1804 27.6571 41.3407 28 41.48L29.2 42.11L29.31 42.19C29.5964 42.4079 29.9088 42.5892 30.24 42.73C30.5182 42.8118 30.7611 42.9843 30.93 43.22C31.0777 43.3992 31.2493 43.5574 31.44 43.69C31.719 43.9483 32.0659 44.1218 32.44 44.19C32.6192 44.1656 32.8016 44.1807 32.9743 44.2343C33.1471 44.2878 33.306 44.3785 33.44 44.5C33.7042 44.7881 33.9993 45.0463 34.32 45.27C34.9631 45.7053 35.6675 46.0423 36.41 46.27C36.6307 46.3768 36.8803 46.4082 37.1205 46.3594C37.3608 46.3106 37.5784 46.1844 37.74 46C37.8067 45.9019 37.8876 45.8143 37.98 45.74C38.3587 45.598 38.7506 45.4942 39.15 45.43C39.5898 45.2501 40.0117 45.0291 40.41 44.77C40.93 44.43 41.41 44.06 41.99 43.77C42.57 43.48 42.74 42.99 43.22 42.77C43.4116 42.6926 43.614 42.6454 43.82 42.63H43.92C43.4373 42.5967 42.9587 42.5197 42.49 42.4Z" fill="#79AF07"/>
<path d="M63.0601 31.48C63.0601 31.48 63.0901 31.45 63.0601 31.48V31.48Z" fill="#A6776B"/>
<path d="M25.18 39.41L25.32 39.54C26.7964 40.6879 28.4384 41.605 30.19 42.26C31.34 42.75 33.42 44.31 34.64 43.77C35.1312 43.5009 35.6024 43.1967 36.05 42.86C36.6829 42.4748 37.4013 42.2522 38.1411 42.2121C38.8809 42.172 39.6192 42.3155 40.29 42.63C39.9997 42.0163 39.582 41.4715 39.0648 41.0318C38.5475 40.5921 37.9425 40.2676 37.29 40.08C38.2374 39.7588 39.2297 39.59 40.23 39.58C38.8021 38.9019 37.1658 38.8086 35.67 39.32C37.3375 37.9166 39.4062 37.0765 41.58 36.92C39.23 35.77 36.43 36.49 33.93 37.25C34.5579 36.3143 35.3675 35.5144 36.3106 34.8977C37.2537 34.281 38.3111 33.8601 39.42 33.66C37.7122 33.3907 35.965 33.5277 34.32 34.06C35.6884 32.6761 37.4799 31.7892 39.41 31.54C37.86 30.54 35.84 30.91 34.05 31.32C35.3921 29.937 36.2001 28.1228 36.33 26.2C35.6291 27.7974 34.4703 29.1512 33 30.09C34.37 28.73 34.17 26.5 33.87 24.59C33.6265 26.2605 32.8841 27.8186 31.74 29.06C31.863 27.3373 31.3268 25.6323 30.24 24.29C30.5059 24.9969 30.5662 25.7645 30.414 26.5043C30.2618 27.244 29.9033 27.9255 29.38 28.47C29.1008 27.0378 29.1487 25.5611 29.52 24.15C28.8364 24.7522 28.2785 25.4837 27.8787 26.3023C27.4788 27.1209 27.2448 28.0106 27.19 28.92C27.0832 27.2255 27.3108 25.5266 27.86 23.92C27.62 24.61 26.69 25.3 26.37 26.05C26.0394 26.9357 25.8439 27.8661 25.79 28.81C25.77 27.9193 25.4531 27.0608 24.8898 26.3706C24.3264 25.6804 23.5487 25.198 22.68 25C22.9373 25.2345 23.1412 25.5215 23.2779 25.8416C23.4146 26.1618 23.4809 26.5075 23.4724 26.8555C23.4639 27.2035 23.3807 27.5456 23.2284 27.8587C23.0762 28.1717 22.8585 28.4484 22.59 28.67C22.25 29.03 21.83 29.31 21.45 29.67C20.7115 30.2103 20.1806 30.9875 19.9459 31.872C19.7111 32.7564 19.7867 33.6946 20.16 34.53C20.6314 35.4234 21.2979 36.1993 22.11 36.8L25.18 39.41Z" fill="#C0DD1D"/>
<path d="M40 35.79C38.2121 36.1269 36.5437 36.9265 35.1611 38.109C33.7785 39.2916 32.7299 40.8159 32.12 42.53C31.79 40.4 33.3 38.27 33.65 36.2C34.0452 34.0207 33.6479 31.772 32.53 29.86C33.1176 31.7423 33.1569 33.7529 32.6433 35.6567C32.1298 37.5605 31.0845 39.2786 29.63 40.61C29.7919 39.545 30.0737 38.5017 30.47 37.5C30.6912 36.8508 30.8453 36.1806 30.93 35.5C31.11 33.93 31.07 32.82 31.38 32.5C29.6585 34.6374 28.5491 37.2018 28.17 39.92C27.579 38.4915 27.3788 36.9314 27.59 35.4C27.5965 33.8106 28.1194 32.2663 29.08 31C28.3548 31.8014 27.7669 32.7171 27.34 33.71C26.9277 34.7367 26.5934 35.793 26.34 36.87C26.1648 35.5473 25.8394 34.2489 25.37 33C25.0302 31.8996 24.5244 30.8576 23.87 29.91C24.3134 31.9076 24.4583 33.9599 24.3 36C24.3036 36.4564 24.1318 36.8967 23.82 37.23C23.2 37.74 22.25 37.23 21.82 36.59C20.82 35.11 21.25 32.59 21.9 31.02C22.6418 29.1986 24.0209 27.7093 25.78 26.83C22.78 27.15 19.4 27.75 17.95 30.36C18.277 29.3928 18.4524 28.3808 18.47 27.36C16.8577 28.258 15.4267 29.4483 14.25 30.87C14.7245 27.8345 14.0468 24.7313 12.35 22.17C12.0302 24.6982 10.8001 27.0232 8.89 28.71C8.67267 27.3425 8.94917 25.9423 9.67 24.76C9.10013 24.9432 8.58584 25.2676 8.17498 25.703C7.76411 26.1383 7.47 26.6705 7.32 27.25C7.38888 25.9536 7.72959 24.6862 8.32 23.53C7.00749 24.358 5.98116 25.5693 5.38 27C5.38016 26.447 5.33332 25.895 5.24 25.35C5.24 25.23 5.24 25.11 5.17 24.98C5.1 24.85 5.17 24.92 5.17 24.88C5.12 24.65 5.07 24.42 5 24.18C4.33 21.72 2.83 19.18 0.64 18.37C0.430749 18.2853 0.217109 18.2118 0 18.15C0.563235 18.6094 1.02284 19.1829 1.34859 19.8327C1.67434 20.4824 1.85885 21.1938 1.89 21.92C1.94567 23.285 1.8619 24.652 1.64 26V26.07L1.7 26.13L1.87 26.21L2.18 26.38C2.38 26.51 2.57 26.65 2.76 26.79C2.95 26.93 3.2 27.24 3.45 27.46C3.63598 27.602 3.84142 27.7165 4.06 27.8C4.5078 28.0019 4.9829 28.1366 5.47 28.2C5.93 29.02 6.86 28.86 7.56 29.27C7.77 29.39 7.88 29.63 8.04 29.82C8.43527 30.1571 8.87632 30.4366 9.35 30.65C9.51351 30.7789 9.68375 30.8991 9.86 31.01C10.2776 31.1654 10.7052 31.2924 11.14 31.39C11.201 31.4063 11.2586 31.4334 11.31 31.47C11.3739 31.5189 11.4311 31.5761 11.48 31.64C12.321 32.6669 13.4898 33.3732 14.79 33.64C15.29 33.74 15.55 34.33 15.93 34.64C16.1177 34.7968 16.3184 34.9374 16.53 35.06C16.7077 35.1739 16.8993 35.2646 17.1 35.33C17.28 35.33 17.47 35.4 17.65 35.45C18.032 35.5739 18.388 35.7671 18.7 36.02C18.9105 36.2192 19.1815 36.3424 19.47 36.37C19.5195 36.36 19.5705 36.36 19.62 36.37C19.74 36.37 19.8 36.54 19.86 36.65C20.0609 36.9702 20.3639 37.2133 20.72 37.34C21.0454 37.4457 21.3803 37.5194 21.72 37.56C21.795 37.584 21.8635 37.6251 21.92 37.68C22.6846 38.4746 23.5988 39.1102 24.61 39.55C24.82 39.62 25.04 39.67 25.26 39.72C25.2864 39.7146 25.3136 39.7146 25.34 39.72L25.39 39.79C25.5464 40.0345 25.7634 40.2343 26.02 40.37C26.3326 40.6011 26.6599 40.8116 27 41C27.6356 41.3514 28.3059 41.6363 29 41.85C29.0327 41.8411 29.0673 41.8411 29.1 41.85C29.1 41.85 29.1 41.93 29.15 41.97C29.164 42.0076 29.1853 42.042 29.2128 42.0712C29.2403 42.1004 29.2733 42.1238 29.31 42.14C29.5964 42.3579 29.9088 42.5392 30.24 42.68C30.5182 42.7618 30.7611 42.9343 30.93 43.17C31.0777 43.3492 31.2493 43.5074 31.44 43.64C31.719 43.8983 32.0659 44.0718 32.44 44.14C32.6192 44.1156 32.8016 44.1307 32.9743 44.1843C33.1471 44.2378 33.306 44.3285 33.44 44.45C33.7043 44.7381 33.9994 44.9963 34.32 45.22C34.9631 45.6553 35.6675 45.9923 36.41 46.22L36.64 46.27L36.29 46C34.48 44.13 34.97 41 36.4 39.12C37.4528 37.8608 38.6627 36.7416 40 35.79Z" fill="#79AF07"/>
<path d="M37.81 37.63C37.1578 38.0358 36.5795 38.5499 36.1 39.15C35.58 39.79 34.77 41.53 33.86 41.9C33.7128 42.0289 33.5256 42.1031 33.33 42.11C33.23 42.1075 33.1348 42.0666 33.0641 41.9959C32.9934 41.9252 32.9525 41.83 32.95 41.73C32.9399 41.5468 32.9399 41.3632 32.95 41.18C32.9354 41.0304 32.9354 40.8796 32.95 40.73C32.6059 41.298 32.3243 41.9015 32.11 42.53C31.88 41.05 32.54 39.53 33.11 38.11C32.7862 38.5656 32.3334 38.9139 31.81 39.11C31.7535 39.1234 31.6947 39.124 31.6379 39.1118C31.5811 39.0996 31.5278 39.0749 31.4818 39.0394C31.4358 39.004 31.3983 38.9587 31.372 38.9069C31.3458 38.8551 31.3314 38.7981 31.33 38.74C31.3252 38.6834 31.3252 38.6266 31.33 38.57C30.8561 39.3074 30.288 39.9797 29.64 40.57C29.7912 39.5427 30.0596 38.5362 30.44 37.57C30.2181 38.0827 29.9289 38.5636 29.58 39C29.533 39.0483 29.474 39.0831 29.409 39.1011C29.344 39.119 29.2755 39.1193 29.2103 39.102C29.1452 39.0847 29.0858 39.0504 29.0383 39.0026C28.9908 38.9548 28.9569 38.8952 28.94 38.83C28.8233 38.4021 28.7529 37.9629 28.73 37.52C28.4562 38.3063 28.275 39.1218 28.19 39.95C27.9999 39.5763 27.8587 39.1797 27.77 38.77C27.7116 38.8317 27.6389 38.8782 27.5583 38.9053C27.4777 38.9325 27.3917 38.9394 27.3079 38.9256C27.224 38.9118 27.1447 38.8776 27.0771 38.8261C27.0095 38.7746 26.9556 38.7072 26.92 38.63C26.42 37.95 26.77 36.24 26.92 35.48C26.99 35.06 27.08 34.62 27.19 34.19C26.839 35.075 26.5516 35.984 26.33 36.91C26.2562 36.1843 26.1258 35.4654 25.94 34.76C25.9085 35.289 25.7797 35.8077 25.56 36.29C25.5351 36.3334 25.5019 36.3715 25.4623 36.402C25.4227 36.4326 25.3774 36.455 25.3291 36.468C25.2808 36.481 25.2304 36.4844 25.1808 36.4778C25.1312 36.4713 25.0833 36.4551 25.04 36.43C24.7377 36.2592 24.4938 36.0013 24.34 35.69C24.34 35.81 24.34 35.93 24.34 36.05C24.3436 36.5064 24.1718 36.9467 23.86 37.28C23.24 37.79 22.29 37.28 21.86 36.64C21.3116 35.6473 21.1277 34.4941 21.34 33.38L21.29 33.45C20.22 34.7 18.56 33.31 18.79 31.99C18.9864 30.642 19.5005 29.3601 20.29 28.25C19.3247 28.7239 18.5236 29.4763 17.99 30.41C18.2482 29.6534 18.4095 28.8671 18.47 28.07C17.93 29.65 17.18 31.34 15.77 31.83C15.7135 31.8434 15.6547 31.844 15.5979 31.8318C15.5411 31.8196 15.4878 31.7949 15.4418 31.7594C15.3958 31.724 15.3583 31.6787 15.332 31.6269C15.3058 31.5751 15.2914 31.5181 15.29 31.46C15.3181 30.822 15.4119 30.1887 15.57 29.57C15.1155 29.9927 14.688 30.4436 14.29 30.92C14.3967 30.232 14.4435 29.5361 14.43 28.84C14.1452 29.2497 13.7344 29.5552 13.26 29.71C11.32 30.3 10.75 28.24 11.02 26.78C11.02 26.49 11.13 26.2 11.19 25.92C10.6125 26.9942 9.84707 27.9561 8.93002 28.76C8.71268 27.3925 8.98918 25.9923 9.71001 24.81C9.14014 24.9932 8.62586 25.3176 8.21499 25.753C7.80413 26.1883 7.51002 26.7205 7.36001 27.3C7.4289 26.0036 7.7696 24.7362 8.36001 23.58C7.04044 24.3886 6.0004 25.5822 5.38001 27C5.38017 26.447 5.33334 25.895 5.24001 25.35C5.24001 25.23 5.24001 25.11 5.17001 24.98V24.9C4.98133 25.1436 4.72132 25.3222 4.42626 25.4109C4.1312 25.4997 3.81581 25.4941 3.52406 25.395C3.23231 25.296 2.97876 25.1083 2.79877 24.8582C2.61879 24.6081 2.52134 24.3081 2.52001 24C2.41012 22.9152 2.13704 21.8532 1.71001 20.85C1.79506 21.1952 1.85522 21.5461 1.89001 21.9C1.94705 23.2716 1.86328 24.6455 1.64001 26V26.07L1.70001 26.13L1.87001 26.21L2.18001 26.38C2.38001 26.51 2.57001 26.65 2.76001 26.79C2.95001 26.93 3.20001 27.24 3.45001 27.46C3.63599 27.602 3.84143 27.7165 4.06001 27.8C4.50782 28.0019 4.98292 28.1366 5.47001 28.2C5.93001 29.02 6.86001 28.86 7.56001 29.27C7.77001 29.39 7.88001 29.63 8.04001 29.82C8.43529 30.1571 8.87634 30.4366 9.35002 30.65C9.51352 30.7789 9.68376 30.8991 9.86001 31.01C10.2776 31.1654 10.7053 31.2924 11.14 31.39C11.201 31.4063 11.2586 31.4334 11.31 31.47C11.374 31.5189 11.4311 31.5761 11.48 31.64C12.321 32.6669 13.4898 33.3732 14.79 33.64C15.29 33.74 15.55 34.33 15.93 34.64C16.1177 34.7968 16.3184 34.9374 16.53 35.06C16.7077 35.1739 16.8993 35.2646 17.1 35.33C17.28 35.33 17.47 35.4 17.65 35.45C18.032 35.5739 18.388 35.7671 18.7 36.02C18.9105 36.2192 19.1815 36.3424 19.47 36.37C19.5195 36.36 19.5705 36.36 19.62 36.37C19.74 36.37 19.8 36.54 19.86 36.65C20.0609 36.9702 20.3639 37.2133 20.72 37.34C21.0454 37.4457 21.3803 37.5194 21.72 37.56C21.7951 37.584 21.8635 37.6251 21.92 37.68C22.6846 38.4746 23.5988 39.1102 24.61 39.55C24.82 39.62 25.04 39.67 25.26 39.72C25.2864 39.7146 25.3136 39.7146 25.34 39.72L25.39 39.79C25.5464 40.0345 25.7634 40.2343 26.02 40.37C26.3326 40.6012 26.66 40.8116 27 41C27.6356 41.3514 28.3059 41.6363 29 41.85C29.0328 41.8411 29.0673 41.8411 29.1 41.85C29.1 41.85 29.1 41.93 29.15 41.97C29.164 42.0076 29.1853 42.042 29.2128 42.0712C29.2403 42.1004 29.2733 42.1238 29.31 42.14C29.5964 42.3579 29.9088 42.5393 30.24 42.68C30.5182 42.7618 30.7611 42.9343 30.93 43.17C31.0777 43.3492 31.2493 43.5074 31.44 43.64C31.719 43.8983 32.0659 44.0718 32.44 44.14C32.6192 44.1156 32.8016 44.1307 32.9743 44.1843C33.1471 44.2378 33.306 44.3285 33.44 44.45C33.7043 44.7381 33.9994 44.9963 34.32 45.22C34.9632 45.6553 35.6676 45.9923 36.41 46.22L36.64 46.27L36.29 46C34.48 44.13 34.97 41 36.4 39.12C36.826 38.5835 37.2978 38.0849 37.81 37.63Z" fill="#6C9905"/>
</svg>
