<svg width="72" height="47" viewBox="0 0 72 47" fill="none" xmlns="http://www.w3.org/2000/svg">
<g clip-path="url(#clip0_9:7085)">
<path d="M71.4609 20.7L71.4109 25.92L36.1809 46.39L36.2309 40.98L36.7609 39.88L69.2209 21.26L71.4609 20.7Z" fill="#AA6304"/>
<g opacity="0.38">
<path opacity="0.38" d="M70.9409 20.83L69.2209 21.26L64.7109 23.85C64.8989 25.2785 64.9625 26.7205 64.9009 28.16C64.8276 28.7383 64.7241 29.3125 64.5909 29.88L67.9309 27.94C67.1609 25.24 69.0309 22.9 70.9409 20.83Z" fill="#8E5400"/>
</g>
<g opacity="0.53">
<path opacity="0.53" d="M39.1409 42.54C39.4499 41.2594 39.8785 40.0105 40.4209 38.81C41.5709 36.61 43.7609 35.88 46.1309 35.9C46.2283 35.9025 46.3209 35.9423 46.3898 36.0112C46.4586 36.08 46.4984 36.1727 46.5009 36.27C46.4024 37.8173 46.1375 39.3494 45.7109 40.84L48.9709 39C49.1109 38.18 49.2509 37.35 49.4209 36.55C49.4401 36.1335 49.5985 35.7356 49.8709 35.42C50.4709 34.93 51.2909 35.36 51.6909 35.91C51.9364 36.2957 52.0681 36.7428 52.0709 37.2L53.7709 36.2C54.1647 33.7533 54.8705 31.3672 55.8709 29.1C55.9077 29.0389 55.9613 28.9898 56.0253 28.9585C56.0893 28.9272 56.161 28.915 56.2318 28.9234C56.3026 28.9319 56.3694 28.9606 56.4242 29.0061C56.4791 29.0516 56.5196 29.112 56.5409 29.18C56.8697 30.9924 56.8323 32.8523 56.4309 34.65L58.4309 33.48C58.4969 32.4026 58.7227 31.341 59.1009 30.33C59.703 28.9006 60.4503 27.5368 61.3309 26.26C61.5544 25.9242 61.8199 25.6184 62.1209 25.35L36.7609 39.88L36.2309 41L36.1709 46.41L38.5909 45C38.6942 44.1641 38.8783 43.3402 39.1409 42.54Z" fill="#8E5400"/>
</g>
<path opacity="0.66" d="M69.2209 21.26L36.7609 39.88L36.2309 41L36.1709 46.41L37.1709 45.81C36.8209 43.53 38.9009 41.05 40.6409 39.71C41.5509 39.01 43.2309 37.93 44.4309 38.54C45.4309 39.03 45.2209 40.23 45.0309 41.24L47.7109 39.7C47.6999 38.613 47.8378 37.5296 48.1209 36.48C48.2574 35.9237 48.5738 35.428 49.0209 35.07C49.4309 34.76 50.0209 34.68 50.4309 34.41C50.7843 34.1294 51.1184 33.8254 51.4309 33.5C52.3009 32.79 53.9909 32.02 55.0309 32.84C55.3236 33.1196 55.5397 33.4696 55.6587 33.8564C55.7778 34.2433 55.7957 34.6542 55.7109 35.05L56.8809 34.37C56.8352 34.2406 56.8352 34.0994 56.8809 33.97C57.0671 32.9894 57.345 32.0286 57.7109 31.1C58.1776 30.2957 58.6884 29.5179 59.2409 28.77C59.8609 27.87 60.7809 26.6 62.0609 26.94C63.1209 27.21 63.5409 28.44 63.6209 29.41C63.6611 29.7655 63.6611 30.1245 63.6209 30.48L66.6209 28.73C66.7995 28.2624 66.904 27.7698 66.9309 27.27C67.0109 26.88 67.0909 26.49 67.1909 26.1C67.3329 25.2939 67.6769 24.537 68.1909 23.9C68.8009 23.24 69.7009 23 70.3009 23.81C70.7403 24.5246 70.9627 25.3514 70.9409 26.19L71.4109 25.92V20.7L69.2209 21.26Z" fill="#8E5400"/>
<path d="M37.2709 41.32C37.7209 40.61 38.7909 40.06 39.2709 39.42L37.7109 39.76L36.2309 41L36.1709 46.41L37.1709 45.86C36.8569 45.1414 36.7032 44.363 36.7205 43.579C36.7378 42.7949 36.9256 42.0241 37.2709 41.32Z" fill="#774400"/>
<path d="M44.6109 41.49L46.5109 40.39C46.528 39.5402 46.5947 38.692 46.7109 37.85C46.8329 36.9345 47.068 36.0376 47.4109 35.18C47.4909 34.98 46.4109 34.98 45.8909 34.63L44.3409 35.5L46.0809 35.97C45.4626 37.7734 44.9714 39.6179 44.6109 41.49Z" fill="#774400"/>
<path d="M56.3609 34.66C56.3826 32.6969 56.2286 30.7357 55.9009 28.8L54.9709 29.09C56.0509 30.55 55.9709 33.09 55.5709 35.09L56.3609 34.66Z" fill="#774400"/>
<path d="M63.5309 30.5L65.5309 29.35C65.5309 29.21 65.5309 29.07 65.5309 28.92C65.4709 27.78 65.9209 24.38 64.6509 23.92L63.2609 24.72C63.4609 24.88 64.1109 25.28 64.1109 25.28C64.178 25.9015 64.178 26.5285 64.1109 27.15C64.0208 28.2821 63.8266 29.4035 63.5309 30.5Z" fill="#774400"/>
<path d="M10.7109 16.41C10.7062 16.4829 10.7181 16.5559 10.7458 16.6235C10.7736 16.6911 10.8164 16.7515 10.8709 16.8L11.0309 16.85L12.0309 17.03C12.1124 17.0548 12.1994 17.0548 12.2809 17.03C12.5409 16.92 12.6309 15.91 12.6409 15.67C12.6501 15.531 12.6237 15.3919 12.5642 15.266C12.5047 15.14 12.4141 15.0312 12.3009 14.95C12.1192 14.8533 11.9168 14.8018 11.7109 14.8L11.0609 14.75C10.9385 14.7642 10.8179 14.791 10.7009 14.83C10.7109 15.21 10.6409 16.07 10.7109 16.41Z" fill="#774400"/>
<path d="M20.7109 10.72C20.7125 10.9377 20.7786 11.1499 20.9009 11.33C21.0317 11.4705 21.1973 11.574 21.3809 11.63C21.8246 11.8079 22.2878 11.9321 22.7609 12C22.8905 12.045 23.0314 12.045 23.1609 12C23.2851 11.9162 23.3714 11.7869 23.4009 11.64C23.4422 11.4207 23.4367 11.1952 23.3851 10.9781C23.3334 10.761 23.2366 10.5572 23.1009 10.38C22.8232 10.0235 22.4846 9.71881 22.1009 9.48C21.8609 9.31 20.5309 8.87 20.5409 9C20.6009 9.47 20.7109 10.4 20.7109 10.72Z" fill="#774400"/>
<path d="M29.2309 5.49C29.2538 5.65228 29.3082 5.80853 29.3909 5.95C29.4895 6.10534 29.6231 6.23547 29.7809 6.33C30.1968 6.61411 30.6999 6.74166 31.2009 6.69C31.2605 6.68561 31.3185 6.66856 31.3709 6.64C31.4165 6.59929 31.4509 6.54767 31.4709 6.49C31.8509 5.49 29.1309 4.13 29.1309 4.13C29.1028 4.58577 29.1364 5.04325 29.2309 5.49Z" fill="#774400"/>
<path d="M36.2309 40.98L36.1809 46.39L0.710938 25.92L0.730937 24.08L0.760938 20.7L5.34094 21.37L19.8309 29.37L36.2309 40.98Z" fill="#E58A07"/>
<g opacity="0.42">
<path opacity="0.42" d="M19.8309 29.37L5.33094 21.37L0.760937 20.7V24.08V25.92L1.76094 26.49C1.75272 25.4075 2.04712 24.3442 2.61094 23.42C2.66969 23.3227 2.75257 23.2422 2.85155 23.1864C2.95054 23.1305 3.06227 23.1011 3.17594 23.1011C3.2896 23.1011 3.40133 23.1305 3.50032 23.1864C3.59931 23.2422 3.68219 23.3227 3.74094 23.42L3.86094 23.69C3.98795 23.7708 4.08601 23.8898 4.14094 24.03C4.62211 25.44 4.92448 26.9047 5.04094 28.39L5.96094 28.92C5.96094 27.24 6.52094 24.45 8.36094 26.06C9.09606 26.9788 9.56322 28.0826 9.71094 29.25C9.90094 29.96 10.0409 30.68 10.1809 31.39L10.5409 31.61C10.4787 30.7092 10.5804 29.8046 10.8409 28.94C10.8668 28.8383 10.9166 28.7442 10.9861 28.6656C11.0557 28.587 11.1429 28.5261 11.2407 28.488C11.3385 28.4499 11.4439 28.4356 11.5483 28.4464C11.6527 28.4572 11.753 28.4927 11.8409 28.55C13.1109 29.49 14.6309 30.09 15.2809 31.64C15.6357 32.5703 15.7825 33.5669 15.7109 34.56L18.2209 36C18.5609 34.26 19.2909 32.3 20.6009 33.3C21.6009 34.1 21.6609 36.42 21.6009 37.97L22.0509 38.23C22.1027 37.2214 22.2331 36.2183 22.4409 35.23C22.4705 35.0886 22.5457 34.9608 22.6549 34.8662C22.7641 34.7716 22.9013 34.7155 23.0455 34.7064C23.1897 34.6973 23.3328 34.7358 23.4531 34.8159C23.5733 34.896 23.6639 35.0134 23.7109 35.15C23.9273 35.5112 24.1146 35.889 24.2709 36.28C24.341 36.3174 24.4028 36.3686 24.4527 36.4304C24.5025 36.4923 24.5393 36.5636 24.5609 36.64C24.8749 37.7752 25.1253 38.9269 25.3109 40.09L26.5009 40.79C26.3154 40.0444 26.3895 39.2579 26.7109 38.56C26.8119 38.397 26.9463 38.2572 27.1051 38.1498C27.2639 38.0424 27.4436 37.9698 27.6325 37.9368C27.8214 37.9037 28.0151 37.911 28.2009 37.9581C28.3868 38.0052 28.5606 38.091 28.7109 38.21C29.2847 38.6842 29.7229 39.3018 29.9809 40C30.5509 40.63 31.3709 40.83 32.0709 41.41C32.5774 41.8458 32.9805 42.389 33.2509 43C33.5209 43.58 33.9309 45 33.9609 45.08L36.1709 46.35L36.2309 41L19.8309 29.37Z" fill="#A85A0C"/>
</g>
<g opacity="0.47">
<path opacity="0.47" d="M19.8309 29.35L5.33094 21.35L0.760937 20.7V24.07V25.92L1.26094 26.2C1.42496 25.0104 1.69948 23.8387 2.08094 22.7C2.11414 22.5921 2.17447 22.4945 2.25617 22.4165C2.33786 22.3386 2.43819 22.2829 2.54755 22.2548C2.65691 22.2267 2.77164 22.2272 2.88079 22.2561C2.98993 22.285 3.08983 22.3414 3.17094 22.42C4.30094 23.63 4.45094 25.58 4.53094 27.42C4.53094 27.66 4.61094 27.93 4.63094 28.18L6.95094 29.52C7.06094 28.52 7.22094 27.52 7.32094 26.59C7.32352 26.4184 7.39283 26.2546 7.51417 26.1332C7.63552 26.0119 7.79935 25.9426 7.97094 25.94C10.5609 25.64 11.5909 28.89 13.7809 29.71C16.2709 30.64 16.7209 32.94 17.0309 35.34L19.3509 36.68C20.0039 35.4939 21.0059 34.5373 22.2209 33.94C22.3722 33.8571 22.5492 33.8347 22.7163 33.8774C22.8834 33.9201 23.0281 34.0247 23.1209 34.17C23.9788 35.7951 24.4057 37.6129 24.3609 39.45C24.3609 39.45 24.3609 39.57 24.3609 39.58L27.2309 41.23C27.4909 40.16 27.9809 38.76 29.0809 38.55C30.1809 38.34 31.4609 39.46 32.2709 40.01C33.3072 40.623 34.1594 41.5034 34.7382 42.5591C35.3171 43.6148 35.6013 44.8067 35.5609 46.01L36.2109 46.38L36.2709 40.91L19.8309 29.35Z" fill="#C66700"/>
</g>
<g opacity="0.47">
<path opacity="0.47" d="M16.5209 28.63C17.1229 30.9577 17.521 33.3333 17.7109 35.73L18.1709 35.99C18.8956 34.3113 19.8261 32.7292 20.9409 31.28C19.3934 30.5267 17.9145 29.64 16.5209 28.63Z" fill="#A05007"/>
<path opacity="0.47" d="M35.0609 40.17C35.3147 41.4885 35.4486 42.8273 35.4609 44.17C35.4609 44.43 35.4609 44.7 35.4609 44.96C35.503 45.2916 35.5197 45.6259 35.5109 45.96L36.1609 46.33L36.2209 40.93L35.0609 40.17Z" fill="#A05007"/>
<path opacity="0.47" d="M29.6209 36.26L24.1309 32.39H24.0409C25.2034 34.8948 25.7878 37.6289 25.7509 40.39L26.7509 40.99C27.1187 39.1238 28.1355 37.4481 29.6209 36.26Z" fill="#A05007"/>
<path opacity="0.47" d="M5.33094 21.37L4.65094 21.27C5.21634 23.5788 5.29129 25.9805 4.87094 28.32L5.46094 28.66C5.70094 26.14 6.29094 23.58 7.83094 22.74L5.33094 21.37Z" fill="#A05007"/>
</g>
<path d="M71.3709 20.74C71.6209 21.43 70.0809 21.56 69.7309 21.74C69.0335 22.038 68.4191 22.5013 67.9409 23.09C67.7553 23.3713 67.5296 23.624 67.2709 23.84C66.6809 24.28 65.7409 24.23 65.3409 24.84C64.7625 24.6588 64.156 24.5842 63.5509 24.62C63.7947 24.774 63.9782 25.007 64.0709 25.28C63.2878 25.487 62.5274 25.7718 61.8009 26.13C61.092 26.4164 60.4413 26.8298 59.8809 27.35C58.6537 28.1722 57.3744 28.9138 56.0509 29.57C55.9109 29.57 55.6209 29.34 55.4709 29.33C55.5439 29.4755 55.5587 29.6434 55.5123 29.7995C55.4658 29.9556 55.3616 30.0881 55.2209 30.17C54.4594 30.8021 53.6149 31.327 52.7109 31.73C51.4855 32.2258 50.3158 32.8492 49.2209 33.59C48.5209 34.14 47.8409 35.42 46.8409 35.3L45.1309 35.11C45.3963 35.4673 45.7379 35.7611 46.1309 35.97C45.5109 36.73 44.3109 36.58 43.4709 37.07C43.1409 37.26 42.8809 37.54 42.5709 37.75C42.0609 38.09 41.4509 38.21 40.9309 38.52C40.4109 38.83 40.2209 39.18 39.8009 39.46C39.2094 39.7856 38.5772 40.031 37.9209 40.19C37.4109 40.37 36.7009 41.01 36.2109 41.06C36.0831 41.0564 35.9601 41.0107 35.8609 40.93C33.766 39.5576 31.5501 38.3794 29.2409 37.41C27.7964 36.9183 26.4444 36.1882 25.2409 35.25C24.7609 34.82 24.3609 34.31 23.8909 33.88C22.6509 32.72 21.1509 32.36 19.6709 31.64C18.5382 30.989 17.4431 30.2745 16.3909 29.5C15.9109 29.23 12.7109 27.94 12.7109 27.59L6.43094 24.22C5.60836 23.8289 4.84705 23.3203 4.17094 22.71C3.81094 22.35 3.51094 21.93 3.17094 21.6C2.44094 21 1.35094 21.19 0.760937 20.7C0.760937 20.1 2.64094 18.76 3.28094 18.57C5.15121 17.9626 6.94613 17.144 8.63094 16.13C9.1152 15.7672 9.68775 15.5406 10.2891 15.4738C10.8905 15.407 11.4988 15.5024 12.0509 15.75C11.7609 15.19 11.5309 15.07 10.6709 14.85C11.4694 14.2931 12.35 13.8646 13.2809 13.58C13.3909 13.19 13.4709 12.9 13.8509 12.74C14.2309 12.58 14.5609 12.39 14.8509 12.26C15.2093 12.0376 15.5444 11.7796 15.8509 11.49C16.4009 11 16.9809 11.23 17.6009 10.84C17.9509 10.62 18.9609 9.63 19.3009 9.6C20.3324 9.89445 21.3039 10.3684 22.1709 11C21.9009 10.43 20.0409 9.06 20.9209 8.63C21.7484 8.29464 22.531 7.85797 23.2509 7.33C24.0875 6.52129 25.0587 5.86478 26.1209 5.39C27.6109 4.89 28.4609 4.39 29.9109 5.29C29.7509 4.75 28.9109 4.56 29.1709 3.96C29.4309 3.36 30.6109 3.47 31.0309 3.22C31.3495 2.99374 31.6444 2.73575 31.9109 2.45C32.5978 2.0163 33.3165 1.63522 34.0609 1.31C34.5709 1 35.1009 0.1 35.7109 0C36.5042 0.258649 37.2359 0.677278 37.8609 1.23C38.0709 1.43 37.7809 1.44 37.8609 1.66C38.8609 1.26 41.3309 3 42.2509 3.45C44.0418 4.29455 45.7437 5.31632 47.3309 6.5C47.9709 7 48.5909 7.5 49.2509 8C52.0509 10 55.5709 10.61 58.3409 12.64C61.5709 15.01 65.4209 16.64 68.7809 18.9L69.8909 19.65C70.3709 20 71.2209 20.34 71.3709 20.74Z" fill="#F7C161"/>
<g opacity="0.39">
<path opacity="0.39" d="M71.3709 20.74C71.2209 20.34 70.3709 19.98 69.8909 19.65L68.7809 18.9C68.1309 18.46 67.4509 18.06 66.7809 17.66C65.7942 17.3161 64.7559 17.1436 63.7109 17.15C63.5967 17.1434 63.4827 17.1676 63.3809 17.22C63.277 17.3021 63.2038 17.4168 63.1729 17.5455C63.1421 17.6743 63.1555 17.8097 63.2109 17.93C63.3421 18.2279 63.5174 18.5043 63.7309 18.75C63.9527 19.125 64.153 19.5123 64.3309 19.91C64.816 20.8364 65.5503 21.6088 66.4509 22.14C66.9811 22.4399 67.5407 22.6845 68.1209 22.87C68.56 22.372 69.1027 21.976 69.7109 21.71C70.0809 21.56 71.6209 21.43 71.3709 20.74Z" fill="#FFF39C"/>
</g>
<g opacity="0.6">
<path opacity="0.6" d="M39.1609 15.28L39.2509 15.43C39.3145 15.5372 39.3553 15.6563 39.3709 15.78C39.3777 15.842 39.3672 15.9046 39.3408 15.961C39.3143 16.0175 39.2729 16.0655 39.2209 16.1C39.1387 16.1192 39.0532 16.1192 38.9709 16.1C38.7295 16.0761 38.4914 16.0258 38.2609 15.95C37.0909 15.63 35.8809 15.41 34.7309 15.04C33.6159 14.6758 32.5431 14.193 31.5309 13.6C31.2655 13.4649 31.0226 13.2895 30.8109 13.08C30.6481 12.9056 30.5039 12.7145 30.3809 12.51L28.9809 10.34C28.7909 10.04 28.2309 8.96 28.9109 8.88C29.479 8.85155 30.0462 8.95064 30.5709 9.17C32.2548 9.73133 33.8635 10.497 35.3609 11.45C36.1073 11.936 36.816 12.4775 37.4809 13.07C38.1576 13.7102 38.7251 14.4567 39.1609 15.28Z" fill="#FFF39C"/>
</g>
<g opacity="0.31">
<path opacity="0.31" d="M48.9909 31.43C49.1802 31.8944 49.3339 32.3724 49.4509 32.86C49.496 33.01 49.496 33.17 49.4509 33.32C49.3009 33.67 48.7009 33.65 48.3709 33.68C47.8897 33.6951 47.4086 33.6446 46.9409 33.53C45.8812 33.3517 44.8378 33.0875 43.8209 32.74C41.7887 32.0499 39.8683 31.0662 38.1209 29.82L37.5509 29.4C36.3158 28.4653 35.1829 27.4027 34.1709 26.23C33.6703 25.6408 33.1997 25.0266 32.7609 24.39C32.2762 23.6249 31.6641 22.9484 30.9509 22.39C30.9509 22.39 30.8309 22.3 30.8209 22.23C30.8115 22.1849 30.8172 22.138 30.837 22.0964C30.8569 22.0548 30.8899 22.021 30.9309 22C31.0126 21.9635 31.1016 21.9464 31.1909 21.95C31.6782 21.9962 32.1583 22.1003 32.6209 22.26C33.2709 22.4 33.9209 22.54 34.5609 22.7L37.8109 23.55C38.8109 23.8 39.8109 23.94 40.8109 24.27C41.7187 24.6138 42.5981 25.0285 43.4409 25.51C45.9162 26.787 47.8761 28.8776 48.9909 31.43Z" fill="#FFF39C"/>
</g>
<path opacity="0.45" d="M27.6409 13.43C28.2183 13.8567 28.7724 14.3141 29.3009 14.8V14.75C29.0429 13.9484 28.6206 13.2093 28.0609 12.58C27.0529 11.0776 26.2081 9.4718 25.5409 7.79L24.7909 6.08L24.6309 6.19C24.7743 7.86641 25.3384 9.47953 26.2709 10.88C26.9003 11.6253 27.3669 12.4938 27.6409 13.43Z" fill="#D88D3A"/>
<path opacity="0.45" d="M22.9409 9.29C23.0801 9.79943 23.187 10.3171 23.2609 10.84C23.9909 11.18 24.7109 11.56 25.4209 11.97C24.4598 10.5357 23.7371 8.95525 23.2809 7.29C23.0126 7.50625 22.7247 7.69707 22.4209 7.86C22.6209 8.32 22.8109 8.78 22.9609 9.23L22.9409 9.29Z" fill="#D88D3A"/>
<path opacity="0.45" d="M29.9109 5.27C28.4609 4.34 27.6109 4.87 26.1209 5.37C26.001 5.40797 25.884 5.45476 25.7709 5.51C28.0509 6 30.2609 7.38 32.5109 7C32.1909 6.7 29.7709 4.8 29.9109 5.27Z" fill="#D88D3A"/>
<path opacity="0.32" d="M39.8209 18.63C37.8209 17.96 35.8209 16.55 33.6709 16.38C34.2557 16.6848 34.7889 17.0796 35.2509 17.55C35.6953 17.9629 36.1129 18.4038 36.5009 18.87L36.9509 18.95C38.8428 19.2449 40.697 19.7445 42.4809 20.44C42.7709 20.55 43.0609 20.68 43.3409 20.8C43.6317 20.4994 43.9424 20.2187 44.2709 19.96C42.8509 19.42 41.2809 19.13 39.8209 18.63Z" fill="#FFF39C"/>
<path opacity="0.32" d="M45.4809 18.71C44.7107 18.1213 43.9823 17.4797 43.3009 16.79C42.3909 15.88 41.9609 13.94 41.5509 12.73L41.4909 12.54L40.8409 12.17C40.6254 12.0858 40.4151 11.989 40.2109 11.88C40.7309 12.75 41.2109 13.62 41.6509 14.53C42.0909 15.44 42.3609 16.17 42.7609 16.95C42.9913 17.4078 43.2589 17.8459 43.5609 18.26L44.5609 19.63V19.69C44.953 19.4351 45.3604 19.2046 45.7809 19C45.6944 18.8903 45.5935 18.7928 45.4809 18.71Z" fill="#FFF39C"/>
<path opacity="0.45" d="M49.0809 16.11L48.5509 15.72C47.3209 15.25 46.1009 14.72 44.9109 14.16C44.1401 13.8491 43.4029 13.4604 42.7109 13C42.6285 13.2087 42.5981 13.4343 42.6225 13.6573C42.6469 13.8804 42.7253 14.0941 42.8509 14.28C43.7401 15.943 44.8244 17.4939 46.0809 18.9C46.4004 18.6748 46.7345 18.4711 47.0809 18.29C46.8922 18.0816 46.6731 17.9029 46.4309 17.76C45.6188 17.2604 44.9204 16.5962 44.3809 15.81C44.3809 15.73 44.3009 15.62 44.3809 15.57C44.4237 15.5598 44.4682 15.5598 44.5109 15.57C45.2097 15.7038 45.8705 15.9901 46.446 16.4083C47.0216 16.8266 47.4979 17.3667 47.8409 17.99C48.1099 17.7226 48.4009 17.4784 48.7109 17.26L49.1509 16.86C49.153 16.6677 49.1294 16.4761 49.0809 16.29C49.0918 16.2305 49.0918 16.1695 49.0809 16.11Z" fill="#D88D3A"/>
<path opacity="0.45" d="M31.6009 5.63L32.7109 6C32.2002 5.58049 31.7611 5.08061 31.4109 4.52C31.1867 4.12287 31.012 3.69971 30.8909 3.26C30.6828 3.33466 30.4687 3.39153 30.2509 3.43C30.4797 4.12522 30.8395 4.77018 31.3109 5.33C31.4025 5.43485 31.4993 5.53498 31.6009 5.63Z" fill="#D88D3A"/>
<path opacity="0.45" d="M41.0309 3.77C40.8509 3.55 40.0309 2.36 39.8509 2.12C39.4051 1.8836 38.9265 1.71507 38.4309 1.62L38.6809 1.89C39.441 2.63302 40.1556 3.42112 40.8209 4.25C40.9909 4.47 41.2009 4.7 41.3709 4.94L41.6009 4.79L41.7109 4.71C41.5209 4.5 41.2109 4 41.0309 3.77Z" fill="#D88D3A"/>
<path opacity="0.45" d="M36.5909 3.43C35.9381 3.11387 35.3097 2.74953 34.7109 2.34C34.3772 2.07382 34.113 1.73068 33.9409 1.34L33.3409 1.64C33.9709 2.64 33.9809 4.09 34.9809 4.74C35.2671 4.91217 35.5823 5.03077 35.9109 5.09C36.4509 5.22 37.1609 5.22 37.3709 4.71C37.5809 4.2 37.0709 3.71 36.5909 3.43ZM35.9109 4.74C35.4986 4.68734 35.123 4.47629 34.8635 4.15152C34.6041 3.82675 34.4812 3.41377 34.5209 3L35.7109 3.49C36.0049 3.57149 36.2733 3.72633 36.4909 3.94C37.0009 4.53 36.5009 4.85 35.9109 4.74Z" fill="#D88D3A"/>
<path opacity="0.45" d="M40.2309 4.4C39.5409 3.89 38.7009 3.62 37.9709 3.17C36.8065 2.46002 35.8454 1.46102 35.1809 0.269997C34.8932 0.51442 34.6194 0.774831 34.3609 1.05C34.7839 1.55842 35.2872 1.99418 35.8509 2.34L38.3109 3.92C38.5171 4.02697 38.6979 4.17703 38.8409 4.36C38.9063 4.4539 38.9414 4.56557 38.9414 4.68C38.9414 4.79442 38.9063 4.9061 38.8409 5C38.7654 5.09762 38.6653 5.17352 38.5509 5.22C38.0554 5.46823 37.5152 5.61471 36.9622 5.65078C36.4091 5.68684 35.8545 5.61177 35.3309 5.43C34.8095 5.2425 34.3306 4.95322 33.922 4.57897C33.5135 4.20472 33.1834 3.75297 32.9509 3.25C32.753 2.83298 32.6801 2.36757 32.7409 1.91C32.43 2.03964 32.1402 2.2149 31.8809 2.43L31.7609 2.54C31.7915 2.76699 31.852 2.98892 31.9409 3.2C32.1356 3.56373 32.3777 3.9 32.6609 4.2C32.9511 4.55127 33.2616 4.88518 33.5909 5.2C33.7109 5.41 34.7109 6 34.7109 6.07C35.1364 6.30864 35.6059 6.45834 36.0909 6.51C36.8798 6.5238 37.6629 6.37398 38.3909 6.07L40.0609 5.5C40.3009 5.42 40.5809 5.3 40.6309 5.05C40.6809 4.8 40.4409 4.56 40.2309 4.4Z" fill="#D88D3A"/>
<g opacity="0.45">
<path opacity="0.45" d="M39.5909 2.72C39.4172 2.53477 39.2226 2.37033 39.0109 2.23C39.6527 2.86083 40.2571 3.52863 40.8209 4.23L41.1809 4.67C41.0466 4.31591 40.8685 3.97998 40.6509 3.67C40.3209 3.37 39.9009 3.06 39.5909 2.72Z" fill="#CE8B3A"/>
</g>
<g opacity="0.45">
<path opacity="0.45" d="M36.5909 3.43L35.9309 3.07C36.0301 3.18085 36.137 3.28445 36.2509 3.38C36.5123 3.54082 36.7482 3.73966 36.9509 3.97C37.3709 4.56 36.8309 4.91 36.2809 4.97C35.4409 5.07 34.9209 4.48 34.5509 3.77C34.3209 3.33 34.2309 2.83 34.0109 2.39C33.8348 2.11373 33.6445 1.84671 33.4409 1.59L33.3409 1.65C33.9709 2.65 33.9809 4.1 34.9809 4.75C35.2671 4.92217 35.5823 5.04077 35.9109 5.1C36.4509 5.23 37.1609 5.23 37.3709 4.72C37.5809 4.21 37.0709 3.71 36.5909 3.43Z" fill="#CE8B3A"/>
</g>
<g opacity="0.45">
<path opacity="0.45" d="M40.2309 4.4C39.5409 3.89 38.7009 3.62 37.9709 3.17C36.8992 2.51197 36.0008 1.60669 35.3509 0.529999C35.6802 1.53044 36.3628 2.37658 37.2709 2.91C37.9447 3.26188 38.5727 3.69512 39.1409 4.2C39.9809 5.13 39.1409 5.63 38.2109 5.88C37.4222 6.16942 36.5674 6.22909 35.7461 6.05208C34.9247 5.87506 34.1705 5.46863 33.5709 4.88C32.9437 4.39789 32.4027 3.81294 31.9709 3.15C32.1656 3.51373 32.4077 3.85001 32.6909 4.15C32.9811 4.50128 33.2916 4.83519 33.6209 5.15C33.7109 5.41 34.7109 6 34.7109 6.07C35.1364 6.30865 35.6059 6.45834 36.0909 6.51C36.8798 6.5238 37.6629 6.37399 38.3909 6.07L40.0609 5.5C40.3009 5.42 40.5809 5.3 40.6309 5.05C40.6809 4.8 40.4409 4.56 40.2309 4.4Z" fill="#CE8B3A"/>
</g>
<path opacity="0.45" d="M37.0609 3.52L37.6109 3.89C37.7497 3.97571 37.8635 4.09642 37.9409 4.24C37.9745 4.34724 37.9782 4.46157 37.9518 4.57077C37.9254 4.67998 37.8698 4.77995 37.7909 4.86C37.627 5.01515 37.428 5.12836 37.2109 5.19C36.6793 5.36774 36.1102 5.40223 35.5609 5.29C35.0796 5.15397 34.6399 4.89973 34.2819 4.55043C33.9238 4.20113 33.6588 3.76785 33.5109 3.29C33.369 2.8971 33.2816 2.48662 33.2509 2.07C33.2509 2.07 33.2509 1.85 33.2509 1.66L32.9509 1.79C32.9201 2.46253 33.0758 3.13048 33.4009 3.72C33.6697 4.13197 34.0081 4.49404 34.4009 4.79C34.5793 4.94672 34.7737 5.08415 34.9809 5.2C35.4355 5.40983 35.9303 5.51849 36.4309 5.51849C36.9316 5.51849 37.4263 5.40983 37.8809 5.2C38.1709 5.09 38.4909 4.86 38.4709 4.55C38.4547 4.41184 38.3952 4.28234 38.3009 4.18C37.981 3.81731 37.5405 3.58284 37.0609 3.52Z" fill="#FFF39C"/>
<g opacity="0.5">
<path opacity="0.5" d="M39.4209 3.33C39.1209 3.14 38.8009 2.99 38.4909 2.81C37.9209 2.48 37.3309 2.11 37.3309 1.36C37.3282 1.19321 37.3553 1.02727 37.4109 0.870003C37.0888 0.660961 36.7549 0.470646 36.4109 0.300003C36.4109 0.530003 36.4109 0.760003 36.5009 0.980003C36.7809 2.54 38.7309 3.48 40.1109 3.88C39.9409 3.82 39.6309 3.46 39.4209 3.33Z" fill="#FFF39C"/>
<path opacity="0.5" d="M33.5509 6.42C33.5509 6.15 33.0909 5.79 32.9209 5.61C32.6723 5.35995 32.4418 5.09262 32.2309 4.81C31.8169 4.17011 31.6335 3.40819 31.7109 2.65C31.5809 2.78 31.4509 2.92 31.3209 3.03C31.5501 4.13299 32.0638 5.15686 32.8109 6C32.9009 6.08 33.6109 7.06 33.5509 6.42Z" fill="#FFF39C"/>
</g>
<path opacity="0.45" d="M20.3809 11.74H20.5409C21.0257 11.9064 21.4526 12.2084 21.7709 12.61C21.8809 12.72 21.9809 12.93 21.8509 13.02C21.8048 13.0303 21.757 13.0303 21.7109 13.02C21.1639 13.0375 20.6297 12.8523 20.2109 12.5C19.7909 12.21 19.8609 11.71 20.3809 11.74Z" fill="#D88D3A"/>
<path d="M20.6009 11.93H20.7109C20.975 12.0186 21.2078 12.1818 21.3809 12.4C21.4409 12.47 21.4909 12.58 21.3809 12.62C21.3584 12.6284 21.3335 12.6284 21.3109 12.62C21.0128 12.6283 20.7217 12.5289 20.4909 12.34C20.2809 12.18 20.3209 11.91 20.6009 11.93Z" fill="#D68E38"/>
<g opacity="0.44">
<path opacity="0.44" d="M23.3309 17.63C22.6833 17.1071 21.9981 16.6325 21.2809 16.21C20.5209 15.69 19.7809 15.15 19.0209 14.64C17.7709 13.81 16.4909 13.02 15.2009 12.25C14.9586 12.3683 14.7036 12.4588 14.4409 12.52C14.1704 12.5726 13.9265 12.7176 13.7509 12.93C13.6509 13.08 13.5709 13.24 13.4709 13.38L13.5909 13.47C14.1009 13.85 14.5909 14.25 15.1309 14.58C15.734 14.9357 16.3623 15.2465 17.0109 15.51C18.0609 15.97 19.1109 16.41 20.1609 16.84C21.0863 17.3214 22.0495 17.7261 23.0409 18.05C23.2109 18.05 23.4609 18.05 23.4809 17.89C23.4775 17.8381 23.4622 17.7876 23.4362 17.7425C23.4102 17.6975 23.3742 17.659 23.3309 17.63Z" fill="#FFF39C"/>
</g>
<path opacity="0.45" d="M25.1909 19.14C25.0209 18.73 24.5309 18.44 24.1909 18.14C23.8509 17.84 23.3609 17.47 22.9409 17.14C21.2609 15.86 19.5009 14.71 17.7309 13.55C16.9609 13.05 16.1809 12.55 15.3909 12.07C15.1651 12.2455 14.9068 12.3747 14.6309 12.45C16.3509 13.38 18.1009 14.28 19.7909 15.28C20.9109 15.94 22.0009 16.64 23.0709 17.39C23.2309 17.51 23.4209 17.74 23.2709 17.88C22.1189 17.2465 20.9301 16.6822 19.7109 16.19C18.8561 15.9022 18.0238 15.5512 17.2209 15.14C16.7209 14.85 16.2209 14.49 15.8009 14.14C15.1309 13.69 14.4109 13.31 13.7109 12.91C13.6399 12.9799 13.5762 13.057 13.5209 13.14C13.3613 13.3993 13.1623 13.6321 12.9309 13.83C13.7226 14.379 14.5588 14.8607 15.4309 15.27C17.4309 16.2 19.6809 16.61 21.6809 17.58C22.2909 17.88 22.8909 18.23 23.4909 18.58C23.9637 18.8873 24.4704 19.139 25.0009 19.33C25.0227 19.3406 25.0467 19.3461 25.0709 19.3461C25.0952 19.3461 25.1191 19.3406 25.1409 19.33C25.2309 19.27 25.2109 19.19 25.1909 19.14Z" fill="#D88D3A"/>
<path d="M20.2109 16.81C18.6709 16.11 17.0009 15.7 15.5009 14.9C14.7209 14.48 13.9909 14.02 13.2809 13.55C13.1931 13.6678 13.0887 13.7722 12.9709 13.86C13.7626 14.409 14.5988 14.8907 15.4709 15.3C17.4709 16.21 19.6009 16.63 21.5609 17.55C21.1265 17.2759 20.6757 17.0288 20.2109 16.81Z" fill="#CE8B3A"/>
<path d="M17.7109 13.57C16.9409 13.07 16.1709 12.57 15.3809 12.1C15.2837 12.1883 15.1721 12.2594 15.0509 12.31C16.6609 13.23 18.2409 14.19 19.7809 15.22C19.8909 15.29 22.4409 16.88 22.7809 17.05C21.1609 15.82 19.4509 14.69 17.7109 13.57Z" fill="#CE8B3A"/>
<path opacity="0.45" d="M22.5309 19.9C21.6885 19.5797 20.8076 19.3713 19.9109 19.28H19.7109C20.8309 20.02 21.6209 20.99 23.2209 20.75C23.4616 20.7073 23.6965 20.6368 23.9209 20.54L23.7909 20.45C23.3886 20.2286 22.9668 20.0445 22.5309 19.9Z" fill="#FFF39C"/>
<path opacity="0.45" d="M23.0809 19.13C23.5693 19.242 24.0269 19.4605 24.4209 19.77C24.5249 19.8678 24.6157 19.9787 24.6909 20.1L25.2009 19.81C24.3875 19.2076 23.4683 18.7633 22.4909 18.5C21.7636 18.3962 21.0425 18.2527 20.3309 18.07C19.7509 17.87 19.2409 17.52 18.6709 17.27C17.8336 16.9461 16.9551 16.7408 16.0609 16.66C15.9231 16.6249 15.7787 16.6249 15.6409 16.66C15.9859 16.8217 16.3005 17.0416 16.5709 17.31C16.841 17.25 17.1209 17.25 17.3909 17.31C17.7753 17.4396 18.1416 17.6177 18.4809 17.84C19.5207 18.2855 20.6182 18.5818 21.7409 18.72C22.1609 18.88 22.6209 19 23.0809 19.13Z" fill="#FFF39C"/>
<path opacity="0.45" d="M25.8209 19.83C26.2742 19.4983 26.7641 19.2198 27.2809 19C26.7519 18.2332 26.0712 17.5832 25.2809 17.09C24.6567 16.6405 24.0055 16.2297 23.3309 15.86C22.3309 15.36 21.3309 15.01 20.4009 14.46C19.6771 13.9991 18.9916 13.4808 18.3509 12.91L16.3509 11.22C16.1561 11.2789 15.9756 11.3777 15.8209 11.51L15.6109 11.69C16.288 12.1825 17.0114 12.6078 17.7709 12.96C18.67 13.5891 19.5314 14.2703 20.3509 15C21.3509 15.79 22.5809 16.33 23.6509 17.06C24.0434 17.4184 24.4576 17.7523 24.8909 18.06C25.2546 18.4331 25.5342 18.8798 25.7109 19.37C25.7609 19.51 25.7809 19.68 25.8209 19.83Z" fill="#D88D3A"/>
<path opacity="0.45" d="M18.8009 13.61C20.0629 14.5291 21.4011 15.3387 22.8009 16.03C24.2809 16.79 26.2809 17.55 26.5809 19.32C26.7969 19.1928 27.0207 19.0792 27.2509 18.98C26.7219 18.2132 26.0412 17.5632 25.2509 17.07C24.6267 16.6205 23.9755 16.2097 23.3009 15.84C22.3009 15.34 21.3009 14.99 20.3709 14.44C19.6471 13.9791 18.9616 13.4608 18.3209 12.89L16.4809 11.35C17.1793 12.1766 17.9563 12.9335 18.8009 13.61Z" fill="#D88D3A"/>
<path opacity="0.45" d="M25.1209 14.85C24.8013 14.4303 24.4319 14.0508 24.0209 13.72C23.3463 13.0637 22.6352 12.4461 21.8909 11.87C20.8727 11.256 19.9354 10.5169 19.1009 9.67C18.942 9.7597 18.7914 9.86345 18.6509 9.98C19.6522 10.8635 20.7298 11.6566 21.8709 12.35C22.3267 12.5816 22.7156 12.9258 23.0009 13.35C23.0716 13.4595 23.0967 13.5923 23.0709 13.72C22.9909 14 22.6109 14.01 22.3309 13.95C21.3533 13.7177 20.4514 13.2392 19.7109 12.56C19.2409 12.14 18.8409 11.65 18.3609 11.26C18.1547 11.0832 17.9376 10.9196 17.7109 10.77L17.6009 10.84C17.4892 10.9127 17.3681 10.9699 17.2409 11.01C18.0009 11.67 18.8409 12.29 19.6009 12.93C19.9337 13.2346 20.2954 13.5058 20.6809 13.74C21.1126 13.978 21.573 14.1595 22.0509 14.28C22.9835 14.6242 23.9351 14.9147 24.9009 15.15C25.0109 15.15 25.1809 15.15 25.2009 15.04C25.2033 15.0043 25.1973 14.9685 25.1834 14.9355C25.1695 14.9025 25.1481 14.8733 25.1209 14.85Z" fill="#D88D3A"/>
<path opacity="0.45" d="M28.1909 18.65C28.5809 18.41 28.9709 18.19 29.3609 17.97C29.3366 17.9291 29.3062 17.892 29.2709 17.86C29.0394 17.6679 28.7839 17.5066 28.5109 17.38C27.8339 16.9643 27.3351 16.3122 27.1109 15.55C27.0109 15.25 26.8009 13.97 27.1709 13.55L27.0009 13.45C26.3513 13.1007 25.744 12.6779 25.1909 12.19C25.0409 12.1 24.9009 12 24.7609 11.9C24.9009 12.18 25.0909 12.45 25.2309 12.7C25.6036 13.317 25.8675 13.9936 26.0109 14.7C26.0548 15.2292 26.1554 15.7522 26.3109 16.26C26.694 16.9026 27.1652 17.4883 27.7109 18C27.8561 18.2272 28.0165 18.4444 28.1909 18.65Z" fill="#D88D3A"/>
<path d="M26.9809 16.76C26.2209 15.55 26.3909 14.12 25.9809 12.82C25.714 12.6458 25.4631 12.4484 25.2309 12.23C25.0809 12.14 24.9409 12.04 24.8009 11.94C24.9409 12.22 25.1309 12.49 25.2709 12.74C25.6436 13.357 25.9075 14.0336 26.0509 14.74C26.0948 15.2692 26.1954 15.7922 26.3509 16.3C26.7247 16.926 27.1823 17.498 27.7109 18C27.864 18.2141 28.0311 18.4179 28.2109 18.61L28.5909 18.39C27.9594 17.9493 27.4138 17.3969 26.9809 16.76Z" fill="#CE8B3A"/>
<path opacity="0.45" d="M29.9909 17.64L30.6909 17.3L30.3609 17.17C30.1006 17.0779 29.8637 16.9299 29.6667 16.7364C29.4698 16.5429 29.3176 16.3086 29.2209 16.05C29.1169 15.6867 29.0434 15.3155 29.0009 14.94C29.0009 14.79 28.9209 14.65 28.8809 14.51C28.5509 14.36 28.2309 14.19 27.8809 14.02C28.2307 15.4008 28.9619 16.6552 29.9909 17.64Z" fill="#D88D3A"/>
<path opacity="0.45" d="M32.7109 11.09C32.794 11.0805 32.8779 11.0805 32.9609 11.09C33.7175 11.262 34.4105 11.6432 34.9609 12.19C35.1409 12.34 35.3209 12.63 35.1409 12.79C35.0803 12.8279 35.012 12.8519 34.9409 12.86C34.1222 12.9793 33.2884 12.7904 32.6009 12.33C31.9209 11.89 31.9409 11.13 32.7109 11.09Z" fill="#D88D3A"/>
<path d="M33.0809 11.33H33.2109C33.6211 11.4222 33.996 11.6305 34.2909 11.93C34.3909 12.01 34.4909 12.17 34.3909 12.25C34.3556 12.2639 34.3163 12.2639 34.2809 12.25C33.8412 12.328 33.3883 12.2388 33.0109 12C32.6509 11.76 32.7109 11.35 33.0809 11.33Z" fill="#D68E38"/>
<path opacity="0.45" d="M33.5609 13.7C33.9408 13.8197 34.3336 13.8935 34.7309 13.92C35.0609 13.9873 35.401 13.9873 35.7309 13.92C35.8953 13.8771 36.0435 13.7869 36.1572 13.6608C36.2709 13.5346 36.3452 13.3779 36.3709 13.21C36.3656 13.0565 36.3249 12.9062 36.252 12.771C36.1792 12.6357 36.0762 12.519 35.9509 12.43C35.7027 12.2517 35.4806 12.0396 35.2909 11.8C35.8366 12.0398 36.3217 12.3986 36.7109 12.85C36.8526 12.9611 36.9701 13.1001 37.0561 13.2583C37.142 13.4165 37.1948 13.5907 37.2109 13.77C37.2109 14.23 36.7009 14.52 36.2109 14.61C35.5313 14.6823 34.844 14.6178 34.1896 14.4203C33.5353 14.2228 32.9271 13.8963 32.4009 13.46C31.9309 13.14 31.4709 12.8 31.0309 12.46C30.4485 12.0861 30.0385 11.4962 29.8909 10.82C29.8777 10.7207 29.8851 10.6197 29.9127 10.5234C29.9402 10.427 29.9873 10.3374 30.0509 10.26C30.1362 10.1883 30.2351 10.1346 30.3416 10.1019C30.4481 10.0693 30.5601 10.0584 30.6709 10.07C31.5696 10.0561 32.4514 10.3141 33.2009 10.81C32.5609 10.71 30.7509 10.44 31.2009 11.69C31.4454 12.1508 31.7865 12.5533 32.2009 12.87C32.5948 13.234 33.0571 13.5161 33.5609 13.7Z" fill="#D88D3A"/>
<path opacity="0.45" d="M41.8809 17.19C41.5893 16.5163 41.1946 15.8922 40.7109 15.34C40.2064 14.6399 39.6587 13.9719 39.0709 13.34C38.0495 12.3529 36.9227 11.481 35.7109 10.74L33.4309 9.26C32.6852 8.75003 31.8561 8.37437 30.9809 8.15L30.4309 8.05C29.1726 7.66564 27.8798 7.40441 26.5709 7.27C26.5345 7.26558 26.4975 7.2696 26.4628 7.28173C26.4281 7.29387 26.3967 7.3138 26.3709 7.34C26.2409 7.53 26.6609 8.59 26.7409 8.81C26.9527 9.36526 27.1999 9.90637 27.4809 10.43C28.2367 11.7853 29.229 12.9944 30.4109 14C30.9507 14.4208 31.5508 14.7579 32.1909 15C33.4947 15.5443 34.8306 16.0085 36.1909 16.39L39.5109 17.39C40.1698 17.636 40.8676 17.7613 41.5709 17.76C41.671 17.7576 41.7682 17.7263 41.8509 17.67C41.8959 17.599 41.9222 17.5177 41.9274 17.4338C41.9327 17.3499 41.9167 17.2661 41.8809 17.19ZM40.0009 16.25C39.9131 16.3438 39.7974 16.4069 39.6709 16.43C39.3011 16.4942 38.9207 16.4562 38.5709 16.32C37.2909 15.91 35.9709 15.73 34.6809 15.32C33.8962 15.0785 33.1335 14.7707 32.4009 14.4C32.4009 14.4 31.1709 13.61 31.0409 13.5C30.6553 13.1309 30.2945 12.7367 29.9609 12.32C29.1109 11.32 27.9609 10.09 27.8609 8.75C27.8415 8.68475 27.8415 8.61525 27.8609 8.55C27.8805 8.51424 27.9076 8.48318 27.9405 8.459C27.9733 8.43482 28.011 8.4181 28.0509 8.41C28.5357 8.36873 29.0237 8.43357 29.4809 8.6C30.0709 8.72 30.6609 8.82 31.2409 8.96C32.2594 9.27539 33.2364 9.71184 34.1509 10.26C35.1668 10.7407 36.1232 11.3381 37.0009 12.04C37.3914 12.3353 37.75 12.6704 38.0709 13.04C38.3097 13.3423 38.5237 13.6633 38.7109 14C39.0909 14.62 39.5809 15.19 39.9309 15.81C40.0048 15.9069 40.0372 16.0292 40.0209 16.15C40.0209 16.1843 40.0141 16.2183 40.0009 16.25Z" fill="#D88D3A"/>
<path d="M41.8809 17.19C41.5893 16.5163 41.1946 15.8922 40.7109 15.34C40.2064 14.6399 39.6587 13.9719 39.0709 13.34C38.0495 12.3529 36.9227 11.481 35.7109 10.74L33.4309 9.26C32.6852 8.75003 31.8561 8.37437 30.9809 8.15L30.4309 8.05C29.1757 7.66664 27.8864 7.40542 26.5809 7.27C26.5429 7.26476 26.5042 7.26835 26.4678 7.28049C26.4313 7.29263 26.3982 7.31299 26.3709 7.34C26.2409 7.53 26.6609 8.59 26.7409 8.81C26.9527 9.36526 27.1999 9.90637 27.4809 10.43C28.2367 11.7853 29.229 12.9944 30.4109 14C28.9052 12.4459 27.7194 10.6112 26.9209 8.6C26.7209 8.04 26.9209 7.7 27.2809 7.7C28.7461 7.83942 30.1857 8.17578 31.5609 8.7C32.8639 9.15157 34.0937 9.79171 35.2109 10.6C37.5884 12.1295 39.6298 14.1266 41.2109 16.47C41.4709 16.91 41.2109 17.19 40.7009 17.23C39.4189 17.1893 38.1465 16.9945 36.9109 16.65L39.4509 17.42C40.1098 17.666 40.8076 17.7913 41.5109 17.79C41.611 17.7876 41.7082 17.7563 41.7909 17.7C41.8511 17.6313 41.8912 17.5475 41.9071 17.4576C41.923 17.3677 41.9139 17.2751 41.8809 17.19Z" fill="#CE8B3A"/>
<path opacity="0.45" d="M49.2209 11.64L49.0009 11.59C48.3609 11.3504 47.7783 10.9791 47.2909 10.5C47.1409 10.37 47.0109 10.15 47.2009 10.1C47.2672 10.0898 47.3347 10.0898 47.4009 10.1C48.1623 10.1839 48.889 10.4629 49.5109 10.91C50.0809 11.32 49.9609 11.78 49.2209 11.64Z" fill="#D88D3A"/>
<path d="M48.9209 11.42H48.8009C48.4524 11.292 48.1353 11.0908 47.8709 10.83C47.7909 10.76 47.7209 10.65 47.8709 10.61H47.9809C48.3953 10.6572 48.7909 10.8086 49.1309 11.05C49.3909 11.25 49.3209 11.5 48.9209 11.42Z" fill="#D68E38"/>
<path opacity="0.45" d="M38.6309 21.69H38.4809C37.9685 21.6466 37.4603 21.563 36.9609 21.44C35.9669 21.1794 35.0045 20.8105 34.0909 20.34C33.3209 19.95 32.5709 19.51 31.8209 19.07C31.4409 18.85 31.0409 18.64 30.6709 18.39C30.6209 18.39 30.1009 17.91 30.1609 17.77L29.7909 17.89L29.4209 18.03C29.1709 18.12 28.9309 18.21 28.7009 18.31C29.1229 18.6114 29.5638 18.8853 30.0209 19.13C30.7309 19.53 31.4409 19.92 32.1809 20.27C33.6673 20.9803 35.2264 21.5269 36.8309 21.9C37.87 22.1274 38.9219 22.2911 39.9809 22.39L38.6309 21.69Z" fill="#D88D3A"/>
<path opacity="0.45" d="M42.5309 29.68C42.4445 29.6897 42.3573 29.6897 42.2709 29.68C41.476 29.5053 40.7433 29.1182 40.1509 28.56C39.9609 28.41 39.7709 28.11 39.9609 27.95C40.023 27.9074 40.0957 27.8831 40.1709 27.88C41.0334 27.7424 41.9164 27.9275 42.6509 28.4C43.3709 28.86 43.3509 29.64 42.5309 29.68Z" fill="#D88D3A"/>
<path d="M42.1509 29.44H42.0109C41.5785 29.3529 41.1798 29.1448 40.8609 28.84C40.7509 28.75 40.6509 28.59 40.7509 28.51C40.787 28.485 40.8279 28.468 40.8709 28.46C41.3381 28.3885 41.8152 28.4917 42.2109 28.75C42.6009 29 42.6009 29.42 42.1509 29.44Z" fill="#D68E38"/>
<path opacity="0.45" d="M41.6209 27C41.2169 26.8816 40.8011 26.8078 40.3809 26.78C40.0277 26.7097 39.6641 26.7097 39.3109 26.78C39.1367 26.8248 38.9794 26.9197 38.8585 27.0531C38.7376 27.1864 38.6585 27.3522 38.6309 27.53C38.6426 27.6868 38.6891 27.8391 38.7669 27.9757C38.8448 28.1123 38.952 28.2299 39.0809 28.32C39.3423 28.5042 39.5807 28.7191 39.7909 28.96C39.2125 28.7186 38.6963 28.3494 38.2809 27.88C38.1317 27.7792 38.0042 27.6493 37.9063 27.4981C37.8084 27.3469 37.7419 27.1775 37.7109 27C37.7109 26.53 38.2409 26.23 38.7109 26.13C40.1419 25.9739 41.5772 26.383 42.7109 27.27C43.2209 27.6 43.7109 27.95 44.1709 28.27C44.4941 28.4532 44.7757 28.7016 44.9978 28.9994C45.2198 29.2972 45.3776 29.638 45.4609 30C45.4782 30.1009 45.4728 30.2044 45.4452 30.303C45.4175 30.4016 45.3682 30.4928 45.3009 30.57C45.1188 30.7199 44.8864 30.795 44.6509 30.78C43.6975 30.7873 42.7626 30.5162 41.9609 30C42.6409 30.09 44.5609 30.35 44.1109 29.08C43.844 28.5961 43.4673 28.1817 43.0109 27.87C42.6099 27.4906 42.1374 27.1949 41.6209 27Z" fill="#D88D3A"/>
<path opacity="0.45" d="M32.7909 23.5C33.0923 24.1898 33.5006 24.8276 34.0009 25.39C34.5479 26.0906 35.1356 26.7584 35.7609 27.39C36.857 28.4049 38.0608 29.2969 39.3509 30.05C40.1609 30.56 40.9809 31.05 41.8009 31.55C42.6007 32.0626 43.479 32.441 44.4009 32.67C44.5909 32.67 44.7909 32.73 44.9909 32.76C46.3193 33.1468 47.6825 33.4014 49.0609 33.52C49.1509 33.52 49.2409 33.52 49.2809 33.44C49.3209 33.36 48.9609 32.16 48.8809 31.94C48.6488 31.3707 48.3816 30.8163 48.0809 30.28C47.2571 28.8967 46.1939 27.671 44.9409 26.66C44.3718 26.2027 43.7339 25.8382 43.0509 25.58C41.6755 25.036 40.2699 24.5719 38.8409 24.19L35.3209 23.19C34.6222 22.9395 33.883 22.8208 33.1409 22.84C33.0334 22.8331 32.9269 22.865 32.8409 22.93C32.7109 23.09 32.7109 23.32 32.7909 23.5ZM34.7909 24.45C34.8844 24.3511 35.007 24.2845 35.1409 24.26C35.53 24.198 35.9283 24.2324 36.3009 24.36C37.6609 24.77 39.0509 24.95 40.4209 25.3C41.251 25.5411 42.0603 25.8487 42.8409 26.22C42.8409 26.27 44.1409 27.02 44.2809 27.14C44.6926 27.515 45.0801 27.9158 45.4409 28.34C46.3509 29.34 47.5509 30.61 47.6909 31.99C47.7063 32.0558 47.7063 32.1242 47.6909 32.19C47.643 32.2673 47.5682 32.3243 47.4809 32.35C46.9699 32.3908 46.4559 32.3262 45.9709 32.16C45.3309 32 44.7109 32 44.0909 31.82C43.011 31.4986 41.971 31.0558 40.9909 30.5C39.9281 30.0115 38.9221 29.4079 37.9909 28.7C37.5808 28.4026 37.1992 28.0679 36.8509 27.7C36.601 27.4041 36.3737 27.0899 36.1709 26.76C35.7509 26.13 35.2309 25.55 34.8509 24.92C34.7802 24.8174 34.7451 24.6945 34.7509 24.57C34.7559 24.5277 34.7695 24.4868 34.7909 24.45Z" fill="#D88D3A"/>
<path d="M32.7909 23.5C33.0923 24.1898 33.5006 24.8276 34.0009 25.39C34.5479 26.0906 35.1356 26.7584 35.7609 27.39C36.857 28.4049 38.0608 29.2969 39.3509 30.05C40.1609 30.56 40.9809 31.05 41.8009 31.55C42.6007 32.0626 43.479 32.4409 44.4009 32.67C44.5909 32.67 44.7909 32.73 44.9909 32.76C46.3193 33.1468 47.6825 33.4014 49.0609 33.52C49.1409 33.52 49.2409 33.52 49.2809 33.44C49.3209 33.36 48.9609 32.16 48.8809 31.94C48.6488 31.3707 48.3816 30.8163 48.0809 30.28C47.2571 28.8967 46.1939 27.671 44.9409 26.66C46.5409 28.238 47.812 30.1176 48.6809 32.19C48.9009 32.76 48.6809 33.12 48.3109 33.12C46.7636 32.9872 45.2404 32.651 43.7809 32.12C42.4033 31.6713 41.0968 31.0281 39.9009 30.21C37.392 28.6563 35.2194 26.6162 33.5109 24.21C33.2209 23.75 33.5109 23.47 34.0309 23.42C35.3817 23.4484 36.7243 23.6363 38.0309 23.98L35.3509 23.21C34.6522 22.9595 33.913 22.8408 33.1709 22.86C33.0634 22.8531 32.9569 22.885 32.8709 22.95C32.7109 23.09 32.7109 23.32 32.7909 23.5Z" fill="#CE8B3A"/>
<path opacity="0.45" d="M50.3909 32.55C50.1169 31.8961 49.8766 31.2285 49.6709 30.55C49.3261 29.6577 48.7942 28.8496 48.1109 28.18C47.5597 27.6022 46.9682 27.0642 46.3409 26.57C45.7782 26.0871 45.1835 25.6428 44.5609 25.24C42.9966 24.3647 41.3118 23.7245 39.5609 23.34C37.4109 22.75 35.2509 22.19 33.1609 21.43C31.5509 20.88 29.3609 20.03 28.3809 18.56C28.1609 18.67 27.9309 18.77 27.7209 18.89C28.3197 19.8473 29.2101 20.5869 30.2609 21C31.3359 21.5272 32.4662 21.933 33.6309 22.21C36.2709 22.9 39.0009 23.27 41.5809 24.15C44.2088 24.8984 46.4823 26.5619 47.9909 28.84C48.4637 29.7452 48.8681 30.6845 49.2009 31.65C49.3851 32.097 49.592 32.5342 49.8209 32.96C49.9785 32.7831 50.1731 32.6431 50.3909 32.55Z" fill="#D88D3A"/>
<path opacity="0.45" d="M33.9009 26.8C33.5719 26.1981 33.2114 25.614 32.8209 25.05C32.4753 24.4743 32.0474 23.9521 31.5509 23.5C30.3109 22.28 28.5509 21.33 27.5009 19.97C27.3152 19.7365 27.1975 19.4562 27.1609 19.16L26.7109 19.44C26.7109 19.44 26.6609 19.44 26.6309 19.44C26.6481 19.4856 26.6755 19.5266 26.7109 19.56C28.3409 21.33 30.4809 22.56 31.9509 24.51C32.1984 24.7964 32.3702 25.1402 32.4509 25.51C32.4581 25.5257 32.4619 25.5427 32.4619 25.56C32.4619 25.5773 32.4581 25.5943 32.4509 25.61C32.4309 25.6354 32.4026 25.6531 32.3709 25.66C32.1785 25.6816 31.984 25.6468 31.8109 25.56C30.4825 25.0902 29.2544 24.3744 28.1909 23.45C27.1751 22.4145 26.3372 21.2184 25.7109 19.91C25.4609 20.08 25.2209 20.27 24.9809 20.46C24.9351 20.5008 24.8917 20.5442 24.8509 20.59C25.2945 21.5671 25.8162 22.5068 26.4109 23.4C27.1559 24.261 28.1306 24.8922 29.2209 25.22C30.635 25.9341 32.091 26.5619 33.5809 27.1C33.7009 27.1 33.8509 27.16 33.9209 27.1C33.9477 27.0536 33.9601 27.0004 33.9566 26.947C33.953 26.8935 33.9336 26.8424 33.9009 26.8Z" fill="#D88D3A"/>
<path opacity="0.45" d="M27.7909 20.39L28.4409 20.98C28.2103 20.7993 27.9931 20.6021 27.7909 20.39Z" fill="#D88D3A"/>
<path opacity="0.45" d="M52.8809 30.89C52.7517 30.7209 52.6114 30.5605 52.4609 30.41C52.3842 30.3345 52.2909 30.278 52.1885 30.245C52.086 30.212 51.9773 30.2035 51.8709 30.22C51.9044 30.6672 52.0377 31.1011 52.2609 31.49C52.313 31.6106 52.3731 31.7275 52.4409 31.84L52.6609 31.73C52.9209 31.61 53.1709 31.48 53.4109 31.35C53.2161 31.2189 53.0381 31.0644 52.8809 30.89Z" fill="#D88D3A"/>
<path opacity="0.45" d="M53.2809 29.24C52.8017 29.0512 52.3371 28.8273 51.8909 28.57L49.7109 27.36L49.5309 27.26C49.2273 27.0748 48.8852 26.9619 48.5309 26.93C48.5041 27.4858 48.686 28.0315 49.0409 28.46C49.5156 29.149 49.902 29.8948 50.1909 30.68C50.3576 31.3249 50.5715 31.9566 50.8309 32.57L51.5009 32.25C51.3838 31.6101 51.1749 30.9904 50.8809 30.41C50.6509 29.95 50.0809 29.22 50.8809 29.02C51.6809 28.82 52.6909 29.72 53.2109 30.02C53.5743 30.2429 53.91 30.508 54.2109 30.81C54.5026 30.628 54.7801 30.4241 55.0409 30.2C54.5095 29.7878 53.9152 29.4637 53.2809 29.24Z" fill="#D88D3A"/>
<path d="M53.2809 29.24C52.8017 29.0512 52.3371 28.8273 51.8909 28.57L49.7109 27.36L49.5309 27.26C49.2273 27.0748 48.8852 26.9619 48.5309 26.93C48.5041 27.4858 48.686 28.0315 49.0409 28.46C49.5156 29.149 49.902 29.8948 50.1909 30.68C50.3576 31.3249 50.5715 31.9566 50.8309 32.57L50.9909 32.49C50.7909 31.77 50.6309 31.03 50.3709 30.32C50.216 29.9737 50.0355 29.6395 49.8309 29.32C49.464 28.9076 49.2001 28.4141 49.0609 27.88C49.0516 27.8279 49.053 27.7744 49.0651 27.7228C49.0771 27.6712 49.0995 27.6226 49.1309 27.58C49.1659 27.5458 49.2092 27.5213 49.2566 27.509C49.304 27.4967 49.3537 27.4971 49.4009 27.51C49.4977 27.5273 49.5897 27.5648 49.6709 27.62C50.0009 27.82 50.3309 28.04 50.6709 28.24C51.0719 28.5061 51.4932 28.7401 51.9309 28.94C52.5509 29.23 53.1309 29.62 53.7709 29.87C54.1519 29.9823 54.4967 30.1927 54.7709 30.48C54.8709 30.4 54.9709 30.34 55.0709 30.25C54.5338 29.8173 53.929 29.4761 53.2809 29.24Z" fill="#CE8B3A"/>
<path opacity="0.45" d="M28.8409 22.09L29.0809 22.14C29.7906 22.4456 30.4053 22.936 30.8609 23.56C31.0209 23.74 31.1409 24.06 30.9409 24.18C30.8723 24.1997 30.7995 24.1997 30.7309 24.18C29.9026 24.1679 29.1095 23.8428 28.5109 23.27C27.9209 22.74 28.0609 22 28.8409 22.09Z" fill="#D88D3A"/>
<path d="M29.1509 22.39C29.1938 22.3808 29.2381 22.3808 29.2809 22.39C29.6841 22.5403 30.0326 22.8086 30.2809 23.16C30.3609 23.25 30.4309 23.42 30.2809 23.49C30.245 23.5003 30.2069 23.5003 30.1709 23.49C29.7195 23.4889 29.286 23.3133 28.9609 23C28.6509 22.74 28.7109 22.34 29.1509 22.39Z" fill="#D68E38"/>
<path opacity="0.45" d="M48.7909 9.87C48.4419 9.71406 48.0807 9.58696 47.7109 9.49C47.3887 9.378 47.0518 9.31398 46.7109 9.3C46.3909 9.3 46.0709 9.4 46.0109 9.61C45.9509 9.82 46.1109 10 46.3009 10.17C46.4968 10.3226 46.6746 10.4971 46.8309 10.69C46.4007 10.4515 46.0204 10.1324 45.7109 9.75C45.5109 9.54 45.2909 9.29 45.3609 9.08C45.4309 8.87 45.9409 8.72 46.3609 8.75C47.6132 8.92299 48.7933 9.43863 49.7709 10.24C50.1709 10.53 50.5509 10.84 50.9109 11.15C51.2709 11.46 51.7909 11.96 51.7509 12.39C51.7493 12.4577 51.7275 12.5234 51.6883 12.5786C51.6491 12.6338 51.5943 12.6761 51.5309 12.7C51.3357 12.7614 51.1262 12.7614 50.9309 12.7C50.1118 12.5319 49.3379 12.191 48.6609 11.7C49.2409 11.89 50.9109 12.43 50.6609 11.58C50.5809 11.27 50.1309 10.9 49.8509 10.64C49.5402 10.3293 49.1825 10.0695 48.7909 9.87Z" fill="#D88D3A"/>
<path opacity="0.45" d="M41.5009 6C41.6803 6.50233 41.9516 6.9669 42.3009 7.37C42.6868 7.94149 43.1111 8.48608 43.5709 9C44.4274 9.85176 45.3614 10.6218 46.3609 11.3L48.3609 12.68C49.0228 13.1628 49.7416 13.5625 50.5009 13.87L51.0009 14.04C52.1367 14.5327 53.3024 14.9535 54.4909 15.3C54.5587 15.3253 54.6332 15.3253 54.7009 15.3C54.8409 15.21 54.5909 14.47 54.5509 14.3C54.4254 13.9032 54.2648 13.5183 54.0709 13.15C53.4911 12.0948 52.7255 11.1531 51.8109 10.37C51.3477 9.97491 50.8371 9.639 50.2909 9.37C49.1309 8.71 47.9309 8.18 46.7109 7.65L43.7109 6.36C43.1183 6.06356 42.4897 5.84508 41.8409 5.71C41.7487 5.68997 41.6532 5.68997 41.5609 5.71C41.4609 5.76 41.4609 5.9 41.5009 6ZM43.1309 7C43.2393 6.9729 43.3526 6.9729 43.4609 7C43.808 7.04089 44.1459 7.13887 44.4609 7.29C45.6009 7.81 46.8009 8.19 47.9609 8.67C48.6448 8.96769 49.3124 9.3015 49.9609 9.67C49.9609 9.67 50.9609 10.41 51.1009 10.51C51.4086 10.8035 51.6959 11.1175 51.9609 11.45C52.6209 12.22 53.5009 13.23 53.4309 14.07C53.4465 14.1085 53.4465 14.1515 53.4309 14.19C53.368 14.2284 53.2945 14.2459 53.2209 14.24C52.7685 14.1737 52.3296 14.0352 51.9209 13.83C51.3909 13.64 50.8509 13.46 50.3209 13.26C49.4353 12.8677 48.5855 12.3993 47.7809 11.86C46.9226 11.3734 46.1093 10.8112 45.3509 10.18C45.04 9.93341 44.7491 9.66256 44.4809 9.37C44.3084 9.14774 44.1513 8.91386 44.0109 8.67C43.7309 8.22 43.3509 7.76 43.1109 7.31C43.0917 7.27472 43.0816 7.23518 43.0816 7.195C43.0816 7.15481 43.0917 7.11527 43.1109 7.08C43.1109 7.08 43.0909 7 43.1309 7Z" fill="#D88D3A"/>
<path d="M41.5009 6C41.6803 6.50233 41.9516 6.9669 42.3009 7.37C42.6868 7.94149 43.1111 8.48608 43.5709 9C44.4274 9.85176 45.3614 10.6218 46.3609 11.3L48.3609 12.68C49.0228 13.1628 49.7416 13.5625 50.5009 13.87L51.0009 14.04C52.1367 14.5327 53.3024 14.9535 54.4909 15.3C54.5587 15.3253 54.6332 15.3253 54.7009 15.3C54.8409 15.21 54.5909 14.47 54.5509 14.3C54.4254 13.9032 54.2648 13.5183 54.0709 13.15C53.4911 12.0948 52.7255 11.1531 51.8109 10.37C52.9345 11.504 53.7978 12.8689 54.3409 14.37C54.4609 14.75 54.2309 14.93 53.8809 14.85C52.5536 14.4712 51.2647 13.969 50.0309 13.35C48.9099 12.8328 47.85 12.1922 46.8709 11.44C44.9848 10.1388 43.3543 8.50153 42.0609 6.61C41.8709 6.28 42.1909 6.17 42.6309 6.24C43.8162 6.52255 44.9766 6.90045 46.1009 7.37L43.8309 6.37C43.2383 6.07356 42.6097 5.85508 41.9609 5.72C41.8687 5.69997 41.7732 5.69997 41.6809 5.72C41.4609 5.76 41.4609 5.9 41.5009 6Z" fill="#CE8B3A"/>
<path opacity="0.45" d="M66.9409 19.08H67.1909C67.9467 19.2598 68.6385 19.6438 69.1909 20.19C69.3709 20.34 69.5509 20.63 69.3709 20.79C69.3103 20.8279 69.242 20.8519 69.1709 20.86C68.3522 20.9793 67.5184 20.7904 66.8309 20.33C66.1409 19.87 66.1609 19.11 66.9409 19.08Z" fill="#D88D3A"/>
<path d="M67.3009 19.32H67.4309C67.8411 19.4122 68.216 19.6205 68.5109 19.92C68.6109 20 68.7109 20.16 68.6109 20.24C68.5749 20.2498 68.537 20.2498 68.5009 20.24C68.0625 20.321 67.6096 20.2354 67.2309 20C66.8709 19.75 66.8809 19.34 67.3009 19.32Z" fill="#D68E38"/>
<path opacity="0.45" d="M68.5609 22.44C68.7802 22.25 69.0181 22.0825 69.2709 21.94H68.9509C68.5536 21.9135 68.1608 21.8397 67.7809 21.72C67.2933 21.5243 66.8483 21.2356 66.4709 20.87C66.0538 20.5521 65.7123 20.1457 65.4709 19.68C65.0609 18.44 66.8709 18.68 67.4709 18.81C66.7346 18.2866 65.8544 18.0036 64.9509 18C64.8401 17.9884 64.7281 17.9993 64.6216 18.0319C64.5151 18.0646 64.4162 18.1183 64.3309 18.19C64.2656 18.2664 64.2175 18.3559 64.1899 18.4526C64.1623 18.5492 64.1558 18.6506 64.1709 18.75C64.3185 19.4262 64.7285 20.0161 65.3109 20.39C65.7509 20.75 66.2109 21.09 66.6809 21.39C67.2603 21.8187 67.8921 22.1716 68.5609 22.44Z" fill="#D88D3A"/>
<path opacity="0.45" d="M71.2409 21.18C71.1509 21.06 71.0509 20.94 70.9509 20.83C70.5612 20.3767 70.0764 20.0148 69.5309 19.77C69.7262 20.0045 69.9476 20.2159 70.1909 20.4C70.3149 20.488 70.4171 20.6031 70.4899 20.7365C70.5626 20.8699 70.604 21.0182 70.6109 21.17C70.5978 21.2958 70.5531 21.4162 70.4809 21.52C70.7548 21.4596 71.0134 21.3439 71.2409 21.18Z" fill="#D88D3A"/>
<path opacity="0.45" d="M67.5909 23.5C67.7109 23.36 67.8209 23.21 67.9409 23.06C67.4909 22.88 67.0409 22.68 66.6009 22.47C66.6009 22.47 65.3709 21.68 65.2409 21.57C64.8577 21.1986 64.497 20.8046 64.1609 20.39C63.3109 19.39 62.1609 18.16 62.0609 16.82C62.0409 16.7548 62.0409 16.6852 62.0609 16.62C62.0805 16.5842 62.1076 16.5532 62.1405 16.529C62.1733 16.5048 62.211 16.4881 62.2509 16.48C62.7357 16.4387 63.2237 16.5036 63.6809 16.67C64.2709 16.79 64.8609 16.89 65.4409 17.02L65.7609 17.12L63.2809 15.75C62.4631 15.4664 61.6063 15.3112 60.7409 15.29C60.7045 15.2856 60.6675 15.2896 60.6328 15.3017C60.5981 15.3139 60.5667 15.3338 60.5409 15.36C60.4109 15.55 60.8309 16.61 60.9109 16.83C61.1452 17.3757 61.4124 17.9066 61.7109 18.42C62.4627 19.7781 63.4517 20.9906 64.6309 22C65.1707 22.4208 65.7708 22.7579 66.4109 23C66.8009 23.2 67.1909 23.36 67.5909 23.5Z" fill="#D88D3A"/>
<path d="M61.5409 15.69C62.4531 15.7389 63.3546 15.9104 64.2209 16.2L63.3309 15.72C62.5131 15.4364 61.6563 15.2812 60.7909 15.26C60.7545 15.2556 60.7175 15.2596 60.6828 15.2717C60.6481 15.2839 60.6167 15.3038 60.5909 15.33C60.4609 15.52 60.8809 16.58 60.9609 16.8C61.1779 17.3547 61.4283 17.8957 61.7109 18.42C62.4627 19.7781 63.4517 20.9906 64.6309 22C63.1274 20.4442 61.9419 18.6099 61.1409 16.6C60.9809 16 61.1709 15.69 61.5409 15.69Z" fill="#CE8B3A"/>
<g opacity="0.44">
<path opacity="0.44" d="M45.0809 35.11C45.2809 35.11 37.5009 31.71 33.9309 29.17C33.1009 28.77 25.7809 24.43 25.6409 24.43C26.6516 25.2154 27.5266 26.1613 28.2309 27.23C28.8452 28.1966 29.6002 29.0661 30.4709 29.81C30.9409 30.16 31.4209 30.49 31.8809 30.81L32.1009 30.94C33.7609 31.85 35.1909 33.1 36.8809 33.94C38.5709 34.78 40.2409 35.94 42.0609 36.84C42.3828 36.9849 42.6908 37.159 42.9809 37.36C43.1277 37.238 43.2812 37.1245 43.4409 37.02C44.2809 36.53 45.4409 36.68 46.1009 35.92C45.7057 35.728 45.3575 35.4514 45.0809 35.11Z" fill="#FFF39C"/>
<path opacity="0.44" d="M33.9109 36.61C34.7209 36.93 35.5409 37.23 36.3909 37.53C37.1308 37.7491 37.8136 38.128 38.3909 38.64C38.4809 38.72 39.4509 39.64 39.3909 39.64C39.5412 39.577 39.6851 39.5 39.8209 39.41C40.2409 39.13 40.5009 38.73 40.9509 38.47C41.2177 38.3199 41.4951 38.1896 41.7809 38.08C41.6209 38.15 40.9209 37.77 40.7809 37.71L39.5509 37.25C38.7409 36.93 37.9409 36.59 37.1509 36.25L36.1509 35.8C34.9303 35.2697 33.7416 34.6687 32.5909 34C32.0509 33.67 31.5209 33.32 30.9509 33C30.3047 32.7014 29.6359 32.454 28.9509 32.26C27.8609 31.91 26.7809 31.57 25.6809 31.26C24.7091 30.8681 23.7054 30.5603 22.6809 30.34C22.5109 30.34 22.2609 30.34 22.2609 30.54C22.2681 30.592 22.2871 30.6416 22.3166 30.6849C22.3461 30.7283 22.3852 30.7643 22.4309 30.79C23.1593 31.2502 23.9215 31.6547 24.7109 32C25.5109 32.44 26.3009 32.91 27.1109 33.34C28.7409 34.2 30.3909 35 32.0609 35.77C32.6509 36.1 33.2809 36.37 33.9109 36.61Z" fill="#FFF39C"/>
</g>
<g opacity="0.33">
<path opacity="0.35" d="M10.0209 22.73C12.8482 24.1908 15.7916 25.415 18.8209 26.39C20.4026 26.9143 22.066 27.1481 23.7309 27.08C23.7669 27.0903 23.805 27.0903 23.8409 27.08C23.8678 27.0634 23.8896 27.0396 23.9037 27.0114C23.9178 26.9831 23.9238 26.9515 23.9209 26.92C23.9317 26.5549 23.807 26.1987 23.5709 25.92C22.7929 24.9357 21.9546 24.0006 21.0609 23.12L19.3009 21C19.1574 20.8184 19.0003 20.6479 18.8309 20.49C18.1209 19.86 17.2309 19.49 16.5109 18.88C15.3909 17.88 14.1209 17.05 12.9209 16.14C12.5886 16.0525 12.2785 15.8957 12.0109 15.68C12.0058 15.703 12.0058 15.7269 12.0109 15.75C11.4588 15.5023 10.8505 15.407 10.2491 15.4738C9.64775 15.5406 9.0752 15.7672 8.59094 16.13C6.90613 17.144 5.11121 17.9626 3.24094 18.57C2.81931 18.7393 2.42241 18.9647 2.06094 19.24C4.92094 19.74 7.57094 21.37 10.0209 22.73Z" fill="#FFF39C"/>
</g>
<path opacity="0.45" d="M16.6309 21.1L15.8909 20.4C14.8168 19.5612 13.6802 18.8056 12.4909 18.14C11.4504 17.3129 10.3691 16.5386 9.25094 15.82C9.03751 15.9092 8.83036 16.0128 8.63094 16.13L8.36094 16.27C10.0709 17.11 13.9909 19.62 14.3609 20.73C14.5509 21.25 11.7109 19.73 9.84094 19.16C8.45288 18.8332 7.12608 18.2863 5.91094 17.54C5.46094 17.75 5.01094 17.94 4.55094 18.12C6.867 19.2658 9.25153 20.2677 11.6909 21.12C12.9831 21.6847 14.2272 22.3536 15.4109 23.12C15.7209 23.29 19.2609 24.74 19.3409 24.36C19.4209 23.98 19.1809 23.79 18.9709 23.57C18.2009 22.75 17.4309 21.9 16.6309 21.1Z" fill="#D88D3A"/>
<path d="M16.6309 21.1L15.8909 20.4C14.8168 19.5612 13.6802 18.8056 12.4909 18.14C11.4504 17.3129 10.3691 16.5386 9.25094 15.82L8.95094 15.96C9.15094 16.06 9.34094 16.17 9.40094 16.21C10.5209 16.87 11.5009 17.73 12.6409 18.38C13.8058 19.0399 14.8812 19.8465 15.8409 20.78C16.7966 21.6381 17.649 22.6046 18.3809 23.66C17.4279 23.6129 16.5053 23.3088 15.7109 22.78C14.1009 21.91 12.4709 21.12 10.7909 20.39C9.11094 19.66 7.51094 19.23 5.95094 18.48C5.85094 18.43 5.34094 18.1 5.03094 17.93L4.57094 18.12C6.887 19.2658 9.27153 20.2677 11.7109 21.12C13.0031 21.6847 14.2472 22.3536 15.4309 23.12C15.7409 23.29 19.2809 24.74 19.3609 24.36C19.4409 23.98 19.2009 23.79 18.9909 23.57C18.2009 22.75 17.4309 21.9 16.6309 21.1Z" fill="#CE8B3A"/>
<path opacity="0.45" d="M26.3109 28.65C26.5309 27.78 20.8909 22.59 16.6509 18.96C16.5719 18.986 16.4883 18.9949 16.4056 18.9863C16.3229 18.9777 16.2429 18.9517 16.1709 18.91L16.0109 18.82C17.7209 20.27 19.0109 21.82 21.7709 24.6C22.1409 24.97 23.6709 26.42 23.2509 26.6C21.7709 27.31 14.1209 24.43 11.6409 23.21L6.79094 20.84L4.44094 19.69C4.02901 19.5277 3.63657 19.3197 3.27094 19.07C3.12094 18.96 3.00094 18.85 2.87094 18.75C2.07094 19.19 0.760937 20.2 0.760937 20.7C1.35094 21.19 2.44094 21.03 3.12094 21.6C3.47415 21.9128 3.80809 22.2468 4.12094 22.6C5.60684 22.6414 7.06374 23.0211 8.38094 23.71C9.78094 24.3 11.1209 25 12.5509 25.5C15.5552 26.5784 18.6125 27.503 21.7109 28.27C23.3209 28.65 25.9509 30.1 26.3109 28.65Z" fill="#D88D3A"/>
<path d="M4.04094 22.57H4.17094C7.17094 22.73 9.73094 24.5 12.5209 25.48C15.5347 26.5662 18.602 27.4974 21.7109 28.27C23.2809 28.65 25.9109 30.1 26.2709 28.65C26.4509 27.94 22.7109 24.34 19.0309 21.07C20.0309 22.07 20.9309 23.31 22.0309 24.29C23.0169 25.2863 23.9136 26.3671 24.7109 27.52C24.9172 27.7351 25.032 28.0219 25.0309 28.32C25.0298 28.3455 25.0229 28.3705 25.0108 28.393C24.9987 28.4155 24.9816 28.435 24.9609 28.45C24.9372 28.4602 24.9117 28.4654 24.8859 28.4654C24.8601 28.4654 24.8346 28.4602 24.8109 28.45C22.3794 28.0086 19.9857 27.38 17.6509 26.57C15.1963 25.887 12.7908 25.0384 10.4509 24.03C9.3185 23.4824 8.14491 23.0243 6.94094 22.66C6.32094 22.49 5.70094 22.35 5.07094 22.24C4.81094 22.19 4.14094 22.24 3.68094 22.12C3.78094 22.29 3.91094 22.43 4.04094 22.57Z" fill="#CE8B3A"/>
<path opacity="0.44" d="M16.9609 24.58C18.2509 24.96 20.8409 25.97 21.3209 25.63C21.8009 25.29 20.4009 24.07 19.9809 23.47C18.9502 22.3538 17.8586 21.2956 16.7109 20.3C15.3729 19.1606 13.9259 18.1558 12.3909 17.3C13.0909 17.74 20.6009 24.3 20.3909 24.72C20.1809 25.14 17.8609 24.53 16.7909 24.02C15.7209 23.51 12.0809 22 11.4309 21.69C10.7809 21.38 6.32094 19.37 5.50094 19.44C6.05094 19.82 8.35094 20.89 8.96094 21.17C10.3609 21.82 16.5509 24.46 16.9609 24.58Z" fill="#FFF39C"/>
<path opacity="0.45" d="M24.2609 32.83L24.1309 32.72C23.1374 31.8732 22.0464 31.1481 20.8809 30.56C19.6709 29.95 18.4609 29.33 17.2809 28.64C15.2219 27.3178 13.0174 26.2374 10.7109 25.42C9.57094 25.07 8.37094 24.9 7.20094 24.63L7.60094 24.84C9.3093 25.3656 10.9798 26.0071 12.6009 26.76C14.6509 27.76 16.4509 29.17 18.3909 30.34C19.9809 31.34 21.6709 32.13 23.3909 32.96C24.1657 33.3905 24.8677 33.9406 25.4709 34.59C27.5709 36.41 30.3509 36.68 32.6309 38.18L36.7409 40.89C37.1407 40.6334 37.5547 40.3997 37.9809 40.19C38.3309 40.07 38.6609 39.99 38.9809 39.88C34.0909 37.35 28.4809 36.23 24.2609 32.83Z" fill="#D88D3A"/>
<path opacity="0.45" d="M28.4509 34.32C26.5809 33.32 24.7109 32.32 22.9209 31.25C22.4609 30.97 22.0209 30.68 21.5709 30.38C21.1529 30.1705 20.7846 29.8739 20.4909 29.51C20.4909 29.45 20.4409 29.38 20.4909 29.34C20.5409 29.3 20.5809 29.34 20.6309 29.34C21.1787 29.4793 21.7088 29.6806 22.2109 29.94C22.8409 30.2 23.4709 30.49 24.1109 30.73C26.1909 31.49 28.4509 31.73 30.5509 32.41C34.1609 33.67 37.0909 36.41 40.6709 37.75L39.2109 37.41C38.3264 37.2223 37.4573 36.9683 36.6109 36.65C35.4609 36.19 34.4109 35.51 33.3009 34.97C32.1909 34.43 31.3009 34.11 30.3009 33.58C29.7909 33.3 29.3009 32.99 28.7809 32.75C27.9457 32.4188 27.0866 32.1513 26.2109 31.95C24.9706 31.5609 23.755 31.0967 22.5709 30.56C22.4409 30.72 22.6409 30.94 22.8209 31.04C23.9609 31.67 25.1209 32.27 26.3009 32.81C30.1909 34.62 34.3009 35.95 37.9709 38.22L35.6409 37.46C34.7209 37.15 33.8009 36.85 32.9109 36.46C31.3874 35.8263 29.8986 35.1119 28.4509 34.32Z" fill="#D88D3A"/>
<path opacity="0.45" d="M44.6509 36.67L44.8809 36.61C42.9987 34.8377 40.849 33.3731 38.5109 32.27C37.5109 31.81 36.5109 31.41 35.5109 30.87C34.2995 30.1726 33.2004 29.296 32.2509 28.27L30.6409 27.38C31.3609 28.1 32.0909 28.81 32.8309 29.52C33.4878 30.1839 34.1895 30.8021 34.9309 31.37C35.8448 32.0143 36.8078 32.5861 37.8109 33.08L44.6509 36.67Z" fill="#D88D3A"/>
<path opacity="0.45" d="M42.2709 37.9C42.365 37.8577 42.4554 37.8076 42.5409 37.75C42.7009 37.64 42.8609 37.51 43.0109 37.39C42.6409 37.1 42.2509 36.83 41.8609 36.57C40.7109 35.8 39.5809 35 38.3809 34.36C36.7209 33.36 34.9609 32.65 33.3809 31.64C30.9462 29.9985 28.7082 28.0826 26.7109 25.93C26.2936 25.5431 25.9213 25.1104 25.6009 24.64C25.5309 24.53 25.4909 24.41 25.4309 24.3C24.6709 23.82 23.9209 23.3 23.1909 22.82C24.7767 24.797 26.4798 26.6771 28.2909 28.45C29.4109 29.53 30.5676 30.56 31.7609 31.54C32.4009 32.07 33.0609 32.54 33.7609 33.05C34.9677 33.8584 36.2161 34.6027 37.5009 35.28L42.2709 37.9Z" fill="#D88D3A"/>
<path d="M40.8309 35.89C40.0309 35.36 39.2209 34.83 38.3809 34.36C36.7209 33.36 34.9609 32.65 33.3809 31.64C30.9462 29.9985 28.7082 28.0826 26.7109 25.93C26.3993 25.619 26.1118 25.2847 25.8509 24.93H25.7209C28.9249 29.0255 33.1061 32.2509 37.8809 34.31C38.8983 34.7651 39.8781 35.3001 40.8109 35.91L40.8309 35.89Z" fill="#CE8B3A"/>
<path d="M25.7109 31.33C27.3109 31.89 29.0109 32.13 30.5809 32.78C33.8809 34.14 36.5309 36.21 39.6809 37.47L40.6809 37.71C37.1009 36.39 34.1709 33.63 30.5609 32.37C28.5609 31.66 26.3209 31.46 24.2809 30.74C24.7461 30.9635 25.2235 31.1605 25.7109 31.33Z" fill="#CE8B3A"/>
<path d="M35.9409 37.32C32.6181 36.0401 29.3755 34.5607 26.2309 32.89C26.1109 32.82 23.4309 31.49 23.0909 31.35C24.8309 32.42 26.6409 33.35 28.4509 34.35C29.8956 35.1382 31.381 35.8492 32.9009 36.48C33.8009 36.84 34.7109 37.14 35.6309 37.48C35.8109 37.48 35.9109 37.61 36.0709 37.55C36.2309 37.49 36.0309 37.36 35.9409 37.32Z" fill="#CE8B3A"/>
<path opacity="0.45" d="M53.3209 16.3L49.3909 15C48.2209 14.63 47.0509 14.24 45.8609 13.9C44.9109 13.5807 44.0668 13.0064 43.4209 12.24C41.8845 10.5671 40.5673 8.70549 39.5009 6.7C39.3131 6.81638 39.1195 6.92318 38.9209 7.02C40.5609 9.1 41.5509 11.7 43.5109 13.47C44.4045 14.2274 45.3807 14.8815 46.4209 15.42C47.0707 15.8499 47.7776 16.1865 48.5209 16.42C49.1409 16.58 49.7809 16.6 50.4109 16.7C52.3409 16.99 54.1609 17.93 56.0709 18.23C56.3045 17.9327 56.5657 17.6581 56.8509 17.41C55.6409 17.1561 54.4586 16.7843 53.3209 16.3Z" fill="#D88D3A"/>
<path opacity="0.45" d="M57.0709 16.05C54.9334 15.7001 52.8268 15.1819 50.7709 14.5C48.8458 13.7177 47.0198 12.7107 45.3309 11.5C44.6854 11.1391 44.0875 10.699 43.5509 10.19C42.9814 9.51389 42.4505 8.8061 41.9609 8.07C41.3894 7.40922 40.93 6.65929 40.6009 5.85C40.4809 5.96 40.3609 6.07 40.2309 6.17C40.6575 7.09543 41.1522 7.98788 41.7109 8.84C42.9961 10.866 44.8549 12.4637 47.0509 13.43C47.5209 13.63 48.0509 13.8 48.5009 13.97C49.9409 14.47 51.3909 15.09 52.8609 15.46C53.8609 15.7 54.7909 15.94 55.7409 16.2C56.3794 16.3124 56.9989 16.5144 57.5809 16.8L58.1509 16.4L58.2209 16.35H58.2909C57.8809 16.17 57.4009 16.13 57.0709 16.05Z" fill="#D88D3A"/>
<path opacity="0.45" d="M46.4809 20.05C46.5573 20.0403 46.6346 20.0403 46.7109 20.05C47.4164 20.2073 48.0661 20.5529 48.5909 21.05C48.7609 21.19 48.9309 21.47 48.7509 21.61C48.6999 21.6519 48.6369 21.6764 48.5709 21.68C47.7977 21.7952 47.0093 21.6168 46.3609 21.18C45.7109 20.79 45.7109 20.08 46.4809 20.05Z" fill="#D88D3A"/>
<path d="M46.8209 20.27H46.9409C47.319 20.3623 47.6647 20.5559 47.9409 20.83C48.0309 20.91 48.1209 21.06 48.0309 21.14H47.9309C47.51 21.199 47.0822 21.0992 46.7309 20.86C46.4109 20.68 46.4209 20.29 46.8209 20.27Z" fill="#D68E38"/>
<path opacity="0.45" d="M44.5409 21.77C45.519 22.1797 46.5208 22.5304 47.5409 22.82L50.0309 23.58C50.5281 23.7591 51.0525 23.8505 51.5809 23.85C51.6561 23.8469 51.7289 23.8226 51.7909 23.78C51.9009 23.69 51.8709 23.52 51.7909 23.39C51.5933 22.886 51.3165 22.4168 50.9709 22C50.5815 21.4782 50.1608 20.9807 49.7109 20.51C48.9471 19.7526 48.102 19.0819 47.1909 18.51L46.9109 18.68C47.345 18.9333 47.7625 19.2138 48.1609 19.52C48.4484 19.7395 48.7161 19.9838 48.9609 20.25C49.1356 20.4695 49.2959 20.6999 49.4409 20.94C49.7309 21.4 50.1009 21.83 50.3609 22.29C50.417 22.3644 50.4421 22.4575 50.4309 22.55C50.4247 22.5876 50.4073 22.6224 50.3809 22.65C50.3156 22.7233 50.2276 22.7725 50.1309 22.79C49.8545 22.8351 49.571 22.804 49.3109 22.7C48.3109 22.4 47.3609 22.26 46.3909 21.99C45.8153 21.8121 45.2537 21.5915 44.7109 21.33C44.7109 21.33 43.8009 20.74 43.7109 20.65L43.2009 20.94L43.2709 21.02C43.6573 21.3279 44.0848 21.5803 44.5409 21.77Z" fill="#D88D3A"/>
<path d="M51.3409 22.86C51.5409 23.19 51.3409 23.4 50.9609 23.43C50.0004 23.4016 49.0468 23.2572 48.1209 23L50.0209 23.58C50.5181 23.7591 51.0425 23.8505 51.5709 23.85C51.6461 23.8469 51.7189 23.8226 51.7809 23.78C51.8909 23.69 51.8609 23.52 51.7809 23.39C51.5863 22.8867 51.3129 22.4175 50.9709 22C50.5815 21.4782 50.1608 20.9807 49.7109 20.51C48.9471 19.7526 48.102 19.0819 47.1909 18.51L47.0609 18.59C48.7519 19.7212 50.2058 21.1717 51.3409 22.86Z" fill="#CE8B3A"/>
<path opacity="0.45" d="M64.4709 24C63.5019 23.5206 62.4146 23.333 61.3409 23.46C59.1346 23.2654 56.9593 22.8088 54.8609 22.1C54.6328 22.0304 54.3891 22.0304 54.1609 22.1C54.1044 22.1138 54.0512 22.139 54.0047 22.174C53.9582 22.209 53.9192 22.2531 53.8903 22.3036C53.8613 22.3541 53.8428 22.4099 53.8361 22.4678C53.8293 22.5256 53.8344 22.5842 53.8509 22.64C53.8978 22.7319 53.9665 22.8109 54.0509 22.87L58.7109 26.48C59.1068 26.7443 59.4466 27.0842 59.7109 27.48L59.9309 27.32L60.0409 27.24C59.9538 27.0809 59.8569 26.9272 59.7509 26.78C59.246 26.0701 58.6074 25.4655 57.8709 25C57.3309 24.65 56.6609 24.26 56.6409 23.62L60.6409 24.06C61.1074 24.09 61.568 24.1808 62.0109 24.33C62.557 24.583 63.0599 24.9205 63.5009 25.33C63.6769 25.2735 63.8576 25.2333 64.0409 25.21C63.9482 24.937 63.7647 24.704 63.5209 24.55C64.0776 24.5229 64.635 24.5871 65.1709 24.74C64.9867 24.4512 64.7491 24.2 64.4709 24Z" fill="#D88D3A"/>
<path opacity="0.45" d="M63.5509 24.6C63.7109 24.6 63.8709 24.6 64.0309 24.6C63.6309 24.2 63.1609 23.89 62.7709 23.48C62.3009 23.48 61.7709 23.48 61.3409 23.48C59.1346 23.2854 56.9593 22.8288 54.8609 22.12C54.6328 22.0504 54.3891 22.0504 54.1609 22.12C54.1044 22.1338 54.0512 22.159 54.0047 22.194C53.9582 22.229 53.9192 22.2731 53.8903 22.3236C53.8613 22.3741 53.8428 22.4299 53.8361 22.4878C53.8293 22.5456 53.8344 22.6042 53.8509 22.66C53.8978 22.7519 53.9665 22.8309 54.0509 22.89L58.7109 26.48C59.105 26.7465 59.4444 27.0859 59.7109 27.48C59.8309 27.41 58.8309 26.2 58.7109 26.1C58.2826 25.6953 57.8209 25.3274 57.3309 25C56.8609 24.65 56.3309 24.32 55.9109 24C55.4909 23.68 54.8309 23.33 54.7009 22.81C54.6829 22.7835 54.6732 22.7521 54.6732 22.72C54.6732 22.6879 54.6829 22.6565 54.7009 22.63C54.7308 22.6258 54.7611 22.6258 54.7909 22.63C55.6852 22.6589 56.5651 22.8628 57.3809 23.23C58.3262 23.4858 59.2887 23.6729 60.2609 23.79C61.2381 23.8724 62.1911 24.137 63.0709 24.57C63.4083 24.7959 63.7057 25.0764 63.9509 25.4H64.0409C63.9867 25.0802 63.8112 24.7937 63.5509 24.6Z" fill="#D88D3A"/>
<path opacity="0.45" d="M57.3409 27.9C56.5654 26.7107 55.6852 25.5929 54.7109 24.56L53.5109 23.18C52.6904 22.409 51.9189 21.5874 51.2009 20.72C50.9047 20.353 50.6991 19.9213 50.6009 19.46C50.5912 19.4397 50.5861 19.4175 50.5861 19.395C50.5861 19.3725 50.5912 19.3503 50.6009 19.33C50.6262 19.2988 50.6616 19.2776 50.7009 19.27C50.9367 19.2428 51.1751 19.2918 51.3809 19.41C53.2509 20.25 54.9909 21.75 57.0809 21.99C57.2661 22.0263 57.4579 22.0053 57.6309 21.93C56.7523 21.0544 55.6996 20.373 54.5409 19.93C52.8159 19.0141 51.0359 18.2059 49.2109 17.51H49.0909L48.7709 17.69C48.7558 17.7626 48.7558 17.8374 48.7709 17.91C49.1705 18.6681 49.6077 19.4057 50.0809 20.12C50.5295 20.823 51.0786 21.4564 51.7109 22C52.8709 23.19 53.9909 24.48 55.0809 25.75C55.9127 26.5804 56.5899 27.5522 57.0809 28.62C57.0809 28.73 57.1509 28.84 57.1909 28.95L57.8709 28.57C57.6774 28.3605 57.5003 28.1365 57.3409 27.9Z" fill="#D88D3A"/>
<path opacity="0.45" d="M59.8109 24.8C59.6709 24.8 59.5109 24.8 59.4309 24.89C59.3509 24.98 59.4309 25.21 59.5009 25.35L60.4409 26.9C60.8375 26.5493 61.2998 26.2807 61.8009 26.11C62.011 26.0483 62.2151 25.9679 62.4109 25.87L62.3009 25.71C61.6123 25.1087 60.725 24.7844 59.8109 24.8Z" fill="#D88D3A"/>
<path opacity="0.45" d="M50.2109 24.2C51.2636 24.3475 52.2803 24.6864 53.2109 25.2C53.833 25.6624 54.3453 26.2566 54.7109 26.94C55.0498 27.5212 55.3311 28.1341 55.5509 28.77L54.4709 28.51C54.3764 28.506 54.2864 28.4686 54.2169 28.4046C54.1473 28.3405 54.1027 28.2538 54.0909 28.16C53.9242 27.29 53.5617 26.4692 53.0309 25.76C52.3514 25.171 51.4982 24.8199 50.6009 24.76C48.072 24.32 45.5884 23.6506 43.1809 22.76C42.7709 22.61 41.8209 21.94 42.6009 21.65C43.0709 21.48 44.4309 22.35 44.8909 22.53C46.6227 23.2114 48.4004 23.7695 50.2109 24.2Z" fill="#D88D3A"/>
<path opacity="0.32" d="M57.3109 26.15C56.8812 25.5127 56.3851 24.9227 55.8309 24.39C54.8309 23.53 53.5409 22.97 53.0209 21.79C52.9858 21.7217 52.9653 21.6467 52.9609 21.57C52.9609 21.22 53.2509 21.27 53.5809 21.39C53.9109 21.51 56.0709 22.39 56.3609 22.23C55.2801 21.6079 54.1687 21.0405 53.0309 20.53C52.7309 20.4 52.0909 20.07 51.8709 20.31C51.6509 20.55 51.9609 20.88 52.0509 21.07C52.3886 21.7347 52.8502 22.3287 53.4109 22.82C54.0209 23.38 54.7509 24.16 55.4109 24.67C56.366 25.4006 57.1168 26.3649 57.5909 27.47C57.7068 27.85 57.774 28.2431 57.7909 28.64L58.5809 28.18C58.2216 27.4654 57.7964 26.7858 57.3109 26.15Z" fill="#FFF39C"/>
<path opacity="0.45" d="M65.1909 23.88C64.5964 23.3658 63.961 22.9009 63.2909 22.49C62.7133 22.1872 62.1525 21.8534 61.6109 21.49C61.1444 21.1166 60.7095 20.7052 60.3109 20.26C59.9525 19.9162 59.6459 19.5221 59.4009 19.09C58.9309 18.18 59.0009 17.02 58.4009 16.19C57.9295 16.4934 57.4786 16.8275 57.0509 17.19C57.3013 17.9956 57.7092 18.7434 58.2509 19.39C58.9922 20.0382 59.8202 20.5801 60.7109 21C62.0898 21.9019 63.4001 22.9047 64.6309 24C64.9109 24.24 65.1909 24.48 65.4509 24.74C65.5567 24.6282 65.6821 24.5366 65.8209 24.47C65.6009 24.25 65.3909 24.06 65.1909 23.88Z" fill="#D88D3A"/>
<path opacity="0.45" d="M63.9709 22C63.4313 21.6295 62.929 21.2076 62.4709 20.74C61.0909 19.24 60.7109 17.1 59.7609 15.31L59.0809 15.75C59.3693 16.4124 59.7035 17.054 60.0809 17.67C60.3009 18.15 60.4009 18.67 60.6009 19.17C61.2046 20.3605 62.1477 21.3454 63.3109 22C64.3993 22.6391 65.4299 23.3719 66.3909 24.19C66.6394 24.1159 66.8805 24.0188 67.1109 23.9C65.9975 23.3842 64.9445 22.747 63.9709 22Z" fill="#D88D3A"/>
<path opacity="0.45" d="M57.9009 13.47C57.3112 13.0141 56.892 12.373 56.7109 11.65C56.3709 11.47 56.0209 11.29 55.6609 11.13C55.7766 11.8583 56.0735 12.5459 56.5243 13.1295C56.9752 13.7131 57.5654 14.1741 58.2409 14.47C58.6053 14.5901 58.9444 14.7765 59.2409 15.02L59.3609 15.15C59.5512 15.0034 59.7555 14.8761 59.9709 14.77C59.2467 14.3937 58.5544 13.9589 57.9009 13.47Z" fill="#D88D3A"/>
<path opacity="0.45" d="M54.9009 11.61C54.9009 11.33 54.8009 11.02 54.7409 10.7L53.4409 10.15C53.9148 11.0254 54.3388 11.9268 54.7109 12.85C55.3544 14.1133 56.3291 15.1779 57.5309 15.93C57.7145 16.0419 57.9048 16.1421 58.1009 16.23L58.7909 15.61C57.9901 15.4032 57.2454 15.0206 56.6109 14.49C55.7197 13.7612 55.1141 12.7414 54.9009 11.61Z" fill="#D88D3A"/>
<path opacity="0.45" d="M47.3009 6.48C45.8138 6.29559 44.3897 5.76842 43.1409 4.94C42.8842 4.72054 42.6022 4.53254 42.3009 4.38C42.1024 4.56057 41.8919 4.72761 41.6709 4.88C43.1309 6 45.3909 6.52 47.0709 7L48.5909 7.45L47.3309 6.45L47.3009 6.48Z" fill="#D88D3A"/>
<path d="M71.3709 20.74C71.2209 20.34 70.3709 19.98 69.8909 19.65L68.7809 18.9C65.4209 16.64 61.5709 15.01 58.3409 12.64C55.5709 10.64 52.0509 9.98 49.2509 8C48.5909 7.53 47.9709 7 47.3309 6.5C45.7447 5.33423 44.0463 4.32927 42.2609 3.5C41.3409 3.05 38.8509 1.31 37.8709 1.71C37.7709 1.49 38.0609 1.48 37.8709 1.28C37.2475 0.708169 36.5119 0.272271 35.7109 0C35.1109 0.1 34.5809 1 34.0709 1.29C33.3231 1.61476 32.601 1.99586 31.9109 2.43C31.6444 2.71575 31.3495 2.97374 31.0309 3.2C30.6109 3.45 29.4009 3.47 29.1709 3.94C28.9409 4.41 29.7509 4.73 29.9109 5.27C28.4609 4.34 27.6109 4.87 26.1209 5.37C25.0587 5.84478 24.0875 6.50129 23.2509 7.31C22.531 7.83797 21.7484 8.27464 20.9209 8.61C20.0409 9.04 21.9209 10.41 22.1709 10.98C21.2964 10.3533 20.3181 9.88613 19.2809 9.6C18.9409 9.6 17.9309 10.6 17.5809 10.84C16.9609 11.23 16.3809 11 15.8309 11.49C15.5244 11.7796 15.1893 12.0376 14.8309 12.26C14.5709 12.39 14.1209 12.64 13.8309 12.74C13.5409 12.84 13.3709 13.19 13.2609 13.58C12.3509 13.8703 11.4909 14.2986 10.7109 14.85C11.5709 15.07 11.8009 15.19 12.0909 15.75C11.5388 15.5024 10.9305 15.407 10.3291 15.4738C9.72775 15.5406 9.1552 15.7672 8.67094 16.13C6.98613 17.144 5.19121 17.9626 3.32094 18.57C2.64094 18.76 0.760937 20.1 0.760937 20.7C1.35094 21.19 2.44094 21.03 3.12094 21.6C3.51094 21.93 3.81094 22.35 4.12094 22.71C4.79705 23.3203 5.55836 23.8289 6.38094 24.22L12.7109 27.59C12.7109 27.94 15.8709 29.23 16.2809 29.5C17.3331 30.2745 18.4282 30.989 19.5609 31.64C21.0409 32.36 22.5609 32.72 23.7809 33.88C24.2509 34.31 24.6509 34.82 25.1309 35.25C26.3344 36.1882 27.6864 36.9183 29.1309 37.41C31.4401 38.3794 33.656 39.5576 35.7509 40.93C35.8501 41.0107 35.9731 41.0564 36.1009 41.06C36.5909 41.01 37.3009 40.37 37.8109 40.19C38.4672 40.031 39.0994 39.7856 39.6909 39.46C40.1109 39.18 40.3709 38.78 40.8209 38.52C41.2709 38.26 41.9509 38.09 42.4609 37.75C42.7709 37.54 43.0309 37.26 43.3609 37.07C44.2009 36.58 45.3609 36.73 46.0209 35.97C45.6279 35.7611 45.2864 35.4673 45.0209 35.11L46.7309 35.3C47.7309 35.42 48.4109 34.14 49.1109 33.59C50.2405 32.8423 51.4475 32.2187 52.7109 31.73C53.6336 31.3249 54.4952 30.7931 55.2709 30.15C55.4116 30.0681 55.5158 29.9356 55.5623 29.7795C55.6087 29.6234 55.5939 29.4555 55.5209 29.31C55.6709 29.31 55.9609 29.56 56.1009 29.55C57.4244 28.8938 58.7037 28.1522 59.9309 27.33C60.4913 26.8098 61.142 26.3964 61.8509 26.11C62.5774 25.7518 63.3378 25.467 64.1209 25.26C64.0282 24.987 63.8447 24.754 63.6009 24.6C64.206 24.5642 64.8125 24.6388 65.3909 24.82C65.7909 24.2 66.7309 24.25 67.3209 23.82C67.5796 23.604 67.8053 23.3513 67.9909 23.07C68.4482 22.4866 69.0378 22.0204 69.7109 21.71C70.0809 21.56 71.6209 21.43 71.3709 20.74ZM43.3709 4.49C44.1609 4.49 44.7409 5.17 45.3709 5.65C45.7509 5.93 46.1909 6.13 46.5809 6.39C48.1109 7.39 50.9109 9.51 51.8809 9.93C52.3709 10.14 52.8809 10.31 53.3809 10.5C55.5493 11.4067 57.6311 12.5079 59.6009 13.79C59.7509 13.88 59.9109 14 59.9109 14.17C59.8888 14.2678 59.8404 14.3577 59.7709 14.43C58.8657 15.3714 57.8074 16.1525 56.6409 16.74C56.2076 17.0335 55.7167 17.2313 55.2009 17.32C54.7509 17.3317 54.3028 17.2571 53.8809 17.1C51.6341 16.4557 49.4515 15.6054 47.3609 14.56C45.3609 13.56 43.6109 11.99 41.6909 10.83C41.1837 10.5462 40.6959 10.2288 40.2309 9.88L38.5809 8.6C38.4841 8.5364 38.4086 8.44525 38.364 8.33831C38.3194 8.23137 38.3079 8.11354 38.3309 8C38.3733 7.89153 38.4462 7.79772 38.5409 7.73C40.049 6.50522 41.6657 5.42072 43.3709 4.49ZM34.0509 1.49C34.4609 1.2 34.8309 0.85 35.2309 0.54C35.319 0.464527 35.4209 0.406801 35.5309 0.37C35.7051 0.346293 35.8824 0.374104 36.0409 0.45C36.4943 0.611067 36.922 0.836727 37.3109 1.12C37.4609 1.24 37.7009 1.39 37.7109 1.6C37.7209 1.81 37.5409 2.02 37.8609 2.03C38.1435 2.00494 38.4273 1.99492 38.7109 2C39.5053 2.19798 40.2484 2.56272 40.8909 3.07C41.2709 3.3 41.7009 3.43 42.0609 3.68C42.1309 3.73 42.2009 3.8 42.1909 3.88C42.1809 3.96 42.1209 4.02 42.0609 4.08C41.3305 4.62752 40.5619 5.12212 39.7609 5.56C39.358 5.8475 38.9408 6.11451 38.5109 6.36C38.116 6.59815 37.688 6.77674 37.2409 6.89C36.8614 6.93138 36.4773 6.8974 36.1109 6.79C35.3563 6.60903 34.6173 6.36827 33.9009 6.07L32.5109 5.46C32.1909 5.33 31.8909 5.16 31.5109 5.04C31.1796 4.9535 30.8605 4.82584 30.5609 4.66C30.3064 4.53861 30.0651 4.39116 29.8409 4.22C29.6609 4.05 29.4209 3.81 29.8409 3.74C30.2916 3.68606 30.7288 3.55051 31.1309 3.34C31.4198 3.13335 31.6847 2.89522 31.9209 2.63C32.446 2.24889 33.0215 1.94262 33.6309 1.72C33.7768 1.63946 33.9171 1.54926 34.0509 1.45V1.49ZM26.9409 5.49C27.3866 5.31735 27.8636 5.24059 28.3409 5.26471C28.8182 5.28883 29.285 5.4133 29.7109 5.63C32.0909 7.27 35.1709 10.01 38.3409 11.43C38.9909 11.73 41.4809 13.06 42.1109 13.43C43.1581 14.0785 44.2509 14.65 45.3809 15.14C45.7709 15.3 47.9909 15.96 47.8609 16.49C47.6792 16.9678 47.3213 17.3578 46.8609 17.58L42.2709 20.58C40.3809 21.83 38.2709 19.08 36.9209 18.12C35.1409 16.87 33.2809 15.71 31.4109 14.58C29.8779 13.6245 28.2883 12.7629 26.6509 12C25.7791 11.6617 24.95 11.222 24.1809 10.69C23.7847 10.3001 23.3638 9.93602 22.9209 9.6C22.7277 9.50528 22.5407 9.3984 22.3609 9.28C21.3609 8.55 24.3609 6.78 24.9209 6.36C25.5222 5.90624 26.2094 5.57961 26.9409 5.4V5.49ZM14.8409 12.62H14.9809C15.5309 12.43 15.8409 11.85 16.3509 11.57C16.8609 11.29 17.4509 11.32 17.9109 11.02C18.3709 10.72 18.7209 10.02 19.3009 10.02C20.1409 9.96 21.0609 11.02 21.7109 11.42C22.3609 11.82 22.9909 12.17 23.6409 12.52C25.7477 13.6613 27.7907 14.9165 29.7609 16.28C30.0579 16.4328 30.2968 16.6787 30.4409 16.98C30.2509 17.09 30.1109 17.27 29.8909 17.38C29.1151 17.7685 28.3131 18.1027 27.4909 18.38C26.639 18.7699 25.8367 19.26 25.1009 19.84C24.5734 20.2476 23.9821 20.5652 23.3509 20.78C23.1293 20.84 22.9006 20.8703 22.6709 20.87C21.8153 20.8344 21.0047 20.4773 20.4009 19.87C20.0909 19.58 14.6009 15.98 12.5509 14.87C12.2909 14.73 12.1409 14.38 12.4909 14.23C12.6217 14.1895 12.7554 14.1594 12.8909 14.14C13.4809 13.97 13.5909 13.14 14.1209 12.83C14.3453 12.6959 14.5878 12.5949 14.8409 12.53V12.62ZM43.9109 36.62C43.2086 36.8422 42.5367 37.1513 41.9109 37.54C41.4809 37.8 41.0109 38.04 40.6009 38.3C40.2787 38.4989 39.9801 38.7337 39.7109 39C39.0309 39.65 37.9409 39.55 37.1009 40C36.7309 40.18 36.3809 40.46 35.9809 40.4C35.79 40.3616 35.6094 40.2832 35.4509 40.17C34.1625 39.3549 32.8268 38.6169 31.4509 37.96C29.9609 37.24 28.3009 36.83 27.0309 35.78C26.4709 35.33 26.0309 34.78 25.4709 34.3C23.7009 32.77 21.2009 32.3 19.3509 30.92C18.9909 30.64 18.6509 30.31 18.2609 30.06C17.6609 29.67 16.9609 29.45 16.4109 29.01C15.7881 28.5769 15.1169 28.2178 14.4109 27.94C12.8202 27.2014 11.2742 26.37 9.78094 25.45C8.48094 24.64 6.99094 24.24 5.78094 23.21C5.14094 22.64 4.62094 21.96 3.96094 21.41C3.34697 20.845 2.54525 20.5279 1.71094 20.52C2.01094 18.77 4.86094 18.63 6.16094 18C6.87094 17.66 7.90094 16.61 8.73094 16.71C8.81694 16.7251 8.90493 16.7251 8.99094 16.71C9.07094 16.71 9.16094 16.62 9.14094 16.53C9.12371 16.4805 9.10018 16.4335 9.07094 16.39C8.85094 15.95 10.9509 15.86 11.2409 15.84C11.3646 15.8149 11.4929 15.8295 11.6078 15.8815C11.7227 15.9336 11.8183 16.0205 11.8809 16.13C12.8473 17.1131 13.9092 17.9974 15.0509 18.77C15.5209 19.15 15.9609 19.57 16.4509 19.92C16.9442 20.2383 17.4587 20.5223 17.9909 20.77C18.6109 21.09 19.2409 21.42 19.8309 21.77C20.4209 22.12 20.9709 22.51 21.5509 22.87C23.2709 23.93 25.1609 24.66 26.8709 25.74C28.1909 26.58 29.3709 27.61 30.6309 28.54C31.9169 29.477 33.282 30.3001 34.7109 31C35.9309 31.58 37.2809 31.92 38.5109 32.52C39.5109 33 40.5109 33.31 41.5109 33.78C42.6609 34.31 43.7809 34.89 44.8809 35.52C44.9427 35.5458 44.9985 35.5839 45.0449 35.6321C45.0913 35.6802 45.1274 35.7374 45.1509 35.8C45.2209 36.07 44.8709 36.22 44.6009 36.28C44.3309 36.34 44.1509 36.43 43.9109 36.5V36.62ZM48.9809 33.34L47.9809 34.16C47.7241 34.4054 47.4066 34.578 47.0609 34.66C46.6009 34.72 46.2109 34.36 45.7809 34.16C41.3809 32 32.8909 26.3 32.0409 26C31.1909 25.7 30.2309 25.39 29.3509 25C27.8093 24.3186 26.3416 23.4809 24.9709 22.5C24.8499 22.443 24.7415 22.3623 24.6521 22.2627C24.5628 22.1631 24.4944 22.0465 24.4509 21.92C24.4353 21.8159 24.4415 21.7098 24.469 21.6082C24.4965 21.5066 24.5449 21.4119 24.6109 21.33C24.9517 20.891 25.3992 20.5467 25.9109 20.33L29.1309 18.68C29.915 18.2072 30.7983 17.9231 31.7109 17.85C32.1815 17.9083 32.6328 18.0724 33.0309 18.33C33.5508 18.6952 34.0392 19.1033 34.4909 19.55C35.1578 19.9942 35.8526 20.395 36.5709 20.75C38.0409 21.57 39.5709 22.37 41.0409 23.12C44.0409 24.63 47.1409 26.01 50.2809 27.23C51.6769 27.8278 53.0419 28.4953 54.3709 29.23C54.5762 29.3113 54.751 29.4546 54.8709 29.64C55.2609 30.43 51.6509 31.53 51.1009 31.81C50.3536 32.2158 49.6441 32.6877 48.9809 33.22V33.34ZM59.1009 27.54L58.6209 27.95C58.1283 28.4057 57.4821 28.6592 56.8109 28.66C55.7509 28.57 54.7409 27.56 53.8109 27.12C52.8809 26.68 51.6209 26.28 50.5509 25.81C49.2109 25.21 47.9709 24.44 46.6809 23.81C46.0467 23.4283 45.3887 23.0876 44.7109 22.79C44.3009 22.65 43.4309 22.57 43.2309 22.12C42.8009 21.18 47.3109 18.83 48.0309 18.49C48.5953 18.1365 49.257 17.9703 49.9215 18.0152C50.5859 18.0601 51.2192 18.3137 51.7309 18.74C54.0565 20.4878 56.6548 21.8393 59.4209 22.74C60.2636 22.9581 61.0813 23.2631 61.8609 23.65C62.0209 23.75 63.5309 24.92 63.4009 24.97C62.242 25.3655 61.1394 25.9101 60.1209 26.59C59.7582 26.8375 59.417 27.1151 59.1009 27.42V27.54ZM63.5109 23.24L62.7109 22.45L61.1509 21.25C60.7609 20.95 60.3809 20.66 59.9709 20.39C59.0609 19.8 58.0509 19.39 57.0909 18.87C57.0259 18.8521 56.967 18.8168 56.9206 18.7679C56.8741 18.7189 56.842 18.6582 56.8276 18.5923C56.8131 18.5264 56.817 18.4578 56.8388 18.394C56.8605 18.3301 56.8993 18.2734 56.9509 18.23C57.9368 16.7383 59.3785 15.6053 61.0609 15C61.1818 14.94 61.3162 14.9125 61.4509 14.92C61.5493 14.9423 61.6437 14.9794 61.7309 15.03L62.4609 15.43L63.3309 15.91C63.9009 16.24 64.4609 16.59 65.0209 16.91C66.7809 18.01 68.5909 18.99 70.3409 20.1C70.5109 20.2 70.8509 20.37 70.9409 20.54C70.9791 20.6399 70.9821 20.7498 70.9494 20.8516C70.9166 20.9535 70.8502 21.0411 70.7609 21.1C70.5863 21.2173 70.3885 21.2957 70.1809 21.33C69.0323 21.6499 68.0292 22.3563 67.3409 23.33C67.268 23.4471 67.1806 23.5546 67.0809 23.65C66.9659 23.7258 66.8415 23.7863 66.7109 23.83L65.9509 24.1C65.4009 24.3 65.0009 24.44 64.5609 24C64.2287 23.6861 63.8781 23.3922 63.5109 23.12V23.24Z" fill="#FFFABD"/>
<path d="M47.1209 35.29C47.2277 35.2639 47.3316 35.227 47.4309 35.18C41.3109 33 35.8909 28.08 30.0509 25.61C29.1309 25.22 28.3409 24.71 27.4109 24.35C26.3906 24.0009 25.4493 23.4538 24.6409 22.74C24.1409 22.27 23.8209 22.11 24.2109 21.48C24.546 21.0757 24.9529 20.7367 25.4109 20.48C26.2809 19.89 27.2409 19.48 28.1309 18.92C28.8603 18.4554 29.6425 18.0794 30.4609 17.8C30.8009 17.69 32.7709 17.11 33.0209 17.45C32.4806 16.7073 31.7166 16.1571 30.8409 15.88C30.9384 16.1252 30.957 16.3946 30.8943 16.6509C30.8316 16.9072 30.6906 17.1375 30.4909 17.31C30.0916 17.6521 29.6298 17.9136 29.1309 18.08C28.0701 18.5471 27.0352 19.0712 26.0309 19.65C25.2274 20.2301 24.3407 20.6853 23.4009 21C21.5109 21.42 20.2209 20.12 18.7509 19.16L15.8209 17.22C14.4002 16.1192 12.8399 15.2114 11.1809 14.52C10.8309 14.71 10.5909 14.86 10.6709 14.88C11.5309 15.1 11.7609 15.22 12.0509 15.78C12.3794 16.1698 12.7336 16.5373 13.1109 16.88C14.5027 18.2488 16.1068 19.3835 17.8609 20.24C20.907 21.7676 23.8619 23.4705 26.7109 25.34C29.9948 27.5773 33.4147 29.6079 36.9509 31.42C39.7439 32.4741 42.4662 33.7066 45.1009 35.11L46.8109 35.3C46.9141 35.3146 47.019 35.3113 47.1209 35.29Z" fill="#D88500"/>
<path opacity="0.5" d="M30.0509 25.61C29.1309 25.22 28.3409 24.71 27.4109 24.35C26.3906 24.0009 25.4493 23.4538 24.6409 22.74C24.4537 22.5882 24.2828 22.4172 24.1309 22.23C23.9288 22.6214 23.8096 23.0504 23.7809 23.49C24.7309 24.06 25.6809 24.65 26.6109 25.28C29.2009 24.98 32.3309 27.46 33.9509 28.38C35.8009 29.43 38.4109 30.5 40.1409 31.74C40.8858 32.2119 41.523 32.8355 42.0109 33.57C43.7509 34.42 45.1209 35.16 45.0809 35.11L46.7909 35.3C46.9 35.3203 47.0119 35.3203 47.1209 35.3C47.2277 35.2739 47.3316 35.237 47.4309 35.19C41.3109 33 35.8909 28.08 30.0509 25.61Z" fill="#A85A0C"/>
<path opacity="0.5" d="M30.8409 15.84C30.9384 16.0852 30.957 16.3546 30.8943 16.6109C30.8316 16.8672 30.6906 17.0975 30.4909 17.27C30.0916 17.6121 29.6298 17.8736 29.1309 18.04C28.0701 18.5071 27.0352 19.0312 26.0309 19.61C25.2299 20.2042 24.3431 20.6729 23.4009 21C21.5109 21.42 20.2209 20.12 18.7509 19.16L15.8209 17.22C14.4002 16.1192 12.8399 15.2114 11.1809 14.52C10.8309 14.71 10.5909 14.86 10.6709 14.88C11.5309 15.1 11.7609 15.22 12.0509 15.78C12.2453 16.0362 12.4666 16.2709 12.7109 16.48C13.1298 16.4666 13.5461 16.5499 13.9276 16.7233C14.3091 16.8967 14.6456 17.1556 14.9109 17.48C16.1454 18.6093 17.5846 19.4918 19.1509 20.08C20.5309 20.67 21.9609 21.4 22.2409 22.61L23.6809 23.46C23.7154 22.9465 23.8372 22.4426 24.0409 21.97C24.0619 21.8057 24.1201 21.6484 24.2109 21.51C24.546 21.1057 24.9529 20.7667 25.4109 20.51C26.2809 19.92 27.2409 19.51 28.1309 18.95C28.8603 18.4854 29.6425 18.1094 30.4609 17.83C30.8009 17.72 32.7709 17.14 33.0209 17.48C32.4915 16.7112 31.7263 16.1356 30.8409 15.84Z" fill="#A85A0C"/>
<path d="M24.1409 22.26C24.0009 22.07 23.9909 21.86 24.2109 21.5C24.546 21.0957 24.9529 20.7567 25.4109 20.5C26.2809 19.91 27.2409 19.5 28.1309 18.94C28.8603 18.4754 29.6425 18.0994 30.4609 17.82C30.8009 17.71 32.7709 17.13 33.0209 17.47C32.4806 16.7273 31.7166 16.1771 30.8409 15.9C30.9384 16.1452 30.957 16.4146 30.8943 16.6709C30.8316 16.9272 30.6906 17.1575 30.4909 17.33C30.0916 17.6721 29.6298 17.9336 29.1309 18.1C28.0701 18.5671 27.0352 19.0912 26.0309 19.67C25.2262 20.2431 24.3395 20.6915 23.4009 21C23.2562 21.0309 23.1089 21.0477 22.9609 21.05C22.9809 21.1057 22.9975 21.1624 23.0109 21.22C23.241 21.8612 23.3528 22.5389 23.3409 23.22L24.0709 23.66C24.0909 23.2 24.1009 22.73 24.1409 22.26Z" fill="#894903"/>
<path d="M56.9209 29.11C56.2057 28.6989 55.4678 28.3283 54.7109 28C52.9909 27.26 51.2909 26.45 49.6009 25.65C48.3509 25.06 47.1109 24.46 45.8709 23.84C45.3609 23.59 42.7609 22.66 42.8209 22.08C42.8827 21.8033 43.0471 21.5603 43.2809 21.4C45.5709 19.4 47.7309 17.51 50.9309 17.3C50.2013 16.7365 49.3836 16.2973 48.5109 16C49.4109 16.35 46.4109 18.3 46.3109 18.37L42.5509 20.88C42.2809 21.0934 41.9666 21.2437 41.6309 21.32C40.7109 21.45 39.4509 20.42 38.7409 19.93C34.226 16.8288 29.5421 13.981 24.7109 11.4C23.9809 11 21.8309 9 21.1109 8.52C19.6809 8.97 21.4509 10.11 22.0109 10.76C22.0842 10.8499 22.1681 10.9305 22.2609 11C24.2009 12.47 34.7109 19 37.7109 21C39.0809 21.89 54.0309 28.59 55.4309 29.35C55.5809 29.35 55.8709 29.6 56.0109 29.59C56.1509 29.58 56.4309 29.37 56.9209 29.11Z" fill="#D88500"/>
<path opacity="0.5" d="M43.7709 23.63C44.5334 23.5377 45.3068 23.6374 46.0209 23.92L45.9109 23.86C45.4009 23.61 42.8009 22.68 42.8609 22.1C42.9227 21.8233 43.0871 21.5803 43.3209 21.42C45.6109 19.42 47.7709 17.53 50.9709 17.32C50.2305 16.7455 49.399 16.2994 48.5109 16C49.4109 16.35 46.4109 18.3 46.3109 18.37C45.0509 19.2033 43.7976 20.04 42.5509 20.88C42.2809 21.0934 41.9666 21.2437 41.6309 21.32C40.7109 21.45 39.4509 20.42 38.7409 19.93C34.226 16.8288 29.5421 13.981 24.7109 11.4C23.9809 11 21.8309 9 21.1109 8.52C19.6809 8.97 21.4509 10.11 22.0109 10.76C22.0842 10.8499 22.1681 10.9305 22.2609 11L22.6709 11.3C22.6663 11.2803 22.6663 11.2597 22.6709 11.24C22.6709 10.98 23.0209 10.93 23.2109 11.02C23.4361 11.1215 23.6506 11.2455 23.8509 11.39C24.3705 11.5872 24.8563 11.8638 25.2909 12.21C27.0509 13.44 29.0009 14.33 30.7809 15.53C33.1509 17.13 35.6809 18.46 38.0709 20.02C39.0456 20.578 39.8641 21.3724 40.4509 22.33L43.5509 23.79C43.5746 23.7496 43.6064 23.7146 43.6442 23.687C43.6821 23.6595 43.7252 23.6401 43.7709 23.63Z" fill="#A85A0C"/>
<path opacity="0.5" d="M54.7109 28C52.9909 27.26 51.2909 26.45 49.6009 25.65L47.7109 24.76C48.9109 25.47 50.0509 26.35 51.0709 26.94C52.0909 27.53 54.8609 27.94 55.0009 29.1L55.4309 29.31C55.5809 29.31 55.8709 29.56 56.0109 29.55C56.1509 29.54 56.3909 29.37 56.8809 29.11C56.1787 28.7002 55.4542 28.3296 54.7109 28Z" fill="#A85A0C"/>
<path d="M42.8909 22.24C42.877 22.1944 42.877 22.1456 42.8909 22.1C42.9527 21.8233 43.1171 21.5803 43.3509 21.42C45.6409 19.42 47.8009 17.53 51.0009 17.32C50.2514 16.7426 49.4095 16.2963 48.5109 16C49.4109 16.35 46.4109 18.3 46.3109 18.37L42.5509 20.88C42.2809 21.0934 41.9666 21.2437 41.6309 21.32C41.9071 21.8783 42.0831 22.4808 42.1509 23.1L42.9409 23.47C42.9109 23.07 42.9009 22.65 42.8909 22.24Z" fill="#894903"/>
<path d="M61.1509 14.47L60.7109 14.21C59.2765 15.397 57.7443 16.4607 56.1309 17.39C55.8349 17.6006 55.4914 17.7346 55.1309 17.78C54.8618 17.8099 54.5901 17.8099 54.3209 17.78C52.9862 17.4598 51.6939 16.9832 50.4709 16.36C48.9343 15.7711 47.429 15.1035 45.9609 14.36C44.3575 13.4639 42.8439 12.4157 41.4409 11.23C40.8009 10.72 37.5709 8.69 37.9409 7.94C38.0551 7.73564 38.212 7.55829 38.4009 7.42C39.9312 6.11769 41.6094 5 43.4009 4.09L42.8909 3.82C42.4851 4.17418 42.0464 4.48893 41.5809 4.76L38.2309 6.8C37.9281 7.01016 37.5891 7.16271 37.2309 7.25C35.8609 7.52 34.6909 6.72 33.4909 6.16C32.1209 5.5 30.3409 5.05 29.1509 4C29.1475 4.03993 29.1475 4.08007 29.1509 4.12C29.146 4.15985 29.146 4.20015 29.1509 4.24V4.31C29.226 4.39169 29.3061 4.46851 29.3909 4.54C29.58 4.67832 29.7285 4.86479 29.8209 5.08C32.1909 6.74 34.2409 8.4 36.8209 9.89C40.4309 12.02 44.2609 13.74 47.8909 15.82C51.7109 18.02 55.2309 20.71 59.4509 22.14C60.9417 22.6193 62.3219 23.391 63.5109 24.41C63.7474 24.3949 63.9845 24.3949 64.2209 24.41C64.4265 24.4279 64.6304 24.4613 64.8309 24.51C64.6609 24.51 64.2309 23.94 64.0909 23.82C63.4243 23.24 62.7243 22.68 61.9909 22.14C60.9909 21.4 59.9909 20.69 58.9909 20.04C58.4609 19.71 56.3109 18.89 56.4209 18.16C56.4947 17.8828 56.6518 17.635 56.8709 17.45C58.1454 16.2542 59.5872 15.2503 61.1509 14.47Z" fill="#D88500"/>
<path opacity="0.5" d="M64.1309 24C63.4643 23.42 62.7643 22.86 62.0309 22.32C61.0309 21.58 60.0309 20.87 59.0309 20.22C58.5009 19.89 56.3509 19.07 56.4609 18.34C56.5347 18.0628 56.6918 17.815 56.9109 17.63C58.165 16.3615 59.6007 15.2864 61.1709 14.44L60.7109 14.21C59.2765 15.397 57.7443 16.4607 56.1309 17.39C55.8349 17.6006 55.4914 17.7346 55.1309 17.78C54.8618 17.8099 54.5901 17.8099 54.3209 17.78C52.9862 17.4598 51.6939 16.9832 50.4709 16.36C48.9343 15.7711 47.429 15.1035 45.9609 14.36C44.3575 13.4639 42.8439 12.4157 41.4409 11.23C40.8009 10.72 37.5709 8.69 37.9409 7.94C38.0551 7.73564 38.212 7.55829 38.4009 7.42C39.9312 6.11769 41.6094 5 43.4009 4.09L42.8909 3.82C42.4851 4.17418 42.0464 4.48893 41.5809 4.76L38.2309 6.8C37.9281 7.01016 37.5891 7.16271 37.2309 7.25C35.8609 7.52 34.6909 6.72 33.4909 6.16C32.1209 5.5 30.3409 5.05 29.1509 4C29.1475 4.03993 29.1475 4.08007 29.1509 4.12C29.146 4.15985 29.146 4.20015 29.1509 4.24V4.31C29.226 4.39169 29.3061 4.46851 29.3909 4.54C29.58 4.67832 29.7285 4.86479 29.8209 5.08C30.4309 5.51 31.0209 5.93 31.6009 6.36C33.3685 6.4801 35.0463 7.18355 36.3709 8.36C36.7823 8.84758 37.0275 9.45358 37.0709 10.09C37.4809 10.33 37.8909 10.54 38.3009 10.77C38.6809 9.97 39.6009 10.02 40.4509 10.83C41.1409 11.5 41.7509 12.27 42.4509 12.97C44.2609 13.9 46.0909 14.83 47.8609 15.85L48.1209 16.01C48.8288 16.1263 49.5078 16.3775 50.1209 16.75C51.0389 17.1426 51.9807 17.4766 52.9409 17.75C53.407 17.8784 53.8159 18.1607 54.101 18.5511C54.386 18.9416 54.5306 19.417 54.5109 19.9C55.2109 20.3 55.9309 20.68 56.6609 21.04C56.6704 20.815 56.7555 20.5998 56.9025 20.4292C57.0495 20.2586 57.2498 20.1426 57.4709 20.1C58.0902 20.0741 58.6967 20.281 59.1709 20.68C60.1916 21.3701 61.0568 22.2659 61.7109 23.31C62.3629 23.682 62.9789 24.1139 63.5509 24.6C63.7874 24.5849 64.0245 24.5849 64.2609 24.6C64.4665 24.6179 64.6704 24.6513 64.8709 24.7C64.7109 24.69 64.2709 24.15 64.1309 24Z" fill="#A85A0C"/>
<path d="M38.0909 10.77C38.134 9.92508 38.0972 9.07799 37.9809 8.24C37.9564 8.18492 37.9437 8.12529 37.9437 8.065C37.9437 8.0047 37.9564 7.94508 37.9809 7.89C38.0952 7.68564 38.252 7.50829 38.4409 7.37C39.9712 6.06769 41.6494 4.95 43.4409 4.04L42.9309 3.77C42.5251 4.12418 42.0864 4.43893 41.6209 4.71L38.2309 6.8C37.9281 7.01016 37.5891 7.16271 37.2309 7.25H37.0309C37.2629 8.25924 37.3538 9.29578 37.3009 10.33C37.5809 10.49 37.8409 10.62 38.0909 10.77Z" fill="#894903"/>
<path d="M56.5109 21C56.5109 20.23 56.4209 19.47 56.5109 18.71C56.4572 18.6235 56.436 18.5207 56.4509 18.42C56.5247 18.1428 56.6817 17.895 56.9009 17.71C58.155 16.4415 59.5907 15.3664 61.1609 14.52L60.7109 14.21C59.2765 15.397 57.7443 16.4607 56.1309 17.39C55.8828 17.5541 55.609 17.6758 55.3209 17.75C55.4717 18.6788 55.5386 19.6192 55.5209 20.56C55.8409 20.74 56.1709 20.91 56.5209 21.07C56.5009 21 56.5109 21 56.5109 21Z" fill="#894903"/>
</g>
<defs>
<clipPath id="clip0_9:7085">
<rect width="70.75" height="46.41" fill="white" transform="translate(0.710938)"/>
</clipPath>
</defs>
</svg>
